<?xml version="1.0" encoding="utf-8"?>
<!-- Generator: Adobe Illustrator 27.0.0, SVG Export Plug-In . SVG Version: 6.00 Build 0)  -->
<svg version="1.1" id="_Слой_1" xmlns="http://www.w3.org/2000/svg" xmlns:xlink="http://www.w3.org/1999/xlink" x="0px"
	 y="0px" viewBox="0 0 323 110" style="enable-background:new 0 0 323 110;" xml:space="preserve">
<style type="text/css">
	.st0{fill-rule:evenodd;clip-rule:evenodd;fill:#C7C7C7;}
	.st1{fill:#C7C7C7;}
</style>
<g>
	<g>
		<g>
			<path class="st0" d="M20.7,76.5c0.7-2.4,2.2-3.7,4.6-4.1c2.4-0.4,5-1.7,7.9-3.1c1.2-0.9,1.4-0.5,0.5,1.3l-1.4,1.6
				c-0.7,0.8-0.9,1.7,0.1,2.5c1.4,0.7,2,1.3,1.7,1.9c-1.5-0.4-2.9-0.2-4.1,0.9c-0.9-0.2-1.9-0.1-3.3,0.6c-0.7-0.4-1.5-0.4-2.5-0.2
				c-0.2-0.6-0.9-0.8-2.1-0.6C21.9,76.9,21.3,76.7,20.7,76.5L20.7,76.5z M47,22.6c0-0.3,1.1-1,2.4-2c0.6-0.5,1.2-0.7,1.7-0.7
				c0.2,0,0.4,0.1,0.7,0c0.3,0.2,0.2,0.4-0.2,0.4c-0.2-0.1-0.3-0.2-0.5-0.1c-0.4,0.1-0.4,0.3-0.7,0.4l-0.2-0.2
				c-0.5,0.3-0.8,1.2-1.2,1.7l-0.1-0.4c-0.2,0-0.4,0.6-0.8,0.9c0-0.3,0-0.5-0.2-0.5C47.6,22.6,47.2,22.8,47,22.6L47,22.6z
				 M30.9,43.9c0.4,0,0.7,0.1,0.7,0.2c0,0.2-0.3,0.3-0.7,0.3c-0.4,0-0.7-0.1-0.7-0.3C30.1,44,30.5,43.9,30.9,43.9L30.9,43.9z
				 M33.6,43.3c0.2-0.4,0.5-0.5,0.6-0.4c0.1,0.1,0,0.5-0.2,0.8c-0.2,0.4-0.5,0.6-0.6,0.4C33.3,44.1,33.4,43.7,33.6,43.3L33.6,43.3z
				 M32.7,43.8c0.2-0.3,0.4-0.4,0.4-0.4c0.1,0.1,0,0.4-0.2,0.7c-0.2,0.3-0.4,0.4-0.5,0.4C32.4,44.4,32.5,44.1,32.7,43.8L32.7,43.8z
				 M31.9,44c0.2-0.2,0.3-0.4,0.4-0.3c0.1,0.1,0,0.3-0.1,0.6c-0.2,0.2-0.3,0.3-0.4,0.3C31.7,44.4,31.8,44.2,31.9,44L31.9,44z
				 M18.4,41.1l-0.2,0.4c0.2,0,0.4-0.2,0.6-0.4l-0.2,0.7c0.2,0,0.8-0.6,1.2-0.9l-0.3,0.7c0.4,0,0.6-0.5,0.9-0.8l-0.2,0.8
				c0.4,0,0.7-0.6,1.1-0.9l-0.1,0.7c0.3,0,0.6-0.5,0.9-0.8l0.2,0.5c0.3,0,0.4-0.4,0.7-0.5l0.1,0.5l0.6-0.6l0.1,0.5l0.7-0.2l0.2,0.3
				l0.6-0.3l0,0.6l0.8-0.3l0.1,0.4l0.6-0.3v0.5l0.7-0.2l0,0.5l1-0.4l-0.3,0.7l0.9-0.5l-0.1,0.6l0.9-0.4L29.2,43
				c0.6,0,0.8-0.4,1.2-0.6l-0.3,0.8c0.6-0.1,1.1-0.6,1.7-1.3c0.1,0.2,0,0.5-0.4,1.2c0.7-0.3,1-0.7,1.2-1.2l-0.2,0.9
				c0.4,0,0.8-0.4,1.2-0.9l0,0.8c0.3-0.2,0.6-0.6,0.7-1c0.4,0.2,0.9-0.1,1-0.7c0.2-0.6,0.1-0.8-0.4-0.6c-1.7,1.2-4.1,1.5-7.5,0.5
				c-2.2-0.6-4.5-0.7-6.8-0.8C19.6,40,18.8,40.2,18.4,41.1L18.4,41.1z M23.5,32.4c0.2-0.3,0.5-0.5,0.9-0.8l0.1,0.4l1-0.3l0.1,0.3
				l1.1-0.6c-0.6,0.8-0.7,1.1-0.5,1.1c0.2,0,0.9-0.9,1.2-0.7c-0.5,0.8,0,0.6,0.9-0.2c0.2,0.1-0.3,0.7-0.2,0.7
				c0.1,0.1,0.4-0.2,1.1-0.6c0.2-0.1,0.5-0.5,0.6-0.3c0,0.2-0.2,0.4-0.3,0.5c-0.7,0.8-0.5,0.7,0.7-0.1c0.2-0.1,0.4-0.3,0.6-0.2
				c-0.8,1-0.4,0.8,0.7,0.1c0.2-0.1,0.4-0.4,0.6-0.2c-1.4,1.3-1.2,1.4,0.7,0.5c-0.9,1-0.7,1,0.7,0.2c0.1,0,0.3,0,0.4-0.1
				c-0.6,0.6-0.7,1.1-0.4,0.9c0.4-0.2,1-0.4,1.3-0.4c-0.6,0.6-0.5,0.8,0.2,0.7c0.2,0.1,0,0.4-0.7,0.9c-0.1,0.2-0.2,0-0.4-0.5
				c-0.1,0.3-0.2,0.3-0.3,0.1L33,35l-0.2,0v-0.6c-0.1-0.2-0.2-0.2-0.4,0l-0.2,0.8L31.8,35c-0.1,0.3-0.3,0.6-0.6,0.8
				c-0.2-0.3-0.4-0.2-0.5,0c-0.2,0-0.2-0.1-0.4,0c-0.1,0.4-0.2,0.4-0.4,0.2c-0.3,0.2-0.6,0.4-0.9,0.7l-0.2-0.4
				c-0.3,0.4-0.5,0.7-0.7,0.6l-0.3-0.3l-0.4,0.7l-0.7,0.2c0,0.2,0.3,0.2,0.8,0.1c0.7-0.1,1.9-0.4,2.7-0.6c0.8-0.2,1.7-0.4,2.7-0.8
				c0.8-0.4,1.7-1,2.6-1.5c0.2,0.2,0,0.6-1.7,1.9l-0.8-0.2l0.4,0.6c-0.2,0.2-0.4,0.3-0.6,0.2l-0.7-0.4l0.2,0.8
				c-0.5,0-0.8-0.7-1.3-0.4l0.2,0.6l-1.1-0.3l0.2,0.7L29.4,38l-0.2,0.4c-0.3,0-0.4,0.1-0.5,0.2c2.2,0.4,4.5-0.4,7-1.6
				c0.1,0,0.2,0,0.2,0.2c-0.2,1-0.9,1.8-2,2.6l0.3-1.3c-0.7,0.3-1.5,1.9-2.2,2.1l0.7-1.7l-1.9,1.6c-0.2-0.2,0.1-0.7,0.5-1.2
				c-0.6,0-1.5,1.3-1.7,1.3c-0.4-0.2,0.3-0.6,0.5-0.9c-0.5,0-0.9,0.4-1.3,0.7c0-0.2,0.2-0.5,0.7-1l-1.6,0.7c0-0.3,0.6-0.5,0.7-0.9
				C27.9,39.7,27.2,40,27,40l0.5-0.8l-1.4,0.7L27,39l-1.5,0.7l0.4-0.8l-1.1,0.7l0.4-0.9c-0.5,0.4-1,0.7-1.3,0.7
				c0.3-0.4,0.5-0.7,0.4-0.9c-0.5,0.4-1,0.7-1.2,0.7l0.2-0.7c-0.4,0.4-0.9,0.7-1.3,0.9l0.5-0.8c0.1-0.1,0-0.3-0.1-0.2l-1.1,0.9
				c0.2-0.4,0.4-0.7,0.2-0.9L20.9,39l0.1-0.4l-0.9,1c-0.1,0,0-0.3,0.2-0.7l-0.9,0.6c0.5-1,1.3-1.6,2.4-2C23,37,24,37,24.8,36.9
				c1.4-0.2,2.3-0.3,3.5-0.9c0.5-0.2,1.1-0.4,1.8-1c0.3-0.2,0.2-0.3-0.2-0.3l-1.5,0.1v-0.7L27.9,35l-0.1-0.8l-0.5,1.3L27,34
				l-0.4,1.7L26.5,34l-0.6,1.9l-0.2-2l-0.4,2l-0.4-2l-0.2,2L24.3,34l-0.2,1.8L23.6,34l0,2L23,34.1l-0.1,1.7l-0.4-1.6l-0.2,1.5
				L22,34.2l-0.2,1.5c-0.6-1.1-0.9-2.1-0.4-2.6C21.9,32.4,22.7,32.2,23.5,32.4L23.5,32.4z M28.2,27.9c0.1,0,0.2,0.2,0.3,0.4
				c0.1,0.3,0.1,0.5,0,0.5c-0.1,0-0.2-0.2-0.3-0.4C28.1,28.2,28.1,28,28.2,27.9L28.2,27.9z M24,27.4c0.6-0.9,1.1-1.2,1.4-0.5
				c0.4-1.3,0.9-1.4,1.4-0.3c0.8,0,0.9,1.2,0.8,2.9l-0.7-2v1.3C26.5,26.7,23.3,28,24,27.4L24,27.4z M37.5,20.4
				c0.9,0.1,1.8,0.4,2.6,0.9c0,0.1,0.1,0.2-0.1,0.1c-0.3-0.2-0.6-0.4-0.9-0.4c0.1,0.4,0,0.5-0.1,0.5c-0.3-0.6-0.6-0.7-0.9-0.5
				c-0.1,0-0.1,0.1-0.2,0c-0.2-0.5-0.4-0.5-0.5-0.3C37.3,20.5,37.3,20.4,37.5,20.4L37.5,20.4z M32.9,20.6c-0.2,0.1-0.2,0.2,0,0.2
				c0.3-0.2,0.6-0.3,0.9,0.1c0-0.5,0.2-0.5,0.7,0.2c-0.2-0.7,0-0.8,0.7,0.2c0-0.5,0-0.6,0.5,0.3c0.1,0.2,0.2,0.2,0.3,0.1
				c-0.2-0.9-0.1-0.9,0.4,0.1c0.2,0.2,0.2,0.2,0.2,0.1c0-0.7,0.2-0.5,0.9,0.4c0.2,0.2,0.2,0.3,0.3,0.1c-0.1-0.5,0.1-0.5,0.7,0.2
				c0.4,0,1,0.3,1.7,0.9c0.1,0.1,0.2,0.2,0.2,0.1c-0.4-0.7,0.1-0.4,0.7,0c0.4-0.2,0.4-0.3,0.2-0.4c-1.4-0.5-2.5-1-3.3-1.6
				c-0.9-0.7-1.3-0.5-2.4-1.2C34.6,19.8,33.7,20,32.9,20.6L32.9,20.6z M30.9,21.9c-0.5,0.2-0.5,0.4,0,0.4c0.2,0,0.4,0,0.5,0
				c0.3,0,0.4,0,0.5,0.2c0.2,0.4,0.4,0.6,0.7,0.4c0.1-0.1-0.8-0.8-0.3-0.8h0.2c0.7,0.7,1.3,1,1.3,0.9l-0.3-0.7
				c-0.1-0.2,0.3-0.1,0.4,0l0.9,0.8c0.1,0.2,0-0.1-0.2-0.7c-0.1-0.2,0.2-0.2,0.3,0c0.6,0.6,1.3,1.5,1.3,1.2v-0.4
				c0-0.2,0.2-0.2,0.3,0c0.3,0.4,0.8,0.8,0.7,0.6l-0.1-0.3c0-0.2,0.1-0.2,0.4,0l1,0.8c0.2,0.2,0.4,0.1,0.3,0l-0.2-0.2
				c-0.1-0.2,0-0.2,0.2-0.1l0.9,0.6c0.2,0.1,0.2,0-0.1-0.4h0.5c0.1,0.3,0.3,0.4,0.8,0.6c0.1,0.1,0.2-0.1,0.4-0.2l1.2-0.4
				c0.4-0.1,0.3-0.4,0-0.3c-1.7,0.4-3.5-0.4-5.4-1.5C34.7,21.3,32.6,21.3,30.9,21.9L30.9,21.9z M47.7,22.8c0.1,0.1,0,0.2-0.1,0.4
				c-0.1,0.1-0.3,0.2-0.4,0.1c0-0.1,0-0.2,0.1-0.4C47.5,22.8,47.6,22.8,47.7,22.8L47.7,22.8z M49,23.2c-0.3-0.2-0.4,0.3,0.1,0.1
				l0.7-0.6c0.3-0.6,0.1,0.2,0.3,0.1c0.2-0.1,0.6-0.8,0.5-1.1l0.6-0.3c0.3-0.3,0.2-0.4-0.2-0.4c-0.5,0.4-1.1,0.9-1.5,1.5L49,23.2
				L49,23.2z M78.4,69.2l0.4-0.9c0.2-0.3,0.4-0.3,0.5,0l1,0.9c-0.2,0.2-0.7,0.2-1,0.3l0.3,0.5l-0.3,0.2l-0.1,0.4
				C78.5,70.1,78.2,69.7,78.4,69.2L78.4,69.2z M79.2,66.3c0.1,0,0.2,0.4,0.2,0.8c0,0.4-0.1,0.8-0.2,0.8c-0.2,0-0.2-0.4-0.2-0.8
				C79,66.6,79.1,66.3,79.2,66.3L79.2,66.3z M78.7,63c0.1-0.1,0.3,0.1,0.4,0.3c0.2,0.2,0.2,0.5,0.1,0.5c-0.1,0-0.3-0.1-0.4-0.3
				C78.6,63.2,78.6,63,78.7,63L78.7,63z M81.3,59c-0.1-0.1-0.2-0.1-0.4,0c-0.4,0.5-0.5,0.9-0.3,1.3l0.9,0.7c0.3,0.2,0.6,0.1,0.4-0.1
				l-0.3-0.4c0.2,0.1,0.4,0.3,0.6,0.3c0.2,0,0.2-0.2,0-0.4c-0.3-0.3-0.4-0.4-0.2-0.7c0.1-0.1,0.1-0.2,0-0.2L81.3,59L81.3,59z
				 M81.3,55.2c-0.4-0.5-0.3-0.8,0.2-0.7c-0.5-0.8,0-0.9,0.5-0.1c0.2,0.4,0.3,1.1,0.2,2c0,0.2-0.3,0.3-0.4,0
				C81.6,55.8,81.5,55.5,81.3,55.2L81.3,55.2z M81.6,58.4l0.2-0.9c0-0.2,0.1-0.2,0.2,0c0.3,0.4,0.6,0.8,0.7,1.5
				c0.1,0.3,0,0.4-0.2,0.5c-0.2,0-0.4-0.1-0.7-0.3C81.6,58.9,81.5,58.7,81.6,58.4L81.6,58.4z M67.2,48c0-1.7,0.2-3.1,0.2-4.4
				c0-0.5,0.4-0.5,0.4,0.1c0.1,1.3-0.1,2.7-0.2,4.1C67.6,48.1,67.2,48.5,67.2,48L67.2,48z M69.5,54.8c0.1,0,0.1,0.1,0.1,0.2
				c0,0.1,0,0.2-0.1,0.2S69.4,55,69.4,55C69.4,54.9,69.5,54.8,69.5,54.8L69.5,54.8z M65.5,48.8l0.2-0.1c0,0,0.1,0,0.2,0l0.6,0.8
				c0,0,0,0.1,0,0.2l-0.2,0.1c0,0-0.1,0-0.2,0l-0.7-0.8C65.4,48.9,65.4,48.8,65.5,48.8L65.5,48.8z M71.4,53.1l0.2-1.6l-0.3,0.6
				c-0.2,0-0.3-0.2-0.3-0.7c0-0.6,0-0.8,0.3-0.7l0.2,0.5l0.2-0.4c0.3-0.2,0.3,0,0.2,0.5l-0.1,1.7C71.7,53.4,71.5,53.8,71.4,53.1
				L71.4,53.1z M75.7,48.1c-0.2-0.3-0.3-0.7,0-1c0.2-0.3,0.6-0.3,0.9-0.1c0.2,0.1,0.3,0.3,0.3,0.4l-0.5,0.2l0.6,0.2
				c0.3,0.3,0,0.8-0.2,0.4c-0.2-0.2-0.5-0.3-0.8-0.1C76,48.3,75.9,48.4,75.7,48.1L75.7,48.1z M69.8,51c0.1,0,0.2,0.1,0.4,0.3
				c0.1,0.2,0.1,0.4,0,0.4c-0.1,0.1-0.2-0.1-0.3-0.3C69.7,51.3,69.7,51,69.8,51L69.8,51z M66,50.6c0.1,0,0.2,0.1,0.4,0.3
				c0.1,0.2,0.1,0.4,0,0.5c-0.1,0-0.2-0.1-0.4-0.3C66,50.9,66,50.7,66,50.6L66,50.6z M67.1,48.7c0.3,0,0.7,0.3,0.7,0.7
				c0.1,0.5-0.1,0.9-0.4,1c-0.3,0-0.7-0.2-0.8-0.7C66.7,49.1,66.8,48.7,67.1,48.7L67.1,48.7z M67.7,51.3c-0.2-0.8,0.1-0.9,0.4-0.2
				c0.4,1.1,0.7,2.4,0.7,4c0,0.6-0.5,0.7-0.5,0.1C68,53.9,68,52.5,67.7,51.3L67.7,51.3z M72.4,52.6c0-0.8,0.2-1.6,0.5-2.4
				c0.1-0.4,0.3-0.4,0.5-0.2c0.7-1.2,0.6-0.5,0.2,0.4l0.2,0.1c0.9-1.7,0.5-0.3,0.4,0.4c-0.7,0.8-1.1,1-1.3,0.4l-0.2,1.1
				C72.6,52.9,72.5,53,72.4,52.6L72.4,52.6z M52.3,86.1c0-0.2-0.1-0.4-0.2-0.6c0,0.2,0.1,0.5,0.1,0.7L52.3,86.1L52.3,86.1z
				 M47.8,76.9c0.1,0,0.2,0.2,0.4,0.6c0.1,0.4,0.1,0.7,0,0.7c-0.1,0-0.2-0.2-0.3-0.6C47.8,77.2,47.7,76.9,47.8,76.9L47.8,76.9z
				 M48.7,76.7c0.1,0,0.2,0.4,0.2,0.8c0,0.4-0.1,0.8-0.2,0.8c-0.1,0-0.2-0.4-0.2-0.8C48.5,77.1,48.6,76.7,48.7,76.7L48.7,76.7z
				 M49.4,77c0.1,0,0.2,0.3,0.2,0.7c0,0.4-0.1,0.7-0.2,0.7c-0.1,0-0.2-0.3-0.2-0.7C49.2,77.3,49.2,77,49.4,77L49.4,77z M50.1,76.8
				c0.1,0,0.2,0.4,0.2,0.8c0,0.4-0.1,0.8-0.2,0.8c-0.1,0-0.2-0.4-0.2-0.8C49.9,77.1,50,76.8,50.1,76.8L50.1,76.8z M50.8,76.5
				c0.1,0,0.2,0.4,0.1,0.9c-0.1,0.4-0.2,0.9-0.3,0.9c-0.1,0-0.1-0.4-0.1-0.9C50.6,77,50.7,76.5,50.8,76.5L50.8,76.5z M51.8,76.5
				c0.1,0,0.1,0.4,0,0.9c-0.1,0.5-0.2,0.9-0.3,0.9c-0.1,0-0.1-0.4,0-0.9C51.5,76.9,51.7,76.5,51.8,76.5L51.8,76.5z M52.5,76.1
				c0.1,0,0.3,0.6,0.2,1.2c-0.1,0.6-0.3,1.1-0.4,1.1c-0.1,0,0-0.5,0-1.1C52.5,76.6,52.5,76,52.5,76.1L52.5,76.1z M48.4,80.7
				c0,0,0.1,0.1,0.2,0.3c0.1,0.2,0.1,0.4,0.1,0.4c0,0-0.2-0.1-0.2-0.3C48.4,80.9,48.4,80.7,48.4,80.7L48.4,80.7z M49,80.5
				c0.1,0,0.2,0.2,0.3,0.4c0.1,0.2,0.1,0.4,0,0.4C49,81.4,49.1,81.2,49,81C48.9,80.8,48.9,80.5,49,80.5L49,80.5z M54,79.6
				c-0.2,1.1-0.2,1.4-0.7,1.7c0.2-0.7,0.1-1.1,0.1-1.3c-0.1,0-0.2,0.1-0.3,0.1c0,0,0,0.1,0,0.1c0,0.4,0,0.9-0.4,1.6
				c0-0.6,0.2-1.1,0.2-1.7c-0.1,0-0.2,0.1-0.3,0.1c0,0.1,0,0.5,0,0.6c0,0.2-0.3,0.9-0.3,0.9c0,0,0.2-1.2,0.1-1.4
				c-0.1,0-0.2,0-0.3,0.1c0,0,0,0.1,0,0.2c0,0.1,0,0.2-0.1,0.2c0,0-0.1-0.1-0.1-0.2c0,0,0-0.1-0.1-0.2c0,0-0.1,0-0.2,0v0
				c0,0.1,0,0.2,0,0.2c0,0-0.1-0.1-0.2-0.2c-0.1,0-0.2,0-0.2,0c0,0.2,0,0.3-0.1,0.4c-0.2,0.1-0.2-0.1-0.2-0.3c-0.1,0-0.2,0-0.4,0.1
				c0,0.2,0,0.3,0,0.3c0,0-0.1-0.1-0.2-0.2c-0.1,0-0.2,0-0.3,0c0,0.2,0,0.2,0,0.3c0,0-0.1-0.1-0.2-0.2l0,0c0,0,0,0,0,0
				c0,0,0-0.1-0.1-0.2c-0.1-0.2-0.2-0.5-0.1-0.5c0.1,0,0.2,0.1,0.3,0.4c0,0.1,0.1,0.2,0.1,0.3c0.1,0,0.2-0.1,0.3-0.1
				c0-0.1,0-0.1,0-0.2c-0.1-0.3-0.1-0.6,0-0.7c0.1,0,0.2,0.2,0.3,0.5c0,0,0,0.1,0,0.2c0.1,0,0.2-0.1,0.3-0.1c0-0.2,0-0.3,0-0.4
				c0-0.2,0-0.2,0-0.2c0,0,0.2,0.2,0.3,0.6c0.1,0,0.1,0,0.2-0.1c0,0,0,0,0-0.1c-0.1-0.2-0.1-0.3-0.1-0.5c0-0.1,0-0.2,0-0.2
				c0,0,0.2,0.3,0.3,0.6c0,0,0,0.1,0,0.1c0.1,0,0.1,0,0.2-0.1c0,0,0,0,0-0.1c0-0.2,0-0.4,0-0.6c0-0.2,0-0.2,0.1-0.2
				c0,0,0.1,0.1,0.1,0.2c0,0.2,0.1,0.4,0.1,0.6l0,0c0.1,0,0.2,0,0.2-0.1c0-0.2,0-0.2,0-0.3c0-0.1,0-0.2,0.1-0.2c0,0,0.1,0.2,0.2,0.4
				c0.1,0,0.2-0.1,0.3-0.1c0-0.2,0-0.3,0-0.4c0-0.1,0-0.2,0.1-0.2c0,0,0.1,0,0.1,0.2c0,0.1,0.1,0.2,0.1,0.4c0.1,0,0.2,0,0.2-0.1l0,0
				c0-0.2,0-0.5,0-0.7c0-0.2,0.1-0.3,0.1-0.3c0,0,0.1,0,0.1,0.2c0,0.2,0,0.4,0,0.6c0.1,0,0.2-0.1,0.2-0.1c0.3-1.1,0.7-2.7,0.7-4.1
				c-0.1-0.2-0.2-0.3-0.2-0.4c-0.1,1.5-0.2,2.8-0.7,3.7c0.2-1.3,0.3-2.6,0-4.1h0c0,0,0,0-0.1,0c0,1.7,0,3-0.4,4
				c0.2-1.3,0.1-2.8-0.4-4.4c-0.1,0-0.2-0.1-0.2-0.1c0.4,0.3,0.3,1.6,0.1,1.8c-0.2-0.8,0-1-0.7-1.5c-0.1,0-0.1,0-0.2,0
				c0.4,0.4,0.4,1,0.3,1.5c-0.2-0.4-0.5-1-0.9-1.3c-0.1,0-0.2,0-0.4,0c0.5,0.6,0.5,0.7,0.4,1.2c-0.2-0.5-1-0.9-1.3-1.1
				c-0.2,0-0.2,0-0.4,0c0.4,0.2,1,0.9,0.8,1.2c-0.3-0.3-0.9-0.7-1.1-1.1c-0.2,0-0.1,0.1-0.2,0.1c0.1,0.2,0,0.4,0,0.7
				c-0.4-0.1-0.6-0.1-1-0.6c-0.1,0-0.2,0-0.2,0c0,0.1,0.2,0.4,0.2,0.5c-0.1-0.1-0.9-0.6-1-0.7c0,0,0.2,0-0.3-0.1
				c0,0.1,0.3,0.8,0.4,0.9c-0.1-0.1-0.7-0.8-0.8-0.9c-0.2,0-0.4,0-0.6-0.1l-0.4-0.6c1.8,0.1,3.9,0,6.3-0.4l2.3-0.4
				c0.8-0.2,1.3,0.2,1.5,1.3l0.1,1.3c0.5,0.7,0.7,1.5,0.2,2.7c0.2,0.9,0.7,1.6,1.4,2.2c0.7,0.6,0.7,1.5,0,2.7
				c-0.7,1.8-1.7,2.9-2.5,4.1c0,0-0.1,0.1-0.1,0.1c0,0-0.1,0.1-0.1,0.2c0-0.1,0.1-0.1,0.1-0.2c0-0.2-0.1-0.4-0.1-0.6
				c0.1,0.2,0.2,0.3,0.2,0.4c0.1-0.2,0.2-0.4,0.4-0.6c0-0.2-0.1-0.4-0.1-0.7c0.1,0.2,0.2,0.3,0.2,0.4c0.1-0.2,0.2-0.3,0.3-0.5
				c-0.1-0.2-0.1-0.4-0.2-0.7c0.1,0.2,0.2,0.3,0.3,0.5c0.1-0.2,0.2-0.4,0.3-0.6c0-0.2-0.1-0.4-0.2-0.6c0.1,0.1,0.2,0.2,0.2,0.4
				c0.1-0.4,0.2-0.7,0.2-0.9l-4.2,2.6c0.4-0.3,0.8-0.6,1.1-0.9l0,0c0-0.2-0.1-0.5-0.1-0.8c0.1,0.2,0.2,0.4,0.3,0.7
				c0.1-0.1,0.2-0.2,0.3-0.2c0-0.3-0.1-0.7-0.1-1c0.2,0.3,0.2,0.6,0.3,0.8c0.1-0.1,0.2-0.2,0.4-0.3c0-0.4-0.1-0.9-0.2-1.3
				c0.2,0.4,0.3,0.7,0.4,1.1c0.1-0.1,0.2-0.2,0.3-0.3c0-0.6-0.1-1.2-0.2-1.8c0.3,0.6,0.5,1.1,0.5,1.5c0.1-0.1,0.2-0.1,0.2-0.2
				c0-0.6-0.1-1.3-0.2-2c0.3,0.6,0.5,1.2,0.6,1.7c0,0,0.1-0.1,0.1-0.1c0-0.7-0.1-1.5-0.2-2.4c0.4,0.8,0.6,1.5,0.5,2
				c0.1-0.1,0.2-0.2,0.2-0.2c0-1.2-0.4-2.2-0.8-3.3c-0.2,0.6-0.2,0.8-0.3,0.7c0.1-0.7,0-0.9-0.1-1c-0.1,0.9-0.3,1.5-0.6,1.7l0.2-1.5
				H54L54,79.6z M50.4,82.2h-0.2c0,0.2-0.1,0.4,0.1,0.4C50.4,82.6,50.4,82.4,50.4,82.2L50.4,82.2z M50.8,81.8
				c-0.1,0-0.1,0.1-0.2,0.4c-0.1,0.2-0.1,0.5,0.1,0.5c0.2,0,0.2-0.2,0.2-0.5C51,81.9,50.9,81.8,50.8,81.8L50.8,81.8z M51.4,81.8
				h-0.2c-0.1,0.4-0.1,0.7,0.1,0.7C51.4,82.6,51.4,82.3,51.4,81.8L51.4,81.8z M51.3,81.3c0,0-0.1,0.1-0.1,0.2h0.2
				C51.4,81.3,51.4,81.3,51.3,81.3L51.3,81.3z M51.9,81.2c-0.1,0-0.2,0.1-0.3,0.4c-0.1,0.4-0.2,0.7,0.1,0.7c0.3,0,0.3-0.3,0.3-0.7
				C52,81.3,52,81.2,51.9,81.2L51.9,81.2z M49.1,69.5c1,0.2,2.1,1.1,3.1,2c0.2,0.3,0.1,0.4-0.2,0.2C51.3,71.5,50.3,70.3,49.1,69.5
				L49.1,69.5z M53,72.2c0.2,0.1,0.3,0.2,0.2,0.3c0,0.1-0.2,0-0.4-0.1c-0.2-0.1-0.3-0.3-0.2-0.3C52.6,72,52.8,72,53,72.2L53,72.2z
				 M64.5,68.6c-0.2,0.4-0.3,1.7,0.9,3.4c0.4,0.6-0.1,1,0.6,1.1c0.2,0,0.4-0.2,0.4-0.6L66,72.3h0.6L66,71.9c0.2,0,0.7,0.1,0.7-0.1
				c0-0.2-0.6-0.3-0.9-0.4l0.7-0.2c0-0.2-0.4-0.4-1-0.6l0.7-0.2L65.3,70l0.6-0.2L65,69.4l0.5-0.2L64.9,69l0.5-0.2
				C65,68.6,64.9,68.2,64.5,68.6L64.5,68.6z M63.5,69.7c-0.2-0.5-0.3-1-0.2-1.4c0.3-0.7,0.6-0.9,0.8-0.9c0.5,0.5-0.3,0.9-0.5,1.3
				C63.6,68.7,63.5,69,63.5,69.7L63.5,69.7z M63.3,67.2c-0.2,0.2-0.3,0.5-0.2,0.6c0.1,0.1,0.3-0.1,0.5-0.3c0.2-0.2,0.3-0.4,0.2-0.5
				C63.8,66.8,63.5,67,63.3,67.2L63.3,67.2z M63.1,69.8c0.1,0,0.2,0.1,0.2,0.3c0,0.1-0.1,0.2-0.2,0.2c-0.2,0-0.3-0.1-0.3-0.2
				C62.8,69.9,63,69.8,63.1,69.8L63.1,69.8z M63.6,70.6c0.2,0,0.2,0.2,0.1,0.4c-0.1,0.2-0.2,0.3-0.4,0.2c-0.2,0-0.2-0.2-0.1-0.4
				C63.4,70.6,63.5,70.5,63.6,70.6L63.6,70.6z M64.2,71.4c0.2,0.1,0.2,0.3,0.1,0.5c-0.1,0.2-0.4,0.3-0.6,0.3
				c-0.2-0.1-0.2-0.3-0.1-0.5C63.7,71.5,64,71.3,64.2,71.4L64.2,71.4z M64.8,72.4c0.1,0.2,0,0.3-0.2,0.4c-0.2,0.1-0.4,0-0.5-0.1
				c-0.1-0.1,0-0.3,0.2-0.4C64.5,72.2,64.7,72.2,64.8,72.4L64.8,72.4z M67.8,72.8c0.1-0.1,0.1-0.3-0.1-0.4c-0.2,0-0.3,0-0.4-0.2
				c-0.2-0.5,0.1-0.7,0.5-0.9c0.3,0,0.4,0.1,0.4,0.3l-0.2,0.2c0.4,0.1,0.6,0.2,0.7,0.4c-0.2,0-0.3,0-0.4,0.2c0.7-0.1,0.7,1,0,0.8
				c-0.4-0.1-0.6,0-0.4,0.7c0.2,0.8,0.7,1,0.7,0.2c-0.1-0.4,1.3-0.5,1.5,0.4l-0.5-0.2c0.1,0.7,0.7,0.4,0.7,0.9l-0.4,0
				c0.5,0.4,0.9,0.8,1.1,1.3c-0.6-0.1-0.6-0.7-1.1-0.7c0.7,0.9,1.5,0.7,1.9,1.7c-0.6,0-1.3-0.5-2-1.2c0.7,1,1.1,1.8,1,2.2
				c-1-0.4-1.2-2-1.6-2.4c0,0.8,0.6,1.2,0.4,2.1c-0.4-0.5-0.6-1.3-0.6-2.5c0.4,0.1,0.6-0.2,0.6-0.9c-0.1-0.7-0.4-0.7-0.4,0
				c0,0.5-0.4,0.7-1.5,0c-0.2,0.2,0.1,0.4,0.7,0.7l0,0.6l0.3-0.5l0.1,1.7c0,0.4-0.2,0.4-0.3-0.1l-0.1-0.9c0,0.6-0.1,0.9-0.3,0.9
				l-0.2-1.6l-0.4,0.6l-0.1-0.9l-0.4,0.3v-1.1c-0.3,0.2-0.6,0-0.9-0.4c0.4,0.1,0.7,0,1.1-0.2C66.7,73.3,67.1,72.9,67.8,72.8
				L67.8,72.8z M58.1,77.8c0-0.4,0.1-0.5-0.2-1c-0.2-0.2-0.3-0.2-0.2,0C57.7,77.2,58,77.5,58.1,77.8L58.1,77.8z M57.4,75.3
				c0.4,0.4,0.6,1,0.9,1.3c0.2,0.2,0.2,0,0.2-0.2C58.2,75.7,58,75.6,57.4,75.3L57.4,75.3z M57.5,73.7c0.5,0.6,0.6,1.5,1,2
				c0.2,0.4,0.4,0.1,0.3-0.3C58.5,74.3,58.2,74.2,57.5,73.7L57.5,73.7z M57.8,72.6c0.8,0.2,1.3,1.2,1.3,2c0,0.4-0.2,0.7-0.3,0.3
				C58.7,74.4,58.4,73.2,57.8,72.6L57.8,72.6z M58.2,72c0.7,0.3,1.1,0.8,1.4,1.5c0,0.4,0,0.6-0.3,0.3C59.1,73.2,58.7,72.6,58.2,72
				L58.2,72z M63,92.1c0.2-0.4,0.8-0.8,1.5-0.5c0.3,0.1,0.3,0.5,0.3,0.8c-0.2-0.2-0.4-0.4-0.6-0.2C63.6,91.8,63.4,92,63,92.1
				L63,92.1z M60.8,92.3c0.2,0,0.3,0.1,0.3,0.2c0,0.1-0.1,0.2-0.3,0.2c-0.1,0-0.2-0.1-0.2-0.2C60.5,92.4,60.6,92.3,60.8,92.3
				L60.8,92.3z M59.3,92.3c0.1,0,0.2,0.1,0.3,0.3c0,0.2,0,0.4,0,0.4c-0.1,0-0.2-0.1-0.3-0.3C59.3,92.5,59.3,92.3,59.3,92.3
				L59.3,92.3z M59.8,92.2c0,0,0.1,0.1,0.2,0.2c0,0.1,0,0.2,0,0.3c0,0-0.1-0.1-0.2-0.2C59.7,92.4,59.7,92.2,59.8,92.2L59.8,92.2z
				 M59.9,87c0,0-0.1,0.1-0.1,0.1c-0.2,0.2-0.3,0.3-0.4,0.2c-0.1,0,0-0.2,0.1-0.4c0.1-0.1,0.1-0.1,0.2-0.2c0,0,0-0.1-0.1-0.1
				c0,0,0,0.1-0.1,0.1c-0.2,0.2-0.4,0.3-0.4,0.2c-0.1,0,0-0.3,0.1-0.5c0-0.1,0.1-0.1,0.2-0.2c0,0,0-0.1-0.1-0.1
				c-0.2,0.2-0.4,0.3-0.4,0.2c-0.1-0.1,0-0.3,0.1-0.5c0,0,0-0.1,0.1-0.1C59,85.8,59,85.8,59,85.7c-0.1,0.1-0.2,0.1-0.3,0.1
				c0,0,0-0.2,0.1-0.4c-0.1-0.2-0.1-0.3,0-0.4c0.2-0.2,0.4,0.1,0.6,0.6c0.1,0.2,0,0.3,0.1,0.4c0.1,0.2,0.3,0.2,0.4,0.4
				c0.3,0.4,0.2,0.8,0.2,0.9C60.1,87.4,60.1,87.3,59.9,87L59.9,87z M59.9,87.4c-0.1-0.1-0.3,0-0.5,0.3c-0.2,0.2-0.2,0.5-0.1,0.6
				c0.1,0.1,0.3,0,0.5-0.3C60,87.7,60.1,87.4,59.9,87.4L59.9,87.4z M64.9,85c0,0,0,0.2-0.1,0.5c-0.1,0.2-0.2,0.4-0.3,0.4
				c0,0,0-0.2,0.1-0.5C64.7,85.1,64.9,84.9,64.9,85L64.9,85z M64.3,84.7c0.1,0,0,0.4-0.1,0.7c-0.2,0.3-0.4,0.6-0.5,0.6
				c-0.1,0-0.1-0.4,0.1-0.7C64,84.9,64.2,84.7,64.3,84.7L64.3,84.7z M62.9,84.2c0.1,0,0,0.3-0.1,0.6c-0.1,0.3-0.3,0.5-0.4,0.4
				c-0.1,0,0-0.3,0.1-0.6C62.7,84.3,62.8,84.1,62.9,84.2L62.9,84.2z M45.2,52.9c-0.3,0.2-0.4,0.5,0.2,0.5c-0.4,0.4-0.5,0.7-0.1,0.8
				c-0.8,1-0.8,1.3,0,0.9c-0.9,1.1-0.8,1.3-0.2,1.1c-0.8,0.9-0.7,1.1-0.4,1.1c-0.5,0.7-0.5,1.1,0,1.1c-0.4,0.2-0.7,0.5-0.8,1.1
				c-0.2,0.7-1.9,1.4-0.4,2c0.4,0.2,0.8,0.9,1.1,1.9c0.1,0.6,0.4,0.6,0.9,0.4c0.4-0.1,0.8-0.2,1.2-0.2c0.8,0.1,0.8-0.8,0-0.9
				c0.1-0.3-0.2-0.5-0.7-0.3c0.4-0.6-0.1-0.4-0.2-0.5c0.2-0.1,0.2-0.4-0.4,0l-0.1-0.2c0.4-0.1,0.5-0.3,0.5-0.6l-1.1,0.4
				c0.3-0.3,0.5-0.5,0.4-0.7l-0.8,0.2c0.8-0.6,1.1-1,1.1-1.2L44.5,60c0.6-0.5,1-0.9,1-1.1l-0.7,0.3c0-0.2,0.3-0.5,0.9-0.7
				c0.5-0.2,0.7-0.6,0.7-1L45.2,58c0.9-0.8,1.6-1.5,1.8-2c-0.1-0.3-1,0.3-2.2,1.3V57c1.1-0.8,2-1.7,2.6-2.7L45.4,56l2-2.3
				c-0.1-0.3-0.7,0-1.8,1.2l0.1-0.2l1-1.1c0.8-0.4,1.3-1,1.6-1.7c0.2-0.5-0.5,0.2-1.5,1.1c-0.2,0.2-0.5,0.4-0.8,0.7l2.5-2.6l0-0.3
				C48.1,50.4,46.6,52.3,45.2,52.9L45.2,52.9z M42.3,63c-0.4-0.3,0-0.9,0.4-0.7l1.2,0.9c0.4,0.3,0,0.8-0.3,0.6L42.3,63L42.3,63z
				 M42.8,62.2c-0.4-0.3,0.1-0.9,0.4-0.6l0.7,0.7c0.4,0.3,0.1,0.6-0.2,0.4L42.8,62.2L42.8,62.2z M45.4,64.6
				c-0.3-0.2-0.5,0.1-0.3,0.2c0.5,0.4,1.1,0.8,1.7,1.1c0.6,0.3,1.3,0.4,1.9,0.4c0.4,0,0.7-0.3,0.1-0.4
				C47.7,65.7,46.6,65.3,45.4,64.6L45.4,64.6z M45.7,64.6c-0.2-0.2-0.2-0.4,0.1-0.6l1.5-0.1c0.3,0,0.5,0.2,0.8,0.5l0.7,0.8
				c0.3,0.4,0,0.7-0.2,0.6C47.5,65.4,46.6,65,45.7,64.6L45.7,64.6z M47.2,60.7c0.2-0.4,0.6-0.8,1.1-1c1.4-0.2,2.8-0.5,4.1-1
				c0.4-0.3,0.6-0.2,0.5,0.2c-0.1,1.3-0.3,2.3-0.7,2.6v-2.2l-0.2,0c-0.1,1.1-0.3,1.9-0.6,2.2l0.1-2h-0.2l-0.4,2l0.1-1.7
				c0-0.2-0.1-0.3-0.2-0.2c-0.3,2-0.7,2.9-1.1,3.2c0.4-1.3,0.4-2.2,0.3-3L50,59.9c-0.1,1.1-0.3,2.1-0.7,2.8
				c-0.4-0.6,0.4-1.7,0.2-2.7h-0.1l-0.7,2.5c-0.2,0-0.2-0.3,0.1-1l0.1-1.4l-0.1,0.1c-0.2,0.8-0.4,1.3-0.7,1.8l0.1-1.9l-0.5,1.3
				l0-1.1L47.2,60.7L47.2,60.7z M53.2,59.2c0-0.4,0.5-0.3,0.3,0.1l-0.2,0.6h-0.1L53.2,59.2L53.2,59.2z M53.1,60.9
				c0,0,0.1,0.1,0.1,0.3c0,0.2,0,0.3-0.1,0.3c0,0-0.1-0.1-0.1-0.3C53,61,53,60.9,53.1,60.9L53.1,60.9z M53.3,60.2
				c0.1,0,0.1,0,0.1,0.2c0,0.1,0,0.2-0.1,0.2s-0.2-0.1-0.2-0.2C53.1,60.3,53.2,60.2,53.3,60.2L53.3,60.2z M53.2,57.8
				c0.1,0,0.2,0.2,0.2,0.4c0,0.2,0,0.4-0.1,0.4c0,0-0.2-0.1-0.2-0.3C53.2,58,53.2,57.8,53.2,57.8L53.2,57.8z M52.6,56.6
				c0.4,0.4,0.4,0.7,0.4,1c0,0.4-0.4,0.7-0.4,0.4c0-0.4,0-0.8-0.3-1.3C52.2,56.5,52.5,56.4,52.6,56.6L52.6,56.6z M49.7,55.9
				c0-0.4,0.4-0.1,0.4,0.2l-0.1,0.7c-0.1,0.1-0.2,0-0.3-0.2L49.7,55.9L49.7,55.9z M48.2,58l2-0.4c0.3-0.1,0.4-0.3,0.4-0.6l-0.2-2.7
				c-0.1-0.5,0.2-0.3,0.4,0c0.3,0,0.3,0.2,0.1,0.5c0.7,0.1,0.9,0.3,0.5,0.6l-0.6,0.1l0.7,0.1c0.3,0.1,0.2,0.4,0,0.4L50.9,56l0.9,0.1
				c0.4,0,0.4,0.1-0.1,0.4l-0.4,0.2l0.6,0.1c0.3,0,0.4,0.1,0.2,0.4c0.2,1,0,1.6-0.8,1.6l-2.7,0.6c-0.2-0.1-0.2-0.1-0.2-0.2
				c0,0,0-0.1,0-0.1c0-0.1,0.1-0.2,0.2-0.2c0,0,0.1,0,0.1,0.1c0.2,0,0.3,0,0.4-0.1v-0.8l-0.4,0.1c0,0,0,0.1,0,0.1
				c0,0.2-0.1,0.3-0.2,0.3c-0.1,0-0.2-0.1-0.2-0.3v0l-0.2,0C47.9,58.3,47.9,58.2,48.2,58L48.2,58z M49.8,56.9
				c-0.1,0-0.2,0.1-0.2,0.2c0,0.1,0.1,0.2,0.2,0.2c0.1,0,0.2-0.1,0.2-0.2C50,57,49.9,56.9,49.8,56.9L49.8,56.9z M51.4,57.8
				C51.4,57.8,51.3,57.8,51.4,57.8c-0.1,0.2,0,0.2,0,0.2C51.4,58,51.5,57.9,51.4,57.8C51.5,57.8,51.4,57.8,51.4,57.8L51.4,57.8z
				 M51.2,57.2c-0.2,0-0.3,0.2-0.2,0.2c0,0.1,0.2,0.2,0.3,0.1c0.2,0,0.3-0.1,0.2-0.2C51.5,57.2,51.4,57.2,51.2,57.2L51.2,57.2z
				 M49.4,59C49.4,59,49.4,59,49.4,59l0.1-0.8l-0.2,0.1L49.4,59L49.4,59z M49.8,58.9c0.1,0,0.1,0,0.2,0V58l-0.4,0.1L49.8,58.9
				L49.8,58.9z M50.3,58.7c0,0,0.1,0,0.1-0.1V58l-0.2,0L50.3,58.7L50.3,58.7z M50.7,58.5c0,0,0.1,0,0.1,0c0.3-0.3,0.3-0.5,0-0.6
				h-0.1V58.5L50.7,58.5z M50.7,51c1.3,2.2,2.8,4.2,4.5,6.2c0.2,0.2,0-0.5,0.2-0.2c0.4,0.8,0.9,1.5,1.2,1.7c0.2-0.2-0.5-0.9-0.7-1.7
				l2.3,2.7c0.2-0.4-1.1-2-2.2-3.3l0.2-0.2l2.6,3.5l0.1,0c-0.4-1.1-1.6-2.5-2.4-3.8l0.1-0.3c0.5,0.6,1.1,1.5,1.7,2.3
				C59,59,59.7,60,59.9,60c1,0.2-2.3-3.2-3.8-6.1l0-0.2c1.8,2.7,3.4,5.2,5.1,6.3c0.2,0.1,0.4-0.1,0.2-0.4c-1.6-1.9-3.5-3.9-4.6-5.7
				l0.1-0.2c1.7,2,2.6,4.4,5.9,6.3c0.2,0.1,0.3,0.3,0.5,0.2c0.7-0.6-2.8-1.4-5.5-6l0-0.3c1,1.4,1.2,1.8,2.1,2.8
				c1.3,1.4,3.3,3.1,3.7,2.8c0.3-0.3-2.9-2.5-4.7-5.2l0.1-0.1c1.4,1.9,3.3,4.2,6.2,5.7c0.4,0.2,0.2,0.2,0.7,0.2
				c1.3,0.1-2.8-2-4.9-4.3l0-0.2c0.6,0.5,1.4,1.2,2.2,1.9c1,0.7,2.1,1.4,2.9,1.9c0.8,0.4,1.4,0.7,1.7,0.5c0.7-0.4-2.8-1.6-3.7-2.6
				c0.5,0.3,1.1,0.5,1.5,0.7c1.5,0.8,2.6,1.3,2.9,1c0.2-0.2-0.7-0.7-2.1-1.2c-0.2-0.2,0-0.2,0.4-0.1c1.6,0.7,2.6,1.1,2.8,1
				c0.5-0.2-0.3-0.5-1.3-1.1c1.2,0.5,2.3,1,2.8,0.9c0.2,0-0.7-0.5-1.5-1.2c1.1,0.7,3.7,1.6,1.2-0.1L71,57c0.9,0.7,2.1,1,0.7-0.2h0.2
				c0.8,0.7,1.3,1.1,0.7-0.2c0.8,1.2,1.6,1.6,0.5-0.1l1.3,1c-0.4,0.2-0.4,0.3,0,0.6c1.1,0.7,1.1,0.6,0.9,0c0.1-1.1-0.3-1.8-1-2.3
				c-0.8-0.5-0.8,0.1,0.2,1.5c-0.4-0.3-0.7-0.6-0.9-0.9c-0.2-0.3-0.5-0.5-0.9-0.5c-1.9,0-3.8,0.4-5.6,0.7c-1.4,0.2-2.4,0-2.9-0.3
				c-0.5-0.4-0.7-0.6-0.4-1c0.2-0.4,0-0.7-0.2-0.8l-1.3-2.6c0.2,0.3,0.4,0.4,0.5,0.7c0.5,0.9,0.9,1.5,1,1.5
				c-0.2-0.6-0.9-1.8-1.4-3.3c1,1.8,1.9,3.3,2.2,3.1c-0.1-0.7-0.9-2-1.7-3.4c0.2,0.2,0.3,0.3,0.5,0.5c0.3,0.4,0.6,0.8,0.8,0.7
				c-0.7-1.3-1.3-2.2-2.1-2.4c-1.1-0.4-1.8-0.6-1.7,0.2l-0.6-0.7l-0.6-0.1c-0.2,0.1,0.1,0.4,0.5,1.1l-0.1,0.1l-0.7-1.1
				c-0.2-0.1-0.5-0.2-0.5,0l0.4,0.7l-0.8-0.9c-0.4-0.2-0.8-0.3-0.8-0.1l1.1,1.9c-0.2-0.3-0.5-0.6-0.8-1c-0.4-0.6-0.8-1.1-1.3-1.1
				c-0.5,0,0.5,0.8,1.3,2.6l-1.7-2.5c-0.2-0.1-0.9-0.2-0.9,0l2,2.9c-0.9-1.1-1.9-2-2.4-3c-0.1-0.1-0.2-0.1-0.4-0.1
				c-0.1,0-0.2,0-0.2,0.1l2.5,3.2c-0.5-0.4-1-0.9-1.3-1.4c-0.5-0.7-1-1.2-1.4-1.9c-0.2-0.2-0.5-0.1-0.5,0c-0.2,0.3,1.9,2.4,2.8,3.7
				c-1.3-1.2-2.2-2.3-3.1-3.7c-0.4-0.2-0.7-0.2-0.8,0c-0.1,0.2,2.5,2.8,3.5,4.4c-1.4-1.5-2.7-2.8-3.8-4.4c-0.2-0.2-0.7-0.2-0.7,0
				c0,0.4,2.3,2.5,4.1,5c-1.3-1.5-3-3.4-3.7-3.8c-0.3,0,0.8,1.4,3.4,4.4c-1.3-1.2-2.5-2.4-3.6-3.8c-0.3,0.3,1.1,2.1,3.2,4.4L51,50.9
				C50.5,50.6,50.4,50.6,50.7,51L50.7,51z M64.5,50.2c0.7,1,1.3,2,1.9,3.1c0.2,0.4,0.5,0.3,0.3-0.2c-0.4-1.1-1.1-2-1.7-3.1
				C64.6,49.6,64.2,49.8,64.5,50.2L64.5,50.2z M63.2,49.8c1,1.3,2,2.7,2.8,4.3c0.4,0.7,0.7,0.5,0.4-0.3c-0.7-1.3-1.5-2.6-2.4-3.9
				C63.6,49.3,63,49.5,63.2,49.8L63.2,49.8z M17.1,80.9c0.9,0.4,1.3-0.1,1-1l0.4-0.2v-0.7l0.4,0l0-0.5l0.3-0.3
				c0.1-0.7-0.2-1.1-0.3-0.7c-0.4,1.1-0.8,1.8-1.4,2.2c0.5-0.7,1-1.5,1.3-2.6c0.2,0.2,0.5,0.2,0.7,0l1.3-2.2c0.1-0.6,0-0.8-0.3-0.7
				l-1.3,1.9c0.5-1,0.9-1.8,0.8-2.2c0.8-0.5,0.9-1.6,1-2.8c0.2,0.6,0.4,0.9,0.7,0.7l0.2-0.9l0.4,1c0.2-0.4,0.4-0.9,0.5-1.5l0.1,1.3
				c0.3,0,0.5-0.4,0.7-1.1c0,0.4,0,0.9,0.2,1c0.3-0.4,0.2-1.3,0.7-1.5c0,0.7,0,1.1,0.3,0.9l0.5-1.3c0.2-0.2,0.2,0.1,0,1
				c0.2,0,0.4-0.2,0.4-0.7l0.4-0.8c-0.1,0.5-0.1,0.9,0.1,1.2c0.1-0.1,0.4-0.7,0.7-1.5c-0.2,0.9-0.1,1.3,0.2,1.2l0.4-1.5
				c-0.1,0.7,0,1.2,0.2,1.2c0.1-0.7,0.4-1.3,0.9-1.7l-0.1,0.9c0,0.7,0.5-0.1,1.1-1.5l0.1,0.9c0.3-0.2,0.6-0.8,0.7-1.4l0.3,0.4
				l0.3-0.8c-0.2-0.2-0.5-0.1-0.9,0.1c-1.5,0.7-3.1,0.4-4.1,1.2l-0.3-0.2c0.7-0.6,1.2-1.6,1.5-2.8l0.1,0.2l-0.5,2
				c0.5-0.7,0.8-1.3,1.1-2.4c0.1-0.4,0.2-0.4,0.4-0.2l-0.4,1.2c-0.5,0.9-0.7,1.3-0.5,1.4c0.8-0.9,1.3-1.9,1.7-3.3c0,0.7-0.2,1.5-1,3
				l0.2,0c0.6-0.4,1-1.5,1.5-3.2l0.2,0l-0.8,2.3c-0.3,0.6-0.2,0.7,0.1,0.6l1.2-3.3l-0.4,1.8h0.3l0.7-2.2l-0.3,2.2l0.9-3.1l0.2,0
				l-0.2,2c0.2,0.4,0.7,0.1,0.3-0.2l0.6-3.5l0.2-0.2c0,1.3-0.2,2.5-0.5,3.8c0.4-0.6,0.8-2.2,1-4.2c0-0.3,0.2-0.4,0.4-0.4
				c-0.2,1.4-0.5,2.8-0.7,3.7c-0.1,0.5,0.3,0.6,0.4,0l0.9-4.6L34,61.8l0.2-0.2c0.5-1.9,0.7-4,0.7-6.2l0.2-2.2c0.1-0.5,0-0.8-0.4-0.9
				c-1.2-0.2-2.5,0.2-3.9,1.1v-0.2c1.2-0.9,2.5-1.5,4.1-1.3l0.2-0.3c-2.2-0.5-3.9,0.4-5.5,1.9l-0.2-0.1c1.6-1.7,3.4-2.4,5.5-2.2
				l0.2-0.2c-1.4,0-2.6-0.1-3.7,0.4c-3,1.2-4.6,4.6-5,9.1l-0.1,0.1c0.4-5.9,2.5-7.7,4.7-9.2l0.1-0.3c-2.6,1.5-3.2,2.2-4.1,4
				c-1.3,2.6-1.6,6.4-1.3,10.2c0,0.7-0.1,1.3-0.4,1.7l-0.2,0.1c0.2-0.3,0.2-0.7,0.3-1.1c-0.2-3.1-0.2-6.1,0.4-8.6
				c0.5-2.2,1.7-3.9,3-5.3l0-0.3c-0.3,0.3-0.7,0.4-1,0.7c-0.2,0.2-0.4,0.7-0.7,1c-0.7,0.9-1.4,2.2-1.8,4.4c-0.4,2-0.4,4.8-0.5,8.1
				l-0.1,0.3c-0.2-1.4,0-2.7,0-3.9c0-5.7,1.5-9.8,5-12l0.1-0.4c-3.9,1.6-6.5,5.6-6.1,14.8c0,2.1-0.7,4-2.6,5.1
				c-0.9,0.5-1.7,1.1-1.7,2.2c-0.3,3.3-1.7,5.7-3.3,8.2C15.6,81.4,16.8,82,17.1,80.9L17.1,80.9z M9.9,62.7c0.2-0.8,0.7-1.2,1.3-2.2
				c0.3-0.5,0.4-0.2,0.4,0.3C10.9,61.9,10.4,62.4,9.9,62.7L9.9,62.7z M26.5,49.6c-2.1,0.2-3.9,0.6-5.1,1.4l-0.1-0.2
				c0.6-0.6,1.6-1,2.6-1.3l-0.2,0c-1.5,0.4-3.1,1.1-4.7,2.8l-0.2,0c1.3-2,3-2.8,4.8-3.3l-0.8,0c-1.2,0.3-2.4,1.1-3.5,2.2
				c-1.9,1.9-3.4,4.9-4.1,9.1C15.1,60.4,15,60,15,60.3c0.2-1.8,0.6-3.5,1.3-5.1c0.7-1.7,2-3.6,3.4-4.9c0.9-0.8,1.6-1,2.7-1.7h-0.2
				c-0.9,0.3-1.5,0.6-2.2,1.2c-1.5,1.3-2.8,3.1-3.7,4.8c-0.8,1.5-1.3,3.3-1.5,5.7c-0.2,1.1-0.7,2.1-1.1,2.6
				c-0.7,0.8-1.2,0.3-2.1,2.7l-0.2,0.1c0.1-0.5,0.4-1.2,0.6-1.5c0.3-0.4,0.6-0.6,0.9-1.1c0.7-0.8,1.3-1.8,1.5-3.4
				c0.2-1.3,0.4-2.9,0.8-3.9c0.4-1.2,0.8-1.9,1.3-2.5c1.4-2,2-3.2,5.3-5l-0.3,0c-2.4,0.9-3.9,2.6-5.9,5.8c-1.5,2.4-1.1,5.5-2.3,7.8
				c-0.4,0.8-1.3,1.9-1.8,2.4l-0.2,0c0.3-0.9,1.3-1.7,1.8-2.6c0.3-0.6,0.4-1.6,0.6-2.4c0.7-4.4,1.9-6.4,3.8-8.5h-0.3
				c-3.9,4.3-3.3,7.3-4.2,10.2c-0.6,1.9-1.3,1.7-2.7,4.4c0-0.4,0.1-0.8,0.2-1c0.1-0.4,0.5-0.8,1.2-1.6c0.6-0.9,1.1-2.3,1.4-4.5
				c0.1-1,0.4-1.9,0.7-2.7c0.3-0.9,0.6-1.4,0.9-2c1.5-2.4,2.8-3.9,4.7-5v-0.2c-1.9,0.8-3.6,2.8-4.9,4.9c-0.7,1.2-1.1,2.2-1.5,3.5
				c-0.3,1.1-0.4,2.5-0.8,3.9c-0.2,1.1-0.8,1.7-1.3,2.3c-0.4,0.4-0.7,1-0.9,1.1c0.2-0.7,0.1-1.4,1.3-2.2c0.3-0.3,0.5-0.7,0.7-1.1
				c0.2-3.3,1.2-6.2,3-9.1c-0.7,0.2-1.2,0.9-1.8,2c1.1-3.2,2.8-6.5,6.4-7.3C21.4,46,23.9,47.2,26.5,49.6L26.5,49.6z M10.3,67.3
				c-0.2-0.3-0.3-0.7-0.3-1c0-0.5,0.4-0.4,0.5-0.1C10.6,66.8,10.3,66.8,10.3,67.3L10.3,67.3z M15,71.7l0.4-0.4
				c0.2-0.1,0.4-0.2,0.6-0.1C16,71.3,15.5,71.5,15,71.7L15,71.7z M14.6,72.9l0.5-0.6c0.3-0.2,0.6-0.2,0.9-0.1
				C15.9,72.5,15.4,72.8,14.6,72.9L14.6,72.9z M14.7,73.6l0.6-0.5c0.3-0.2,0.7-0.2,0.9,0C16.1,73.2,15.4,73.5,14.7,73.6L14.7,73.6z
				 M14.8,74.2l0.6-0.5c0.3-0.2,0.6-0.2,0.9,0C16.1,73.9,15.5,74.1,14.8,74.2L14.8,74.2z M15.1,74.8l0.4-0.4
				c0.2-0.1,0.4-0.2,0.6-0.1C16.1,74.4,15.6,74.6,15.1,74.8L15.1,74.8z M17.2,68.3l0.3-0.2c0.2-0.1,0.4,0,0.4,0
				C17.9,68.2,17.6,68.3,17.2,68.3L17.2,68.3z M16.7,68.9l0.7-0.3c0.3,0,0.7,0,0.8,0.2C18,69,17.4,69.1,16.7,68.9L16.7,68.9z
				 M17.1,67.3l0.5-0.4c0.2-0.1,0.5-0.1,0.7,0C18.2,67.1,17.7,67.2,17.1,67.3L17.1,67.3z M17.5,66.3l0.5-0.1c0.2,0,0.5,0.1,0.6,0.3
				C18.5,66.6,18,66.5,17.5,66.3L17.5,66.3z M16.3,77.2l0.4-0.2c0.2,0,0.4,0,0.4,0C17.1,77.2,16.7,77.3,16.3,77.2L16.3,77.2z
				 M17.5,76c-0.7,0.6-1.3,1-1.6,0.9c0-0.3,0.3-0.6,0.7-0.8L17.5,76L17.5,76z M17.1,75.6c-0.5,0.4-1.1,0.6-1.3,0.5
				c0-0.2,0.3-0.4,0.6-0.5H17.1L17.1,75.6z M20.2,78.9c0.7-0.4,1.3-1,1.3-1.3c-0.3,0-0.7,0.2-0.9,0.4L20.2,78.9L20.2,78.9z
				 M22.1,78.1c0.2,0,0.3,0,0.4,0.1c0,0-0.1,0.1-0.2,0.2L22,78.9c0.4-0.2,0.7-0.5,0.9-0.7c0.1,0,0.2,0,0.2,0
				c-0.1,0.1-0.2,0.2-0.3,0.2l-0.4,0.7c0.6-0.3,1.1-0.8,1.1-1h0c-0.2-0.2-0.5-0.3-0.9-0.3L22.1,78.1L22.1,78.1z M25.6,78.2
				c0.2-0.1,1.1,0.1,1,0.4c0,0.2-0.6,0.7-1.1,1.1l0.3-0.7c0.1-0.1,0.2-0.2,0.2-0.2c-0.1,0-0.2,0-0.3,0c-0.2,0.2-0.4,0.4-0.8,0.7
				l0.2-0.6c0,0,0.1-0.1,0.2-0.1c-0.1,0-0.2,0-0.2,0c-0.1,0.2-0.4,0.3-0.6,0.5l0.2-0.4C25,78.3,25.2,78.3,25.6,78.2L25.6,78.2z
				 M30.9,78.1c0.1-0.4,0.4-0.6,0.8-0.8l-0.1,0.7l0.3-0.7c0.1,0,0.3-0.1,0.4-0.1l-0.1,0.2l-0.4,0.9l0.6-0.7l0.2-0.4
				c0.1,0,0.2,0,0.3,0l-0.2,0.3l-0.5,0.8l0.6-0.7l0.4-0.4c0.1,0,0.2,0,0.2,0l-0.2,0.3l-0.5,0.8l0.6-0.7l0.4-0.4
				c0.2,0,0.4,0.1,0.5,0.2l-0.1,0.4l-0.3,0.9l0.4-0.8l0.2-0.5c0.1,0,0.1,0,0.1,0c0.4-0.5-1-0.8-2.2-0.6C31.4,77,30.9,77.4,30.9,78.1
				L30.9,78.1z M27,78.6C27,78.6,27,78.6,27,78.6c0,0,0,0.1,0,0.2l0,0.9c0.1-0.4,0.3-0.8,0.4-1.1l0,0l0.1,0.8
				c0.1-0.2,0.1-0.5,0.2-0.8c0,0,0,0,0,0.1l0.6,1.2c0-0.5,0-1,0-1.4c0.1,0,0.1,0,0.2,0l0.4,0.9c0-0.3,0-0.7,0-1c0,0,0.1,0,0.2,0
				l0.3,0.6c0-0.2,0-0.5,0-0.7c0.2,0,0.2-0.1,0.2-0.2c0.1-0.6-0.7-0.4-1.4-0.1L27,78.6L27,78.6L27,78.6L27,78.6L27,78.6z M25,82.9
				c-0.2-0.4-0.4-0.8,0-1.7c0.3-0.9,0.7-1.1,1-1.1c0.3,0.3-0.1,1,0.1,1.8l-0.7-0.6l0.2,1.1L25.1,82L25,82.9L25,82.9z M30.8,84
				c-0.1-0.2-0.2-0.2-0.2-0.2c-0.1,0,0,0.2,0.1,0.4c0.1,0.2,0.2,0.2,0.3,0.2C30.9,84.3,30.9,84.2,30.8,84L30.8,84z M30.8,84.7
				c0.2,0.2,0.2,0.4,0.2,0.5c-0.1,0-0.2-0.1-0.4-0.3c-0.2-0.2-0.2-0.4-0.2-0.5C30.5,84.4,30.6,84.5,30.8,84.7L30.8,84.7z M30.4,85.4
				c-0.1-0.2-0.2-0.3-0.3-0.3c-0.1,0,0,0.2,0,0.4c0.1,0.2,0.2,0.3,0.3,0.3C30.5,85.8,30.5,85.6,30.4,85.4L30.4,85.4z M30,86.1
				c0.1,0.3,0.1,0.6,0,0.7c-0.1,0-0.2-0.2-0.3-0.5c-0.1-0.3-0.1-0.6,0-0.7C29.8,85.5,30,85.8,30,86.1L30,86.1z M25.3,85.8
				c0.2,0,0.4,0.1,0.4,0.2c0,0-0.2,0.1-0.4,0c-0.2,0-0.4-0.1-0.4-0.2C24.9,85.8,25.1,85.8,25.3,85.8L25.3,85.8z M25.1,85.3
				c0.3,0,0.5,0.2,0.5,0.2c0,0.1-0.2,0.1-0.5,0.1c-0.3-0.1-0.5-0.2-0.5-0.2C24.6,85.3,24.8,85.3,25.1,85.3L25.1,85.3z M25,84.6
				c0.3,0.1,0.6,0.2,0.6,0.3c0,0.1-0.3,0.2-0.7,0.1c-0.3,0-0.6-0.2-0.6-0.3C24.3,84.6,24.6,84.6,25,84.6L25,84.6z M35.5,77.7
				c-0.2-0.8,0.7-1.1,1.6-0.7c0.7,0.3,1.6,0.4,2.8,0.2c0.6-0.1,1.2-0.1,1.8,0c0.6,0.3,0.6,0.6-0.1,0.7c-1.3,1.2-2.3,2.5-2.4,3.7
				c-0.4-0.6,0.5-2.2,2-4.1c-0.9,0.7-1.7,1.6-2.5,2.6c0.2-0.7,0.7-1.5,1.4-2.5c-1.6,1.2-2.7,2.9-2.5,6.2c-0.6-2-0.2-3.8,1.1-5.7
				L36.8,80l1.6-2.4l-1,0.3l0.1-0.4l-0.6,0.3v-0.4L36.1,78l0.2-0.7C36,77.2,35.8,77.4,35.5,77.7L35.5,77.7z M36.3,82.3
				c-0.1,0.5,0,1.1,0.4,1.6c0.1,0.1,0.3,0,0.2-0.3C36.6,83.4,36.4,82.9,36.3,82.3L36.3,82.3z M38.3,82.6c-0.1,0-0.2,0.2-0.2,0.5
				s0.1,0.5,0.2,0.5c0.1,0,0.2-0.2,0.2-0.5S38.4,82.6,38.3,82.6L38.3,82.6z M40.2,80.5c-0.1,0-0.2,0.1-0.3,0.4
				c-0.1,0.2-0.1,0.4,0,0.4c0.1,0,0.2-0.1,0.3-0.4C40.2,80.7,40.2,80.5,40.2,80.5L40.2,80.5z M40.6,79.5c0,0-0.2,0.1-0.3,0.3
				c-0.1,0.2-0.2,0.4-0.1,0.4c0,0,0.2-0.1,0.3-0.3C40.6,79.8,40.7,79.6,40.6,79.5L40.6,79.5z M44.4,73.8c0.1,0,0.2,0,0.3,0l0.3,0.5
				c-0.1,0-0.2,0-0.4-0.1L44.4,73.8L44.4,73.8z M43.7,77.4c0.1,0,0.2,0.2,0.2,0.4c0,0.2,0,0.3-0.1,0.3c-0.1,0-0.2-0.2-0.2-0.4
				C43.6,77.5,43.6,77.4,43.7,77.4L43.7,77.4z M44.3,77.3c0,0,0.2,0.1,0.2,0.3c0.1,0.2,0.1,0.4,0.1,0.4c-0.1,0-0.2-0.1-0.2-0.3
				C44.3,77.5,44.2,77.3,44.3,77.3L44.3,77.3z M45.1,77.2c0,0,0,0.3,0,0.5c0,0.3,0,0.4,0.2,0.4c0.2,0,0.2-0.1,0.1-0.4
				C45.3,77.4,45.1,77.2,45.1,77.2L45.1,77.2z M45.7,77c-0.1,0,0,0.3,0,0.6c0.1,0.3,0.2,0.5,0.3,0.5c0.1,0,0-0.3,0-0.6
				C46,77.2,45.8,77,45.7,77L45.7,77z M46.5,77c-0.1,0-0.1,0.3,0,0.7c0,0.3,0.2,0.6,0.3,0.6c0.1,0,0.1-0.3,0-0.7
				C46.7,77.2,46.6,76.9,46.5,77L46.5,77z M47.3,77.1c-0.1,0-0.1,0.4,0,0.7c0.1,0.4,0,0.5,0.3,0.5c0.2,0,0.2-0.2,0.1-0.5
				C47.6,77.4,47.4,77,47.3,77.1L47.3,77.1z M42.7,73.7c0.4,0.1,0.3,0.1,0.5,0.2c0.2,0.1,0.4,0,0.5,0.2c0.7,1.4,0.2,0.1,0.3,0.1l0,0
				l-0.2-0.4C43.5,73.7,43.1,73.7,42.7,73.7L42.7,73.7z M37.7,91.2c0.2,0,0.4,0.1,0.4,0.2c0,0-0.1,0.1-0.3,0.1c-0.2,0-0.4,0-0.4-0.1
				C37.3,91.3,37.4,91.2,37.7,91.2L37.7,91.2z M38.2,92.2c0.3-0.1,0.7-0.1,0.7,0c0.1,0.1-0.2,0.2-0.5,0.3c-0.3,0.1-0.7,0.1-0.7,0
				C37.7,92.4,37.9,92.3,38.2,92.2L38.2,92.2z M38.5,92.6c-0.4,0.1-0.7,0.2-0.6,0.3c0.1,0.1,0.4,0.1,0.8,0c0.4-0.1,0.6-0.2,0.6-0.3
				C39.2,92.4,38.9,92.5,38.5,92.6L38.5,92.6z M39,92.9c0.2-0.1,0.5-0.1,0.5,0c0,0-0.1,0.2-0.4,0.2c-0.3,0-0.5,0-0.6,0
				C38.5,93.1,38.8,93,39,92.9L39,92.9z M39.3,93.3c0.2,0,0.4,0.1,0.4,0.2c0,0.1-0.1,0.1-0.3,0.1c-0.2,0-0.4,0-0.4-0.1
				C39,93.3,39.1,93.3,39.3,93.3L39.3,93.3z M43.7,91.6c0.3-0.1,0.7-0.1,0.7,0c0.1,0.1-0.2,0.4-0.5,0.5s-0.7,0.1-0.7,0
				C43.1,92,43.3,91.8,43.7,91.6L43.7,91.6z M43.1,91.3c-0.2,0.1-0.4,0.2-0.4,0.4c0,0.1,0.3,0.1,0.5,0c0.2-0.1,0.4-0.2,0.4-0.4
				C43.6,91.1,43.3,91.1,43.1,91.3L43.1,91.3z M42.6,90.5c0.2-0.1,0.4,0,0.4,0c0,0.1-0.1,0.2-0.3,0.3c-0.2,0.1-0.4,0.1-0.4,0
				C42.3,90.7,42.4,90.6,42.6,90.5L42.6,90.5z M36.7,87.2c0-0.2-0.2-0.2-0.3,0c0,0.3,0,0.7,0.3,0.8c0.3,0.2,0.4-0.2,0.2-0.3
				C36.8,87.5,36.7,87.4,36.7,87.2L36.7,87.2z M36.1,86.9c0-0.2-0.2-0.4-0.3-0.2c-0.2,0.3-0.3,0.7,0,1c0.3,0.4,0.5,0,0.4-0.2
				C36.1,87.3,36,87.1,36.1,86.9L36.1,86.9z M30.3,65.2l-0.2,0.5L30,65.7l0.1-0.4H30.3L30.3,65.2z M17.7,83.1c0.5-0.2,0.7,0,0.8,0.7
				c0.4,0.4,0.7,0.7,0.7,1.1c0.9,0.8,0.8,1.1-0.5,1c-0.4-0.1-0.7-0.4-0.7-1L17.7,83.1L17.7,83.1z M17.9,86.3
				c-0.3,0.5-0.2,1.1,0.2,1.6c0.2,0.3,0.5,0.4,0.8,0.4l-0.2-0.4l0.5,0.3c0-0.2-0.2-0.5-0.7-0.9l0.6,0.2c0-0.3-0.3-0.6-0.8-0.9h0.4
				C18.6,86,18.2,85.8,17.9,86.3L17.9,86.3z M19.5,86.6c0.2,0,0.3,0.2,0.3,0.4s0,0.4-0.2,0.5c-0.1,0-0.3-0.2-0.3-0.4
				C19.3,86.8,19.3,86.6,19.5,86.6L19.5,86.6z M30.7,51.1c-0.5,0.2-0.5-0.2-0.2-0.5c0.8-0.7,1.6-0.9,2.6-0.9h1.7
				c0.7,0,0.6,0.7,0,0.6h-1.2C32.4,50.3,31.6,50.6,30.7,51.1L30.7,51.1z M34.4,50.5c0.4,0,0.8,0.1,0.8,0.2c0,0.1-0.4,0.2-0.8,0.2
				s-0.8,0-0.8-0.2C33.5,50.6,33.9,50.5,34.4,50.5L34.4,50.5z M35.1,71.2c-0.2-0.2,0.1-0.3,0.2-0.2l0.5,0.4c0.1,0.1-0.2,0.3-0.3,0.2
				L35.1,71.2L35.1,71.2z M35.4,70.9l0.4,0.4c0.1,0.1,0.3-0.1,0.2-0.2l-0.4-0.4C35.5,70.6,35.3,70.7,35.4,70.9L35.4,70.9z
				 M35.7,70.5l0.4,0.4c0.1,0.1,0.4-0.1,0.3-0.2l-0.5-0.5C35.8,70.1,35.5,70.3,35.7,70.5L35.7,70.5z M35.9,69.9
				c-0.2-0.2,0.2-0.5,0.4-0.4l0.7,0.7c0.2,0.2-0.3,0.5-0.4,0.4L35.9,69.9L35.9,69.9z M36.6,69.2c-0.2-0.2,0.1-0.6,0.3-0.4l0.9,0.8
				c0.2,0.2-0.1,0.6-0.3,0.4L36.6,69.2L36.6,69.2z M37.2,68.8l0.7,0.7c0.2,0.1,0.5-0.2,0.3-0.4l-0.8-0.7
				C37.2,68.3,37,68.6,37.2,68.8L37.2,68.8z M37.9,68.6l0.6,0.6c0.1,0.1,0.4-0.2,0.2-0.3l-0.7-0.6C37.9,68.2,37.7,68.4,37.9,68.6
				L37.9,68.6z M34.6,64l-0.1,0.7c0,0.1-0.4,0.2-0.4,0l0.1-0.7C34.3,63.9,34.6,63.8,34.6,64L34.6,64z M33.5,65l0.1,0.6
				c0,0.2-0.4,0.3-0.4,0L33.2,65C33.2,64.8,33.5,64.7,33.5,65L33.5,65z M32.3,65.8v0.5c0,0.2-0.3,0.3-0.3,0l0-0.5
				C32.1,65.6,32.3,65.5,32.3,65.8L32.3,65.8z M33.9,64.8c0.1,0,0.2,0.1,0.2,0.2c0,0.1-0.1,0.2-0.2,0.2c0,0-0.1-0.1-0.1-0.2
				C33.7,64.8,33.8,64.8,33.9,64.8L33.9,64.8z M32.7,65.5c0.1,0,0.2,0.1,0.2,0.2c0,0.2-0.1,0.2-0.2,0.2c-0.1,0-0.2-0.1-0.2-0.2
				C32.5,65.6,32.6,65.5,32.7,65.5L32.7,65.5z M31.7,66.2l0,0.5c0,0.2-0.4,0.2-0.4,0v-0.5C31.4,66,31.7,66,31.7,66.2L31.7,66.2z
				 M36.8,50c0.2,0,0.4,0.1,0.5,0.3l-0.5,0.3l0.6,0.2l-0.1,0.2l-0.9,0.2l0.4,0.3l-0.3,0.2l0.6-0.1l0,0.2l-0.6,0.2
				c0.4,0,0.7,0.2,0.5,0.3l-0.5,0.3l0.4,0.2l-0.6,0.2l0.5,0.3l-0.6,0.2c0.4,0.1,0.6,0.3,0.6,0.4l-0.7,0.3c0.4,0.2,0.4,0.2,0.4,0.4
				L36,55l0.5,0.4L36,55.6c0.4,0.2,0.4,0.4,0.5,0.5l-0.6,0.2c0.4,0.2,0.7,0.3,0.6,0.4L35.8,57l0.7,0.1v0.2l-0.7,0.2
				c0.5,0.2,0.7,0.4,0.7,0.5l-0.6,0.4l0.7,0.1l-0.6,0.4c0.4,0,0.6,0,0.6,0.2l-0.6,0.3c0.4,0.1,0.9,0.2,1.4,0.3l0.2,0.2l0.1-0.2
				c0.3-0.1,0.6-0.1,0.9,0l0.3,0.4l0.2-0.5l0.3,0.5l0.2-0.7l0.3,0.9l0.2-0.9l0.3,0.8l0.2-0.9l0.2,0.7l0.2-0.8l0.4,0.8l0.3-1l0.4,0.8
				l0.2-0.7l0.3,0.6l0.2-0.7l0.2,0.5c0.2,0.4-0.2,0.8-0.7,0.9l-6.1,1c-0.4,0-0.7-0.2-0.9-1.1c-0.3-1.5-0.2-3,0-4.4
				C35.7,52.7,36.3,51.1,36.8,50L36.8,50z M37.7,50.9l0.1,0c-0.5,2.9-0.8,5.7-0.4,8.1c-0.2-3.9,0.3-8,1-8.7l0.1,0.3
				c-0.9,3.1-0.9,5.9-0.4,8.3c-0.4-4.2,0-6.7,0.7-8v0.4c-0.6,3-0.6,5.4-0.1,7.3l0.2-0.1c-0.4-3.1-0.2-5.5,0.3-7.9l0.3,0
				c-0.6,3.1-0.6,5.6-0.2,7.8l0.2-0.2c-0.3-3.2-0.3-5.4,0.2-7.5l0.2,0c-0.4,3.1-0.5,5.5-0.1,7.5l0.2,0c-0.3-3.4-0.2-5.8,0.3-7.6
				l0.2,0.2c-0.3,2.7-0.3,5,0,7.3l0.2-0.1c-0.1-2.9-0.2-5.2,0.1-7l0.2-0.2c-0.3,2.2-0.3,4.6,0.1,7.2h0.2c-0.3-3.2-0.2-5.6,0.1-7.5
				l0.2,0.1c-0.2,2.6-0.2,4.9,0,7.4l0.2,0c-0.2-3.5,0-5.9,0.3-7.3c0.3-0.1,0.3,0.3,0,0.7c-0.2,2.1-0.3,4.2,0,6.5l0.2,0
				c-0.2-3.4,0-5.3,0.3-7.2c0.2-0.2,0.4,0,0.2,0.5c-0.3,2.4-0.4,4-0.2,6.7H43c0.3,0.1,0.4,0.2,0,0.4c-2,0.4-3.9,0.8-5.7,0.9
				c-0.4,0-0.5-0.2-0.5-0.7C36.7,55.9,37,53.3,37.7,50.9L37.7,50.9z M44.4,52.5l0.2-1.2c0.3-0.2,0.4-0.1,0.4,0.2L44.4,52.5
				L44.4,52.5L44.4,52.5z M44,51.2c0.2-0.3,0.5-0.2,0.4,0.1c-0.3,1.8-0.7,3.3-0.7,5.7l-0.2-0.4C43.7,54.5,43.7,53.3,44,51.2L44,51.2
				z M43.4,51.1c0.1-0.2,0.3-0.1,0.3,0.1c-0.3,1.7-0.5,3.8-0.6,6.2H43C42.9,55.1,42.9,53.1,43.4,51.1L43.4,51.1z M34.9,64.4
				c0.4-0.4,0.9-1,1.1-2.1c0,0.6,0.2,1,0.5,1c0.2-0.2,0.3-0.6,0.5-1.1h0.2c-0.3,0.7-0.3,1.3-0.1,1.9c0.2-0.3,0.4-0.9,0.6-1.9
				l0.1,0.1c-0.1,0.6-0.1,1.1,0,1.7c0.2-0.1,0.5-0.9,0.8-1.9c0,0.7,0,1.3,0.1,1.5c0.3-0.3,0.5-0.9,0.8-1.7c-0.1,1.1-0.2,1.8,0,1.7
				c0.5-0.7,0.3-1.4,0.9-2c-0.1,0.7-0.5,1.5-0.2,2c0.7-0.2,0.5-1.2,0.9-2.2c0,1.1,0,1.7,0.2,1.6c0.2-0.4,0.3-0.9,0.4-1.4
				c0-0.4,0-0.5-0.3-0.5l-5.5,0.8c-0.5,0-0.8,0.2-0.9,0.5C35,63.1,34.9,63.8,34.9,64.4L34.9,64.4z M24.7,50.3l1.6-0.3l-0.1,0.3
				L24.7,50.3L24.7,50.3z M37.7,41.9c-0.1-0.1-0.3,0.2-0.6,0.6c-0.2,0.3-0.4,0.7-0.4,0.7c0,0,0.3-0.2,0.5-0.6
				C37.6,42.2,37.7,41.9,37.7,41.9L37.7,41.9z M34.8,44.7c0.2-0.3,0.4-0.5,0.7-0.6v0.5l1.1-1.4L36,44.9c0.5-0.9,0.9-1.5,1.3-1.4
				l-0.7,1.4c0,0.2,0,0.2,0.2,0.2c0.5-1.3,0.9-2,1.3-2.1l-0.7,2c0.3-0.6,0.5-0.9,0.6-0.7l-0.2,0.6c0.3-0.7,0.6-0.9,0.7-0.8l-0.1,0.6
				c0.1-0.2,0.3-0.4,0.5-0.5l0.2,0.4c0.1-0.4,0.3-0.7,0.5-0.9l0.2,0.4c0.2-0.4,0.6-0.9,1.1-1.3l-0.2,0.8l1-0.5
				c0.5-0.2,0.6,0,0.2,0.4l-2,0.9c-1.6,0.9-3.2,1.4-4.8,0.9C34.7,45.3,34.6,45.1,34.8,44.7L34.8,44.7z M40.5,35.5
				c0.1,0,0.2,0.1,0.2,0.3c0,0.2-0.1,0.3-0.2,0.3c-0.1,0-0.2-0.2-0.2-0.3C40.4,35.6,40.5,35.5,40.5,35.5L40.5,35.5z M41,36.3
				c-0.1,0-0.1-0.2-0.1-0.4c0-0.3,0-0.5,0.1-0.5c0.1,0,0.2,0.2,0.2,0.5C41.2,36.1,41.1,36.3,41,36.3L41,36.3z M41.8,36.1
				c0.2,0,0.4,0.1,0.4,0.2c0,0-0.2,0.1-0.4,0.1c-0.2,0-0.3-0.1-0.3-0.1C41.5,36.1,41.6,36.1,41.8,36.1L41.8,36.1z M42.2,36.7
				c0.1,0,0.2,0.1,0.2,0.2c0,0.1-0.1,0.2-0.2,0.2c0,0-0.1-0.1-0.1-0.2C42.1,36.8,42.2,36.7,42.2,36.7L42.2,36.7z M42.9,36.7h1.5
				c0.5,0,0.6,0.2,0.2,0.7c0.2,0.8-0.9,1.3-0.8,0c-0.1-0.2-0.4-0.4-0.9-0.4C42.6,37,42.6,36.7,42.9,36.7L42.9,36.7z M40.5,46.3
				c0.1,0,0.2,0.1,0.2,0.2c0,0.1-0.1,0.2-0.2,0.2c-0.1,0-0.2-0.1-0.2-0.2C40.3,46.3,40.4,46.3,40.5,46.3L40.5,46.3z M39.9,46.5
				c0.1,0,0.2,0.1,0.2,0.3c0,0.1-0.1,0.2-0.2,0.2c-0.2,0-0.2-0.1-0.2-0.2C39.6,46.6,39.7,46.5,39.9,46.5L39.9,46.5z M40.7,46.9
				c-0.6,0.4-0.9,0.8-0.9,0.9c0.1,0.1,0.6-0.1,1.2-0.4c0.6-0.4,0.9-0.8,0.9-0.9C41.7,46.3,41.2,46.5,40.7,46.9L40.7,46.9z
				 M42.6,45.6c-0.3,0.2-0.6,0.5-0.5,0.6c0,0.1,0.4-0.1,0.7-0.4c0.3-0.3,0.6-0.6,0.5-0.7C43.3,45.2,42.9,45.4,42.6,45.6L42.6,45.6z
				 M41.4,48.7c0.1-0.3,0.2-0.6,0.4-0.8l-0.1,0c0.1-0.5,0.4-0.9,0.9-1.1l0.1,0c0.2-0.2,0.4-0.3,0.6-0.4c-0.1,0.2-0.2,0.4-0.3,0.6
				l0.1,0.1c0.3-0.3,0.7-0.5,1.1-0.7c-0.2,0.3-0.5,0.6-0.8,0.8l0.2,0.2c0.4-0.3,0.8-0.6,1.2-0.7c-0.3,0.3-0.6,0.6-0.9,0.9l0.3,0.2
				c0.4-0.3,0.8-0.5,1.2-0.6c-0.2,0.2-0.4,0.3-0.6,0.5c0.3-0.1,0.6-0.1,1-0.1c-0.5,0.2-0.9,0.3-1.3,0.5l0.3,0.2
				c0.4-0.2,0.9-0.4,1.2-0.4c-0.3,0.2-0.6,0.4-0.9,0.5l0.3,0.2c0.4-0.2,0.8-0.3,1.2-0.2c-0.3,0.1-0.6,0.2-0.9,0.4l0.2,0.1
				c0.4-0.2,0.7-0.2,1.1-0.2c-0.3,0.1-0.6,0.3-0.9,0.4l0.2,0.1c0.3-0.1,0.7-0.1,0.9-0.1c-0.2,0.1-0.5,0.1-0.7,0.2l0.9,0.5l-0.2,0.1
				L46,49.4c-0.1,0-0.1,0-0.2,0.1c0,0,0-0.1,0.1-0.1l-0.3-0.1c-0.2,0.1-0.4,0.2-0.6,0.3c0.1-0.2,0.2-0.3,0.3-0.4l-0.3-0.1
				c-0.2,0.1-0.4,0.2-0.6,0.3c0.1-0.1,0.2-0.3,0.3-0.4l-0.3-0.1c-0.2,0.2-0.4,0.3-0.7,0.4c0.1-0.2,0.2-0.4,0.4-0.5l-0.4-0.2
				c-0.2,0.2-0.4,0.4-0.6,0.5c0-0.2,0.2-0.4,0.3-0.6l-0.4-0.2c-0.2,0.2-0.4,0.4-0.7,0.6c0.1-0.2,0.2-0.5,0.4-0.7L42.1,48
				C41.9,48.3,41.6,48.5,41.4,48.7L41.4,48.7z M19.7,9.8c1.2,1.5,2.4,2.9,3.7,4.6c0,0.3-0.1,0.4-0.4,0.4c-1.3-1.9-2.4-3.5-3.4-4.9
				C19.3,9.7,19.6,9.6,19.7,9.8L19.7,9.8z M25.9,20.2c0.1,0.3-0.1,0.5-0.4,0.2c-0.5-0.6-0.4-1.4,0.2-2.1c0.6-0.7,1.4-0.7,2.1-0.2
				c0.4,0.3,0.3,0.4-0.2,0.4C26.1,18.5,25.6,19.2,25.9,20.2L25.9,20.2z M27.3,19.6c-0.6-0.2-0.7,0-0.6,0.7c8.1,11.5,20.5,28.2,35,48
				l-0.1,0.3l1.2,0.7l-0.4-1.6l-0.2,0.2C51,52.1,38,33.7,27.3,19.6L27.3,19.6z M23.5,15.4c0.1-0.6,0.5-0.9,0.9-0.9l0.9,0.2
				c0.3,0.2,0.3,0.3-0.1,0.4c-0.7-0.1-1.1,0-1.3,0.5C23.5,16,23.4,16,23.5,15.4L23.5,15.4z M26.3,17.1c-0.1,0-0.2,0.1-0.2,0.2
				c0,0.1,0.1,0.2,0.2,0.2c0.1,0,0.2-0.1,0.2-0.2C26.5,17.2,26.4,17.1,26.3,17.1L26.3,17.1z M23.3,16.3c-0.3,0.4-0.2,0.8,0.3,1.3
				l0.7,0.8c0.6,0.4,0.9,0.3,0.8-0.3c-0.1-0.4,0-0.6,0.4-0.6c0.2,0,0.4-0.2,0.5-0.4c0.1-0.3,0-0.5-0.2-0.6c-0.5,0.4-1,0.5-1.3,0.6
				c0.5-0.3,0.9-0.6,1-0.8c0.1-0.1,0.3-0.2,0.5-0.1c0-0.2-0.1-0.4-0.4-0.5c-0.6,0-1.1,0.4-1.7,1c0.3-0.7,0.8-1.1,1.5-1.1
				c0-0.2,0-0.4-0.2-0.5c-0.4,0-0.9,0.1-1.3,0.4L23.3,16.3L23.3,16.3z M26.6,21.4l0.1,1.4l0.3-0.6c-0.1,0.8-0.2,1.4,0.1,2.2
				c0.1-1.2,0.2-1.6,0.5-1.4c-0.1,0.8-0.2,1.6,0,2.2l0.4-1.1c0,1.2-0.1,2.2,0.3,2.6c0-1.3,0-2.2,0.2-2.1l0.2,1.5L29,25l0.4,2.4
				c0.1,0.2,0.2-0.5,0.1-1.7l0.5,1.7V26C29.1,24.2,28,22.7,26.6,21.4L26.6,21.4z M35,26.2c0-0.3,0.1-0.5,0.2-0.7
				c-0.1,0-0.2-0.1-0.3-0.2c-0.2,0.4-0.5,0.8-0.9,1.3c0.3-0.9,0.6-1.5,1.2-2.2c-0.1,0.3-0.2,0.5-0.2,0.7c0.1,0.1,0.2,0.2,0.3,0.2
				c0.1-0.1,0.2-0.2,0.2-0.2c0,0.1,0,0.2,0,0.4h0l0,0.1l0,0C35.3,25.9,35.2,26,35,26.2L35,26.2z M34.5,26.9c0-0.2,0.1-0.4,0.3-0.6
				C34.7,26.7,34.7,26.7,34.5,26.9L34.5,26.9z M36.6,27.3c0-0.2,0.1-0.3,0.1-0.4l0,0l0.1-0.1c0,0,0-0.1,0.1-0.2
				c0.1-0.1,0.2-0.2,0.2-0.3C37.1,26.8,37,26.9,36.6,27.3L36.6,27.3z M36.6,28.4c-0.1-0.4,0-0.7,0.5-0.9C37,28.1,37,28.3,36.6,28.4
				L36.6,28.4z M37.5,28.1c0.4-1,0.4-1.4,0.3-2.6C38.3,26.6,38.2,26.9,37.5,28.1L37.5,28.1z M44.2,31.8c0.2-0.9,0.3-1.7,0.2-2.5
				c-0.1,0-0.1,0-0.2,0.1c0,0.4-0.2,1-0.4,1.6c0.1-0.5,0.2-1.1,0.2-1.6c-0.1,0-0.2,0.1-0.2,0.1c0,0.4-0.2,0.8-0.3,1.3
				c0.1-0.4,0.1-0.9,0.1-1.3c-0.1,0-0.2,0-0.4,0c0,0.5-0.1,1.1-0.2,1.8c0-0.6,0-1.2,0-1.8c-0.1,0-0.2,0-0.4,0c0,0.6-0.1,1.2-0.2,2.1
				c0-0.7,0-1.4-0.1-2.1c-0.1,0-0.2,0-0.4-0.1c0,0.7-0.1,1.3-0.2,2.2c0-0.8-0.1-1.5-0.1-2.2c-0.1,0-0.2-0.1-0.4-0.1
				c0,0.6-0.2,1.2-0.3,2c0-0.7,0-1.4,0-2.1c-0.1,0-0.2-0.1-0.4-0.1c0,0.8-0.1,1.5-0.2,2.4c-0.1-1.1-0.2-1.8-0.1-2.5
				c-0.1,0-0.2-0.1-0.3-0.2c-0.2,1-0.3,1.8-0.2,2.8c-0.3-1.3-0.3-2,0-2.9c-0.1-0.1-0.2-0.1-0.2-0.2c-0.1,0.3-0.3,0.7-0.6,1.1
				c0.2-0.4,0.3-0.8,0.4-1.2c-0.1-0.1-0.3-0.2-0.4-0.2c-0.1,0.5-0.3,1.1-0.7,1.8c0.5-1.3,0.6-2.5,0.6-4.1c0.1,0.6,0.2,1.1,0.2,1.5
				c0.2,0.1,0.3,0.1,0.4,0.2c0.1-0.7,0.1-1.3,0.1-2.1c0.2,0.9,0.3,1.5,0.2,2.2c0.1,0,0.2,0.1,0.4,0.1c0-0.1,0.1-0.2,0.2-0.3
				c0,0.1-0.1,0.2-0.1,0.4c0.1,0,0.2,0,0.3,0c0.1-0.2,0.1-0.5,0.2-0.9c0,0.3,0,0.6,0,0.9c0.1,0,0.2,0,0.3,0c0-0.2,0-0.4,0-0.7
				c0.1,0.3,0.1,0.5,0.1,0.7c0.1,0,0.3,0,0.4,0c0-0.3,0-0.6,0-0.9c0.1,0.4,0.2,0.7,0.2,0.9c0.2,0,0.3,0,0.5,0c0-0.3,0-0.6,0-1
				c0.1,0.4,0.1,0.7,0.2,1c0.1,0,0.3,0,0.4,0c0-0.5,0-0.9,0-1.5c0.2,0.6,0.2,1,0.3,1.4c0.1,0,0.2,0,0.4,0c0-0.3-0.1-0.7-0.1-1.1
				c0.2,0.4,0.3,0.7,0.3,1c0.1,0,0.2,0,0.2,0c0-0.4-0.1-0.7-0.2-1.1c0.2,0.4,0.3,0.7,0.4,1.1c0.1,0,0.2,0,0.2,0
				c-0.1-0.6-0.1-1.2-0.2-1.9C45,28.4,45,29.4,44.2,31.8L44.2,31.8z M45.3,29.1l-0.1-1.6l0.2-0.2l-0.1-0.5c0.2,0.1,0.3,0.2,0.4,0.4
				c0.1-0.3,0-0.7-0.2-1c0.4,0.2,0.7,0.6,0.7,1.1c0.1-0.3,0.1-0.7-0.1-1.1c0.4,0.1,0.6,0.4,0.9,1L47.1,28c0.1,0.2,0.1,0.4,0,0.6
				c-0.2-0.2-0.3-0.3-0.5-0.2l0,0.7c-0.1-0.3-0.3-0.3-0.4-0.1l-0.6,0.5L45.3,29.1L45.3,29.1z M49,26.2c0,0.1,0,0.2-0.1,0.2
				c-0.1,0-0.2-0.1-0.3-0.2H49L49,26.2z M48.8,25.5c0.1,0.2,0.2,0.4,0.2,0.5h-0.4c-0.1-0.1-0.2-0.2-0.2-0.4c0,0,0,0,0-0.1H48.8
				L48.8,25.5z M48.1,24.7c0.1,0,0.4,0.2,0.6,0.6h-0.5C48,25,47.9,24.7,48.1,24.7L48.1,24.7z M47.8,26.2c0,0,0.2,0.1,0.4,0.4
				c0.1,0.2,0.2,0.4,0.1,0.5c0,0-0.2-0.1-0.3-0.4C47.8,26.4,47.8,26.2,47.8,26.2L47.8,26.2z M47,26c0,0,0.2,0.2,0.4,0.4
				c0.2,0.3,0.2,0.6,0.2,0.6c0,0-0.2-0.2-0.4-0.4C47,26.3,47,26,47,26L47,26z M33.9,24.4c0.1,0.1,0.2,0.2,0.3,0.2
				c0,0,0.1-0.1,0.2-0.2c0,0.3-0.1,0.4-0.3,0.6c0-0.1,0.1-0.2,0.1-0.3C34.1,24.6,34,24.5,33.9,24.4L33.9,24.4z M36.6,9.9
				c0.4,0.3,1.1,0.4,1.7,0.4l0,0.3c1,0,2-0.4,3-1.1c0,0-0.2-0.1-0.4,0c-0.7,0.4-0.7,0.1,0.7-0.6c0.2-0.1,0.4,0,0.7-0.1l0.9-0.2
				c-0.7,0.7-1.5,1.3-2.3,1.9c-1.1,0.7-2.2,0.8-3.1,0.5c-0.5-0.2-1.1-0.6-1.5-0.9C36.1,9.9,36,9.8,36.6,9.9L36.6,9.9z M42.2,10.1
				c-0.1,0-0.2,0.1-0.2,0.2c0,0.1,0.1,0.2,0.2,0.2c0.1,0,0.2-0.1,0.2-0.2C42.4,10.2,42.3,10.1,42.2,10.1L42.2,10.1z M43.4,12.5
				c0.1-0.1,0.2-0.2,0.2-0.1c0.1,0,0.1,0.2,0,0.2c-0.1,0.1-0.2,0.2-0.2,0.1C43.3,12.8,43.3,12.7,43.4,12.5L43.4,12.5z M46.3,11.5
				c0.1,0,0.2,0,0.3,0c0,0.1,0,0.2-0.2,0.3c-0.1,0.1-0.2,0.1-0.3,0C46.1,11.7,46.2,11.5,46.3,11.5L46.3,11.5z M45.7,11
				c0.1-0.1,0.2-0.1,0.3,0c0.1,0,0,0.2,0,0.3c-0.1,0.1-0.2,0.1-0.3,0C45.6,11.2,45.6,11.1,45.7,11L45.7,11z M41.2,11.9
				c0.1,0,0.2,0,0.3,0.1c0,0.1-0.1,0.2-0.2,0.2c-0.1,0-0.2,0-0.3-0.1C41,12,41.1,11.9,41.2,11.9L41.2,11.9z M42.8,14.9
				c0.2-0.1,0.4-0.1,0.4,0c0,0.1,0,0.2-0.2,0.3c-0.2,0-0.4,0-0.4,0C42.5,15,42.6,14.9,42.8,14.9L42.8,14.9z M37.6,12.1
				c-0.4,0-0.6,0.3-0.1,0.4c0.9,0.2,1.4-0.1,1.8-0.3c0.4-0.3,0.9-0.5,1.3-0.9c0.4-0.4,0.3-0.4-0.2-0.2l-0.9,0.4
				C38.7,11.9,38.1,12.1,37.6,12.1L37.6,12.1z M40.5,11.7c-0.3,0.3-0.2,0.4,0.2,0.2c1.3-0.7,2.7-1.3,3.4-0.9c-0.4,0-0.9,0.1-1.4,0.4
				c-0.2,0.1-0.4,0.2-0.6,0.4c-0.6,0.4-0.5,0.5,0.2,0.3c0.6-0.2,1.1-0.3,1.7-0.7c0.2-0.1,0.4-0.2,0.6-0.4c0.5-0.5,0.1-1.1-0.4-0.7
				c-0.7,0-1.4,0.1-2.1,0.4C41.3,11.1,41,11.2,40.5,11.7L40.5,11.7z M44.1,9.6v0.2c0.2,0,0.2,0,0.4,0c0.4,0.1,0.6,0.5,0.7,1.1
				c0.2-0.1,0.4-0.3,0.5-0.7c0-0.4-0.3-0.7-0.8-0.8C44.6,9.5,44.4,9.5,44.1,9.6L44.1,9.6z M43.5,9.7c0.2-0.1,0.2-0.1,0.4-0.2v0.2
				c-0.2,0-0.2,0-0.3,0.1C43.4,9.9,43.2,9.8,43.5,9.7L43.5,9.7z M42.8,9.3c-0.2,0.2-0.1,0.3,0.2,0.2c0.4-0.3,1.1,0,1.1-0.4
				c0.6-0.2,1.1-0.2,1.5,0c0.7,0.2,1.1-0.1,0-0.4c-0.5-0.1-1.1-0.1-1.5,0C43.6,8.7,43.1,9,42.8,9.3L42.8,9.3z M45.7,9.5
				c0.3,0,0.6,0,0.6,0.3c0,0.4,0,0.7-0.3,0.8C46.2,9.8,45.8,9.9,45.7,9.5L45.7,9.5z M46.6,9.3c-0.1-0.7,0.2-0.7,0.6-0.1
				C47,9.3,47,9.6,47,10.2c0,0.4-0.2,0.7-0.5,0.9c-0.2,0.1-0.3,0-0.2-0.3l0.3-0.6C46.8,9.7,46.7,9.4,46.6,9.3L46.6,9.3z M44,12.8
				c0-0.7,0.4-1.1,1-1.3c-0.1,0.5,0.2,0.9,0,1.3C45,13.3,44,13.2,44,12.8L44,12.8z M43.8,13.9c0.2-0.4,0.5-0.5,1-0.4
				c0.4,0,0.6,0.1,0.6,0.4c0,0.4,0,0.8,0,1.1c-0.1,0.3-0.2,0.3-0.6,0.3c-0.4,0-0.6-0.2-1.1,0.1C44,14.7,43.6,14.4,43.8,13.9
				L43.8,13.9z M45.5,12.3c0.2,0.4,0,0.6,0.2,0.9c0.2,0.2,0.5,0,0.5-0.3c0-0.3-0.2-0.6-0.4-0.8C45.6,11.9,45.3,12,45.5,12.3
				L45.5,12.3z M45.7,13.9c-0.1-0.4,0-0.4,0.5-0.2c0.3,0.3,0.4,0.5,0.2,0.7c0.3,0.3,0.3,0.8,0,1.3c-0.2-0.2-0.4-0.1-0.6-0.3
				c0-0.2-0.2-0.1-0.1-0.7C45.9,14.3,45.9,14.1,45.7,13.9L45.7,13.9z M46.3,17.2c0.2,0,0.3,0.1,0.3,0.2s-0.2,0.2-0.3,0.2
				c-0.2,0-0.3-0.1-0.3-0.2C46,17.3,46.2,17.2,46.3,17.2L46.3,17.2z M43.8,16.8c0.2,0,0.4,0.1,0.3,0.2c0,0.1-0.2,0.2-0.4,0.2
				c-0.2,0-0.4-0.1-0.3-0.2C43.4,16.9,43.6,16.8,43.8,16.8L43.8,16.8z M46.9,16.4v0.2L45.6,17l0.1-0.8c-0.4-0.1-0.6,0-0.7,0.3l0,0.3
				c-0.2-0.1-0.3-0.2-0.4-0.4c-0.2-0.2-0.4-0.1-1,0c-0.1,0-0.3,0-0.4,0l0.2,0.4c-0.2,0.1-0.3,0.3-0.4,0.6c0.2,0,0.3,0,0.5,0.1
				c0.4,0.3,0.9,0.2,1.3,0.1v1.1l-0.2,0c-0.2,0.1-0.2,0.3-0.1,0.4l0.7,0.3c0.3,0.1,0.4-0.2,0.4-0.5l0.2-1.3l0.6,0.2
				c0.2,0,0.4,0,0.6-0.1v1L46.5,19c0,0.3-0.1,0.5-0.3,0.6c0,0.4,0,0.6-0.2,0.7c-0.4,0.4-0.5,0.8-1,1.1c-0.3,0-0.5,0-0.8-0.1
				c-0.3-0.2-0.6-0.4-0.8-0.7l-0.2-0.1l0.1-0.3l-0.2,0l0.1-0.3l-0.3,0l0.1-0.3l-0.2-0.2l0.2-0.5l-0.2-0.1l0.3-0.4h-0.4l0.3-0.2
				L42.5,18c-0.1-1,0.1-1.7,0.5-2.2c0.8-0.2,1.6-0.4,2.2-0.3C46,15.7,46.6,16,46.9,16.4L46.9,16.4z M43.9,19.7
				c0.4-0.1,0.8-0.1,1.1,0c0.7,0.2,0.7,0.4,0.1,0.8c-0.4,0-0.8,0-1.2-0.1C44,20.2,44.2,20.1,43.9,19.7L43.9,19.7z M44.4,20
				c0.2-0.1,0.4-0.1,0.7,0c0.1,0.1,0.1,0.2,0,0.3c-0.2,0-0.3,0-0.4,0C44.4,20.2,44.5,20.1,44.4,20L44.4,20z M44.5,18.7
				c0,0-0.1,0-0.1,0.1c0,0,0.1,0.1,0.1,0.1c0.1,0,0.1,0,0.1-0.1C44.6,18.8,44.6,18.7,44.5,18.7L44.5,18.7z M45.1,16.9h0.3
				c0-0.1,0-0.2,0-0.4c0-0.2-0.1-0.1-0.3,0.1C45.2,16.7,45.1,16.8,45.1,16.9L45.1,16.9z M44.9,18.9c0.1,0.2,0.2,0.2,0.2,0.1
				c0.2-0.8,0.2-1.3,0.2-1.7h-0.3C45,17.9,44.9,18.3,44.9,18.9L44.9,18.9z M41.8,16c0-0.3,0.3-0.3,0.3,0c0.1,0.6,0,1-0.3,1.3
				c-0.2,0.1-0.5,0-0.3-0.2C41.8,16.7,41.8,16.4,41.8,16L41.8,16z M41.5,18.4c-0.1-0.4,0.2-0.5,0.2-0.1c0.3,1.1,0.8,2.2,1.9,3.2
				c0.4,0.4,0,0.7-0.4,0.3C42.1,20.8,41.8,19.5,41.5,18.4L41.5,18.4z M45.6,21.7c0-0.3,0.1-0.7,0.4-0.9c0.2-0.2,0.3,0.1,0.2,0.3
				C46,21.3,45.8,21.3,45.6,21.7L45.6,21.7z M62,20.6c-0.1-0.1-0.4-0.2,0-0.3c-0.4-0.2-0.2-0.6,0-0.6c1.1,0,2-0.7,3.2,0l0.6,0.7
				c0.4,0.9,0,1.3-0.4,0.7c-0.2-0.4,0-0.7-0.7-1c0.3,0.6,0.6,1.2,0.6,1.9c0.9,0.9,0.1,1.1-0.2,0.5l-0.4-1.7c0.1,0.8,0.1,1.4,0,1.4
				c-0.3,0-0.1-0.6-0.2-1.3c-0.1-0.3-0.2-0.8-0.3-0.9c-0.7-0.2-1.3,0-1.9,0c0.9,0,1.5,0,1.7,0.2c0.3,0.4,0.3,0.9,0.2,1.3
				c-0.2,0.3-0.3,0.2-0.3-0.2L63.7,21c0-0.3-0.4-0.3-0.8-0.3C62.6,20.8,62.3,20.8,62,20.6L62,20.6z M57.6,19
				c-0.3-0.4-0.1-0.6,0.4-0.5c1.3,0.2,2.4,0.4,3.1,1c0.4,0.3,0.1,0.6-0.2,0.4L60,19.3c0,0.4-0.3,0.2-0.8-0.2
				c-0.3,0.3-0.7,0.2-1.2-0.3l0.3,0.8c0,0.2-0.1,0.2-0.2,0L57.6,19L57.6,19z M59.4,19.6c0.2-0.1,0.4,0.1,0.4,0.4
				c0.1,0.2-0.1,0.3-0.3,0.2C59.4,20,59.2,19.7,59.4,19.6L59.4,19.6z M57,20.1c-3.4-0.3-5,0.8-5.9,2c-0.8,1-1.2,2.1-1.3,3.3
				c0.1,0.2,0.4-0.2,1-0.9l-0.3-0.1c0.1-0.2,0.2-0.4,0.4-0.7c0.1-0.1,0.1-0.3,0.3-0.4c0.2-0.1,0.4-0.4,0.4-0.4h-0.3
				c0.9-1.1,2.2-1.4,3.7-1.4c0.4,0,0.8,0.1,1.1,0.1c0.2,0,0.4,0,0.5-0.1c0.1-0.1,0.2-0.2,0-0.2c-1.3-0.2-2.6-0.1-3.9,0.2
				c0.9-0.6,2.3-0.7,4.2-0.6C57.7,20.8,57.7,20.2,57,20.1L57,20.1z M51.1,41.8c0.1,0.1,0.2,0.3,0.1,0.6c-0.1,0.2-0.3,0.4-0.4,0.4
				c-0.2,0-0.2-0.3-0.1-0.6C50.8,42,50.9,41.8,51.1,41.8L51.1,41.8z M48.1,43c0,0,0.1,0.2,0.1,0.4c0,0.2-0.1,0.4-0.1,0.4
				c-0.1,0-0.1-0.2-0.1-0.4C48,43.2,48.1,43,48.1,43L48.1,43z M48.4,44.4c0.1-0.8,0.5-1.5,1.1-1.9c0.6-0.4,0.7-0.3,0.2,0.3
				c-0.4,0.5-0.7,1.2-1,1.7C48.7,44.8,48.3,45.1,48.4,44.4L48.4,44.4z M50.1,41.3c0.5-0.1,0.3,0.2,0.2,0.3c-0.4,0.3-0.9,0.6-1.2,1
				c-0.4,0.4-0.4,0.3-0.2-0.2C49.1,41.9,49.5,41.5,50.1,41.3L50.1,41.3z M46.6,44.1c0.2-0.4,0.6-0.7,0.9-1c0.2-0.3,0.2-0.6,0.4-0.9
				c0.6-0.8,1.2-1.4,1.9-2c0.8-0.5,1.4-1.5,2-2.8l0.1,0.2c-0.2,1.9-0.8,3.1-1.9,3.3l-1.4,1.2c-0.4,0.2-1,1-1.7,2.2
				C46.4,44.5,46.3,44.4,46.6,44.1L46.6,44.1z M46.3,43.2c0.8-1.6,2-2.6,3.1-3.5c1-0.8,1.6-2.1,2.1-3.5c0.2-0.6,0.6-0.3,0.3,0.7
				c-0.5,1.7-1.8,2.9-2.7,3.6c-1,0.8-1.6,1.7-2.6,3C46.2,43.8,46,43.7,46.3,43.2L46.3,43.2z M46.2,41.9l-0.6,0.2
				c0.2-0.9,0.7-1.7,1.5-2.4c0.9-0.7,1.8-0.9,2.9-1.7c0.3-0.2,0.4-0.1,0.2,0.4c-0.5,0.5-1,0.8-1.6,0.9c-0.9,0.2-1.5,1-2.1,2l1.8-1.3
				c0.4-0.1,0.5,0,0.2,0.3c-1.9,1-1.7,2.2-2.4,2.5C45.9,42.5,46,42.2,46.2,41.9L46.2,41.9z M46,39.5c0.3-0.7,1.2-1.1,2.5-1.5
				c0.9-0.3,1.5-0.9,2.2-1.6c0.7-0.4,0.5,0,0.3,0.4c-0.2,0.4-0.4,0.5-0.8,0.8c-0.5,0.4-1.2,0.8-1.8,1c-0.7,0.2-1.3,0.7-2,1.4
				C46.1,40.2,45.9,40.1,46,39.5L46,39.5z M47.9,37.2c0.6-0.4,1.1-0.7,1.5-1.3c0.6-0.8,0.8-0.9,0.7,0c-0.2,0.7-0.7,1.4-1.7,1.8
				C47.6,38,47.4,37.6,47.9,37.2L47.9,37.2z M50.5,35.3l0.3-1.5c0-0.6,0.2-1.1,0.6-1.5l0.4-1.2c0.1-0.5,0.3-0.4,0.3,0.2L51.9,32
				c0.2,0.1,0.1,0.4,0,0.6c0,0.3,0,0.6-0.3,0.7c-0.1,1.1-0.2,2-0.5,2.3C50.5,36.2,50.3,36.1,50.5,35.3L50.5,35.3z M48.6,35.1
				l0.7-1.6c0.2-0.6,0.4-0.9,0.8-0.9l0.9-0.9c0.2-0.2,0.3,0.1,0.2,0.3l-0.7,1.1c-0.1,0.9-0.4,1.6-1.2,2.5c-0.2,0.2-0.4,0.2-0.3-0.1
				l0.8-1.5l-1,1.3C48.5,35.7,48.4,35.4,48.6,35.1L48.6,35.1z M47.4,35.8c0.4-1,0.5-1.5,0.9-1.8c0.4-0.4,0.6-0.4,0.3,0.1
				c-0.2,0.4-0.5,1-0.5,2C48.1,36.9,47,36.7,47.4,35.8L47.4,35.8z M47.3,34.5c0-0.9,0.3-1.3,0.7-1.5c0-0.3,0.1-0.6,0.3-0.7
				c0.9-0.4,1.5-1.3,2.3-1.5c0.2-0.6,0.7-0.9,1.4-1.8c0.4-0.4,0.6-0.3,0.4,0.4c-0.2,0.8-0.7,1.5-1.5,1.9c-0.7,0.9-1.1,1.3-1.4,0.9
				c-0.5,0.7-1.1,1.1-1.5,1.4l-0.4,1C47.4,34.7,47.4,34.8,47.3,34.5L47.3,34.5z M47.4,32.5c0.1-0.1,0.2-0.2,0.3-0.1
				c0.1,0.1,0.1,0.2,0,0.4c-0.1,0.2-0.2,0.2-0.4,0.1C47.3,32.8,47.3,32.6,47.4,32.5L47.4,32.5z M51.9,25.5c0.6-0.7,1.3-1.2,1.9-1.5
				c0.8-0.3,0.7,0.3,0.2,0.3c-0.4,0-1,0.4-1.9,1.5C51.9,26.2,51.6,25.9,51.9,25.5L51.9,25.5z M46.6,33.8c-0.1-1.5,0.2-2.3,0.9-2.8
				c1.9-1.1,2.5-2.8,3.1-2.8c0.6-1.1,1.5-2.2,2.6-3.2c0.8-0.6,1-0.4,0.5,0.4c-1.2,1.7-2.4,3.7-3.4,4.2c-0.5,0-0.9,0.3-1.1,0.8
				l0.7-0.4c0.4,0,0.4,0.1,0.2,0.3c-0.6,0.3-1.6,1.9-1.9,0.9c-0.4,0.8-1.1,0.7-1.1,1.4l-0.1,1C46.8,34.1,46.7,34.1,46.6,33.8
				L46.6,33.8z M53.8,23.2c-1.1,0.3-2.2,1.2-3.2,2.8c-0.2,0.2-0.3,0.2-0.2-0.1c0.1-0.2-0.2-0.3-0.3,0c-0.1,0.4-0.1,0.5-0.3,0.5
				c-0.4,0-1.4,2-1.9,3.3c-0.1,0.7,0.1,0.9,0.5,0.4c0.7-0.7,1-1.1,0.8-1.4l0.9-1.1c0.6-0.1,1-0.4,1-1c0.4-0.2,0.6-0.6,0.5-0.9
				c0.8-1,1.7-1.7,2.6-2C54.3,23.3,54.2,23.2,53.8,23.2L53.8,23.2z M51.1,23.6c-0.1,0.3-0.1,0.4,0,0.3c1-0.9,1.7-1.2,2.3-1.1l0,0.1
				c-1,0.1-2,0.9-2.8,2.3c-0.1,0.3-0.1,0.4,0.2,0.2c0.7-1,1.4-1.7,2.2-2.2c0.4-0.2,0.9-0.3,1.3-0.4c0.4-0.1,0.8-0.2,1.1-0.2
				c0.4,0,0.5-0.4,0-0.5C53.1,22.1,51.8,22.7,51.1,23.6L51.1,23.6z M52,22.3c-0.2,0.2-0.3,0.4,0.1,0.2c1.1-0.5,2.2-0.6,3.3-0.4
				c0.4,0,0.4-0.4-0.3-0.5C53.9,21.4,52.9,21.7,52,22.3L52,22.3z M57.4,22.3c0.2,0.1,0.3,0.5,0.5,1.1c0.2,0.5,0.6,1.1,0.6,1.2
				C57.8,24,57.4,23.1,57.4,22.3L57.4,22.3z M59.9,47.7c-0.2-0.2-0.2-0.4-0.7-1.2c-0.5-0.9-1.3-1.5-1.3-1.8
				C59.2,45.7,59.9,46.5,59.9,47.7L59.9,47.7z M59.9,46.5c-0.2-0.1-0.3-0.6-0.7-1.2c-0.4-0.7-1.1-1.4-1.1-1.6
				C59.1,44.5,59.8,45.6,59.9,46.5L59.9,46.5z M59.7,45c-0.1-0.1-0.2-0.4-0.5-0.9c-0.3-0.5-0.9-1.1-0.9-1.2
				C59.2,43.4,59.7,44.2,59.7,45L59.7,45z M59.6,43.4c-0.1-0.1-0.2-0.3-0.4-0.6c-0.2-0.4-0.6-0.7-0.6-0.8
				C59.2,42.3,59.6,42.8,59.6,43.4L59.6,43.4z M59,21.1c0.1,0.1,0.2,0.6,0.3,1.1c0.2,0.6,0.4,1.2,0.4,1.3C59,22.8,58.8,21.8,59,21.1
				L59,21.1z M51.8,47.3c-0.6,0-0.7-0.1-0.8-0.7C51.3,46.9,51.5,47,51.8,47.3L51.8,47.3z M51,46.2c0-0.2-0.1-0.5-0.1-0.8
				c0.7,0.7,1.3,1.1,2,1.8c-0.2,0.2-0.4,0.2-0.6,0.1C51.8,46.9,51.4,46.6,51,46.2L51,46.2z M50.8,45.1c0-0.3,0-0.7,0.1-1.1
				c0.9,1.2,1.8,2.1,2.7,3.3c-0.1,0.1-0.3,0.1-0.5,0C52.3,46.5,51.6,45.9,50.8,45.1L50.8,45.1z M51,43.8c0-0.1,0-0.1,0-0.2
				c0.1-0.2,0.1-0.3,0.2-0.5c1.2,1.5,2.6,3,3.6,4.4c-0.1,0.1-0.4,0.1-0.7,0C53,46.1,52,45,51,43.8L51,43.8z M51.2,42.8
				c0.1-0.2,0.1-0.4,0.2-0.6c1.3,1.6,2,2.4,3.2,3.9c0.2,0.2,1.1,1.4,1.3,1.5c-0.2,0.1-0.4,0.1-0.6,0C53.9,45.8,52.6,44.3,51.2,42.8
				L51.2,42.8z M51.5,41.9c0-0.2,0.1-0.5,0.2-0.8c1.3,1.6,3.5,4.2,4.8,5.8c0.4,0.5,0.1,0.3,0.4,0.6c0.3,0.3-0.4,0.3-0.6-0.1
				c-0.2-0.2-1-1.1-1.2-1.3C53.5,44.3,52.9,43.5,51.5,41.9L51.5,41.9z M51.7,40.9c0-0.2,0.1-0.4,0.1-0.7c1.2,1.5,3.6,4.4,5,6.1
				c0.7,0.9,0.7,0.9,1.1,1.3c0,0.2-0.2,0.1-0.4,0c-0.4-0.4-0.3-0.4-0.7-0.9C55.1,44.9,53.2,42.6,51.7,40.9L51.7,40.9z M51.8,40.1
				c1.6,1.7,3.5,4.1,5.4,6.3c0.7,0.8,0.8,0.9,1.3,1.5c0.2,0.1,1,0.4,0.8-0.2c-0.6-1-1.4-1.7-1.5-2c1,1,1.4,1.4,2,2.4
				c0.2,0.2,0.4,0.3,0.5,0.3l1.4,0.2c0,0,0.1-0.1,0-0.1c-1.3-1.6-0.8-1.5,0.4-0.2c0.2,0.2,0.3,0.3,0.4,0.5l0.7,0.1
				c-1.1-1.7-0.9-1.7,0.4,0.1c0.2,0.2,0.4,0.2,0.6,0c-1.5-2-1.4-2.2-0.1-0.6c0.2,0.2,0.2,0.4,0.4,0.7c0.4,0.3,0.4,0.4,0.4-0.3
				c-2-2.6-2-2.7,0.1-0.3c0.3,0.1,0.2,0,0-0.3c-1.8-2.4-1.7-2.6,0.1-0.4c0.2,0.2,0.3,0.2,0-0.3c-1.9-2.7-1.4-2.2,0.1-0.4
				c0.1,0,0.1,0,0-0.3c-1.6-2.4-1.6-2.7,0.1-0.4c0.3,0.1,0.3-0.1,0-0.5c-2.4-3.2-1.8-2.7,0-0.7c0.4,0.2,0.3-0.1,0-0.5
				c-1.7-2.3-1.8-2.6-0.3-1.2c0.1,0,0.2,0.1,0.3,0c0.1-0.2,0-0.3-0.1-0.5c-2.2-2.2-2.1-2.6,0-1.1c0.1,0,0.2-0.1,0.1-0.2
				c-1.4-1.5-2.6-2.5-0.4-0.9c0.3,0,0.2-0.3-0.2-0.7c-2.1-2.1-1.3-1.5-0.1-0.4c0.1-0.1,0.1-0.3-0.3-0.9c-1.5-1.3-1.6-1.5-0.2-0.7
				c0.2-0.1,0.1-0.3-0.2-0.5c-1.1-0.9-1.3-1.2-1.1-1.1c0.1,0,0.3,0.2,0.5,0.3c0.1,0,0.2,0.1,0.2-0.1c0-0.2-0.2-0.5-0.4-0.6
				c-1-0.7-0.9-0.7-0.1-0.6c-1.4-1.1-1.3-1.1-0.4-0.9c0-0.1,0-0.2-0.2-0.4c-0.7-0.7-0.8-0.9-0.4-0.9c-0.2-0.2-0.7-0.7-0.3-0.9
				c-0.3-0.7-0.8-1.3-1.1-2l1.2,0.6c0.1-0.6-1.5-0.7-1.8-2.8c0.1,0.1,0.3-2.6,0.4-2.6c0.4,0.1-0.2,2.3,0.4,3.1c0.1,0,0-2.2,0.1-2.2
				c0.1,0,0.3,2.4,0.4,2.4c0.6,0.4-0.2-2,0.1-2.2c0.1-0.1,0.5,2.2,0.5,2.4c0,0.2,0.3,0.2,0.3,0c-0.3-0.9-0.3-2.8-0.2-2.2l0.5,2.4
				c0.1,0.2,0.5,0.3,0.5,0.2l-0.4-2c-0.1-0.5,0.5,1.1,0.7,2c0,0.3,0.4,0.3,0.4,0.1l-0.3-1.4c0.5,0.2,0.3,0.9,0.6,1.4
				c0.2,0.4,0.3-0.5,0.6,0.3c0.2,0.5,0.4,0.6,0.4,0.1c-0.1-1,0-1,0.2,0c0,0.4,0.1,0.3,0.2,0.1c0.1-0.6,0.2-0.6,0.5,0.1
				c0.1,0.2,0.1,0.2,0.3,0.1c0.4-0.6,0.3-0.2,0.2,0c0,0.2,0.1,0.2,0.2,0.1c0.2-0.2,0.2,0,0.3,0.1c0.2,0,0.2-0.1,0.2-0.1
				c0.1,0,0.1,0.2,0.2,0.2c0.2,0.1,0.4-0.1,0.4,0c0.1,0.2,0.2,0.4,0.3,0.2c0.2-0.5,0.5-0.8,1.3-0.7c0,0.1,0.1,0.1,0.1,0.2
				c0,0.4,0.1,0.7,0.6,0.7l0,0.6c0,0.3,0.2,0.6,0.6,0.9c0.4,0.3,0.7,0.1,0.9-0.4c0.1-0.5,0-0.8,0-0.8c-0.6-0.1-0.2,0.9-0.6,0.8
				l-0.2-0.2c-0.5-2,0.7-1.2,0.8-1.5c0.1-0.6-0.3-0.8-1.2-0.9l0-0.1c0.6,0,0.3-0.4-0.4-0.3c-0.2-0.4-0.6-0.3-0.7-0.6
				c-0.8,0-0.9-0.1-0.2-0.2c0.1-0.1,0-0.2,0-0.3c-0.7,0-0.7-0.1-0.2-0.2c0-0.1,0-0.3-0.3-0.4c-1-0.1-1.1-0.2-0.2-0.2
				c0.2-0.2,0-0.4-0.4-0.6c-1,0-0.9-0.1-0.4-0.2c0.1-0.1,0.1-0.3-0.1-0.4l-0.8-0.1l0.7-0.1c0.4-0.1,0.3-0.1-0.4-0.5
				c-0.2-0.4-0.3-0.4-0.5,0c-0.2,0.5-0.6,0.3-1.2-0.4c0.4,0,0.4-0.1,0.2-0.3l-1.1,0c0.4-0.6,1.4-0.2,1.5-0.6c0-0.2-0.6-0.3-0.8-0.7
				c0.7,0.4,1.1,0.4,1.1,0.1c-0.9-0.5-1.7-0.7-2.4-0.7l0.2-0.2c0.1-0.1,0.1-0.2-0.2-0.3L63,22.4l0.2-0.2c0.4,0,0.2-0.1,0.2-0.2
				l-0.7-0.3h0.3c0.3,0,0.4-0.1,0.2-0.4c-0.6-0.4-1.1-0.4-1.5-0.2c0.1,0.4,0.2,0.9,0,1.1c-0.2-0.2-0.3-0.5-0.4-0.8l-0.1,0
				c0,0.5,0,1.2,0.3,1.7c-0.4,0-0.7-1-0.7-1.8l-0.4-0.1c0,0.5,0,1.1,0.3,1.5c-0.4-0.1-0.7-0.9-0.7-1.7l-0.3-0.1c0,0.2,0,0.4,0,0.6
				c0,0.7,0.2,1.5,0.2,1.7c-0.4-0.8-0.5-1.7-0.4-2.4l-0.1,0c-3.6,0.6-6.1,4.1-6.8,9.9c0.3,0.5,0.5,1.4,1.4,2.9
				c0.9,1.6,3.2,3.5,3.3,4c-2.3-1.9-4.3-4.6-4.7-6.7c0,0.2,0,0.5-0.1,0.8c0,0,0,0.1,0,0.1c0.2,0.6,0.5,1.4,1.3,2.7
				c1.1,1.7,3.5,3.6,3.7,4.2c-2.3-1.8-4.3-4.4-5-6.5c0,0.2,0,0.4,0,0.7c0.2,0.6,0.6,1.3,1.3,2.5c1.1,1.8,3.7,3.9,3.9,4.5
				c-2.3-1.7-4.4-4.4-5.2-6.5c0,0.2,0,0.4,0,0.6c0.2,0.6,0.5,1.3,1.1,2.4c1.1,1.9,3.9,4.2,4.2,4.9c-2.2-1.8-4.5-4.6-5.4-6.7
				c0,0.2,0,0.4,0,0.6c0.2,0.6,0.6,1.3,1.1,2.2c1.2,2,4.1,4.6,4.4,5.2c-2.2-1.9-4.5-4.7-5.6-6.8c0,0.1,0,0.3,0,0.4
				c0.2,0.6,0.6,1.3,1.1,2.2c1.3,2.1,3.9,4.2,4.1,4.9c-2.3-2-4.2-4.2-5.3-6.4c0,0.1,0,0.2,0,0.4c0.2,0.6,0.6,1.3,1.1,2.1
				c1.3,2.2,3.9,4.2,4.1,4.9c-2.4-2.1-4.2-4.2-5.3-6.4c0,0.3,0,0.5-0.1,0.7c0.2,0.4,0.5,1,0.8,1.5c1.6,2.1,4.2,4.4,4.4,5.2
				c-2.1-1.9-3.9-4.1-5.2-6.1C51.9,39.5,51.9,39.8,51.8,40.1L51.8,40.1z M56.7,23c0.1,0.1,0.3,0.6,0.6,1.2c0.3,0.7,0.8,1.3,0.9,1.5
				C57.2,24.9,56.7,23.9,56.7,23L56.7,23z M56.1,23.6c0.2,0.2,0.3,0.7,0.7,1.4c0.4,0.7,1.1,1.5,1.1,1.7
				C56.8,25.9,56.1,24.7,56.1,23.6L56.1,23.6z M55.6,24.4c0.2,0.2,0.3,0.8,0.8,1.6c0.4,0.8,1.2,1.7,1.3,1.9
				C56.3,26.9,55.6,25.5,55.6,24.4L55.6,24.4z M55.1,25.1c0.2,0.2,0.3,0.9,0.9,1.7c0.5,0.9,1.4,1.9,1.5,2.2
				C56,27.9,55.1,26.4,55.1,25.1L55.1,25.1z M54.6,25.9c0.2,0.2,0.4,0.9,0.9,1.9c0.6,1,1.6,2.1,1.7,2.4
				C55.7,28.9,54.7,27.3,54.6,25.9L54.6,25.9z M54.2,26.7c0.2,0.2,0.4,1,1,2.1c0.6,1.1,1.8,2.2,1.9,2.6C55.4,30,54.3,28.2,54.2,26.7
				L54.2,26.7z M53.8,27.4c0.3,0.3,0.4,1.1,1.1,2.2c0.7,1.2,2.1,2.4,2.2,2.8C55.2,31.1,54,29.1,53.8,27.4L53.8,27.4z M53.5,28.2
				c0.3,0.3,0.4,1.1,1.2,2.4c0.8,1.3,2.2,2.6,2.4,3.1C55,32.1,53.6,30,53.5,28.2L53.5,28.2z M53.2,29c0.3,0.3,0.4,1.2,1.2,2.6
				c0.9,1.4,2.4,2.8,2.6,3.3C54.9,33.2,53.4,30.9,53.2,29L53.2,29z M52.9,29.8c0.3,0.4,0.5,1.3,1.3,2.8c0.9,1.5,2.8,3.2,2.9,3.7
				C54.9,34.4,53.2,31.8,52.9,29.8L52.9,29.8z M58.2,21.8c0.1,0,0.3,0.5,0.4,0.9c0.2,0.4,0.4,0.9,0.4,1
				C58.4,23.2,58.2,22.4,58.2,21.8L58.2,21.8z M68.9,32.5l0.8,0.8c0.2,0.2-0.4,0.3-0.9-0.2C68.1,32.6,68.4,32.1,68.9,32.5L68.9,32.5
				z M65.6,27.5c0.1,0,0.2,0.1,0.2,0.3c0,0.4,0.2,0.8,0.4,1.2c0,0.1,0,0-0.2-0.2c-0.2-0.2-0.2-0.4-0.2-0.6
				C65.6,28,65.5,27.5,65.6,27.5L65.6,27.5z M65,26.9c0,0,0.1,0.1,0.2,0.3c0,0.4,0.2,0.9,0.3,1.5c0,0.1,0,0-0.2-0.2
				C65.1,28.2,65,28,65,27.7C65,27.4,64.9,26.9,65,26.9L65,26.9z M64.4,26.3c0.1,0,0.2,0.1,0.2,0.4c0,0.5,0.2,1.1,0.3,1.7
				c0,0.1,0,0-0.2-0.2c-0.2-0.3-0.2-0.6-0.2-0.9C64.4,26.9,64.3,26.2,64.4,26.3L64.4,26.3z M63.8,25.6c0.1,0,0.2,0.1,0.2,0.4
				c0,0.6,0.2,1.2,0.3,1.9c0,0.1,0,0-0.2-0.2c-0.2-0.4-0.2-0.7-0.2-1C63.8,26.3,63.7,25.6,63.8,25.6L63.8,25.6z M63.2,25
				c0.1,0.1,0.2,0.2,0.2,0.5c0,0.7,0.1,1.3,0.2,2.2c0,0.1-0.1,0-0.2-0.3c-0.2-0.4-0.2-0.7-0.2-1.1C63.2,25.8,63.2,25,63.2,25
				L63.2,25z M62.6,24.4c0.1,0.1,0.2,0.2,0.2,0.5c0,0.7,0.1,1.5,0.2,2.4c0,0.1-0.1,0-0.2-0.4c-0.2-0.4-0.2-0.8-0.2-1.2
				C62.6,25.2,62.5,24.3,62.6,24.4L62.6,24.4z M62.1,24.4c0.1,0.1,0.2,0.2,0.1,0.4c0,0.6,0.1,1.2,0.2,1.9c0,0.1-0.1,0-0.2-0.3
				c-0.2-0.3-0.2-0.7-0.2-1C62.1,25.1,62.1,24.3,62.1,24.4L62.1,24.4z M61.7,24.4c0,0.1,0.1,0.2,0.1,0.4c-0.1,0.4,0,0.9,0,1.5
				c0,0.1,0,0-0.2-0.2c-0.1-0.3-0.1-0.5-0.1-0.8C61.6,25,61.6,24.4,61.7,24.4L61.7,24.4z M37.3,76.5c0.6,0.7,1.2,0.7,1.7,0.4
				c0.6-0.1,1.7-0.2,3-0.2c0-1.7-1.1-2.9-3.1-3.7c-0.6-0.5-0.4-0.7,0.4-0.5c2.8,0.8,5.4,1.3,7.8,1.2c1-0.4,1-0.9,0-1.3
				c0.9-1.3,0.6-2.7-0.6-4c1.2,0,3.1,1,5.5,2.8c1.3,0.7,2.2,0.9,2.8,0.4c0.7-0.5,1.6-0.5,2.8-0.5c2.4,0.2,3,1.5,2.3,4.3
				c0,1.7-0.4,3.2-0.5,4.9c-0.2,3.2,1.7,3.7,4.1,2.4c1.2-0.7,2-1.7,2.5-2.8c-0.6-0.1-0.7-0.4-0.9-1.1c-0.1-0.2-0.2-0.5-0.2-0.8
				l-0.9-1.8c-0.6-0.5-0.9-1.1-0.9-1.9l-1.1-1.6c-0.5-1-0.4-1.3,0.2-1c1.1,1,0.7,0.3,0.5-0.2c-0.4,0-0.5-0.3-0.3-0.7
				c-0.4-0.2-0.7-0.4-0.3-0.7l-2-1.5l0.8-0.3l-2.7-3.5c-0.3-0.5-0.8-0.6-1.4-0.4c-3.5,1.9-7.8,2.9-12.3,3.5
				c-1.1,0.2-2.2,0.4-3.3,0.5c-1.7,2.3-3.1,3.8-4,4.4C35.7,73.7,35.8,75,37.3,76.5L37.3,76.5z M60.4,89.6c-0.7,0.4-0.9,0.8-0.2,1.2
				c0.4,0.3,0.7,0.3,0.8,0.1C61.7,90.8,60.6,90.3,60.4,89.6L60.4,89.6z M39.1,87.9c-0.4,0.3-0.7,0.7-0.4,1.2l0.9,0.8
				c0.4-0.3,0.3-0.8-0.1-1.1C39.2,88.5,39.1,88.2,39.1,87.9L39.1,87.9z M28.7,83.6c0.7,0.3,0.7,0.9-0.2,1.3
				C27.9,84.6,27.9,84.1,28.7,83.6L28.7,83.6z M16.8,59.4c2.9,3.4,3.5,7.2,1.1,11.6c-0.9,2.2-0.8,3.5,0.4,4.2c0.3-0.7,0.6-1.9,0.8-3
				c0.2-1.8,1.4-1.6,3-3.2c1.7-1.7,1.2-3.5,1-6.3c-0.3-6.1,1-9.6,2.8-11.6C21.2,49.8,18.5,53.1,16.8,59.4L16.8,59.4z M19.7,9
				C19.1,9.1,18.9,9.4,19,10l3.6,5.1c0.1,0.2,0.4,0.5,0.3,0.7c-0.3,0.7-0.4,1.1,0.2,1.7l1.2,1.2c0.1,0.9,0.3,1.5,0.6,1.8
				c-0.3,0.6,0.1,1.1,0.6,1.6c0.1,0.2,0.2,0.4,0.4,0.5l0.2,1.7c-1.7,1.4-2.6,2.5-2.7,3.1c-0.1,0.4-0.2,0.7,0.1,0.9l2.4-0.2
				c0.2,0.1,0.4,0.2,0.5,0.3c0.4,0.9-0.1,2.2-1.4,2.4c-3,0.7-5.1,1.7-4.3,3.7c1.1,1.4,0.5,2.7-1.3,3.8c-0.4,0.4-0.7,0.9-0.6,1.6
				c-0.5,0.4-0.9,1.1-1.3,1.9c-0.3,0.8-0.3,1.2,0.3,1.1c4.1-1.4,8.2-2,11.1,0.4c1.4,1.2,1.2,1.8,3.4,1.9c-0.2,0.9,0,1.5,0.8,1.6
				l0.1,1.1c-0.9,0.2-1.9,0.2-2.8,0.4c-1,0.2-2,0.7-2.9,0.7c-0.8-0.6-1.7-1-2.4-1.4c-3.7-2.3-6.9-2.4-9.6,0.7
				c-1.4,1.7-2.7,3.9-3.8,7.4c-0.2,0.6-0.7,0.9-1.7,0.3c-2-1.6-2.3-3-1.3-3.9c1.4-1.3,1.9-0.5,1.2,0.2l0,0.2c1.1,0,1.5,0.7,1.9,1.5
				c0.9-2.3,0.4-3.9-0.9-5.2l-0.3,0l0.1,2c-2.2-0.4-3.3,1.2-3.5,2.8c-0.1,1.5,0.6,2.8,2.5,4c1.1,0.4,1.4,1.6,0.6,2.9
				c-2.1,3.1-1.8,6.4,0.1,10.6l0.2-0.1c0.4-4.6,1.4-7,2.9-7.4c0.5-0.2,0.9-0.5,1.3-1c0.4-0.7,0.7-0.6,1,0.1c0.9,2,0.8,3.8-0.4,5.7
				c-2.7,4.4-2.8,7.7,1,10.3l0.1,0.3l-1,1.3c-0.3,0.5-0.1,1.2,0.8,1.9c0.7,0.8,1,2,1.2,3.6c-0.3,0.5-0.4,1.1-0.2,1.8
				c0.6,0.8,2,1.3,3.9,1.1c0.2,0,0.2-0.2,0.2-0.4c0.2-0.9-0.4-1.5-1.1-2.6c-1.9-1.7-2.3-3.3-1.7-4.9l0.3-0.4
				c1.5,0.5,3.4,1.1,5.2,1.4c-0.7,1.5-0.7,3.4,0,4.5c1.2,2.1,2.5,3.1,5,2.9c3.3-0.3,4.9-3,3.7-6.7c1.2-0.7,2-0.6,2.4,0.1
				c0,1.7,0.7,1.1,0.7,2.8c-2,1.7-2.7,3.2-0.6,4.1c1.1,1.1,0.5,1.5-0.9,1.6c-1.5-0.4-2.6-0.3-2.8,0.9C30.4,92,30,92.8,30,94.1
				c0.4-1,1.2-1.1,1.6-0.8c0.7,0,1.5,0.2,2.2-0.1c0.6-0.3,1.3-0.3,2.1,0c0.4,0,0.7,0.2,0.9,0.5c1,1,0.9-0.1,3,1.2
				c0.5,0,1.4,0,1.6,0.9l0.2-0.8c0.2-0.3,0.1-0.6-0.2-0.9c-0.7-0.8,0.4-0.9,2.3-0.5c1,0.4,2,0.7,2.7,0.5c0.9-0.9,1.1-0.3,1.2,0.8
				c0.6-1.7,0.2-2.6-1.5-2.6c0.3-0.9,0.4,0.4,1-0.7c0.5-0.2,1.1,0,1.6,0.5c0.1-0.8-0.4-1.3-1.4-1.5c-0.2-0.7-0.8-0.7-1.5,0
				c-3.1-0.8-3.4-2.7-1.7-3c0.9-0.2,1.3,0.7,2,1c0.6,0.2,0.9,0.1,1.6,0.2c0.9,0,1.6,0.2,2.2,0.6l0.6,0.2c0.3-0.2,0.7-0.2,1.1,0.2
				c0.4,0.7,0.9,0.7,1.3,0.2c1.2-1,3.1-1,2.9-0.4c0,0.9,0.1,1.2,0.4,1.1c0.3,0,0.4,0.4,0.4,1.1c-1.2,0-2,0.2-2,1
				c-1.1,0.3-1.1,1.1-0.6,2.1c-0.1-2,1.5-0.4,3.2-1.4l1.1-0.1c0.1,0.6,0.7,0.8,1.7,0.8c0.4-0.2,0.9-0.2,1.3-0.2
				c2-0.5,3.6-0.4,4.8,1.2c0.2-0.5,0.2-1-0.1-1.5c1.4-0.9,2.9-0.6,2,0.9c0.8-0.4,1.6-2.5,0.6-2.4c0.4-1.2,2.3-0.2,1.7,0.7
				c0.8-0.4,0.9-1,0-1.8c-0.1-0.7-0.7-0.9-1.7-0.6c-0.6-1-1.3-1-2.3-0.2c-1,0.4-1.7,0.5-2.2-0.2c-0.5-0.9-0.4-1.3,0.3-1
				c0.4,0.1,0.5-0.3,1-1.2c0.2-0.4,0.5-0.7,0.7-1.1c1.1-0.2,1.9-1.1,3-3c0.8-0.4,1.1-1.9,1.2-4.2c0.3,0.2,0.7,0,1.3-0.3
				c-0.4,0-0.5-0.2-0.5-1.1h1c0.4-0.2,0.6-0.3,0.5-0.5c0-0.2-0.4-0.1-0.7-0.6c-0.1-0.6-0.4-1.1-1.1-1.7l-1-1.6
				c-0.7-2.2-1.5-3.5-2.5-2.6L67,70.9c-0.8-0.9-1.3-2-1.8-3.3c0-1.5-1.6-1.6-2.4-0.2l-0.2-1.2l-0.4,0.7l-2.6-3.7
				c0.3,0,0.8-0.3,1.1-0.4c3.1-0.2,6.3-1.2,9.5-3l2.3-0.7c1-0.4,1.3-0.1,1.9,0.4l2.3,2.4c0.4,0.5,0.4,0.9,0.2,1.4s0.3,1.1,1.1,1.8
				c0.7,0.8,0.8,1.9,0.2,3.3c-0.4,0.9-0.3,1.5,0.2,1.7l1.6,1.1c1.1,0.9,1.6,0.6,1.5-0.9c-0.1-0.8-0.3-1.5-0.8-2.3
				c-0.5-0.9-0.9-1.8-0.9-2.8c0-1.9-0.3-2.8-1.1-3.5c-0.9-0.9-1.7-1.8-2.3-2.9c-0.2-0.6-0.4-1-0.7-1.1c-0.1-2-1.5-2.9-2.4-2.4
				c-0.8,0.2-1.5,0.2-2.3,0.1v-0.4c1-0.6,2.8-2.4,4.5-4.3c0.7-0.8,1-0.5,1.6,0.2l2.5,2.6c-0.1,1.3,0.1,2.2,1,2.1
				c0.6,1.1,0.9,2.1,0.3,2.5c-0.6,0.5-1,0.8-1,1.5c0.1,1,1.3,2.1,2.6,2.6c0.1,0,0.3,0,0.4-0.2c0.4-0.9,0.4-2,0-3l-0.4-1.5
				c-0.1-0.6,0-1.1,0-1.5c0.1-1.2,0.2-1.8-1.1-2.7c-1.6-1.6-2.9-3.3-4-5c0-2.3-2-2.9-3.2-0.4l-2.4,1.7c-0.6,0.4-1-0.2-1-0.9
				c-0.2-3-2.3-5.5-4.6-7.8c-1.2-3.7-2.9-6.8-3.5-9.6c2.3,0.2,4.1,0.7,4.8,1.4c1,1.1,2.3,1.7,2.6,0.9c0.1-0.2-0.6-0.7-1-1.1
				c0.4,0,0.9,0.4,1.5,0.9c1,0,1.3-0.8,1.1-1.8c0.1-0.9,0.1-1.5-0.3-1.8l-0.9-0.5c-1.4-1.5-2.6-3.1-3.6-4.8
				c-0.1-0.2-0.2-0.4-0.2-0.5c0-0.7-0.2-1.3-0.9-1.9l0.3-0.2l0-0.2l0.7,0.2l-0.7-1.2c-0.4-1.5-1.8-1.7-3.9-1.1
				c-0.3,0.1-0.7-0.2-1-0.7c-1.3-1.3-2.7-2-2.2-1c0.1,0.2,0.5,0.6,0,0.6L57,18c-0.5-0.1-0.6,0.1-0.4,0.3c0.4,0.4,0.8,0.9,1,1.3
				l-2.8,0.2c-0.6,0-1.1,0.3-1.6,0.2c-1.5-1.3-3.5-0.3-5.5,1.2l-0.3-0.1l0-2.3h0.2l-0.2-1.5h0.2c0.2-2.3-0.3-3.7-1.1-4.8
				c-0.2-0.7,0.5-0.6,0.7-0.8c0.7-0.8,0.6-1.7,0.6-2.2c-0.1-1-0.4-1.3-0.9-1h-0.6c-0.6-0.1-1.1-0.3-1.3-0.6c-0.7-0.4-1.3-0.4-1.9,0
				c-2.9,0.7-3.5,3-7,1.5c-0.4,0-0.5,0.1-0.3,0.4c0.6,0.8,1.5,1.3,2.4,1.7c-0.3,0.2-1,0.3-2,0.2c0.6,0.8,1.8,1.2,3.6,1.2
				c0.7,0.4,1.5,0.2,2.4-0.1c0.5-0.3,0.5-0.1,0.2,0.5c-0.9,0.8-1.6,2.3-1.7,5c-0.4,0.6-0.6,1.2-0.7,1.9c-1.3-0.4-2.5-0.6-3-0.2
				l-0.5,0c-1.2-0.9-2.3-0.9-3.3-0.2l-2.1,1.6c-0.8,0.5-1.4,0.6-1.5-0.1l-0.9-1.8c0-1.3-0.4-1.9-1.3-2c-0.4-0.4-0.7-0.8-0.8-1.3
				l-0.6-0.8c0.2-0.7-0.1-0.9-0.6-0.9c-0.5,0-1-0.1-1.3-0.3L19.7,9z"/>
			<path class="st0" d="M88.3,3.2v81.2l0,0.8l0,0.8l-0.1,0.8L88,87.6l-0.2,0.8l-0.2,0.8l-0.2,0.7l-0.2,0.7l-0.3,0.7L86.6,92
				l-0.4,0.6l-0.4,0.7l-0.4,0.6L85,94.4l-0.5,0.5l-0.5,0.5l-0.5,0.5l-0.6,0.5l-0.6,0.4l-0.7,0.4l-0.7,0.4L80.2,98l-0.7,0.3l-0.8,0.3
				l-0.8,0.2L77,99.1l-0.9,0.2l-0.9,0.1l-0.9,0.2l-1,0.1l-1,0l-1,0H61.2h-0.7l-0.7,0h-0.7l-0.7,0.1l-0.7,0l-0.6,0.1l-0.6,0.1
				l-0.6,0.1l-0.6,0.1l-0.6,0.1l-0.6,0.2l-0.6,0.2l-0.5,0.2l-0.5,0.2l-0.5,0.2l-0.5,0.2l-0.5,0.2l-0.4,0.2l-0.5,0.2l-0.4,0.2
				l-0.4,0.2l-0.4,0.2l-0.4,0.3l-0.4,0.3l-0.4,0.3l-0.4,0.3l-0.4,0.3l-0.4,0.3l-0.4,0.3l-0.4,0.3l-0.3,0.3l-0.7,0.7l-0.7-0.7
				l-0.4-0.3l-0.4-0.3l-0.4-0.3l-0.4-0.3l-0.4-0.3l-0.4-0.3l-0.4-0.3l-0.4-0.3l-0.4-0.3l-0.4-0.2l-0.4-0.2l-0.5-0.2l-0.4-0.2
				l-0.4-0.2l-0.5-0.2l-0.5-0.2l-0.5-0.2l-0.5-0.2l-0.6-0.2l-0.5-0.2l-0.5-0.2l-0.6-0.1l-0.6-0.1l-0.6-0.1l-0.6-0.1l-0.6-0.1l-0.7,0
				l-0.7-0.1h-0.7l-0.7,0h-0.7h-10l-1,0l-1,0l-1-0.1l-0.9-0.2l-0.9-0.1l-0.9-0.2l-0.9-0.2l-0.8-0.2l-0.7-0.3L9.5,98l-0.7-0.4
				l-0.7-0.4l-0.7-0.4l-0.6-0.4l-0.6-0.5l-0.5-0.5l-0.5-0.5l-0.5-0.5l-0.4-0.6l-0.4-0.6l-0.4-0.7L3.1,92l-0.3-0.7l-0.3-0.7l-0.2-0.7
				L2,89.2l-0.2-0.8l-0.2-0.8l-0.1-0.8L1.5,86l0-0.8v-0.8V3.2H88.3L88.3,3.2z M89.3,88.7L89.3,88.7c0.1-0.3,0.1-0.6,0.2-0.8l0,0l0,0
				c0-0.3,0.1-0.5,0.1-0.8l0,0l0,0c0-0.3,0.1-0.5,0.1-0.8l0,0l0,0l0-0.8l0-0.8l0,0v0V3.2V1.7h-1.5H1.5H0v1.5v81.2v0.8v0l0,0l0,0.8
				l0,0l0,0c0,0.3,0.1,0.5,0.1,0.8l0,0l0,0c0,0.3,0.1,0.5,0.1,0.8l0,0l0,0c0.1,0.3,0.1,0.5,0.2,0.8c0.1,0.3,0.1,0.5,0.2,0.8l0,0.1
				l0,0.1l0.2,0.7L1.1,91l0,0.1l0,0c0.1,0.2,0.2,0.5,0.3,0.7l0,0l0,0c0.1,0.2,0.2,0.5,0.3,0.7l0,0.1l0,0.1l0.4,0.6l0.4,0.6l0,0.1
				l0,0.1c0.1,0.2,0.3,0.4,0.5,0.6l0,0l0,0c0.1,0.2,0.3,0.4,0.5,0.6l0,0l0,0l0.5,0.5l0,0l0,0l0.5,0.5l0,0l0,0L5.3,97l0,0l0,0
				c0.2,0.2,0.4,0.3,0.6,0.5l0,0l0,0c0.2,0.1,0.4,0.3,0.6,0.4l0,0l0,0c0.2,0.1,0.4,0.3,0.7,0.4l0,0l0,0l0.7,0.4l0,0l0,0
				c0.2,0.1,0.5,0.2,0.7,0.4l0,0l0,0c0.3,0.1,0.5,0.2,0.8,0.3l0,0l0,0l0.7,0.3l0.1,0l0.1,0c0.3,0.1,0.5,0.2,0.8,0.2
				c0.3,0.1,0.6,0.2,0.9,0.2l0,0l0,0c0.3,0.1,0.6,0.1,0.9,0.2l0.1,0l0.1,0c0.3,0,0.6,0.1,0.9,0.1c0.3,0.1,0.6,0.1,0.9,0.2l0.1,0
				l0.1,0c0.3,0,0.7,0.1,1,0.1l0,0l0,0l1,0c0.3,0,0.7,0,1,0l0,0h0h10h0.7l0.6,0l0,0h0h0.6l0.6,0.1l0,0l0,0l0.6,0l0.5,0.1
				c0.2,0,0.4,0.1,0.6,0.1l0,0l0,0c0.2,0,0.4,0.1,0.6,0.1c0.2,0,0.4,0.1,0.6,0.1l0.5,0.1c0.2,0,0.3,0.1,0.5,0.1
				c0.2,0.1,0.3,0.1,0.5,0.2l0,0c0.2,0.1,0.4,0.1,0.5,0.2l0.4,0.1l0.5,0.2l0.5,0.2l0.4,0.2l0.4,0.2l0,0l0.1,0l0.4,0.2l0.4,0.2
				l0.4,0.2l0.3,0.2l0.4,0.3c0.1,0.1,0.3,0.2,0.4,0.3c0.1,0.1,0.3,0.2,0.4,0.3c0.1,0.1,0.2,0.2,0.4,0.3l0.3,0.2l0.3,0.3l0.4,0.3l0,0
				l0,0l0.3,0.3l0.3,0.3l0.7,0.7l1,1l1-1l0.7-0.7l0,0l0,0l0.3-0.3l0.3-0.2l0,0l0,0l0.4-0.3l0.3-0.3l0.3-0.2c0.1-0.1,0.3-0.2,0.4-0.3
				c0.1-0.1,0.3-0.2,0.4-0.3c0.1-0.1,0.3-0.2,0.4-0.3l0.3-0.2l0.4-0.2l0,0l0,0l0.4-0.2l0.4-0.2l0.4-0.2l0.1,0l0.1,0l0.4-0.2l0.4-0.2
				l0.5-0.2l0.5-0.2c0.1,0,0.3-0.1,0.4-0.1c0.2,0,0.3-0.1,0.5-0.2c0.2-0.1,0.4-0.1,0.6-0.2c0.2,0,0.3-0.1,0.5-0.1
				c0.2,0,0.4-0.1,0.5-0.1c0.2,0,0.3-0.1,0.5-0.1c0.2,0,0.4,0,0.6-0.1l0,0l0,0c0.2,0,0.4-0.1,0.6-0.1l0.5-0.1l0.6,0l0,0l0,0l0.6-0.1
				h0.6h0l0,0l0.6,0h0.6h10.1h0l0,0c0.3,0,0.7,0,1,0l1,0l0,0l0,0c0.3,0,0.7-0.1,1-0.1l0.1,0l0.1,0c0.3-0.1,0.6-0.1,0.9-0.2
				c0.3,0,0.6-0.1,0.9-0.1l0.1,0l0.1,0c0.3-0.1,0.6-0.1,0.9-0.2l0,0l0,0l0.9-0.2l0,0l0,0l0.8-0.2l0,0l0,0l0.8-0.3l0.1,0l0.1,0
				c0.2-0.1,0.5-0.2,0.7-0.3l0,0l0,0c0.2-0.1,0.5-0.2,0.7-0.4c0.2-0.1,0.5-0.2,0.7-0.4l0,0l0,0c0.2-0.1,0.4-0.3,0.7-0.4l0,0l0,0
				c0.2-0.1,0.4-0.3,0.6-0.5l0,0l0,0c0.2-0.2,0.4-0.3,0.6-0.5l0,0l0,0l0.5-0.5l0,0l0,0l0.5-0.5l0,0l0,0l0.5-0.5l0,0l0,0
				c0.2-0.2,0.3-0.4,0.5-0.6l0,0l0,0c0.1-0.2,0.3-0.4,0.5-0.6l0-0.1l0-0.1l0.4-0.6l0.4-0.6l0-0.1l0-0.1c0.1-0.2,0.2-0.5,0.3-0.7l0,0
				l0,0c0.1-0.2,0.2-0.5,0.3-0.7l0,0l0-0.1l0.2-0.7l0,0l0,0l0.2-0.7l0,0l0,0L89.3,88.7L89.3,88.7z"/>
		</g>
	</g>
</g>
<g>
	<path class="st1" d="M124.8,23.6V7.4h-4.7c-0.2,2.3-0.7,5-1.7,8.1c-1,3.2-2.1,5.9-3.4,8L124.8,23.6L124.8,23.6z M129.8,31.1h-2.3
		v-5.3h-14.2v5.3H111v-7.5h1.6c1.4-2.4,2.7-5.4,3.7-8.8c1-3.5,1.6-6.6,1.7-9.5h9.2v18.3h2.6L129.8,31.1L129.8,31.1z"/>
	<path class="st1" d="M138.8,12c-1.2,0-2.2,0.4-3,1.2c-0.7,0.8-1.2,1.9-1.3,3.3h8c0-1.5-0.3-2.6-1-3.4C140.9,12.4,140,12,138.8,12
		 M139.4,26c-2.3,0-4.1-0.7-5.4-2.1s-2-3.3-2-5.8s0.6-4.4,1.8-5.9c1.2-1.5,2.9-2.2,4.9-2.2c1.9,0,3.5,0.6,4.6,1.9
		c1.1,1.3,1.7,2.9,1.7,5v1.5h-10.6c0,1.8,0.5,3.2,1.4,4.1s2.1,1.4,3.6,1.4c1.7,0,3.3-0.3,4.9-1V25c-0.8,0.4-1.6,0.6-2.3,0.8
		C141.3,25.9,140.4,26,139.4,26"/>
	<polygon class="st1" points="151.3,25.7 149,25.7 149,10.4 161.9,10.4 161.9,25.7 159.6,25.7 159.6,12.4 151.3,12.4 	"/>
	<path class="st1" d="M171,24.1c1.4,0,2.6-0.4,3.4-1.2c0.8-0.8,1.2-1.9,1.2-3.3v-1.4l-2.3,0.1c-1.8,0.1-3.2,0.4-4,0.9
		c-0.8,0.5-1.2,1.3-1.2,2.4c0,0.8,0.3,1.5,0.8,1.9C169.4,23.9,170.1,24.1,171,24.1 M176.3,25.7l-0.5-2.2h-0.1c-0.8,1-1.5,1.6-2.3,2
		c-0.8,0.3-1.7,0.5-2.8,0.5c-1.5,0-2.7-0.4-3.6-1.2c-0.9-0.8-1.3-1.9-1.3-3.4c0-3.1,2.5-4.7,7.4-4.9l2.6-0.1v-1
		c0-1.2-0.3-2.1-0.8-2.7c-0.5-0.6-1.3-0.9-2.5-0.9c-1.3,0-2.7,0.4-4.4,1.2l-0.7-1.8c0.8-0.4,1.6-0.7,2.5-1c0.9-0.2,1.8-0.4,2.7-0.4
		c1.8,0,3.2,0.4,4.1,1.2s1.3,2.1,1.3,3.9v10.5L176.3,25.7L176.3,25.7z"/>
	<path class="st1" d="M189.6,12.1c-1.6,0-2.7,0.4-3.4,1.3s-1.1,2.3-1.1,4.1V18c0,2.2,0.4,3.7,1.1,4.6c0.7,0.9,1.9,1.4,3.5,1.4
		c1.3,0,2.4-0.5,3.1-1.6c0.8-1.1,1.1-2.6,1.1-4.4s-0.4-3.4-1.1-4.4C192,12.6,191,12.1,189.6,12.1 M190,26c-1,0-1.9-0.2-2.7-0.6
		c-0.8-0.4-1.5-0.9-2.1-1.7H185c0.1,0.9,0.2,1.8,0.2,2.6v6.3h-2.3V10.4h1.9l0.3,2.1h0.1c0.6-0.8,1.3-1.4,2.1-1.8
		c0.8-0.4,1.7-0.6,2.7-0.6c2,0,3.6,0.7,4.7,2.1c1.1,1.4,1.7,3.4,1.7,5.9s-0.6,4.5-1.7,5.9C193.5,25.3,192,26,190,26"/>
	<polygon class="st1" points="210.7,12.4 205.8,12.4 205.8,25.7 203.4,25.7 203.4,12.4 198.5,12.4 198.5,10.4 210.7,10.4 	"/>
	<path class="st1" d="M218,24.1c1.4,0,2.6-0.4,3.4-1.2c0.8-0.8,1.2-1.9,1.2-3.3v-1.4l-2.3,0.1c-1.8,0.1-3.2,0.4-4,0.9
		c-0.8,0.5-1.2,1.3-1.2,2.4c0,0.8,0.3,1.5,0.8,1.9C216.4,23.9,217.1,24.1,218,24.1 M223.3,25.7l-0.5-2.2h-0.1c-0.8,1-1.5,1.6-2.3,2
		c-0.8,0.3-1.7,0.5-2.8,0.5c-1.5,0-2.7-0.4-3.6-1.2c-0.9-0.8-1.3-1.9-1.3-3.4c0-3.1,2.5-4.7,7.4-4.9l2.6-0.1v-1
		c0-1.2-0.3-2.1-0.8-2.7c-0.5-0.6-1.3-0.9-2.5-0.9c-1.3,0-2.7,0.4-4.4,1.2l-0.7-1.8c0.8-0.4,1.6-0.7,2.5-1c0.9-0.2,1.8-0.4,2.7-0.4
		c1.8,0,3.2,0.4,4.1,1.2c0.9,0.8,1.3,2.1,1.3,3.9v10.5L223.3,25.7L223.3,25.7z"/>
	<path class="st1" d="M237.7,23.5l0.4-1.3l0.6-1.7l4.2-10.1h3v15.3h-2.1V13.1l-0.3,0.8l-0.8,2.1l-4,9.7h-1.9l-4-9.8
		c-0.5-1.3-0.8-2.2-1-2.9v12.7h-2.1V10.4h2.8l4,9.7C237,21.2,237.4,22.3,237.7,23.5"/>
	<path class="st1" d="M256.7,12c-1.2,0-2.2,0.4-3,1.2c-0.7,0.8-1.2,1.9-1.3,3.3h8c0-1.5-0.3-2.6-1-3.4C258.9,12.4,257.9,12,256.7,12
		 M257.3,26c-2.3,0-4.1-0.7-5.4-2.1s-2-3.3-2-5.8s0.6-4.4,1.8-5.9c1.2-1.5,2.9-2.2,4.9-2.2c1.9,0,3.5,0.6,4.6,1.9
		c1.1,1.3,1.7,2.9,1.7,5v1.5h-10.6c0,1.8,0.5,3.2,1.4,4.1s2.1,1.4,3.6,1.4c1.7,0,3.3-0.3,4.9-1V25c-0.8,0.4-1.6,0.6-2.3,0.8
		C259.3,25.9,258.4,26,257.3,26"/>
	<polygon class="st1" points="269.3,10.4 269.3,16.8 277.9,16.8 277.9,10.4 280.2,10.4 280.2,25.7 277.9,25.7 277.9,18.8 
		269.3,18.8 269.3,25.7 266.9,25.7 266.9,10.4 	"/>
	<polygon class="st1" points="295.5,12.4 290.5,12.4 290.5,25.7 288.2,25.7 288.2,12.4 283.3,12.4 283.3,10.4 295.5,10.4 	"/>
	<path class="st1" d="M119.4,59.5c-2.2,0-3.9-0.7-5.2-2.1c-1.2-1.4-1.8-3.3-1.8-5.8c0-2.5,0.6-4.6,1.9-6c1.2-1.4,3-2.1,5.3-2.1
		c0.7,0,1.5,0.1,2.2,0.2c0.7,0.2,1.3,0.3,1.7,0.6l-0.7,2c-0.5-0.2-1.1-0.4-1.7-0.5c-0.6-0.1-1.1-0.2-1.6-0.2c-3.1,0-4.7,2-4.7,6
		c0,1.9,0.4,3.3,1.1,4.3c0.8,1,1.9,1.5,3.4,1.5c1.3,0,2.6-0.3,3.9-0.8v2.1C122.3,59.2,121,59.5,119.4,59.5"/>
	<polygon class="st1" points="129.3,59.2 127,59.2 127,43.9 139.8,43.9 139.8,59.2 137.5,59.2 137.5,45.9 129.3,45.9 	"/>
	<path class="st1" d="M146.3,51.5c0,2,0.4,3.5,1.2,4.5c0.8,1,1.9,1.5,3.5,1.5s2.7-0.5,3.5-1.5c0.8-1,1.2-2.5,1.2-4.5
		c0-2-0.4-3.4-1.2-4.4c-0.8-1-1.9-1.5-3.5-1.5c-1.5,0-2.7,0.5-3.5,1.5C146.7,48.1,146.3,49.6,146.3,51.5 M158,51.5
		c0,2.5-0.6,4.5-1.9,5.9c-1.3,1.4-3,2.1-5.2,2.1c-1.4,0-2.6-0.3-3.7-1c-1.1-0.6-1.9-1.6-2.5-2.8c-0.6-1.2-0.9-2.6-0.9-4.2
		c0-2.5,0.6-4.5,1.9-5.8c1.3-1.4,3-2.1,5.2-2.1c2.2,0,3.9,0.7,5.1,2.1C157.4,47.1,158,49.1,158,51.5"/>
	<path class="st1" d="M168.9,45.6c-1.6,0-2.7,0.4-3.4,1.3c-0.7,0.9-1.1,2.3-1.1,4.1v0.5c0,2.2,0.4,3.7,1.1,4.6
		c0.7,0.9,1.9,1.4,3.5,1.4c1.3,0,2.4-0.5,3.1-1.6c0.8-1.1,1.1-2.6,1.1-4.4c0-1.9-0.4-3.4-1.1-4.4C171.4,46.1,170.3,45.5,168.9,45.6
		 M169.3,59.5c-1,0-1.9-0.2-2.7-0.6c-0.8-0.4-1.5-0.9-2.1-1.7h-0.2c0.1,0.9,0.2,1.7,0.2,2.6v6.3h-2.3V43.8h1.9l0.3,2.1h0.1
		c0.6-0.8,1.3-1.4,2.1-1.8s1.7-0.6,2.7-0.6c2,0,3.6,0.7,4.7,2.1c1.1,1.4,1.7,3.4,1.7,5.9c0,2.5-0.6,4.5-1.7,5.9
		C172.8,58.8,171.3,59.5,169.3,59.5"/>
	<polygon class="st1" points="190.1,45.8 185.1,45.8 185.1,59.2 182.8,59.2 182.8,45.8 177.8,45.8 177.8,43.9 190.1,43.9 	"/>
	<path class="st1" d="M197.3,57.6c1.4,0,2.6-0.4,3.4-1.2c0.8-0.8,1.2-1.9,1.2-3.3v-1.4l-2.3,0.1c-1.8,0.1-3.2,0.4-4,0.9
		c-0.8,0.5-1.2,1.3-1.2,2.4c0,0.8,0.3,1.5,0.8,1.9C195.7,57.4,196.4,57.6,197.3,57.6 M202.6,59.2l-0.5-2.2H202c-0.8,1-1.5,1.6-2.3,2
		c-0.8,0.3-1.7,0.5-2.8,0.5c-1.5,0-2.7-0.4-3.6-1.2c-0.9-0.8-1.3-1.9-1.3-3.4c0-3.1,2.5-4.7,7.4-4.9L202,50v-1
		c0-1.2-0.3-2.1-0.8-2.7c-0.5-0.6-1.3-0.9-2.5-0.9c-1.3,0-2.7,0.4-4.3,1.2l-0.7-1.8c0.8-0.4,1.6-0.7,2.5-1c0.9-0.2,1.8-0.4,2.7-0.4
		c1.8,0,3.2,0.4,4.1,1.2c0.9,0.8,1.3,2.1,1.3,3.9v10.5L202.6,59.2L202.6,59.2z"/>
	<polygon class="st1" points="122.5,79.3 115.6,79.3 115.6,92.7 113.3,92.7 113.3,77.3 122.5,77.3 	"/>
	<path class="st1" d="M127.1,85c0,2,0.4,3.5,1.2,4.5c0.8,1,1.9,1.5,3.5,1.5s2.7-0.5,3.5-1.5c0.8-1,1.2-2.5,1.2-4.5s-0.4-3.4-1.2-4.4
		c-0.8-1-2-1.5-3.5-1.5s-2.7,0.5-3.5,1.5C127.5,81.6,127.1,83,127.1,85 M138.8,85c0,2.5-0.6,4.5-1.9,5.9c-1.3,1.4-3,2.1-5.2,2.1
		c-1.4,0-2.6-0.3-3.7-1c-1.1-0.6-1.9-1.6-2.5-2.8c-0.6-1.2-0.9-2.6-0.9-4.2c0-2.5,0.6-4.5,1.9-5.8c1.3-1.4,3-2.1,5.2-2.1
		c2.2,0,3.9,0.7,5.1,2.1C138.2,80.6,138.8,82.6,138.8,85"/>
	<path class="st1" d="M149.7,79c-1.6,0-2.7,0.4-3.4,1.3c-0.7,0.9-1.1,2.3-1.1,4.1V85c0,2.2,0.4,3.7,1.1,4.6c0.7,0.9,1.9,1.4,3.5,1.4
		c1.3,0,2.4-0.5,3.1-1.6c0.8-1.1,1.1-2.6,1.1-4.4c0-1.9-0.4-3.4-1.1-4.4C152.2,79.5,151.1,79,149.7,79 M150.1,93
		c-1,0-1.9-0.2-2.7-0.6c-0.8-0.4-1.5-0.9-2.1-1.7h-0.2c0.1,0.9,0.2,1.7,0.2,2.6v6.3h-2.3V77.3h1.9l0.3,2.1h0.1
		c0.6-0.8,1.3-1.4,2.1-1.8c0.8-0.4,1.7-0.6,2.7-0.6c2,0,3.6,0.7,4.7,2.1c1.1,1.4,1.7,3.3,1.7,5.9c0,2.5-0.6,4.5-1.7,5.9
		C153.6,92.3,152.1,93,150.1,93"/>
	<path class="st1" d="M162.1,85c0,2,0.4,3.5,1.2,4.5c0.8,1,1.9,1.5,3.5,1.5s2.7-0.5,3.5-1.5c0.8-1,1.2-2.5,1.2-4.5s-0.4-3.4-1.2-4.4
		c-0.8-1-2-1.5-3.5-1.5c-1.5,0-2.7,0.5-3.5,1.5C162.4,81.6,162.1,83,162.1,85 M173.8,85c0,2.5-0.6,4.5-1.9,5.9
		c-1.3,1.4-3,2.1-5.2,2.1c-1.4,0-2.6-0.3-3.7-1c-1.1-0.6-1.9-1.6-2.5-2.8c-0.6-1.2-0.9-2.6-0.9-4.2c0-2.5,0.6-4.5,1.9-5.8
		c1.3-1.4,3-2.1,5.2-2.1s3.9,0.7,5.1,2.1C173.1,80.6,173.8,82.6,173.8,85"/>
	<path class="st1" d="M186.8,90.7V79.2h-3.5c-0.1,2.1-0.5,4.2-1.2,6.3c-0.7,2.1-1.5,3.9-2.5,5.2H186.8z M191.2,98h-2.3v-5.3h-10.7
		V98H176v-7.3h1.2c1.3-1.7,2.2-3.7,2.9-6c0.7-2.3,1.1-4.8,1.1-7.4h7.8v13.4h2.2C191.2,90.7,191.2,98,191.2,98z"/>
	<path class="st1" d="M198.5,91.1c1.4,0,2.6-0.4,3.4-1.2c0.8-0.8,1.2-1.9,1.2-3.3v-1.4l-2.3,0.1c-1.8,0.1-3.2,0.4-4,0.9
		c-0.8,0.5-1.2,1.3-1.2,2.4c0,0.8,0.3,1.5,0.8,1.9S197.5,91.1,198.5,91.1 M203.7,92.7l-0.5-2.2h-0.1c-0.8,1-1.5,1.6-2.3,2
		c-0.8,0.3-1.7,0.5-2.8,0.5c-1.5,0-2.7-0.4-3.6-1.2c-0.9-0.8-1.3-1.9-1.3-3.4c0-3.1,2.5-4.7,7.4-4.9l2.6-0.1v-1
		c0-1.2-0.3-2.1-0.8-2.7c-0.5-0.6-1.3-0.9-2.5-0.9c-1.3,0-2.7,0.4-4.3,1.2l-0.7-1.8c0.8-0.4,1.6-0.7,2.5-1c0.9-0.2,1.8-0.4,2.7-0.4
		c1.8,0,3.2,0.4,4.1,1.2c0.9,0.8,1.3,2.1,1.3,3.9v10.5L203.7,92.7L203.7,92.7z"/>
	<path class="st1" d="M227.1,92.7l-7-18.2H220c0.1,1.4,0.2,3.1,0.2,5.1v13H218V72.2h3.6l6.5,16.9h0.1l6.5-16.9h3.6v20.5h-2.4V79.5
		c0-1.5,0.1-3.2,0.2-4.9H236l-7,18.1H227.1L227.1,92.7z"/>
	<path class="st1" d="M245.2,85c0,2,0.4,3.5,1.2,4.5c0.8,1,1.9,1.5,3.5,1.5c1.5,0,2.7-0.5,3.5-1.5c0.8-1,1.2-2.5,1.2-4.5
		s-0.4-3.4-1.2-4.4c-0.8-1-2-1.5-3.5-1.5s-2.7,0.5-3.5,1.5C245.5,81.6,245.2,83,245.2,85 M256.9,85c0,2.5-0.6,4.5-1.9,5.9
		c-1.3,1.4-3,2.1-5.2,2.1c-1.4,0-2.6-0.3-3.7-1c-1.1-0.6-1.9-1.6-2.5-2.8c-0.6-1.2-0.9-2.6-0.9-4.2c0-2.5,0.6-4.5,1.9-5.8
		c1.3-1.4,3-2.1,5.2-2.1c2.2,0,3.9,0.7,5.1,2.1C256.2,80.6,256.9,82.6,256.9,85"/>
	<path class="st1" d="M267.1,93c-2.2,0-3.9-0.7-5.2-2.1c-1.2-1.4-1.8-3.3-1.8-5.8c0-2.5,0.6-4.6,1.9-6c1.2-1.4,3-2.1,5.3-2.1
		c0.7,0,1.5,0.1,2.2,0.2c0.7,0.2,1.3,0.3,1.7,0.6l-0.7,2c-0.5-0.2-1.1-0.4-1.7-0.5c-0.6-0.1-1.1-0.2-1.6-0.2c-3.1,0-4.7,2-4.7,6
		c0,1.9,0.4,3.3,1.1,4.3c0.8,1,1.9,1.5,3.4,1.5c1.3,0,2.6-0.3,3.9-0.8v2.1C269.9,92.7,268.6,93,267.1,93"/>
	<polygon class="st1" points="283.6,77.3 286.1,77.3 279.5,84.8 286.7,92.7 283.9,92.7 276.9,84.9 276.9,92.7 274.6,92.7 
		274.6,77.3 276.9,77.3 276.9,84.8 	"/>
	<path class="st1" d="M300.1,88.1c0-0.8-0.3-1.4-0.9-1.8c-0.6-0.4-1.7-0.6-3.1-0.6h-4.2v5.1h4.3C298.8,90.8,300.1,89.9,300.1,88.1
		 M299.7,81.4c0-0.8-0.3-1.3-0.9-1.6c-0.6-0.3-1.4-0.5-2.6-0.5h-4.4v4.3h3.9c1.4,0,2.4-0.2,3-0.5C299.4,82.8,299.7,82.2,299.7,81.4
		 M302,81.2c0,1-0.3,1.8-0.9,2.3c-0.6,0.5-1.4,0.9-2.4,1v0.1c1.3,0.2,2.3,0.6,2.9,1.2c0.6,0.6,0.9,1.4,0.9,2.4
		c0,1.4-0.5,2.5-1.6,3.3c-1,0.8-2.6,1.2-4.6,1.2h-6.8V77.4h6.7C300.1,77.4,302,78.6,302,81.2"/>
	<path class="st1" d="M323,92.7h-2.3V77.3h2.3V92.7z M308.2,85.7v5.1h3.9c2.5,0,3.7-0.9,3.7-2.6c0-0.9-0.3-1.5-0.9-1.9
		c-0.6-0.4-1.5-0.6-2.9-0.6C312,85.7,308.2,85.7,308.2,85.7z M308.2,83.7h4.2c1.9,0,3.4,0.4,4.3,1.1c0.9,0.7,1.4,1.8,1.4,3.2
		c0,1.5-0.5,2.7-1.5,3.5c-1,0.8-2.5,1.2-4.4,1.2h-6.4V77.4h2.3L308.2,83.7L308.2,83.7z"/>
</g>
</svg>
