<svg width="357" height="110" viewBox="0 0 357 110" fill="none" xmlns="http://www.w3.org/2000/svg">
<path d="M195.816 56.7955H189.033V11.385H195.816V29.1892H196.936C200.615 29.1892 201.799 25.1145 201.799 22.0708V11.385H208.582V21.7762C208.582 26.5546 206.854 30.1383 203.495 32.4784C207.142 35.113 208.582 38.4022 208.582 43.1805V56.8118H201.799V42.9023C201.799 39.9568 200.439 36.4058 196.984 36.4221H195.8V56.8118L195.816 56.7955ZM311.025 56.7955V11.385H317.072V37.9276L324.047 11.385H331.613V56.7955H325.503V25.1963L317.168 56.8609L311.025 56.7955ZM336.412 56.7955V11.385H342.459V37.9276L349.434 11.385H357V56.7955H350.89V25.1963L342.555 56.8609L336.412 56.7955ZM354.169 0.617432V5.93577H339.244V0.617432H354.169ZM293.749 56.7955H286.966V11.385H293.749V29.1892H294.869C298.548 29.1892 299.732 25.1145 299.732 22.0708V11.385H306.514V21.7762C306.514 26.5546 304.787 30.1383 301.427 32.4784C305.075 35.113 306.514 38.4022 306.514 43.1805V56.8118H299.732V42.9023C299.732 39.9568 298.372 36.4058 294.917 36.4221H293.733V56.8118L293.749 56.7955ZM170.861 56.7136H164.078V11.3032H184.218V29.5328H177.308V17.7998H170.861V50.2335H177.308V38.5004H184.218V56.73H170.861V56.7136ZM268.794 56.7136H262.011V11.3032H282.151V29.5328H275.24V17.7998H268.794V50.2335H275.24V38.5004H282.151V56.73H268.794V56.7136ZM152.353 17.7834H146.034V50.2171H152.353V17.7834ZM145.906 56.7136H139.123V11.3032H159.263V56.7136H145.906ZM226.642 17.7834H220.323V50.2171H226.642V17.7834ZM220.179 56.7136H213.397V11.3032H233.537V56.7136H220.179ZM245.134 17.7834V29.9583C247.662 30.1056 250.733 29.9583 250.733 25.3109V21.1871V17.7834H245.15H245.134ZM245.134 36.4712V50.2335H250.717C250.717 47.2879 250.717 44.3424 250.717 41.3968C250.717 36.7658 247.662 36.3239 245.118 36.4712H245.134ZM257.516 19.2889V24.8527C257.516 28.4692 256.06 31.1038 253.725 32.8057C256.22 34.8185 257.516 37.9604 257.516 41.8387V56.6973C253.389 56.6973 249.262 56.6973 245.134 56.6973H238.352V11.2868H245.134C249.262 11.2868 253.389 11.2868 257.516 11.2868V19.2889ZM120.023 41.7241C121.799 32.0038 124.118 21.1708 125.19 11.385H134.308V56.7955H128.389V38.8277L129.093 22.5945C128.245 27.8146 124.902 47.0588 120.663 56.2882V56.3209H119.399V56.2882C115.16 47.0588 111.817 27.8146 110.969 22.5945L111.673 38.8277V56.7955H105.754V11.385H114.872C115.944 21.1708 118.263 32.0202 120.039 41.7241H120.023Z" fill="#C7C7C7"/>
<path d="M187.13 70.4267V90.6528C189.657 90.8001 192.729 90.3582 192.729 85.7272V81.6034V70.4267H187.146H187.13ZM199.511 79.7052V85.269C199.511 92.2565 195.976 97.133 189.385 97.133H187.13V109.341H180.347V63.9302C186.73 63.9629 193.129 63.9302 199.511 63.9302V79.7052ZM201.383 63.9302H222.355V70.4104H215.252V109.341H208.47V70.4104H201.367V63.9302H201.383ZM168.814 70.4267H162.495V102.86H168.814V70.4267ZM162.367 109.357H155.584V63.9465H175.724V109.357H162.367ZM112.537 109.357H105.754V63.9465H125.894V82.1762H118.983V70.4431H112.537V102.877H118.983V91.1437H125.894V109.373H112.537V109.357ZM137.46 109.357H130.677V63.9465H150.817V109.357H143.906V70.4267H137.46V109.357Z" fill="#C7C7C7"/>
<path d="M46.5023 85.7274C48.182 87.8056 49.9897 89.7857 51.9093 91.6675C60.8995 100.406 72.4173 106.69 85.2627 109.357V101.502C74.5768 98.9659 65.0107 93.5985 57.4602 86.251C54.9807 83.8455 52.7251 81.2109 50.7095 78.4126L46.4863 85.7274H46.5023Z" fill="#C7C7C7"/>
<path d="M18.6205 77.5452C27.0348 69.3631 32.2658 58.0719 32.2658 45.6679V11.3032H40.1362V45.6679C40.1362 51.7062 41.128 58.7919 42.9357 64.2903C44.7433 58.8083 45.7351 51.7226 45.7351 45.6679V11.3032H53.6056V45.6679C53.6056 58.0883 58.8366 69.3631 67.2509 77.5452C72.2739 82.4217 78.4327 86.2018 85.2793 88.4601V96.4785C76.2411 93.9911 68.1467 89.2619 61.684 82.9617C56.8209 78.2325 52.8697 72.6032 50.1183 66.3849C48.0707 71.785 45.7991 76.8906 42.9677 80.7853V80.818L42.9357 80.7853C40.1042 76.8906 37.8327 71.785 35.7851 66.3849C33.0336 72.6196 29.0824 78.2325 24.2194 82.9617C17.7407 89.2619 9.64625 93.9911 0.624023 96.4785V88.4601C7.48667 86.2018 13.6454 82.4217 18.6525 77.5452H18.6205Z" fill="#C7C7C7"/>
<path d="M66.178 44.948C66.178 53.9973 69.9853 62.2121 76.1121 68.1851C78.7676 70.7706 81.855 72.9306 85.2623 74.5507V82.88C79.6954 80.8181 74.6884 77.6271 70.5452 73.6016C62.9947 66.2541 58.3076 56.1083 58.3076 44.948V37.2078H66.178V44.948Z" fill="#C7C7C7"/>
<path d="M19.6751 37.2078H27.5455V44.948C27.5455 56.1083 22.8585 66.2377 15.3079 73.6016C11.1648 77.6271 6.15772 80.8181 0.59082 82.88V74.5507C3.99815 72.9306 7.08554 70.7706 9.74102 68.1851C15.8678 62.2121 19.6751 53.9973 19.6751 44.948V37.2078Z" fill="#C7C7C7"/>
<path d="M35.1284 78.4126C33.1128 81.2109 30.8572 83.8455 28.3777 86.251C20.8272 93.5985 11.2611 98.9659 0.575195 101.502V109.357C13.4367 106.69 24.9544 100.406 33.9286 91.6675C35.8483 89.802 37.6559 87.822 39.3355 85.7274L35.1124 78.4126H35.1284Z" fill="#C7C7C7"/>
</svg>
