<svg width="95" height="29" viewBox="0 0 95 29" fill="none" xmlns="http://www.w3.org/2000/svg">
<path d="M51.989 14.6108H50.1844V2.80043H51.989V7.43094H52.2869C53.2658 7.43094 53.5807 6.3712 53.5807 5.57959V2.80043H55.3853V5.50298C55.3853 6.74572 54.9256 7.67778 54.0319 8.28639C55.0022 8.9716 55.3853 9.82705 55.3853 11.0698V14.615H53.5807V10.9974C53.5807 10.2314 53.219 9.30782 52.2997 9.31208H51.9847V14.615L51.989 14.6108ZM82.6405 14.6108V2.80043H84.2493V9.70363L86.1049 2.80043H88.118V14.6108H86.4922V6.39248L84.2748 14.6278L82.6405 14.6108ZM89.3948 14.6108V2.80043H91.0035V9.70363L92.8591 2.80043H94.8722V14.6108H93.2464V6.39248L91.0291 14.6278L89.3948 14.6108ZM94.1189 0V1.38319H90.1481V0H94.1189ZM78.0441 14.6108H76.2395V2.80043H78.0441V7.43094H78.342C79.3209 7.43094 79.6358 6.3712 79.6358 5.57959V2.80043H81.4403V5.50298C81.4403 6.74572 80.9807 7.67778 80.0869 8.28639C81.0573 8.9716 81.4403 9.82705 81.4403 11.0698V14.615H79.6358V10.9974C79.6358 10.2314 79.274 9.30782 78.3547 9.31208H78.0398V14.615L78.0441 14.6108ZM45.3497 14.5895H43.5451V2.77915H48.9034V7.52031H47.0648V4.46878H45.3497V12.9041H47.0648V9.85258H48.9034V14.5937H45.3497V14.5895ZM71.4048 14.5895H69.6002V2.77915H74.9585V7.52031H73.1199V4.46878H71.4048V12.9041H73.1199V9.85258H74.9585V14.5937H71.4048V14.5895ZM40.4255 4.46452H38.7444V12.8999H40.4255V4.46452ZM38.7103 14.5895H36.9058V2.77915H42.2641V14.5895H38.7103ZM60.1902 4.46452H58.5091V12.8999H60.1902V4.46452ZM58.4708 14.5895H56.6663V2.77915H62.0246V14.5895H58.4708ZM65.1101 4.46452V7.63097C65.7826 7.66927 66.5997 7.63097 66.5997 6.42227V5.34976V4.46452H65.1144H65.1101ZM65.1101 9.32484V12.9041H66.5955C66.5955 12.138 66.5955 11.372 66.5955 10.6059C66.5955 9.40145 65.7826 9.28654 65.1059 9.32484H65.1101ZM68.4043 4.85607V6.3031C68.4043 7.24367 68.017 7.92888 67.3956 8.37151C68.0595 8.89499 68.4043 9.71214 68.4043 10.7208V14.5852C67.3062 14.5852 66.2082 14.5852 65.1101 14.5852H63.3056V2.7749H65.1101C66.2082 2.7749 67.3062 2.7749 68.4043 2.7749V4.85607ZM31.8242 10.691C32.2966 8.16296 32.9137 5.3455 33.1988 2.80043H35.6248V14.6108H34.05V9.93771L34.2373 5.71578C34.0117 7.07343 33.1222 12.0785 31.9944 14.4788V14.4873H31.6582V14.4788C30.5303 12.0785 29.6408 7.07343 29.4153 5.71578L29.6025 9.93771V14.6108H28.0278V2.80043H30.4537C30.7389 5.3455 31.356 8.16722 31.8284 10.691H31.8242Z" fill="white"/>
<path d="M49.678 18.1559V23.4163C50.3504 23.4546 51.1676 23.3397 51.1676 22.1353V21.0628V18.1559H49.6822H49.678ZM52.9721 20.5691V22.0161C52.9721 23.8334 52.0315 25.1017 50.2781 25.1017H49.678V28.2766H47.8734V16.4663C49.5716 16.4748 51.274 16.4663 52.9721 16.4663V20.5691ZM53.4701 16.4663H59.0496V18.1517H57.16V28.2766H55.3555V18.1517H53.4658V16.4663H53.4701ZM44.8049 18.1559H43.1238V26.5913H44.8049V18.1559ZM43.0897 28.2809H41.2852V16.4706H46.6435V28.2809H43.0897ZM29.8324 28.2809H28.0278V16.4706H33.3861V21.2117H31.5475V18.1602H29.8324V26.5955H31.5475V23.544H33.3861V28.2852H29.8324V28.2809ZM36.4632 28.2809H34.6586V16.4706H40.0169V28.2809H38.1783V18.1559H36.4632V28.2809Z" fill="white"/>
<path d="M12.2632 22.1351C12.71 22.6756 13.191 23.1906 13.7017 23.68C16.0936 25.9527 19.1579 27.587 22.5754 28.2807V26.2378C19.7324 25.5782 17.1873 24.1822 15.1785 22.2713C14.5188 21.6456 13.9187 20.9604 13.3825 20.2327L12.2589 22.1351H12.2632Z" fill="white"/>
<path d="M4.8451 20.0072C7.08375 17.8793 8.47545 14.9426 8.47545 11.7166V2.77905H10.5694V11.7166C10.5694 13.2871 10.8333 15.1299 11.3142 16.5599C11.7951 15.1342 12.059 13.2913 12.059 11.7166V2.77905H14.1529V11.7166C14.1529 14.9469 15.5446 17.8793 17.7833 20.0072C19.1196 21.2755 20.7582 22.2587 22.5798 22.846V24.9314C20.1751 24.2845 18.0216 23.0545 16.3022 21.416C15.0084 20.186 13.9571 18.7219 13.2251 17.1047C12.6804 18.5091 12.076 19.837 11.3227 20.8499V20.8584L11.3142 20.8499C10.5609 19.837 9.95652 18.5091 9.41176 17.1047C8.67973 18.7262 7.62851 20.186 6.33469 21.416C4.61102 23.0545 2.4575 24.2845 0.0571289 24.9314V22.846C1.88294 22.2587 3.52149 21.2755 4.85361 20.0072H4.8451Z" fill="white"/>
<path d="M17.4982 11.5292C17.4982 13.8827 18.5112 16.0192 20.1412 17.5727C20.8477 18.2451 21.6691 18.8069 22.5756 19.2283V21.3945C21.0945 20.8583 19.7624 20.0284 18.6601 18.9814C16.6513 17.0705 15.4043 14.4318 15.4043 11.5292V9.51611H17.4982V11.5292Z" fill="white"/>
<path d="M5.12573 9.51636H7.21966V11.5294C7.21966 14.432 5.97267 17.0665 3.96384 18.9816C2.86155 20.0286 1.52942 20.8585 0.0483398 21.3948V19.2285C0.954863 18.8072 1.77627 18.2454 2.48276 17.5729C4.1128 16.0195 5.12573 13.883 5.12573 11.5294V9.51636Z" fill="white"/>
<path d="M9.2371 20.2327C8.70085 20.9604 8.10076 21.6456 7.44108 22.2713C5.43226 24.1822 2.88718 25.5782 0.0441895 26.2378V28.2807C3.46599 27.587 6.5303 25.9527 8.9179 23.68C9.42862 23.1948 9.90954 22.6799 10.3564 22.1351L9.23284 20.2327H9.2371Z" fill="white"/>
</svg>
