<svg width="126" height="48" viewBox="0 0 126 48" fill="none" xmlns="http://www.w3.org/2000/svg">
<rect x="0.5" y="0.5" width="125" height="47" rx="23.5" stroke="currentColor" stroke-opacity="0.1"/>
<g clip-path="url(#clip0_56_1292)">
<path d="M31.8497 25.8141C33.0465 24.8489 33.8144 23.5279 33.8144 21.87V21.1487C33.8144 18.2375 31.4546 16.0984 28.5447 16.0984L20.2229 16.0659L20.2278 32.4026L24.1586 32.4335V26.8887H28.1988L30.8324 32.4335H35.4327L31.8497 25.8141ZM29.7979 21.6718C29.7979 22.8314 28.8576 23.4892 27.6985 23.4892H24.1586V19.5658H27.6985C28.8576 19.5658 29.7979 20.3802 29.7979 21.5398V21.6718Z" fill="currentColor"/>
</g>
<path d="M46.9983 29V19.9H51.1583C51.973 19.9 52.6533 20.186 53.1993 20.758C53.7453 21.3213 54.0183 22.0537 54.0183 22.955C54.0183 23.8043 53.7583 24.4977 53.2383 25.035C52.727 25.5637 52.0987 25.8453 51.3533 25.88L54.2783 29H52.1333L49.2083 25.88H48.6883V29H46.9983ZM48.6883 24.32H51.0933C51.4227 24.32 51.7087 24.19 51.9513 23.93C52.2027 23.6613 52.3283 23.3363 52.3283 22.955C52.3283 22.539 52.207 22.1967 51.9643 21.928C51.7217 21.6593 51.4313 21.525 51.0933 21.525H48.6883V24.32ZM56.4888 25.295V19.9H58.1788V25.295C58.1788 25.9363 58.3782 26.465 58.7768 26.881C59.1755 27.297 59.6695 27.505 60.2588 27.505C60.8482 27.505 61.3422 27.297 61.7408 26.881C62.1395 26.465 62.3388 25.9363 62.3388 25.295V19.9H64.0288V25.295C64.0288 26.465 63.6865 27.3967 63.0018 28.09C62.3172 28.7833 61.4028 29.13 60.2588 29.13C59.1148 29.13 58.2005 28.7833 57.5158 28.09C56.8312 27.3967 56.4888 26.465 56.4888 25.295ZM68.8353 29V21.525H66.1053V19.9H73.2553V21.525H70.5253V29H68.8353ZM75.3333 25.295V19.9H77.0233V25.295C77.0233 25.9363 77.2226 26.465 77.6213 26.881C78.0199 27.297 78.5139 27.505 79.1033 27.505C79.6926 27.505 80.1866 27.297 80.5853 26.881C80.9839 26.465 81.1833 25.9363 81.1833 25.295V19.9H82.8733V25.295C82.8733 26.465 82.5309 27.3967 81.8463 28.09C81.1616 28.7833 80.2473 29.13 79.1033 29.13C77.9593 29.13 77.0449 28.7833 76.3603 28.09C75.6756 27.3967 75.3333 26.465 75.3333 25.295ZM85.6647 29V19.9H89.8897C90.6697 19.9 91.298 20.134 91.7747 20.602C92.2514 21.07 92.4897 21.681 92.4897 22.435C92.4897 22.9983 92.338 23.4923 92.0347 23.917C91.8787 24.1163 91.727 24.2723 91.5797 24.385V24.45C91.7704 24.5627 91.9437 24.7187 92.0997 24.918C92.4464 25.3513 92.6197 25.867 92.6197 26.465C92.6197 27.219 92.3814 27.83 91.9047 28.298C91.428 28.766 90.7997 29 90.0197 29H85.6647ZM87.3547 23.67H89.6947C90.024 23.67 90.2884 23.5703 90.4877 23.371C90.6957 23.163 90.7997 22.8943 90.7997 22.565C90.7997 22.201 90.7 21.915 90.5007 21.707C90.3014 21.499 90.0327 21.395 89.6947 21.395H87.3547V23.67ZM87.3547 27.505H89.8247C90.1194 27.505 90.375 27.3923 90.5917 27.167C90.817 26.9417 90.9297 26.6643 90.9297 26.335C90.9297 26.0057 90.817 25.7283 90.5917 25.503C90.375 25.2777 90.1194 25.165 89.8247 25.165H87.3547V27.505ZM95.1567 29V19.9H101.267V21.46H96.8467V23.67H101.007V25.23H96.8467V27.44H101.267V29H95.1567Z" fill="currentColor"/>
<defs>
<clipPath id="clip0_56_1292">
<rect width="16" height="17" fill="currentColor" transform="translate(20 15.5)"/>
</clipPath>
</defs>
</svg>
