<svg width="57" height="34" viewBox="0 0 57 34" fill="none" xmlns="http://www.w3.org/2000/svg">
<path d="M41.8963 28.3055C49.7127 28.3055 56.0491 21.9691 56.0491 14.1528C56.0491 6.33641 49.7127 0 41.8963 0C34.0799 0 27.7435 6.33641 27.7435 14.1528C27.7435 21.9691 34.0799 28.3055 41.8963 28.3055Z" fill="white"/>
<path d="M41.8971 1.41895C34.8645 1.41895 29.1642 7.1199 29.1642 14.1525C29.1642 21.1851 34.8651 26.886 41.8971 26.886C48.929 26.886 54.6306 21.1851 54.6306 14.1525C54.6306 7.1199 48.9296 1.41895 41.8971 1.41895ZM41.8971 24.1948C36.3512 24.1948 31.8547 19.699 31.8547 14.1525C31.8547 8.60597 36.3512 4.11011 41.8971 4.11011C47.4429 4.11011 51.9394 8.60662 51.9394 14.1525C51.9394 19.6983 47.4429 24.1948 41.8971 24.1948Z" fill="#342983"/>
<path d="M41.897 5.82983C37.3006 5.82983 33.5743 9.55671 33.5743 14.1525C33.5743 18.7483 37.3006 22.4752 41.897 22.4752C46.4935 22.4752 50.2203 18.749 50.2203 14.1525C50.2203 9.55606 46.4941 5.82983 41.897 5.82983ZM41.897 20.7276C38.2655 20.7276 35.3219 17.784 35.3219 14.1525C35.3219 10.521 38.2655 7.57743 41.897 7.57743C45.5285 7.57743 48.4727 10.5217 48.4727 14.1525C48.4727 17.7833 45.5285 20.7276 41.897 20.7276Z" fill="#342983"/>
<path d="M41.8971 9.40796C39.2773 9.40796 37.1533 11.5319 37.1533 14.1524C37.1533 16.7728 39.2773 18.8968 41.8971 18.8968C44.5169 18.8968 46.6415 16.7728 46.6415 14.1524C46.6415 11.5319 44.5175 9.40796 41.8971 9.40796ZM41.8971 17.1862C40.2215 17.1862 38.8633 15.8279 38.8633 14.1524C38.8633 12.4768 40.2215 11.1186 41.8971 11.1186C43.5726 11.1186 44.9315 12.4768 44.9315 14.1524C44.9315 15.8279 43.5733 17.1862 41.8971 17.1862Z" fill="#342983"/>
<path d="M41.8967 15.4128C42.5927 15.4128 43.157 14.8486 43.157 14.1526C43.157 13.4566 42.5927 12.8923 41.8967 12.8923C41.2007 12.8923 40.6365 13.4566 40.6365 14.1526C40.6365 14.8486 41.2007 15.4128 41.8967 15.4128Z" fill="#342983"/>
<path d="M25.7046 18.7058L0 25.9344L33.268 34.0001L37.6542 23.9116L41.8963 14.1528L25.7046 18.7058Z" fill="white"/>
</svg>
