<svg width="276" height="276" viewBox="0 0 276 276" fill="none" xmlns="http://www.w3.org/2000/svg">
<path d="M138 276C214.215 276 276 214.215 276 138C276 61.7847 214.215 0 138 0C61.7847 0 0 61.7847 0 138C0 214.215 61.7847 276 138 276Z" fill="#F6F6F6"/>
<path d="M138 13.8386C69.427 13.8386 13.8448 69.4271 13.8448 138C13.8448 206.573 69.4333 262.161 138 262.161C206.566 262.161 262.161 206.573 262.161 138C262.161 69.4271 206.573 13.8386 138 13.8386ZM138 235.921C83.9237 235.921 40.0793 192.083 40.0793 138C40.0793 83.9175 83.9237 40.0794 138 40.0794C192.076 40.0794 235.92 83.9238 235.92 138C235.92 192.076 192.076 235.921 138 235.921Z" fill="white"/>
<path d="M138 56.8474C93.1812 56.8474 56.8478 93.1872 56.8478 138C56.8478 182.812 93.1812 219.152 138 219.152C182.819 219.152 219.159 182.819 219.159 138C219.159 93.1809 182.825 56.8474 138 56.8474ZM138 202.112C102.59 202.112 73.8882 173.409 73.8882 138C73.8882 102.59 102.59 73.8878 138 73.8878C173.41 73.8878 202.118 102.596 202.118 138C202.118 173.403 173.41 202.112 138 202.112Z" fill="white"/>
<path d="M138 91.7385C112.456 91.7385 91.7452 112.449 91.7452 138C91.7452 163.551 112.456 184.262 138 184.262C163.545 184.262 184.262 163.551 184.262 138C184.262 112.449 163.552 91.7385 138 91.7385ZM138 167.582C121.662 167.582 108.419 154.338 108.419 138C108.419 121.662 121.662 108.418 138 108.418C154.338 108.418 167.589 121.662 167.589 138C167.589 154.338 154.345 167.582 138 167.582Z" fill="white"/>
<path d="M138 150.288C144.787 150.288 150.289 144.787 150.289 138C150.289 131.213 144.787 125.712 138 125.712C131.214 125.712 125.712 131.213 125.712 138C125.712 144.787 131.214 150.288 138 150.288Z" fill="white"/>
</svg>
