<svg width="30" height="30" viewBox="0 0 30 30" fill="none" xmlns="http://www.w3.org/2000/svg">
<path d="M15 30C23.2843 30 30 23.2843 30 15C30 6.71573 23.2843 0 15 0C6.71573 0 0 6.71573 0 15C0 23.2843 6.71573 30 15 30Z" fill="#E6313F"/>
<path d="M15.001 1.50439C7.5474 1.50439 1.50586 7.54662 1.50586 15.0002C1.50586 22.4538 7.54809 28.496 15.001 28.496C22.4539 28.496 28.4968 22.4538 28.4968 15.0002C28.4968 7.54662 22.4546 1.50439 15.001 1.50439ZM15.001 25.6437C9.12313 25.6437 4.35743 20.8787 4.35743 15.0002C4.35743 9.12166 9.12313 4.35666 15.001 4.35666C20.8788 4.35666 25.6445 9.12235 25.6445 15.0002C25.6445 20.878 20.8788 25.6437 15.001 25.6437Z" fill="white"/>
<path d="M15.0006 6.1792C10.129 6.1792 6.17969 10.1292 6.17969 15.0001C6.17969 19.871 10.129 23.821 15.0006 23.821C19.8722 23.821 23.8222 19.8717 23.8222 15.0001C23.8222 10.1285 19.8729 6.1792 15.0006 6.1792ZM15.0006 21.9688C11.1517 21.9688 8.03191 18.849 8.03191 15.0001C8.03191 11.1512 11.1517 8.03142 15.0006 8.03142C18.8495 8.03142 21.97 11.1519 21.97 15.0001C21.97 18.8483 18.8495 21.9688 15.0006 21.9688Z" fill="white"/>
<path d="M15.0014 9.97168C12.2248 9.97168 9.97363 12.2228 9.97363 15.0001C9.97363 17.7774 12.2248 20.0285 15.0014 20.0285C17.778 20.0285 20.0298 17.7774 20.0298 15.0001C20.0298 12.2228 17.7787 9.97168 15.0014 9.97168ZM15.0014 18.2155C13.2255 18.2155 11.786 16.776 11.786 15.0001C11.786 13.2242 13.2255 11.7847 15.0014 11.7847C16.7772 11.7847 18.2175 13.2242 18.2175 15.0001C18.2175 16.776 16.7779 18.2155 15.0014 18.2155Z" fill="white"/>
<path d="M14.9997 16.3357C15.7374 16.3357 16.3354 15.7377 16.3354 15C16.3354 14.2623 15.7374 13.6643 14.9997 13.6643C14.2621 13.6643 13.6641 14.2623 13.6641 15C13.6641 15.7377 14.2621 16.3357 14.9997 16.3357Z" fill="white"/>
</svg>
