<svg width="40" height="40" viewBox="0 0 40 40" fill="none" xmlns="http://www.w3.org/2000/svg">
<path d="M20 40C31.0457 40 40 31.0457 40 20C40 8.95431 31.0457 0 20 0C8.9543 0 0 8.95431 0 20C0 31.0457 8.9543 40 20 40Z" fill="white"/>
<path d="M20.0001 2.00555C10.062 2.00555 2.00659 10.0619 2.00659 20C2.00659 29.9381 10.0629 37.9944 20.0001 37.9944C29.9373 37.9944 37.9945 29.9381 37.9945 20C37.9945 10.0619 29.9382 2.00555 20.0001 2.00555ZM20.0001 34.1913C12.1629 34.1913 5.80869 27.838 5.80869 20C5.80869 12.1619 12.1629 5.80857 20.0001 5.80857C27.8372 5.80857 34.1915 12.1628 34.1915 20C34.1915 27.8371 27.8372 34.1913 20.0001 34.1913Z" fill="#3F348E"/>
<path d="M20 8.23877C13.5045 8.23877 8.23877 13.5054 8.23877 20C8.23877 26.4945 13.5045 31.7612 20 31.7612C26.4955 31.7612 31.7621 26.4955 31.7621 20C31.7621 13.5045 26.4964 8.23877 20 8.23877ZM20 29.2915C14.8681 29.2915 10.7084 25.1318 10.7084 20C10.7084 14.8681 14.8681 10.7084 20 10.7084C25.1318 10.7084 29.2925 14.8691 29.2925 20C29.2925 25.1309 25.1318 29.2915 20 29.2915Z" fill="#3F348E"/>
<path d="M20 13.2953C16.2979 13.2953 13.2964 16.2968 13.2964 19.9998C13.2964 23.7029 16.2979 26.7044 20 26.7044C23.7022 26.7044 26.7046 23.7029 26.7046 19.9998C26.7046 16.2968 23.7031 13.2953 20 13.2953ZM20 24.287C17.6322 24.287 15.7128 22.3677 15.7128 19.9998C15.7128 17.632 17.6322 15.7126 20 15.7126C22.3679 15.7126 24.2882 17.632 24.2882 19.9998C24.2882 22.3677 22.3688 24.287 20 24.287Z" fill="#3F348E"/>
<path d="M19.9999 21.7808C20.9835 21.7808 21.7808 20.9835 21.7808 19.9999C21.7808 19.0163 20.9835 18.219 19.9999 18.219C19.0163 18.219 18.219 19.0163 18.219 19.9999C18.219 20.9835 19.0163 21.7808 19.9999 21.7808Z" fill="#3F348E"/>
</svg>
