<svg width="101" height="27" viewBox="0 0 101 27" fill="none" xmlns="http://www.w3.org/2000/svg">
<path d="M32.7996 5.78418V6.09486C33.5486 6.14594 34.3019 6.58856 34.3019 7.6866C34.3019 8.78464 33.5699 9.2145 32.7868 9.2911V9.6103H32.0377V9.2911C31.2717 9.23152 30.5354 8.79741 30.5354 7.71639C30.5354 6.63537 31.3696 6.15445 32.0505 6.09912V5.78843H32.7996V5.78418ZM32.042 6.63963C31.7313 6.68219 31.3355 6.95457 31.3355 7.69937C31.3355 8.38884 31.7271 8.69527 32.042 8.73783V6.64389V6.63963ZM32.7911 8.73357C33.1017 8.69527 33.4975 8.43565 33.4975 7.6866C33.4975 6.93755 33.1188 6.68219 32.7911 6.63963V8.73357Z" fill="white"/>
<path d="M36.9324 7.97162H35.6344V8.81004H37.0856V9.46546H34.8342V5.93726H37.0133V6.59268H35.6344V7.32471H36.9324V7.97587V7.97162Z" fill="white"/>
<path d="M40.4813 5.93321V8.83579L40.8303 8.85707L40.792 10.3594H40.1834L40.1408 9.46567H38.0767L38.0341 10.3594H37.4255L37.3958 8.85707L37.6894 8.83579C37.8299 8.58469 37.9448 8.32933 38.0256 8.04843C38.1235 7.69093 38.1661 7.30789 38.1661 6.87378V5.92896H40.4771L40.4813 5.93321ZM38.9109 7.05253C38.9109 7.46111 38.8598 7.86117 38.7534 8.21442C38.6896 8.42721 38.6002 8.64427 38.5066 8.81025H39.6812V6.58012H38.9109V7.05253Z" fill="white"/>
<path d="M43.3841 7.97186H42.086V8.81028H43.5373V9.46571H41.2859V5.9375H43.465V6.59292H42.086V7.32495H43.3841V7.97611V7.97186Z" fill="white"/>
<path d="M44.0781 5.98007C44.325 5.93751 44.6697 5.90771 45.1592 5.90771C45.6486 5.90771 46.0018 6.00135 46.2359 6.18861C46.4615 6.36736 46.6147 6.66102 46.6147 7.00576C46.6147 7.35049 46.4998 7.64415 46.2912 7.84419C46.0189 8.09954 45.6145 8.21446 45.1421 8.21446C45.0357 8.21446 44.9421 8.2102 44.8698 8.19743V9.46146H44.0781V5.98007ZM44.8698 7.58457C44.9379 7.60159 45.023 7.60585 45.1379 7.60585C45.5635 7.60585 45.8231 7.39305 45.8231 7.0313C45.8231 6.70784 45.5975 6.51207 45.2017 6.51207C45.04 6.51207 44.9293 6.52909 44.8698 6.54186V7.58457Z" fill="white"/>
<path d="M47.6273 8.55503L47.3762 9.46156H46.5505L47.6315 5.93335H48.6785L49.7723 9.46156H48.9126L48.6402 8.55503H47.6273ZM48.521 7.95919L48.2997 7.21014C48.2359 7.0016 48.172 6.73773 48.121 6.52919H48.1125C48.0614 6.73773 48.0061 7.00586 47.9507 7.21014L47.7422 7.95919H48.521Z" fill="white"/>
<path d="M51.0407 5.93335V8.81039H52.2749V5.93335H53.0708V8.83593L53.4283 8.8572L53.39 10.3596H52.7814L52.7388 9.46581H50.2363V5.9376H51.0365L51.0407 5.93335Z" fill="white"/>
<path d="M54.607 5.93321V6.98018C54.607 7.54623 54.5985 8.10802 54.5645 8.57617H54.5857C54.7687 8.16334 55.0028 7.69518 55.2156 7.32066L55.9732 5.93321H56.7904V9.46142H56.0583V8.4187C56.0583 7.87394 56.0668 7.39301 56.1179 6.92911H56.1009C55.9391 7.34619 55.7136 7.81435 55.505 8.18462L54.7858 9.45716H53.875V5.92896H54.607V5.93321Z" fill="white"/>
<path d="M57.1826 9.46132C57.255 9.34641 57.3145 9.21021 57.3614 9.06125C57.5018 8.65694 57.5869 8.24411 57.8551 7.98875C57.9317 7.91214 58.0381 7.85256 58.1487 7.80574V7.78872C57.7572 7.71637 57.4039 7.44398 57.4039 6.92901C57.4039 6.59704 57.5486 6.34594 57.7699 6.17996C58.0423 5.97142 58.4722 5.90332 58.9233 5.90332C59.3106 5.90332 59.6809 5.93311 59.9405 5.97567V9.45706H59.1489V8.06961H58.9531C58.7956 8.06961 58.6722 8.11643 58.5743 8.2058C58.3488 8.4186 58.2594 8.86974 58.1572 9.15914C58.1189 9.26554 58.0934 9.34641 58.0296 9.45706H57.1826V9.46132ZM59.1489 6.52895C59.0893 6.52044 58.9871 6.49916 58.8254 6.49916C58.4807 6.49916 58.204 6.64386 58.204 7.00562C58.204 7.32907 58.502 7.50357 58.8637 7.50357C58.9701 7.50357 59.0765 7.49931 59.1531 7.48654V6.52895H59.1489Z" fill="white"/>
<path d="M33.3915 12.3257V15.8539H32.5914V12.9768H31.3402V15.8539H30.54V12.3257H33.3958H33.3915Z" fill="white"/>
<path d="M34.6379 12.3257L35.1529 13.5684C35.2465 13.8195 35.3189 14.0281 35.3997 14.2451H35.4168C35.4636 14.0919 35.5232 13.8578 35.6125 13.5599L35.9956 12.3299H36.834L36.1743 14.0408C35.9615 14.5899 35.7402 15.1261 35.4764 15.4496C35.2465 15.739 34.9529 15.9177 34.54 15.9177C34.357 15.9177 34.2464 15.8964 34.1485 15.8581L34.2081 15.2197C34.2719 15.2368 34.3528 15.2453 34.4719 15.2453C34.7188 15.2453 34.8848 15.0793 34.9486 14.9133C34.9784 14.8537 34.9656 14.8069 34.9401 14.7516L33.7527 12.3257H34.655H34.6379Z" fill="white"/>
<path d="M39.7162 12.3257V15.8539H38.9203V12.9768H38.1202V13.8153C38.1202 14.7218 38.0053 15.4198 37.4691 15.7305C37.2903 15.8284 37.052 15.905 36.7668 15.905L36.6689 15.2623C36.8434 15.241 36.9839 15.1687 37.0733 15.075C37.2861 14.8537 37.3414 14.4026 37.3414 13.8706V12.3257H39.7205H39.7162Z" fill="white"/>
<path d="M42.5118 14.3639H41.2137V15.2024H42.665V15.8578H40.4136V12.3296H42.5926V12.985H41.2137V13.717H42.5118V14.3682V14.3639Z" fill="white"/>
<path d="M43.2097 12.3724C43.4183 12.3298 43.8439 12.3 44.2397 12.3C44.7248 12.3 45.027 12.3469 45.2824 12.5001C45.5292 12.632 45.708 12.8703 45.708 13.1895C45.708 13.5087 45.525 13.7982 45.1249 13.9429V13.9514C45.5292 14.062 45.8272 14.3642 45.8272 14.8196C45.8272 15.1388 45.6824 15.3899 45.4611 15.5686C45.2058 15.7729 44.7759 15.8878 44.0737 15.8878C43.6821 15.8878 43.3885 15.8623 43.2097 15.8368V12.3681V12.3724ZM44.0013 13.7258H44.2652C44.6823 13.7258 44.9078 13.5513 44.9078 13.2917C44.9078 13.0321 44.7036 12.8831 44.3418 12.8831C44.1673 12.8831 44.0694 12.8916 44.0013 12.9044V13.7258ZM44.0013 15.292C44.0779 15.3005 44.1758 15.3005 44.312 15.3005C44.6738 15.3005 44.993 15.1643 44.993 14.7941C44.993 14.4238 44.6738 14.2961 44.2737 14.2961H44.0013V15.292Z" fill="white"/>
<path d="M49.5856 14.0535C49.5856 15.2111 48.8834 15.9134 47.8534 15.9134C46.8235 15.9134 46.1936 15.1218 46.1936 14.1174C46.1936 13.0576 46.8703 12.2703 47.913 12.2703C48.9557 12.2703 49.5899 13.0832 49.5899 14.0578L49.5856 14.0535ZM47.032 14.1003C47.032 14.7898 47.3555 15.2792 47.8917 15.2792C48.428 15.2792 48.7387 14.7643 48.7387 14.0791C48.7387 13.4449 48.4365 12.9001 47.8832 12.9001C47.3299 12.9001 47.0278 13.4151 47.0278 14.1003H47.032Z" fill="white"/>
<path d="M50.8411 12.3256V13.3726C50.8411 13.9386 50.8326 14.5004 50.7986 14.9686H50.8199C51.0029 14.5558 51.2369 14.0876 51.4497 13.7131L52.2073 12.3256H53.0245V15.8538H52.2924V14.8111C52.2924 14.2663 52.3009 13.7854 52.352 13.3215H52.335C52.1733 13.7386 51.9477 14.2068 51.7392 14.577L51.0199 15.8496H50.1091V12.3214H50.8411V12.3256ZM51.3349 11.5212C51.3391 11.7255 51.3987 11.8404 51.5647 11.8404C51.7307 11.8404 51.7902 11.7255 51.8115 11.5212H52.3478C52.318 11.9724 52.0243 12.1639 51.5561 12.1639C51.088 12.1639 50.8326 11.9596 50.7901 11.5212H51.3349Z" fill="white"/>
<path d="M55.7479 12.3255V13.3725C55.7479 13.9386 55.7394 14.5003 55.7053 14.9685H55.7266C55.9096 14.5557 56.1437 14.0875 56.3565 13.713L57.1141 12.3255H57.9312V15.8538H57.1992V14.811C57.1992 14.2663 57.2077 13.7853 57.2588 13.3214H57.2418C57.08 13.7385 56.8545 14.2067 56.6459 14.577L55.9267 15.8495H55.0159V12.3213H55.7479V12.3255Z" fill="white"/>
<path d="M62.2766 15.756C62.1319 15.8284 61.7999 15.9092 61.37 15.9092C60.1486 15.9092 59.5229 15.1517 59.5229 14.143C59.5229 12.9386 60.3826 12.2661 61.4509 12.2661C61.8637 12.2661 62.1787 12.3512 62.3191 12.4236L62.1574 13.0577C61.9957 12.9896 61.7701 12.9258 61.4849 12.9258C60.8508 12.9258 60.3571 13.3088 60.3571 14.0919C60.3571 14.7984 60.7742 15.2453 61.4892 15.2453C61.7318 15.2453 61.9957 15.1942 62.1531 15.1304L62.2723 15.7518L62.2766 15.756Z" fill="white"/>
<path d="M63.5831 12.9981H62.634V12.3257H65.3451V12.9981H64.3832V15.8581H63.5831V12.9981Z" fill="white"/>
<path d="M67.8733 14.3642H66.5753V15.2026H68.0265V15.858H65.7751V12.3298H67.9542V12.9853H66.5753V13.7173H67.8733V14.3684V14.3642Z" fill="white"/>
<path d="M69.3714 12.3257V13.6833H70.6865V12.3257H71.4824V15.8539H70.6865V14.3771H69.3714V15.8539H68.5713V12.3257H69.3714Z" fill="white"/>
<path d="M74.9808 12.3255V15.2281L75.3298 15.2494L75.2915 16.7518H74.6829L74.6404 15.858H72.5762L72.5337 16.7518H71.9251L71.8953 15.2494L72.1889 15.2281C72.3294 14.977 72.4443 14.7217 72.5251 14.4408C72.623 14.0833 72.6656 13.7002 72.6656 13.2661V12.3213H74.9766L74.9808 12.3255ZM73.4104 13.4491C73.4104 13.8577 73.3593 14.2578 73.2529 14.611C73.1891 14.8238 73.0997 15.0409 73.0061 15.2068H74.1807V12.9767H73.4104V13.4491Z" fill="white"/>
<path d="M78.9772 14.0535C78.9772 15.2111 78.275 15.9134 77.245 15.9134C76.2151 15.9134 75.5852 15.1218 75.5852 14.1174C75.5852 13.0576 76.2619 12.2703 77.3046 12.2703C78.3473 12.2703 78.9815 13.0832 78.9815 14.0578L78.9772 14.0535ZM76.4236 14.1003C76.4236 14.7898 76.7471 15.2792 77.2833 15.2792C77.8196 15.2792 78.1303 14.7643 78.1303 14.0791C78.1303 13.4449 77.8281 12.9001 77.2748 12.9001C76.7215 12.9001 76.4194 13.4151 76.4194 14.1003H76.4236Z" fill="white"/>
<path d="M79.5007 12.3724C79.7093 12.3298 80.1349 12.3 80.5307 12.3C81.0159 12.3 81.318 12.3469 81.5734 12.5001C81.8202 12.632 81.999 12.8703 81.999 13.1895C81.999 13.5087 81.816 13.7982 81.4159 13.9429V13.9514C81.8202 14.062 82.1181 14.3642 82.1181 14.8196C82.1181 15.1388 81.9734 15.3899 81.7521 15.5686C81.4968 15.7729 81.0669 15.8878 80.3647 15.8878C79.9731 15.8878 79.6795 15.8623 79.5007 15.8368V12.3681V12.3724ZM80.2923 13.7258H80.5562C80.9733 13.7258 81.1989 13.5513 81.1989 13.2917C81.1989 13.0321 80.9946 12.8831 80.6328 12.8831C80.4583 12.8831 80.3604 12.8916 80.2923 12.9044V13.7258ZM80.2923 15.292C80.3689 15.3005 80.4668 15.3005 80.603 15.3005C80.9648 15.3005 81.284 15.1643 81.284 14.7941C81.284 14.4238 80.9648 14.2961 80.5647 14.2961H80.2923V15.292Z" fill="white"/>
<path d="M85.8764 14.0533C85.8764 15.2109 85.1741 15.9131 84.1442 15.9131C83.1142 15.9131 82.4844 15.1215 82.4844 14.1171C82.4844 13.0574 83.1611 12.27 84.2038 12.27C85.2465 12.27 85.8806 13.0829 85.8806 14.0575L85.8764 14.0533ZM83.3228 14.1001C83.3228 14.7896 83.6463 15.279 84.1825 15.279C84.7188 15.279 85.0294 14.764 85.0294 14.0788C85.0294 13.4447 84.7273 12.8999 84.174 12.8999C83.6207 12.8999 83.3185 13.4149 83.3185 14.1001H83.3228Z" fill="white"/>
<path d="M87.1319 12.3256V13.3726C87.1319 13.9386 87.1234 14.5004 87.0894 14.9686H87.1107C87.2937 14.5558 87.5277 14.0876 87.7405 13.7131L88.4981 12.3256H89.3153V15.8538H88.5832V14.8111C88.5832 14.2663 88.5917 13.7854 88.6428 13.3215H88.6258C88.4641 13.7386 88.2385 14.2068 88.0299 14.577L87.3107 15.8496H86.3999V12.3214H87.1319V12.3256ZM87.6256 11.5212C87.6299 11.7255 87.6895 11.8404 87.8555 11.8404C88.0214 11.8404 88.081 11.7255 88.1023 11.5212H88.6386C88.6088 11.9724 88.3151 12.1639 87.8469 12.1639C87.3788 12.1639 87.1234 11.9596 87.0809 11.5212H87.6256Z" fill="white"/>
<path d="M33.289 22.2082C33.1443 22.2805 32.8123 22.3614 32.3825 22.3614C31.161 22.3614 30.5354 21.6038 30.5354 20.5951C30.5354 19.3907 31.3951 18.7183 32.4633 18.7183C32.8762 18.7183 33.1911 18.8034 33.3316 18.8757L33.1699 19.5099C33.0081 19.4418 32.7826 19.3779 32.4974 19.3779C31.8633 19.3779 31.3696 19.761 31.3696 20.5441C31.3696 21.2506 31.7867 21.6974 32.5017 21.6974C32.7443 21.6974 33.0081 21.6464 33.1656 21.5825L33.2847 22.2039L33.289 22.2082Z" fill="white"/>
<path d="M34.5953 19.4503H33.6462V18.7778H36.3573V19.4503H35.3954V22.3103H34.5953V19.4503Z" fill="white"/>
<path d="M36.7827 18.8248C37.0296 18.7822 37.3743 18.7524 37.8595 18.7524C38.3446 18.7524 38.7022 18.8461 38.9405 19.0333C39.1661 19.2121 39.3193 19.5058 39.3193 19.8505C39.3193 20.1952 39.2044 20.4889 38.9958 20.6889C38.7234 20.9443 38.3191 21.0592 37.8467 21.0592C37.7403 21.0592 37.6467 21.0549 37.5743 21.0422V22.3062H36.7827V18.8248ZM37.5743 20.4293C37.6424 20.4463 37.7275 20.4506 37.8424 20.4506C38.268 20.4506 38.5277 20.2378 38.5277 19.876C38.5277 19.5526 38.3021 19.3568 37.9063 19.3568C37.7445 19.3568 37.6339 19.3738 37.5743 19.3866V20.4293Z" fill="white"/>
<path d="M41.9283 20.8161H40.6302V21.6545H42.0815V22.3099H39.8301V18.7817H42.0091V19.4372H40.6302V20.1692H41.9283V20.8204V20.8161Z" fill="white"/>
<path d="M45.3715 18.7778V22.306H44.5756V19.429H43.7755V20.2674C43.7755 21.1739 43.6606 21.8719 43.1243 22.1826C42.9456 22.2805 42.7073 22.3571 42.4221 22.3571L42.3242 21.7145C42.4987 21.6932 42.6392 21.6208 42.7285 21.5272C42.9413 21.3059 42.9967 20.8547 42.9967 20.3228V18.7778H45.3758H45.3715Z" fill="white"/>
<path d="M46.8651 18.7778V20.0036C46.9758 19.995 47.1418 19.978 47.295 19.978C48.0525 19.978 48.6994 20.3398 48.6994 21.1229C48.6994 21.4591 48.5888 21.7102 48.4185 21.8932C48.0781 22.2379 47.4865 22.3443 46.9375 22.3443C46.5459 22.3443 46.2522 22.3188 46.0735 22.2933V18.7778H46.8694H46.8651ZM46.8609 21.7272C46.9502 21.7442 47.0439 21.7485 47.1588 21.7485C47.5461 21.7485 47.861 21.5612 47.861 21.1612C47.861 20.7611 47.5503 20.5909 47.1715 20.5909C47.0566 20.5909 46.963 20.5994 46.8609 20.6122V21.7272Z" fill="white"/>
<path d="M51.5726 18.7778V19.429H50.0234V20.0376C50.1426 20.0206 50.3128 20.0121 50.4533 20.0121C50.8108 20.0121 51.181 20.1014 51.4491 20.3015C51.696 20.4802 51.8577 20.7569 51.8577 21.1442C51.8577 21.4889 51.7258 21.757 51.5215 21.94C51.181 22.2422 50.6278 22.3486 50.0873 22.3486C49.6957 22.3486 49.4063 22.3231 49.2275 22.2975V18.7821H51.5726V18.7778ZM50.0191 21.7272C50.1085 21.7442 50.2192 21.7485 50.3298 21.7485C50.5256 21.7485 50.7171 21.6847 50.8491 21.5655C50.9555 21.4719 51.0235 21.3314 51.0235 21.1569C51.0235 20.9824 50.9512 20.8462 50.8363 20.7569C50.6958 20.6462 50.4958 20.5994 50.3085 20.5994C50.2192 20.5994 50.1256 20.6036 50.0277 20.6207V21.7272H50.0191Z" fill="white"/>
<path d="M53.1814 18.7778V20.0078C53.2793 19.9908 53.4453 19.978 53.5729 19.978C54.3007 19.978 54.9731 20.3398 54.9731 21.1356C54.9731 21.4676 54.8625 21.7102 54.6922 21.8932C54.3518 22.2379 53.7602 22.3443 53.241 22.3443C52.8579 22.3443 52.5642 22.3188 52.3855 22.2933V18.7778H53.1814ZM53.1771 21.7272C53.2452 21.7442 53.3388 21.7485 53.4495 21.7485C53.7985 21.7485 54.1347 21.5442 54.1347 21.1569C54.1347 20.7696 53.7644 20.5909 53.458 20.5909C53.3474 20.5909 53.2537 20.5994 53.1771 20.6122V21.7272ZM56.0925 18.7778V22.306H55.2966V18.7778H56.0925Z" fill="white"/>
<path d="M60.2334 18.7778V19.4333H58.897V22.3103H58.0969V18.7821H60.2334V18.7778Z" fill="white"/>
<path d="M63.7189 20.5054C63.7189 21.663 63.0167 22.3653 61.9867 22.3653C60.9568 22.3653 60.3269 21.5737 60.3269 20.5693C60.3269 19.5095 61.0036 18.7222 62.0463 18.7222C63.089 18.7222 63.7232 19.5351 63.7232 20.5097L63.7189 20.5054ZM61.1653 20.5522C61.1653 21.2417 61.4888 21.7311 62.025 21.7311C62.5613 21.7311 62.872 21.2162 62.872 20.531C62.872 19.8968 62.5698 19.3521 62.0165 19.3521C61.4632 19.3521 61.1611 19.867 61.1611 20.5522H61.1653Z" fill="white"/>
<path d="M64.2424 18.8248C64.4893 18.7822 64.834 18.7524 65.3192 18.7524C65.8044 18.7524 66.1619 18.8461 66.4002 19.0333C66.6258 19.2121 66.779 19.5058 66.779 19.8505C66.779 20.1952 66.6641 20.4889 66.4555 20.6889C66.1832 20.9443 65.7788 21.0592 65.3064 21.0592C65.2 21.0592 65.1064 21.0549 65.0341 21.0422V22.3062H64.2424V18.8248ZM65.0341 20.425C65.1022 20.4421 65.1873 20.4463 65.3022 20.4463C65.7278 20.4463 65.9874 20.2335 65.9874 19.8718C65.9874 19.5483 65.7618 19.3525 65.366 19.3525C65.2043 19.3525 65.0936 19.3696 65.0341 19.3823V20.425Z" fill="white"/>
<path d="M70.4989 20.5057C70.4989 21.6633 69.7967 22.3655 68.7667 22.3655C67.7368 22.3655 67.1069 21.5739 67.1069 20.5695C67.1069 19.5098 67.7836 18.7224 68.8263 18.7224C69.8691 18.7224 70.5032 19.5353 70.5032 20.5099L70.4989 20.5057ZM67.9496 20.5525C67.9496 21.242 68.2731 21.7314 68.8093 21.7314C69.3456 21.7314 69.6563 21.2164 69.6563 20.5312C69.6563 19.8971 69.3541 19.3523 68.8008 19.3523C68.2475 19.3523 67.9453 19.8673 67.9453 20.5525H67.9496Z" fill="white"/>
<path d="M73.6954 18.7777V21.6803L74.0444 21.7015L74.0061 23.2039H73.3975L73.355 22.3102H71.2908L71.2483 23.2039H70.6397L70.6099 21.7015L70.9035 21.6803C71.044 21.4292 71.1589 21.1738 71.2397 20.8929C71.3376 20.5354 71.3802 20.1524 71.3802 19.7183V18.7734H73.6912L73.6954 18.7777ZM72.125 19.897C72.125 20.3056 72.0739 20.7057 71.9675 21.0589C71.9037 21.2717 71.8143 21.4887 71.7207 21.6547H72.8953V19.4246H72.125V19.897Z" fill="white"/>
<path d="M75.3597 21.3995L75.1086 22.306H74.283L75.364 18.7778H76.4109L77.5047 22.306H76.645L76.3726 21.3995H75.3597ZM76.2577 20.8037L76.0364 20.0546C75.9726 19.8461 75.9087 19.5822 75.8577 19.3737H75.8492C75.7981 19.5822 75.7428 19.8503 75.6874 20.0546L75.4789 20.8037H76.2577Z" fill="white"/>
<path d="M82.0196 20.9525C82.0026 20.5269 81.9898 20.0162 81.9898 19.5012H81.9728C81.8622 19.9523 81.7175 20.4545 81.5813 20.8674L81.1514 22.2463H80.53L80.1513 20.8801C80.0363 20.4673 79.9172 19.9651 79.8321 19.5012H79.8236C79.8023 19.9779 79.7852 20.5226 79.7597 20.961L79.6959 22.3016H78.9553L79.1809 18.7734H80.2449L80.5896 19.9523C80.7003 20.3609 80.8109 20.7993 80.8876 21.2164H80.9046C81.0025 20.8078 81.1259 20.3396 81.2408 19.9481L81.6196 18.7734H82.6623L82.8581 22.3016H82.0792L82.0282 20.9482L82.0196 20.9525Z" fill="white"/>
<path d="M86.6674 20.5057C86.6674 21.6633 85.9652 22.3655 84.9352 22.3655C83.9053 22.3655 83.2754 21.5739 83.2754 20.5695C83.2754 19.5098 83.9521 18.7224 84.9948 18.7224C86.0375 18.7224 86.6717 19.5353 86.6717 20.5099L86.6674 20.5057ZM84.1181 20.5525C84.1181 21.242 84.4415 21.7314 84.9778 21.7314C85.514 21.7314 85.8247 21.2164 85.8247 20.5312C85.8247 19.8971 85.5225 19.3523 84.9693 19.3523C84.416 19.3523 84.1138 19.8673 84.1138 20.5525H84.1181Z" fill="white"/>
<path d="M89.7873 22.2082C89.6426 22.2805 89.3106 22.3614 88.8808 22.3614C87.6593 22.3614 87.0337 21.6038 87.0337 20.5951C87.0337 19.3907 87.8934 18.7183 88.9616 18.7183C89.3745 18.7183 89.6894 18.8034 89.8298 18.8757L89.6681 19.5099C89.5064 19.4418 89.2808 19.3779 88.9957 19.3779C88.3615 19.3779 87.8678 19.761 87.8678 20.5441C87.8678 21.2506 88.2849 21.6974 89 21.6974C89.2425 21.6974 89.5064 21.6464 89.6639 21.5825L89.783 22.2039L89.7873 22.2082Z" fill="white"/>
<path d="M91.1023 18.7778V20.2461H91.1704L92.145 18.7778H93.1154L91.8854 20.344C92.3408 20.4589 92.5451 20.7739 92.694 21.1995C92.8217 21.5783 92.9366 21.957 93.1026 22.3103H92.2429C92.1237 22.0677 92.0556 21.7953 91.9705 21.5357C91.8514 21.1356 91.6896 20.8335 91.2598 20.8335H91.1065V22.3103H90.3149V18.7821H91.1065L91.1023 18.7778Z" fill="white"/>
<path d="M93.4766 18.8248C93.6851 18.7822 94.1107 18.7524 94.5065 18.7524C94.9917 18.7524 95.2939 18.7993 95.5492 18.9525C95.7961 19.0844 95.9748 19.3227 95.9748 19.6419C95.9748 19.9611 95.7918 20.2505 95.3918 20.3952V20.4038C95.7961 20.5144 96.094 20.8166 96.094 21.272C96.094 21.5912 95.9493 21.8423 95.728 22.021C95.4726 22.2253 95.0428 22.3402 94.3405 22.3402C93.949 22.3402 93.6553 22.3147 93.4766 22.2892V18.8205V18.8248ZM94.2682 20.1739H94.5321C94.9491 20.1739 95.1747 19.9994 95.1747 19.7398C95.1747 19.4802 94.9704 19.3313 94.6087 19.3313C94.4342 19.3313 94.3363 19.3398 94.2682 19.3525V20.1739ZM94.2682 21.7401C94.3448 21.7487 94.4427 21.7486 94.5789 21.7486C94.9406 21.7486 95.2598 21.6125 95.2598 21.2422C95.2598 20.8719 94.9406 20.7442 94.5406 20.7442H94.2682V21.7401Z" fill="white"/>
<path d="M97.4392 18.7778V20.0078C97.5371 19.9908 97.7031 19.978 97.8307 19.978C98.5585 19.978 99.231 20.3398 99.231 21.1356C99.231 21.4676 99.1203 21.7102 98.9501 21.8932C98.6096 22.2379 98.018 22.3443 97.4988 22.3443C97.1157 22.3443 96.8221 22.3188 96.6433 22.2933V18.7778H97.4392ZM97.4307 21.723C97.4988 21.74 97.5924 21.7442 97.703 21.7442C98.052 21.7442 98.3883 21.54 98.3883 21.1527C98.3883 20.7654 98.018 20.5866 97.7116 20.5866C97.6009 20.5866 97.5073 20.5951 97.4307 20.6079V21.723ZM100.35 18.7778V22.306H99.5544V18.7778H100.35Z" fill="white"/>
<path d="M13.2314 4.39258C8.31144 4.39258 4.31934 8.38043 4.31934 13.3046C4.31934 18.2288 8.30719 22.2166 13.2314 22.2166C18.1555 22.2166 22.1434 18.2288 22.1434 13.3046C22.1434 8.38043 18.1555 4.39258 13.2314 4.39258ZM13.2314 20.7143C9.1371 20.7143 5.82171 17.3988 5.82171 13.3046C5.82171 9.21035 9.1371 5.89494 13.2314 5.89494C17.3256 5.89494 20.641 9.21035 20.641 13.3046C20.641 17.3988 17.3256 20.7143 13.2314 20.7143Z" fill="white"/>
<path d="M13.2318 8.35059C10.4952 8.35059 8.27783 10.5679 8.27783 13.3045C8.27783 16.0411 10.4952 18.2585 13.2318 18.2585C15.9684 18.2585 18.1858 16.0411 18.1858 13.3045C18.1858 10.5679 15.9684 8.35059 13.2318 8.35059ZM13.2318 16.7774C11.3123 16.7774 9.75467 15.2197 9.75467 13.3003C9.75467 11.3808 11.3123 9.82315 13.2318 9.82315C15.1512 9.82315 16.7089 11.3808 16.7089 13.3003C16.7089 15.2197 15.1512 16.7774 13.2318 16.7774Z" fill="white"/>
<path d="M13.6187 12.4703C13.1591 12.2575 12.6143 12.4618 12.4015 12.9215C12.1887 13.3811 12.393 13.9259 12.8526 14.1387C13.3123 14.3515 13.857 14.1472 14.0698 13.6875C14.2826 13.2279 14.0783 12.6831 13.6187 12.4703Z" fill="white"/>
<path d="M12.2781 1.95401V0.35376C5.86862 0.821917 0.748675 5.9376 0.280518 12.3514H1.88077C2.34041 6.82285 6.74534 2.41791 12.2739 1.95826L12.2781 1.95401Z" fill="white"/>
<path d="M24.5822 12.347H26.1824C25.7143 5.93746 20.5986 0.817523 14.1848 0.349365V1.94961C19.7133 2.40926 24.1183 6.8142 24.5779 12.3427L24.5822 12.347Z" fill="white"/>
<path d="M1.88468 14.2578H0.284424C0.752581 20.6673 5.86827 25.7873 12.282 26.2554V24.6552C6.75351 24.1955 2.34858 19.7906 1.88894 14.2621L1.88468 14.2578Z" fill="white"/>
<path d="M14.1887 24.6508V26.251C20.5982 25.7829 25.7182 20.6672 26.1863 14.2534H24.5861C24.1264 19.7819 19.7215 24.1869 14.193 24.6465L14.1887 24.6508Z" fill="white"/>
</svg>
