<svg width="420" height="120" viewBox="0 0 420 120" fill="none" xmlns="http://www.w3.org/2000/svg">
<path fill-rule="evenodd" clip-rule="evenodd" d="M27.7001 61.5899C12.8001 67.3499 11.6401 75.3299 8.3501 90.2999C15.6801 102.64 27.3501 112.09 41.2501 116.56C41.2601 114.8 41.3101 112.98 41.4101 111.06C43.7701 104.73 44.7501 98.01 44.8501 91.52C44.9101 87.45 44.1601 88.7099 47.3901 86.4299C49.2601 85.1199 51.3001 83.4599 53.6501 81.2399C56.9101 78.1599 55.5901 78.9799 60.0001 78.6599C69.3101 77.9799 75.7901 74.7999 80.6201 70.1699C85.6301 65.3799 82.8901 61.2399 90.9001 56.7299C92.3701 55.8999 92.2701 56.1899 91.5001 54.1899C90.9401 52.7399 90.8801 53.1099 92.3301 52.3899C95.5901 50.7999 98.8601 49.1899 102.12 47.5999C103.52 46.9099 103.27 47.2299 103.12 45.6399C102.97 44.0399 102.87 44.6199 104.32 44.1999C105.5 43.8599 106.48 43.2499 107.26 42.3999C108.7 40.8399 107.78 41.1999 110.06 40.4699C120.8 37.0799 131.53 33.6999 142.28 30.3099C142.6 30.2099 142.91 30.1099 143.23 30.0099C143.81 29.8399 143.79 29.7399 143.62 29.1199C143.35 28.1499 143.08 27.1599 142.81 26.1899C142.63 25.5299 142.62 25.1199 142.04 25.2899C141.68 25.3899 141.45 25.4599 141.09 25.5699C140.49 25.7499 140.55 25.6699 140.4 26.2599C140.35 26.4799 140.31 26.6299 140.25 26.8499C140.08 27.5299 140.15 27.4799 139.47 27.6899C117.29 34.6499 95.1201 41.6099 72.9401 48.5599C72.0801 48.8299 72.0701 48.6399 71.7701 49.4699C71.3501 50.6399 71.3601 50.6499 70.2801 50.4399C69.1101 50.1999 69.3701 50.2399 68.5001 51.0899C62.4401 57.0699 62.1801 57.6799 54.7801 60.7399C52.8001 61.5499 52.5101 61.3699 52.5301 60.1099C52.5301 59.7499 52.5601 59.3099 52.5901 58.7699C52.6401 57.6799 52.5101 57.6499 53.3101 57.1899C54.3601 56.5899 54.4401 56.5799 53.0101 54.9099C52.3301 54.1199 52.4601 54.3299 52.5201 53.2899C52.5601 52.6499 52.5901 52.0099 52.6301 51.3599C54.8401 50.9099 56.5101 49.9399 57.5501 48.3699C57.7201 48.1099 57.9401 47.7499 58.0501 47.4599C58.2001 47.0599 57.9201 47.1199 57.2601 47.1199H50.9501C49.8801 47.1199 50.0301 47.1499 49.4201 46.2499C47.1301 42.8799 44.6201 41.2999 41.5301 41.1299C40.1301 41.0599 39.0801 44.3199 39.0201 45.4499C38.9801 46.1799 38.9001 46.2399 39.7301 46.5099C41.8801 47.2099 43.6201 49.9399 43.8301 53.1899C44.0701 56.9799 42.1301 60.0499 39.5201 60.0499C36.9101 60.0499 34.5801 56.9799 34.3301 53.1899C34.1701 50.6999 34.9501 48.5299 36.2501 47.3199C37.2301 46.3999 37.1101 46.7999 37.1701 45.5099C37.2401 44.2499 37.5401 43.0499 38.0301 41.9499C38.2301 41.4999 38.5201 41.2899 38.0401 41.3999C37.2201 41.5899 36.3801 41.8499 35.5201 42.1999C33.3801 43.1799 31.4201 44.3199 30.0501 46.0099C25.5601 51.5699 31.9901 60.1099 27.6901 61.5499" fill="white"/>
<path fill-rule="evenodd" clip-rule="evenodd" d="M105.94 51.7598C106.41 54.4398 106.66 57.1998 106.66 59.9998C106.66 86.0698 85.53 107.21 59.45 107.21C55.71 107.21 52.07 106.77 48.58 105.95C49.04 103.95 49.4 101.94 49.66 99.9098C52.8 100.67 56.08 101.08 59.45 101.08C82.14 101.08 100.53 82.6898 100.53 59.9998C100.53 58.1598 100.41 56.3498 100.17 54.5698L105.65 51.8898L105.94 51.7498V51.7598ZM59.46 12.7898C76.2 12.7898 90.91 21.5098 99.29 34.6598L93.2 36.5698C85.78 25.8998 73.43 18.9198 59.45 18.9198C36.78 18.9198 18.4 37.2798 18.37 59.9398C16.13 61.2498 14.11 62.8398 12.5 64.9098C12.33 63.2998 12.25 61.6498 12.25 59.9998C12.25 33.9398 33.38 12.7998 59.46 12.7998V12.7898ZM116.74 44.0498C118.15 49.1298 118.91 54.4698 118.91 59.9998C118.91 92.8298 92.29 119.45 59.46 119.45C55.07 119.45 50.78 118.97 46.66 118.07C46.64 116.09 46.69 114.12 46.78 112.14L46.89 111.83C50.92 112.8 55.12 113.32 59.46 113.32C88.91 113.32 112.79 89.4498 112.79 59.9898C112.79 55.6398 112.27 51.3998 111.28 47.3498C110.93 45.9098 111.2 45.7898 112.65 45.3198L116.74 44.0498ZM59.46 0.549805C81.72 0.549805 101.11 12.7898 111.3 30.8898L105.31 32.7698C96.01 17.1398 78.96 6.6698 59.45 6.6698C30 6.6698 6.12 30.5398 6.12 59.9998C6.12 64.3698 6.64999 68.6198 7.63999 72.6898C7.17999 73.8498 6.79999 74.9998 6.46999 76.0298C5.75999 78.2498 5.11999 80.5198 4.52999 82.8198C1.59999 75.7898 -0.0100098 68.0898 -0.0100098 59.9998C-0.0100098 27.1698 26.61 0.549805 59.45 0.549805H59.46Z" fill="white"/>
<path d="M166.28 71.9V39.25H181.44C185.32 39.25 188.47 40.34 190.89 42.54C193.3 44.74 194.5 47.44 194.5 50.67C194.5 53.9 193.3 56.62 190.89 58.8C188.48 61 185.33 62.09 181.44 62.09H173.28V71.89H166.29L166.28 71.9ZM173.28 55.57H181.21C183.14 55.57 184.63 55.12 185.68 54.22C186.73 53.32 187.26 52.13 187.26 50.68C187.26 49.23 186.73 48.03 185.68 47.14C184.63 46.24 183.13 45.79 181.21 45.79H173.28V55.58V55.57Z" fill="white"/>
<path d="M196.37 48.1001H203.13L207.79 66.2901H209.66L214.79 48.1001H221.55L211.99 80.7501H205.23L207.8 71.8801H202.66L196.37 48.1001Z" fill="white"/>
<path d="M224.12 71.8999V48.1099H232.98L238.58 60.9399H239.28L244.88 48.1099H253.75V71.8999H247.22V59.9999L247.45 55.8099H247.22L242.09 67.4699H235.79L230.65 55.8099H230.42L230.65 59.9999V71.8999H224.12Z" fill="white"/>
<path d="M257.7 71.9001L262.59 63.2701C261.82 62.9001 261.12 62.4001 260.49 61.7801C259.09 60.3801 258.39 58.5501 258.39 56.2701C258.39 53.8701 259.23 51.9201 260.93 50.3901C262.63 48.8601 264.96 48.1001 267.95 48.1001H279.85V71.8901H273.32V64.6601H268.66L264.93 71.8901H257.7V71.9001ZM265.16 56.2701C265.16 57.2301 265.45 57.9901 266.04 58.5101C266.63 59.0401 267.48 59.3001 268.61 59.3001H273.32V53.7001H268.61C267.52 53.7001 266.67 53.9401 266.07 54.4201C265.47 54.9001 265.16 55.5201 265.16 56.2701Z" fill="white"/>
<path d="M284.99 71.8999V48.1099H291.52V56.9699H301.55V48.1099H308.08V71.8999H301.55V62.5699H291.52V71.8999H284.99Z" fill="white"/>
<path d="M313.2 71.8999V48.1099H319.73V66.2999H328.59V48.1099H335.12V66.2999H338.38V76.7899H332.08V71.8999H313.2Z" fill="white"/>
<path d="M343.72 68.9301C341.25 66.4901 340.01 63.5102 340.01 60.0002C340.01 56.4902 341.24 53.5102 343.72 51.0702C346.2 48.6302 349.23 47.4102 352.84 47.4102C356.45 47.4102 359.52 48.6202 361.89 51.0502C364.26 53.4802 365.43 56.4601 365.43 60.0101V61.4102H346.77C347.02 62.9602 347.71 64.2901 348.87 65.3701C350.02 66.4601 351.34 67.0002 352.83 67.0002C354.47 67.0002 355.89 66.5402 357.07 65.6002C357.54 65.2002 357.91 64.7302 358.19 64.2102H365.19C364.66 65.7902 363.89 67.2001 362.85 68.4001C360.36 71.2001 357.02 72.5901 352.82 72.5901C349.23 72.5801 346.19 71.3702 343.71 68.9202L343.72 68.9301ZM347.01 57.4402H358.43C358.18 56.2002 357.55 55.1402 356.54 54.2902C355.53 53.4402 354.29 53.0102 352.83 53.0102C351.37 53.0102 350.12 53.4301 349.1 54.2701C348.08 55.1101 347.37 56.1702 347 57.4402H347.01Z" fill="white"/>
<path d="M369.4 71.8999V48.1099H382.46C384.92 48.1099 386.81 48.6499 388.15 49.7399C389.48 50.8299 390.16 52.2299 390.16 53.9299C390.16 55.7399 389.49 57.1499 388.15 58.1699C387.53 58.6299 386.88 58.9299 386.19 59.0499V59.2799C387.09 59.4699 387.95 59.7899 388.76 60.2599C390.47 61.4699 391.33 63.0899 391.33 65.1099C391.33 67.1299 390.55 68.7199 389 69.9799C387.45 71.2399 385.27 71.8699 382.47 71.8699H369.4V71.8999ZM375.93 57.2099H381.53C382.24 57.2099 382.81 57.0099 383.24 56.6099C383.66 56.2099 383.87 55.7099 383.87 55.1199C383.87 54.5299 383.66 54.0399 383.24 53.6299C382.82 53.2299 382.26 53.0299 381.53 53.0299H375.93V57.2199V57.2099ZM375.93 66.9999H382C382.81 66.9999 383.47 66.7499 384.01 66.2599C384.54 65.7599 384.8 65.1599 384.8 64.4399C384.8 63.7199 384.54 63.1199 384.01 62.6199C383.48 62.1199 382.82 61.8799 382 61.8799H375.93V66.9999Z" fill="white"/>
<path d="M397.61 68.9301C395.12 66.4901 393.88 63.5102 393.88 60.0002C393.88 56.4902 395.12 53.5102 397.61 51.0702C400.1 48.6302 403.21 47.4102 406.94 47.4102C410.67 47.4102 413.74 48.6302 416.25 51.0702C418.75 53.5102 420 56.4902 420 60.0002C420 63.5102 418.75 66.4901 416.25 68.9301C413.74 71.3701 410.64 72.5901 406.94 72.5901C403.24 72.5901 400.1 71.3801 397.61 68.9301ZM402.46 54.9702C401.25 56.2702 400.64 57.9602 400.64 60.0002C400.64 62.0402 401.24 63.7302 402.46 65.0302C403.68 66.3302 405.17 66.9902 406.93 66.9902C408.69 66.9902 410.2 66.3402 411.4 65.0302C412.6 63.7202 413.22 62.0402 413.22 60.0002C413.22 57.9602 412.62 56.2702 411.4 54.9702C410.18 53.6702 408.69 53.0102 406.93 53.0102C405.16 53.0002 403.67 53.6602 402.46 54.9702Z" fill="white"/>
<path d="M167.79 22.9099C166.79 21.8899 166.29 20.5899 166.29 19.0399C166.29 17.4899 166.79 16.1899 167.79 15.1699C168.79 14.1499 170.03 13.6299 171.5 13.6299C173.21 13.6299 174.56 14.2399 175.56 15.4699C175.99 16.0099 176.3 16.6099 176.49 17.2899H174.83C174.68 16.9199 174.45 16.5699 174.14 16.2499C173.48 15.5599 172.6 15.2099 171.49 15.2099C170.48 15.2099 169.63 15.5699 168.96 16.2899C168.29 17.0099 167.95 17.9299 167.95 19.0599C167.95 20.1899 168.3 21.1099 168.99 21.8299C169.68 22.5499 170.51 22.9099 171.49 22.9099C172.63 22.9099 173.54 22.5299 174.22 21.7699C174.52 21.4499 174.76 21.0699 174.93 20.6299H176.59C176.41 21.3399 176.09 21.9799 175.63 22.5699C174.58 23.8399 173.19 24.4899 171.49 24.4899C170.03 24.4899 168.79 23.9699 167.79 22.9499V22.9099Z" fill="white"/>
<path d="M178.68 24.2403V13.8203H187.75V24.2403H186.09V15.3803H180.36V24.2403H178.69H178.68Z" fill="white"/>
<path d="M191.58 22.9099C190.55 21.8899 190.04 20.5899 190.04 19.0399C190.04 17.4899 190.55 16.1899 191.58 15.1699C192.6 14.1499 193.9 13.6299 195.45 13.6299C197 13.6299 198.3 14.1399 199.32 15.1699C200.34 16.1999 200.86 17.4899 200.86 19.0399C200.86 20.5899 200.35 21.8899 199.32 22.9099C198.29 23.9399 197 24.4499 195.45 24.4499C193.9 24.4499 192.6 23.9299 191.58 22.9099ZM192.76 16.2599C192.05 16.9799 191.7 17.8999 191.7 19.0299C191.7 20.1599 192.05 21.0799 192.76 21.7999C193.47 22.5199 194.36 22.8799 195.45 22.8799C196.54 22.8799 197.43 22.5199 198.14 21.7999C198.85 21.0799 199.2 20.1599 199.2 19.0299C199.2 17.8999 198.85 16.9799 198.14 16.2599C197.43 15.5399 196.54 15.1799 195.45 15.1799C194.36 15.1799 193.47 15.5399 192.76 16.2599Z" fill="white"/>
<path d="M203.16 28.2001V13.8301H204.82V15.4901H204.84L205.05 15.1801C205.29 14.8201 205.71 14.4701 206.32 14.1301C206.93 13.7901 207.68 13.6201 208.57 13.6201C209.95 13.6201 211.14 14.1401 212.11 15.1701C213.08 16.2001 213.56 17.5001 213.56 19.0301C213.56 20.5601 213.08 21.8601 212.11 22.8901C211.14 23.9201 209.95 24.4401 208.57 24.4401C207.68 24.4401 206.93 24.2701 206.31 23.9301C205.69 23.5901 205.27 23.2301 205.05 22.8601L204.84 22.5701H204.82V28.2001H203.16ZM205.84 16.2601C205.17 16.9801 204.83 17.9001 204.83 19.0301C204.83 20.1601 205.17 21.0801 205.84 21.8001C206.51 22.5201 207.35 22.8801 208.37 22.8801C209.39 22.8801 210.23 22.5201 210.9 21.8001C211.57 21.0801 211.91 20.1601 211.91 19.0301C211.91 17.9001 211.57 16.9801 210.9 16.2601C210.23 15.5401 209.39 15.1801 208.37 15.1801C207.35 15.1801 206.51 15.5401 205.84 16.2601Z" fill="white"/>
<path d="M214.52 15.3901V13.8301H223.48V15.3901H219.83V24.2501H218.17V15.3901H214.53H214.52Z" fill="white"/>
<path d="M225.04 24.2403V13.8203H226.7V21.6303L226.68 21.8403H226.72L232.33 13.8203H234.21V24.2403H232.55V16.4303L232.57 16.2203H232.53L226.92 24.2403H225.04Z" fill="white"/>
<path d="M237.13 24.2403V13.8203H238.79V18.0903H244.63V13.8203H246.29V24.2403H244.63V19.6603H238.79V24.2403H237.13Z" fill="white"/>
<path d="M249.2 24.2403V13.8203H256.39V15.3803H250.87V24.2403H249.2Z" fill="white"/>
<path d="M262.85 24.2398V13.8198H264.51V17.9798H266.6L269.93 13.8198H271.91L268.06 18.7098L272.22 24.2298H270.13L266.59 19.5498H264.5V24.2298H262.85V24.2398Z" fill="white"/>
<path d="M272.54 24.2398L275.46 13.8198H279.83L282.75 24.2398H280.97L278.57 15.3798H276.69L274.29 24.2398H272.52H272.54Z" fill="white"/>
<path d="M283.06 13.8203H284.83L287.12 22.6803H288.68L291.39 13.8203H293.17L288.8 28.1903H287.02L288.27 24.2303H285.87L283.06 13.8203Z" fill="white"/>
<path d="M294.01 18.6202C294.01 15.4802 294.58 13.2002 295.74 11.7902C296.89 10.3802 298.61 9.66016 300.89 9.66016H303.39V11.4402H300.89C299.24 11.4402 298 11.8201 297.19 12.5901C296.38 13.3601 295.88 14.6102 295.68 16.3302H295.7C295.91 16.0302 296.18 15.7502 296.53 15.5002C297.3 14.9502 298.24 14.6702 299.32 14.6702C300.73 14.6702 301.91 15.1302 302.83 16.0502C303.75 16.9702 304.21 18.1502 304.21 19.5602C304.21 20.9702 303.74 22.1702 302.79 23.0802C301.84 23.9902 300.61 24.4501 299.11 24.4501C297.61 24.4501 296.33 23.9402 295.4 22.9102C294.49 21.8802 294.03 20.4502 294.03 18.6202H294.01ZM296.65 17.1902C296 17.8302 295.67 18.6202 295.67 19.5702C295.67 20.5202 296 21.3101 296.65 21.9501C297.3 22.5901 298.12 22.9102 299.11 22.9102C300.1 22.9102 300.92 22.5901 301.57 21.9501C302.22 21.3101 302.55 20.5202 302.55 19.5702C302.55 18.6202 302.22 17.8302 301.57 17.1902C300.92 16.5502 300.1 16.2302 299.11 16.2302C298.12 16.2302 297.3 16.5502 296.65 17.1902Z" fill="white"/>
</svg>
