<svg width="104" height="26" viewBox="0 0 104 26" fill="none" xmlns="http://www.w3.org/2000/svg">
<path d="M50.3918 9.44407H50.4343C50.4769 9.52067 50.5407 9.61005 50.6173 9.71219C50.6982 9.81434 50.8088 9.89946 50.9493 9.97606C51.0897 10.0527 51.2728 10.0867 51.4983 10.0867C51.7962 10.0867 52.0601 10.0101 52.2899 9.86115C52.5198 9.70794 52.7028 9.49088 52.8347 9.20573C52.9666 8.92058 53.0347 8.5801 53.0347 8.1843C53.0347 7.78849 52.9666 7.44801 52.8347 7.16286C52.7028 6.88197 52.5198 6.66491 52.2857 6.5117C52.0516 6.36274 51.7877 6.28613 51.4898 6.28613C51.26 6.28613 51.077 6.32444 50.9408 6.40104C50.8003 6.47765 50.694 6.56277 50.6131 6.66491C50.5365 6.76706 50.4769 6.85218 50.4343 6.92878H50.3747V6.33295H49.6768V11.3933H50.3918V9.43981V9.44407ZM50.4854 7.5076C50.5578 7.31608 50.6684 7.16712 50.8089 7.06072C50.9536 6.95432 51.1281 6.89899 51.3366 6.89899C51.5451 6.89899 51.7324 6.95432 51.8771 7.06497C52.0218 7.17563 52.1325 7.32884 52.2048 7.52036C52.2772 7.71188 52.3155 7.93319 52.3155 8.17578C52.3155 8.41838 52.2772 8.64394 52.2048 8.83972C52.1325 9.03549 52.0218 9.19296 51.8814 9.30788C51.7367 9.42279 51.5579 9.47812 51.3451 9.47812C51.1323 9.47812 50.9663 9.42279 50.8216 9.31639C50.6812 9.20573 50.5705 9.05252 50.4939 8.861C50.4173 8.66522 50.3833 8.43966 50.3833 8.18004C50.3833 7.92043 50.4216 7.69912 50.4939 7.5076H50.4854Z" fill="white"/>
<path d="M46.3913 9.85278C46.6466 10.0103 46.9488 10.0911 47.2935 10.0911C47.6383 10.0911 47.9404 10.0103 48.1958 9.85278C48.4512 9.69531 48.6512 9.474 48.7959 9.18885C48.9364 8.9037 49.0087 8.57173 49.0087 8.19295C49.0087 7.81417 48.9364 7.47795 48.7959 7.1928C48.6555 6.90765 48.4554 6.68634 48.1958 6.52886C47.9404 6.37139 47.6383 6.29053 47.2935 6.29053C46.9488 6.29053 46.6466 6.37139 46.3913 6.52886C46.1359 6.68634 45.9359 6.90765 45.7912 7.1928C45.6507 7.47795 45.5784 7.81417 45.5784 8.19295C45.5784 8.57173 45.6507 8.9037 45.7912 9.18885C45.9316 9.474 46.1317 9.69531 46.3913 9.85278ZM46.4083 7.54604C46.4807 7.34601 46.5913 7.18854 46.736 7.06937C46.8849 6.9502 47.0722 6.89062 47.2978 6.89062C47.5234 6.89062 47.7063 6.9502 47.8553 7.06937C48.0043 7.18854 48.1107 7.34601 48.183 7.54604C48.2554 7.74182 48.2894 7.95887 48.2894 8.19295C48.2894 8.42703 48.2554 8.64408 48.183 8.84411C48.1107 9.03989 48.0043 9.19736 47.8553 9.31653C47.7063 9.43569 47.5234 9.49528 47.2978 9.49528C47.0722 9.49528 46.8849 9.43569 46.736 9.31653C46.587 9.19736 46.4807 9.03989 46.4083 8.84411C46.3402 8.64834 46.3019 8.43128 46.3019 8.19295C46.3019 7.95461 46.336 7.74182 46.4083 7.54604Z" fill="white"/>
<path d="M38.0668 9.78036C38.3988 9.98039 38.7776 10.0825 39.2032 10.0825C39.4713 10.0825 39.7224 10.0442 39.9522 9.96337C40.182 9.8825 40.3821 9.77185 40.5608 9.62715C40.7396 9.47819 40.8843 9.30795 40.9992 9.10366C41.1141 8.89937 41.1907 8.67806 41.2333 8.43973H40.4842C40.4544 8.59294 40.3991 8.73339 40.3182 8.85256C40.2416 8.97173 40.1438 9.07387 40.0288 9.15473C39.9139 9.23985 39.7905 9.29943 39.6501 9.34199C39.5096 9.38455 39.3649 9.40583 39.2074 9.40583C38.9265 9.40583 38.6754 9.33348 38.4541 9.19303C38.2328 9.05259 38.054 8.84404 37.9264 8.57166C37.7987 8.29502 37.7349 7.9588 37.7349 7.563C37.7349 7.16719 37.7987 6.83097 37.9264 6.55859C38.054 6.28195 38.2328 6.07766 38.4541 5.93296C38.6754 5.79251 38.9308 5.72016 39.2117 5.72016C39.3691 5.72016 39.5139 5.74144 39.6543 5.784C39.7948 5.82656 39.9224 5.8904 40.033 5.97552C40.148 6.06064 40.2416 6.16278 40.3225 6.2862C40.3991 6.40963 40.4544 6.55007 40.4842 6.70755H41.2333C41.1907 6.44367 41.1141 6.2096 40.9949 6.00531C40.8757 5.80102 40.7268 5.62653 40.5481 5.48182C40.3693 5.33712 40.165 5.23072 39.9352 5.15411C39.7096 5.07751 39.467 5.04346 39.2074 5.04346C38.7861 5.04346 38.4073 5.1456 38.0753 5.34563C37.7433 5.54566 37.4795 5.83507 37.288 6.21385C37.0964 6.58838 36.9985 7.03951 36.9985 7.563C36.9985 8.08648 37.0922 8.53336 37.2837 8.91214C37.4752 9.29092 37.7391 9.58033 38.071 9.78036H38.0668Z" fill="white"/>
<path d="M59.3765 7.33756V10.0146H60.0787V6.3374H59.3084L57.6869 9.01441V6.3374H56.9846V10.0146H57.7634L59.3765 7.33756Z" fill="white"/>
<path d="M78.4266 10.3081C78.367 10.4698 78.2946 10.589 78.2138 10.6613C78.1371 10.7337 78.0435 10.772 77.9414 10.7762C77.8392 10.7805 77.7243 10.7677 77.5923 10.7294L77.4221 11.3168C77.4647 11.3338 77.5328 11.3551 77.6179 11.3678C77.7073 11.3849 77.8051 11.3934 77.9115 11.3934C78.1116 11.3934 78.2819 11.3593 78.4351 11.2912C78.584 11.2231 78.7159 11.1252 78.8223 10.989C78.933 10.8571 79.0224 10.6954 79.0905 10.5039L80.6056 6.33301H79.8353L78.9032 9.18877H78.8649L77.9328 6.33301H77.1667L78.5117 10.0612L78.4223 10.3038L78.4266 10.3081Z" fill="white"/>
<path d="M54.4652 10.0146H55.1632V6.95452H56.3633V6.3374H53.2607V6.95452H54.4652V10.0146Z" fill="white"/>
<path d="M70.1485 7.81862H70.6678L72.3191 10.0147H73.2213L71.1827 7.3079L73.1447 5.11182H72.2425L70.3911 7.18448H70.1485V5.11182H69.408V10.0147H70.1485V7.81862Z" fill="white"/>
<path d="M65.4326 6.95452H67.0754V6.3374H64.7261V10.0146H65.4326V6.95452Z" fill="white"/>
<path d="M42.7312 13.215C42.246 12.9512 41.663 12.8235 40.9778 12.8235H37.407V21.8802H39.3222V18.9436H40.9309C41.6247 18.9436 42.2205 18.8159 42.7099 18.5605C43.2036 18.3052 43.5781 17.9477 43.8378 17.488C44.0974 17.0284 44.2251 16.4964 44.2251 15.8963C44.2251 15.2962 44.0974 14.7642 43.842 14.3046C43.5867 13.8407 43.2207 13.4789 42.7355 13.2193L42.7312 13.215ZM42.0673 16.6837C41.9481 16.9092 41.7693 17.088 41.5267 17.2199C41.2884 17.3476 40.9862 17.4114 40.616 17.4114H39.3137V14.3897H40.6032C40.9735 14.3897 41.2799 14.4535 41.5225 14.5812C41.7651 14.7046 41.9438 14.8791 42.063 15.1089C42.1822 15.3345 42.246 15.5941 42.246 15.8963C42.246 16.1985 42.1864 16.4581 42.063 16.6879L42.0673 16.6837Z" fill="white"/>
<path d="M95.7607 18.616C95.4755 18.4585 95.1265 18.3649 94.7222 18.3394C95.2073 18.2542 95.5904 18.0882 95.8628 17.8457C96.1352 17.6031 96.2756 17.2924 96.2756 16.9264C96.2756 16.339 96.033 15.8879 95.5479 15.5687C95.0627 15.2495 94.3987 15.092 93.5646 15.092H90.6663V21.8846H94.0072C94.5732 21.8846 95.0542 21.8122 95.4457 21.6633C95.8415 21.5143 96.1394 21.3015 96.3437 21.0249C96.548 20.7482 96.6544 20.4163 96.6544 20.029C96.6544 19.7311 96.5778 19.4587 96.4246 19.2161C96.2756 18.9735 96.0543 18.7735 95.7649 18.6202L95.7607 18.616ZM92.4155 16.5306H93.556C93.8497 16.5306 94.0795 16.5901 94.2455 16.7093C94.4115 16.8285 94.4966 16.9902 94.4966 17.1988C94.4966 17.3392 94.4583 17.4626 94.386 17.5648C94.3136 17.6669 94.2115 17.7478 94.0753 17.8031C93.9434 17.8542 93.7816 17.884 93.5944 17.884H92.4155V16.5306ZM94.62 20.2843C94.4711 20.4078 94.2668 20.4716 94.0072 20.4716H92.4197V18.9905H94.0072C94.2711 18.9905 94.4753 19.0586 94.62 19.1991C94.769 19.3395 94.8456 19.5268 94.8456 19.7694C94.8456 19.9864 94.769 20.1609 94.62 20.2886V20.2843Z" fill="white"/>
<path d="M62.7221 15.3685C62.2965 15.5558 61.9646 15.8154 61.7347 16.1516C61.5049 16.4836 61.39 16.8709 61.3942 17.3135C61.3942 17.7349 61.5049 18.1051 61.7347 18.4243C61.9561 18.7265 62.2625 18.9648 62.6625 19.1393L61.1985 21.8802H63.003L64.3096 19.4287H65.5183V21.8802H67.2717V15.0876H64.2415C63.6584 15.0876 63.152 15.1813 62.7221 15.3685ZM65.514 18.1562H64.2245C63.884 18.1562 63.6244 18.0796 63.4456 17.9306C63.2711 17.7774 63.186 17.5902 63.1903 17.3689C63.1903 17.1518 63.2754 16.9603 63.4541 16.8028C63.6329 16.6453 63.8967 16.5645 64.2415 16.5645H65.514V18.1562Z" fill="white"/>
<path d="M61.6112 8.48667H63.2029V10.0146H63.9009V6.3374H63.2029V7.86955H61.6112V6.3374H60.9089V10.0146H61.6112V8.48667Z" fill="white"/>
<path d="M72.6081 17.7306H70.2844V15.0876H68.4841V21.8802H70.2844V19.2117H72.6081V21.8802H74.3914V15.0876H72.6081V17.7306Z" fill="white"/>
<path d="M84.1632 9.22302C84.3037 8.94638 84.376 8.61441 84.376 8.23563C84.376 7.85685 84.3079 7.54191 84.176 7.27804C84.0441 7.01417 83.861 6.81839 83.6312 6.6822C83.4014 6.54601 83.1333 6.47791 82.8396 6.47791C82.5715 6.47791 82.3331 6.53324 82.1203 6.64815C81.9075 6.76307 81.7416 6.9333 81.6224 7.15887H81.5756C81.6011 6.84818 81.6607 6.58857 81.7543 6.38428C81.848 6.17574 81.9799 6.01827 82.1502 5.91613C82.3204 5.80973 82.5374 5.75014 82.8055 5.74163C83.0396 5.73312 83.2482 5.72461 83.4312 5.71609C83.6142 5.70333 83.7717 5.67779 83.9121 5.63523C84.0526 5.59267 84.176 5.52032 84.2867 5.41818L83.9887 4.96704C83.9121 5.03088 83.8142 5.06918 83.6993 5.08621C83.5844 5.10323 83.4525 5.10749 83.3035 5.10749C83.1503 5.10749 82.9801 5.10749 82.7843 5.10749C82.1885 5.12026 81.7373 5.33731 81.4394 5.76291C81.1372 6.18851 80.9883 6.82265 80.9883 7.66108V8.02709C80.9883 8.47822 81.0564 8.857 81.1968 9.16343C81.3373 9.46986 81.533 9.69969 81.7884 9.85716C82.0438 10.0104 82.3417 10.0912 82.6864 10.0912C83.0311 10.0912 83.3291 10.0146 83.5802 9.86567C83.8355 9.71246 84.0313 9.49966 84.1675 9.22302H84.1632ZM83.1971 9.33793C83.0524 9.44007 82.8822 9.48689 82.6822 9.48689C82.38 9.48689 82.1374 9.37623 81.9629 9.15067C81.7884 8.9251 81.7033 8.62293 81.7033 8.24415C81.7033 8.05688 81.7288 7.8909 81.7756 7.75045C81.8224 7.60575 81.8863 7.48233 81.9714 7.38018C82.0565 7.27804 82.1586 7.20568 82.2735 7.15461C82.3927 7.10354 82.5247 7.07375 82.6779 7.07375C82.8822 7.07375 83.0567 7.12056 83.2014 7.2142C83.3461 7.30357 83.4567 7.43976 83.5376 7.61C83.6142 7.7845 83.6567 7.9973 83.6567 8.24415C83.6567 8.49099 83.6185 8.71656 83.5376 8.90382C83.461 9.09108 83.3461 9.23579 83.2014 9.33793H83.1971Z" fill="white"/>
<path d="M81.5458 15.0876H79.7668V20.3991H77.4048V15.0876H75.6045V21.8802H80.7968V24.0635H82.6269V20.5779H81.5458V15.0876Z" fill="white"/>
<path d="M58.5509 15.0876H58.0828L56.24 19.7948L54.4567 15.0876H54.0268H53.0267H52.2266V21.8802H54.0268V17.7093L55.6144 21.8802H56.8656L58.5509 17.5604V21.8802H60.33V15.0876H59.5128H58.5509Z" fill="white"/>
<path d="M76.069 10.0146H76.7712V6.3374H74.2049L74.141 7.96744C74.1282 8.24834 74.1112 8.48667 74.0899 8.66968C74.0644 8.85694 74.0304 9.00164 73.9878 9.10379C73.941 9.21019 73.8856 9.28254 73.8133 9.32935C73.7452 9.37191 73.6601 9.39319 73.5579 9.39319H73.426V10.0146H73.6601C73.8601 10.0146 74.0304 9.97626 74.1708 9.90391C74.3113 9.82731 74.4262 9.71665 74.5155 9.56769C74.6049 9.41448 74.673 9.22721 74.7198 9.00164C74.7666 8.77608 74.8007 8.50795 74.8135 8.20578L74.8731 6.95452H76.0775V10.0146H76.069Z" fill="white"/>
<path d="M48.0977 20.0757H48.0253L46.6209 15.0876H44.6418L47.0763 22.076L46.9656 22.3654C46.8847 22.5782 46.7741 22.7271 46.6421 22.8165C46.5102 22.9059 46.357 22.9442 46.1782 22.9399C45.9995 22.9357 45.8037 22.8974 45.5824 22.8293L45.1568 24.2337C45.293 24.2891 45.4632 24.3359 45.6718 24.3699C45.8803 24.4082 46.1059 24.4295 46.3442 24.4295C46.8081 24.4295 47.2082 24.3529 47.5401 24.2039C47.8721 24.055 48.1445 23.8465 48.3573 23.5698C48.5744 23.2974 48.7488 22.9782 48.8765 22.6165L51.5153 15.0919H49.5192L48.0977 20.0799V20.0757Z" fill="white"/>
<path d="M44.9233 10.0146V6.3374H41.9229V10.0146H42.6166V6.95452H44.2211V10.0146H44.9233Z" fill="white"/>
<path d="M103.591 16.6709C103.319 16.1431 102.936 15.7346 102.434 15.4409C101.936 15.1473 101.344 14.9983 100.655 14.9983C99.9653 14.9983 99.3737 15.1473 98.8715 15.4409C98.3735 15.7346 97.9905 16.1431 97.7181 16.6709C97.4457 17.1944 97.3096 17.8072 97.3096 18.5095C97.3096 19.2117 97.4457 19.8161 97.7181 20.3438C97.9905 20.8673 98.3735 21.2801 98.8715 21.5738C99.3737 21.8674 99.9653 22.0121 100.655 22.0121C101.344 22.0121 101.936 21.8674 102.434 21.5738C102.936 21.2801 103.323 20.8673 103.591 20.3438C103.864 19.8161 104 19.2032 104 18.5095C104 17.8157 103.864 17.1944 103.591 16.6709ZM101.919 19.5522C101.812 19.8629 101.655 20.1055 101.446 20.2842C101.238 20.463 100.978 20.5481 100.663 20.5481C100.348 20.5481 100.084 20.4587 99.8674 20.2842C99.6546 20.1055 99.4929 19.8586 99.3865 19.5522C99.2801 19.2415 99.229 18.8883 99.229 18.4967C99.229 18.1052 99.2801 17.7477 99.3865 17.4412C99.4971 17.1305 99.6546 16.8879 99.8674 16.7092C100.084 16.5304 100.348 16.4411 100.663 16.4411C100.978 16.4411 101.238 16.5304 101.446 16.7092C101.655 16.8879 101.812 17.1348 101.919 17.4412C102.029 17.7519 102.081 18.1052 102.081 18.4967C102.081 18.8883 102.025 19.2458 101.919 19.5522Z" fill="white"/>
<path d="M88.7555 15.858C88.4661 15.5728 88.1256 15.36 87.7383 15.2153C87.351 15.0706 86.9339 14.9983 86.487 14.9983C85.8188 14.9983 85.24 15.1473 84.7463 15.4409C84.2526 15.7346 83.8738 16.1474 83.6014 16.6751C83.329 17.2029 83.1929 17.8157 83.1929 18.5137C83.1929 19.2117 83.329 19.8501 83.6014 20.3736C83.8738 20.8971 84.2569 21.2971 84.7591 21.5865C85.2613 21.8674 85.8656 22.0121 86.5636 22.0121C87.1254 22.0121 87.6191 21.927 88.0447 21.7568C88.4745 21.5823 88.8278 21.3397 89.0959 21.0333C89.3683 20.7226 89.5513 20.3566 89.6407 19.9352L87.9 19.8203C87.8362 19.9906 87.7425 20.1353 87.6191 20.2544C87.4957 20.3736 87.3467 20.4587 87.1722 20.5183C86.9977 20.5779 86.8062 20.6077 86.5977 20.6077C86.2827 20.6077 86.0104 20.5396 85.7805 20.4076C85.5507 20.2757 85.372 20.0842 85.2443 19.8416C85.1209 19.599 85.057 19.3053 85.057 18.9691L89.6832 18.9649V18.4456C89.6832 17.8668 89.6024 17.3646 89.4407 16.9348C89.2789 16.5007 89.0534 16.1431 88.7597 15.8537L88.7555 15.858ZM85.0613 17.7987C85.074 17.5561 85.1336 17.3306 85.2485 17.1305C85.372 16.9092 85.5422 16.7347 85.7592 16.6028C85.9805 16.4709 86.2359 16.4028 86.5211 16.4028C86.8062 16.4028 87.036 16.4623 87.2403 16.5858C87.4489 16.7049 87.6148 16.8667 87.7298 17.0752C87.8489 17.2838 87.9043 17.5263 87.9043 17.7945H85.057L85.0613 17.7987Z" fill="white"/>
<path d="M30.0403 5.61386L29.9041 6.01818L15.5103 10.5465L15.3742 10.8828L14.9018 10.7466L13.3483 12.3C13.3483 12.3 12.063 12.9086 11.9311 12.9767C11.7949 13.0448 11.4587 13.0448 11.3225 12.9767C11.2544 12.9086 11.3225 12.3681 11.3225 12.3681C11.3225 12.3681 11.5268 12.3681 11.6587 12.2319C11.5225 12.0276 11.3225 11.6914 11.3225 11.6914V11.0828C11.3225 11.0828 11.7268 11.0147 11.9311 10.8785C12.2673 10.6742 12.4035 10.2018 12.4035 10.2018H10.8501C10.8501 10.2018 9.90524 9.18888 9.83715 9.12078C9.76905 9.05269 9.63285 8.98459 9.56476 8.98459H8.95618C8.88809 8.98459 8.75188 9.12078 8.61994 9.45701C8.48375 9.79323 8.55183 9.99751 8.55183 9.99751C8.55183 9.99751 9.36475 10.1337 9.42859 10.9423C9.49668 11.5509 9.42857 12.9001 8.61568 13.0363C8.07517 13.0363 7.5006 12.2915 7.43251 11.1424C7.33037 10.1975 8.14328 10.0614 8.14328 10.0614C8.14328 10.0614 7.93898 9.38465 8.34755 9.04843C7.53466 9.18462 7.13035 9.45275 7.13035 9.45275C7.13035 9.45275 6.11743 10.0614 6.11743 10.7381C6.11743 11.4148 6.45365 12.4958 6.38981 12.832C6.32172 13.1682 5.17261 13.8449 5.03642 13.8449H4.63209C4.564 13.8449 3.75535 14.6578 3.55106 14.9259C3.34677 15.1983 2.87436 15.9389 2.80626 16.1431C2.7637 16.2708 2.61477 17.288 2.50837 18.02C1.78911 16.5304 1.38904 14.8621 1.38904 13.1044C1.38904 6.84384 6.48341 1.75369 12.7397 1.75369C16.7701 1.75369 20.3196 3.86465 22.3327 7.04387L23.6606 6.62678C21.4432 2.9028 17.3787 0.404541 12.7397 0.404541C5.73436 0.404541 0.0356445 6.1033 0.0356445 13.1086C0.0356445 18.8074 3.80643 23.6422 8.98595 25.2467L9.12638 24.6296C9.12638 24.6296 8.88807 23.7188 8.99021 23.6166C9.09235 23.5145 9.49666 23.1783 9.56476 22.8378C9.63285 22.5016 9.49667 22.1611 9.46262 21.9951C9.42857 21.8249 9.42857 21.5567 9.46262 21.4546C9.49667 21.3525 9.86696 20.9141 9.96911 20.5438C10.0712 20.1736 9.90096 19.6671 9.86691 19.4288C9.83287 19.1904 9.76477 18.9223 9.86691 18.8202C9.96906 18.718 10.4415 18.4499 10.8118 18.1435C11.1821 17.8413 11.6885 17.0965 11.9268 16.9943C12.2631 16.8241 12.9057 16.7901 12.9057 16.7901L14.2889 16.6198C14.2889 16.6198 15.1018 16.4836 15.3359 16.3815C15.5742 16.2793 16.2126 15.7729 16.2126 15.7729C16.2126 15.7729 17.532 14.6578 17.6299 14.5557C17.732 14.4535 17.766 14.2194 17.932 13.913C18.1023 13.6108 18.3363 13.1001 18.5747 12.866C19.013 12.3596 19.6557 12.1212 19.6557 12.1212L19.3195 11.1083C19.3195 11.1083 19.5578 11.1424 19.9281 11.1083C20.2983 11.0743 20.4345 11.0743 20.6048 10.9721C20.775 10.87 20.975 10.6019 21.1453 10.4997C21.3155 10.3976 21.6177 10.2954 21.6177 10.2954L21.9539 10.2273V9.68683C21.9539 9.68683 22.4263 9.68683 22.6647 9.51659C22.903 9.34635 22.9668 9.01013 22.9668 9.01013L30.6361 6.54166L30.3637 5.46064L30.0275 5.59683L30.0403 5.61386Z" fill="white"/>
<path d="M3.14648 13.1171C3.14648 13.2874 3.15073 13.4534 3.15924 13.6193L4.53391 12.3638C4.91695 8.16744 8.4494 4.87331 12.7437 4.87331C15.3739 4.87331 17.7189 6.1118 19.2298 8.0355L20.5917 7.60565C18.8553 5.13719 15.9825 3.52417 12.7437 3.52417C7.4535 3.52417 3.14648 7.82696 3.14648 13.1214V13.1171Z" fill="white"/>
<path d="M12.7397 21.361C12.0332 21.361 11.348 21.2716 10.6926 21.1014L10.4458 22.4335C11.1821 22.6165 11.9481 22.7102 12.7397 22.7102C18.0299 22.7102 22.337 18.4074 22.337 13.1129C22.337 12.5767 22.2944 12.0532 22.2093 11.5425L20.907 11.9553C20.9623 12.3341 20.9878 12.7214 20.9878 13.1129C20.9878 17.6583 17.2894 21.3568 12.744 21.3568L12.7397 21.361Z" fill="white"/>
<path d="M23.7669 10.4147C23.9797 11.2786 24.0904 12.1852 24.0904 13.113C24.0904 19.3735 18.9959 24.4637 12.7396 24.4637C11.8416 24.4637 10.9649 24.3573 10.1265 24.1615L9.87964 25.4936C10.7989 25.7064 11.7566 25.8171 12.7354 25.8171C19.7408 25.8171 25.4395 20.1183 25.4395 13.113C25.4395 12.0405 25.3076 11.002 25.0565 10.0061L23.7626 10.4147H23.7669Z" fill="white"/>
</svg>
