<svg width="151" height="48" viewBox="0 0 151 48" fill="none" xmlns="http://www.w3.org/2000/svg">
<rect x="0.5" y="0.5" width="150" height="47" rx="23.5" stroke="currentColor" stroke-opacity="0.1"/>
<g clip-path="url(#clip0_56_1290)">
<path fill-rule="evenodd" clip-rule="evenodd" d="M40 24C40 29.5228 35.5228 34 30 34C24.4772 34 20 29.5228 20 24C20 18.4772 24.4772 14 30 14C35.5228 14 40 18.4772 40 24ZM30.3584 21.3824C29.3857 21.787 27.4418 22.6243 24.5266 23.8944C24.0532 24.0827 23.8052 24.2668 23.7826 24.4469C23.7445 24.7512 24.1256 24.8711 24.6446 25.0343C24.7152 25.0565 24.7883 25.0795 24.8633 25.1038C25.3739 25.2698 26.0607 25.464 26.4177 25.4717C26.7416 25.4787 27.1031 25.3452 27.5022 25.0711C30.226 23.2325 31.632 22.3032 31.7203 22.2831C31.7825 22.269 31.8688 22.2512 31.9273 22.3032C31.9858 22.3552 31.98 22.4536 31.9738 22.48C31.9361 22.641 30.4401 24.0318 29.6659 24.7515C29.4246 24.9759 29.2534 25.135 29.2184 25.1714C29.14 25.2528 29.0601 25.3298 28.9833 25.4038C28.509 25.8611 28.1533 26.204 29.003 26.764C29.4114 27.0331 29.7381 27.2556 30.0641 27.4776C30.4201 27.7201 30.7752 27.9619 31.2347 28.2631C31.3517 28.3398 31.4635 28.4195 31.5724 28.4971C31.9867 28.7925 32.359 29.0578 32.8188 29.0155C33.086 28.9909 33.3621 28.7397 33.5022 27.9903C33.8335 26.2193 34.4847 22.382 34.6352 20.8008C34.6484 20.6623 34.6318 20.485 34.6185 20.4071C34.6051 20.3293 34.5773 20.2184 34.4761 20.1363C34.3563 20.0391 34.1714 20.0186 34.0886 20.0201C33.7125 20.0267 33.1355 20.2273 30.3584 21.3824Z" fill="currentColor"/>
</g>
<path d="M53.3104 29V21.525H50.5804V19.9H57.7304V21.525H55.0004V29H53.3104ZM59.8733 29V19.9H65.9833V21.46H61.5633V23.67H65.7233V25.23H61.5633V27.44H65.9833V29H59.8733ZM68.5783 29V19.9H70.2683V27.375H74.5583V29H68.5783ZM76.6992 29V19.9H82.8092V21.46H78.3892V23.67H82.5492V25.23H78.3892V27.44H82.8092V29H76.6992ZM92.2941 29L92.1641 27.96H92.0991C91.9345 28.1767 91.7178 28.3717 91.4491 28.545C90.8598 28.935 90.1881 29.13 89.4341 29.13C88.1861 29.13 87.1375 28.688 86.2881 27.804C85.4388 26.92 85.0141 25.802 85.0141 24.45C85.0141 23.098 85.4388 21.98 86.2881 21.096C87.1375 20.212 88.1861 19.77 89.4341 19.77C90.0235 19.77 90.5651 19.8697 91.0591 20.069C91.5531 20.2683 91.9648 20.5327 92.2941 20.862C92.6235 21.1913 92.8878 21.538 93.0871 21.902C93.2951 22.266 93.4425 22.6387 93.5291 23.02H91.7741C91.2715 21.9367 90.4915 21.395 89.4341 21.395C88.6368 21.395 87.9825 21.6767 87.4711 22.24C86.9598 22.7947 86.7041 23.5313 86.7041 24.45C86.7041 25.3687 86.9598 26.1097 87.4711 26.673C87.9825 27.2277 88.6368 27.505 89.4341 27.505C89.8328 27.505 90.1968 27.4313 90.5261 27.284C90.8555 27.1367 91.1155 26.959 91.3061 26.751C91.4968 26.5343 91.6441 26.322 91.7481 26.114C91.8521 25.8973 91.9041 25.711 91.9041 25.555V25.49H89.6291V24.19H93.5941V29H92.2941ZM96.2545 29V19.9H100.415C101.229 19.9 101.91 20.186 102.456 20.758C103.002 21.3213 103.275 22.0537 103.275 22.955C103.275 23.8043 103.015 24.4977 102.495 25.035C101.983 25.5637 101.355 25.8453 100.61 25.88L103.535 29H101.39L98.4645 25.88H97.9445V29H96.2545ZM97.9445 24.32H100.35C100.679 24.32 100.965 24.19 101.208 23.93C101.459 23.6613 101.585 23.3363 101.585 22.955C101.585 22.539 101.463 22.1967 101.221 21.928C100.978 21.6593 100.688 21.525 100.35 21.525H97.9445V24.32ZM104.835 29L108.085 19.9H110.555L113.805 29H111.92L111.231 27.05H107.409L106.72 29H104.835ZM107.955 25.49H110.685L109.45 21.85H109.19L107.955 25.49ZM115.696 29V19.9H118.426L120.571 26.27H120.831L122.976 19.9H125.706V29H124.016V22.695H123.756L121.611 29H119.791L117.646 22.695H117.386V29H115.696Z" fill="currentColor"/>
<defs>
<clipPath id="clip0_56_1290">
<rect width="20" height="20" fill="currentColor" transform="translate(20 14)"/>
</clipPath>
</defs>
</svg>
