<svg width="157" height="48" viewBox="0 0 157 48" fill="none" xmlns="http://www.w3.org/2000/svg">
<rect x="0.5" y="0.5" width="156" height="47" rx="23.5" stroke="currentColor" stroke-opacity="0.1"/>
<g clip-path="url(#clip0_56_1291)">
<path fill-rule="evenodd" clip-rule="evenodd" d="M21.4059 15.4059C20 16.8118 20 19.0745 20 23.6V24.4C20 28.9255 20 31.1882 21.4059 32.5941C22.8118 34 25.0745 34 29.6 34H30.4C34.9255 34 37.1882 34 38.5941 32.5941C40 31.1882 40 28.9255 40 24.4V23.6C40 19.0745 40 16.8118 38.5941 15.4059C37.1882 14 34.9255 14 30.4 14H29.6C25.0745 14 22.8118 14 21.4059 15.4059ZM23.375 20.0834C23.4834 25.2834 26.0834 28.4084 30.6417 28.4084H30.9001V25.4334C32.5751 25.6 33.8417 26.825 34.35 28.4084H36.7167C36.0667 26.0417 34.3583 24.7334 33.2916 24.2334C34.3583 23.6167 35.8583 22.1167 36.2166 20.0834H34.0666C33.5999 21.7334 32.2168 23.2334 30.9001 23.375V20.0834H28.75V25.85C27.4167 25.5167 25.7334 23.9 25.6584 20.0834H23.375Z" fill="currentColor"/>
</g>
<path d="M53.4669 29L50.3469 19.9H52.2319L54.5719 26.92H54.8319L57.1719 19.9H59.0569L55.9369 29H53.4669ZM61.0028 29V19.9H62.6928V23.995L65.8128 19.9H67.8928L64.4478 24.385L68.1528 29H66.0728L62.6928 24.775V29H61.0028ZM71.597 26.673C72.1083 27.2277 72.7627 27.505 73.56 27.505C74.3573 27.505 75.0117 27.2277 75.523 26.673C76.0343 26.1097 76.29 25.3687 76.29 24.45C76.29 23.5313 76.0343 22.7947 75.523 22.24C75.0117 21.6767 74.3573 21.395 73.56 21.395C72.7627 21.395 72.1083 21.6767 71.597 22.24C71.0857 22.7947 70.83 23.5313 70.83 24.45C70.83 25.3687 71.0857 26.1097 71.597 26.673ZM70.414 21.096C71.2633 20.212 72.312 19.77 73.56 19.77C74.808 19.77 75.8567 20.212 76.706 21.096C77.5553 21.98 77.98 23.098 77.98 24.45C77.98 25.802 77.5553 26.92 76.706 27.804C75.8567 28.688 74.808 29.13 73.56 29.13C72.312 29.13 71.2633 28.688 70.414 27.804C69.5647 26.92 69.14 25.802 69.14 24.45C69.14 23.098 69.5647 21.98 70.414 21.096ZM80.4439 29V19.9H82.7189L86.0339 26.205H86.2939V19.9H87.9839V29H85.7089L82.3939 22.695H82.1339V29H80.4439ZM92.865 29V21.525H90.135V19.9H97.285V21.525H94.555V29H92.865ZM97.6786 29L100.929 19.9H103.399L106.649 29H104.764L104.075 27.05H100.253L99.5636 29H97.6786ZM100.799 25.49H103.529L102.294 21.85H102.034L100.799 25.49ZM108.539 29V19.9H110.229V23.995L113.349 19.9H115.429L111.984 24.385L115.689 29H113.609L110.229 24.775V29H108.539ZM119.335 29V21.525H116.605V19.9H123.755V21.525H121.025V29H119.335ZM125.898 29V19.9H132.008V21.46H127.588V23.67H131.748V25.23H127.588V27.44H132.008V29H125.898Z" fill="currentColor"/>
<defs>
<clipPath id="clip0_56_1291">
<rect width="20" height="20" fill="currentColor" transform="translate(20 14)"/>
</clipPath>
</defs>
</svg>
