<?xml version="1.0" encoding="utf-8"?>
<!-- Generator: Adobe Illustrator 27.0.0, SVG Export Plug-In . SVG Version: 6.00 Build 0)  -->
<svg version="1.1" id="_Слой_1" xmlns="http://www.w3.org/2000/svg" xmlns:xlink="http://www.w3.org/1999/xlink" x="0px"
	 y="0px" viewBox="0 0 323 110" style="enable-background:new 0 0 323 110;" xml:space="preserve">
<style type="text/css">
	.st0{fill:#0D0802;}
	.st1{fill-rule:evenodd;clip-rule:evenodd;fill:#BC0D31;}
	.st2{fill-rule:evenodd;clip-rule:evenodd;fill:#0D0802;}
	.st3{fill-rule:evenodd;clip-rule:evenodd;fill:#FFFFFF;}
	.st4{fill-rule:evenodd;clip-rule:evenodd;fill:#D8AF2A;}
	.st5{fill-rule:evenodd;clip-rule:evenodd;fill:#1B8ACB;}
</style>
<g>
	<g>
		<path class="st0" d="M124.8,23.6V7.4h-4.7c-0.2,2.3-0.7,5-1.7,8.1c-1,3.2-2.1,5.9-3.4,8L124.8,23.6L124.8,23.6z M129.8,31.1h-2.3
			v-5.3h-14.2v5.3H111v-7.5h1.6c1.4-2.4,2.7-5.4,3.7-8.8c1-3.5,1.6-6.6,1.7-9.5h9.2v18.3h2.6L129.8,31.1L129.8,31.1z"/>
		<path class="st0" d="M138.8,12c-1.2,0-2.2,0.4-3,1.2c-0.7,0.8-1.2,1.9-1.3,3.3h8c0-1.5-0.3-2.6-1-3.4C140.9,12.4,140,12,138.8,12
			 M139.4,26c-2.3,0-4.1-0.7-5.4-2.1s-2-3.3-2-5.8s0.6-4.4,1.8-5.9c1.2-1.5,2.9-2.2,4.9-2.2c1.9,0,3.5,0.6,4.6,1.9
			c1.1,1.3,1.7,2.9,1.7,5v1.5h-10.6c0,1.8,0.5,3.2,1.4,4.1s2.1,1.4,3.6,1.4c1.7,0,3.3-0.3,4.9-1V25c-0.8,0.4-1.6,0.6-2.3,0.8
			C141.3,25.9,140.4,26,139.4,26"/>
		<polygon class="st0" points="151.3,25.7 149,25.7 149,10.4 161.9,10.4 161.9,25.7 159.6,25.7 159.6,12.4 151.3,12.4 		"/>
		<path class="st0" d="M171,24.1c1.4,0,2.6-0.4,3.4-1.2c0.8-0.8,1.2-1.9,1.2-3.3v-1.4l-2.3,0.1c-1.8,0.1-3.2,0.4-4,0.9
			c-0.8,0.5-1.2,1.3-1.2,2.4c0,0.8,0.3,1.5,0.8,1.9C169.4,23.9,170.1,24.1,171,24.1 M176.3,25.7l-0.5-2.2h-0.1c-0.8,1-1.5,1.6-2.3,2
			c-0.8,0.3-1.7,0.5-2.8,0.5c-1.5,0-2.7-0.4-3.6-1.2c-0.9-0.8-1.3-1.9-1.3-3.4c0-3.1,2.5-4.7,7.4-4.9l2.6-0.1v-1
			c0-1.2-0.3-2.1-0.8-2.7c-0.5-0.6-1.3-0.9-2.5-0.9c-1.3,0-2.7,0.4-4.4,1.2l-0.7-1.8c0.8-0.4,1.6-0.7,2.5-1c0.9-0.2,1.8-0.4,2.7-0.4
			c1.8,0,3.2,0.4,4.1,1.2s1.3,2.1,1.3,3.9v10.5L176.3,25.7L176.3,25.7z"/>
		<path class="st0" d="M189.6,12.1c-1.6,0-2.7,0.4-3.4,1.3s-1.1,2.3-1.1,4.1V18c0,2.2,0.4,3.7,1.1,4.6c0.7,0.9,1.9,1.4,3.5,1.4
			c1.3,0,2.4-0.5,3.1-1.6c0.8-1.1,1.1-2.6,1.1-4.4s-0.4-3.4-1.1-4.4C192,12.6,191,12.1,189.6,12.1 M190,26c-1,0-1.9-0.2-2.7-0.6
			c-0.8-0.4-1.5-0.9-2.1-1.7H185c0.1,0.9,0.2,1.8,0.2,2.6v6.3h-2.3V10.4h1.9l0.3,2.1h0.1c0.6-0.8,1.3-1.4,2.1-1.8
			c0.8-0.4,1.7-0.6,2.7-0.6c2,0,3.6,0.7,4.7,2.1c1.1,1.4,1.7,3.4,1.7,5.9s-0.6,4.5-1.7,5.9C193.5,25.3,192,26,190,26"/>
		<polygon class="st0" points="210.7,12.4 205.8,12.4 205.8,25.7 203.4,25.7 203.4,12.4 198.5,12.4 198.5,10.4 210.7,10.4 		"/>
		<path class="st0" d="M218,24.1c1.4,0,2.6-0.4,3.4-1.2c0.8-0.8,1.2-1.9,1.2-3.3v-1.4l-2.3,0.1c-1.8,0.1-3.2,0.4-4,0.9
			c-0.8,0.5-1.2,1.3-1.2,2.4c0,0.8,0.3,1.5,0.8,1.9C216.4,23.9,217.1,24.1,218,24.1 M223.3,25.7l-0.5-2.2h-0.1c-0.8,1-1.5,1.6-2.3,2
			c-0.8,0.3-1.7,0.5-2.8,0.5c-1.5,0-2.7-0.4-3.6-1.2c-0.9-0.8-1.3-1.9-1.3-3.4c0-3.1,2.5-4.7,7.4-4.9l2.6-0.1v-1
			c0-1.2-0.3-2.1-0.8-2.7c-0.5-0.6-1.3-0.9-2.5-0.9c-1.3,0-2.7,0.4-4.4,1.2l-0.7-1.8c0.8-0.4,1.6-0.7,2.5-1c0.9-0.2,1.8-0.4,2.7-0.4
			c1.8,0,3.2,0.4,4.1,1.2c0.9,0.8,1.3,2.1,1.3,3.9v10.5L223.3,25.7L223.3,25.7z"/>
		<path class="st0" d="M237.7,23.5l0.4-1.3l0.6-1.7l4.2-10.1h3v15.3h-2.1V13.1l-0.3,0.8l-0.8,2.1l-4,9.7h-1.9l-4-9.8
			c-0.5-1.3-0.8-2.2-1-2.9v12.7h-2.1V10.4h2.8l4,9.7C237,21.2,237.4,22.3,237.7,23.5"/>
		<path class="st0" d="M256.7,12c-1.2,0-2.2,0.4-3,1.2c-0.7,0.8-1.2,1.9-1.3,3.3h8c0-1.5-0.3-2.6-1-3.4
			C258.9,12.4,257.9,12,256.7,12 M257.3,26c-2.3,0-4.1-0.7-5.4-2.1s-2-3.3-2-5.8s0.6-4.4,1.8-5.9c1.2-1.5,2.9-2.2,4.9-2.2
			c1.9,0,3.5,0.6,4.6,1.9c1.1,1.3,1.7,2.9,1.7,5v1.5h-10.6c0,1.8,0.5,3.2,1.4,4.1s2.1,1.4,3.6,1.4c1.7,0,3.3-0.3,4.9-1V25
			c-0.8,0.4-1.6,0.6-2.3,0.8C259.3,25.9,258.4,26,257.3,26"/>
		<polygon class="st0" points="269.3,10.4 269.3,16.8 277.9,16.8 277.9,10.4 280.2,10.4 280.2,25.7 277.9,25.7 277.9,18.8 
			269.3,18.8 269.3,25.7 266.9,25.7 266.9,10.4 		"/>
		<polygon class="st0" points="295.5,12.4 290.5,12.4 290.5,25.7 288.2,25.7 288.2,12.4 283.3,12.4 283.3,10.4 295.5,10.4 		"/>
		<path class="st0" d="M119.4,59.5c-2.2,0-3.9-0.7-5.2-2.1c-1.2-1.4-1.8-3.3-1.8-5.8c0-2.5,0.6-4.6,1.9-6c1.2-1.4,3-2.1,5.3-2.1
			c0.7,0,1.5,0.1,2.2,0.2c0.7,0.2,1.3,0.3,1.7,0.6l-0.7,2c-0.5-0.2-1.1-0.4-1.7-0.5c-0.6-0.1-1.1-0.2-1.6-0.2c-3.1,0-4.7,2-4.7,6
			c0,1.9,0.4,3.3,1.1,4.3c0.8,1,1.9,1.5,3.4,1.5c1.3,0,2.6-0.3,3.9-0.8v2.1C122.3,59.2,121,59.5,119.4,59.5"/>
		<polygon class="st0" points="129.3,59.2 127,59.2 127,43.9 139.8,43.9 139.8,59.2 137.5,59.2 137.5,45.9 129.3,45.9 		"/>
		<path class="st0" d="M146.3,51.5c0,2,0.4,3.5,1.2,4.5c0.8,1,1.9,1.5,3.5,1.5s2.7-0.5,3.5-1.5c0.8-1,1.2-2.5,1.2-4.5
			c0-2-0.4-3.4-1.2-4.4c-0.8-1-1.9-1.5-3.5-1.5c-1.5,0-2.7,0.5-3.5,1.5C146.7,48.1,146.3,49.6,146.3,51.5 M158,51.5
			c0,2.5-0.6,4.5-1.9,5.9c-1.3,1.4-3,2.1-5.2,2.1c-1.4,0-2.6-0.3-3.7-1c-1.1-0.6-1.9-1.6-2.5-2.8c-0.6-1.2-0.9-2.6-0.9-4.2
			c0-2.5,0.6-4.5,1.9-5.8c1.3-1.4,3-2.1,5.2-2.1c2.2,0,3.9,0.7,5.1,2.1C157.4,47.1,158,49.1,158,51.5"/>
		<path class="st0" d="M168.9,45.6c-1.6,0-2.7,0.4-3.4,1.3c-0.7,0.9-1.1,2.3-1.1,4.1v0.5c0,2.2,0.4,3.7,1.1,4.6
			c0.7,0.9,1.9,1.4,3.5,1.4c1.3,0,2.4-0.5,3.1-1.6c0.8-1.1,1.1-2.6,1.1-4.4c0-1.9-0.4-3.4-1.1-4.4C171.4,46.1,170.3,45.5,168.9,45.6
			 M169.3,59.5c-1,0-1.9-0.2-2.7-0.6c-0.8-0.4-1.5-0.9-2.1-1.7h-0.2c0.1,0.9,0.2,1.7,0.2,2.6v6.3h-2.3V43.8h1.9l0.3,2.1h0.1
			c0.6-0.8,1.3-1.4,2.1-1.8s1.7-0.6,2.7-0.6c2,0,3.6,0.7,4.7,2.1c1.1,1.4,1.7,3.4,1.7,5.9c0,2.5-0.6,4.5-1.7,5.9
			C172.8,58.8,171.3,59.5,169.3,59.5"/>
		<polygon class="st0" points="190.1,45.8 185.1,45.8 185.1,59.2 182.8,59.2 182.8,45.8 177.8,45.8 177.8,43.9 190.1,43.9 		"/>
		<path class="st0" d="M197.3,57.6c1.4,0,2.6-0.4,3.4-1.2c0.8-0.8,1.2-1.9,1.2-3.3v-1.4l-2.3,0.1c-1.8,0.1-3.2,0.4-4,0.9
			c-0.8,0.5-1.2,1.3-1.2,2.4c0,0.8,0.3,1.5,0.8,1.9C195.7,57.4,196.4,57.6,197.3,57.6 M202.6,59.2l-0.5-2.2H202
			c-0.8,1-1.5,1.6-2.3,2c-0.8,0.3-1.7,0.5-2.8,0.5c-1.5,0-2.7-0.4-3.6-1.2c-0.9-0.8-1.3-1.9-1.3-3.4c0-3.1,2.5-4.7,7.4-4.9L202,50
			v-1c0-1.2-0.3-2.1-0.8-2.7c-0.5-0.6-1.3-0.9-2.5-0.9c-1.3,0-2.7,0.4-4.3,1.2l-0.7-1.8c0.8-0.4,1.6-0.7,2.5-1
			c0.9-0.2,1.8-0.4,2.7-0.4c1.8,0,3.2,0.4,4.1,1.2c0.9,0.8,1.3,2.1,1.3,3.9v10.5L202.6,59.2L202.6,59.2z"/>
		<polygon class="st0" points="122.5,79.3 115.6,79.3 115.6,92.7 113.3,92.7 113.3,77.3 122.5,77.3 		"/>
		<path class="st0" d="M127.1,85c0,2,0.4,3.5,1.2,4.5c0.8,1,1.9,1.5,3.5,1.5s2.7-0.5,3.5-1.5c0.8-1,1.2-2.5,1.2-4.5
			s-0.4-3.4-1.2-4.4c-0.8-1-2-1.5-3.5-1.5s-2.7,0.5-3.5,1.5C127.5,81.6,127.1,83,127.1,85 M138.8,85c0,2.5-0.6,4.5-1.9,5.9
			c-1.3,1.4-3,2.1-5.2,2.1c-1.4,0-2.6-0.3-3.7-1c-1.1-0.6-1.9-1.6-2.5-2.8c-0.6-1.2-0.9-2.6-0.9-4.2c0-2.5,0.6-4.5,1.9-5.8
			c1.3-1.4,3-2.1,5.2-2.1c2.2,0,3.9,0.7,5.1,2.1C138.2,80.6,138.8,82.6,138.8,85"/>
		<path class="st0" d="M149.7,79c-1.6,0-2.7,0.4-3.4,1.3c-0.7,0.9-1.1,2.3-1.1,4.1V85c0,2.2,0.4,3.7,1.1,4.6
			c0.7,0.9,1.9,1.4,3.5,1.4c1.3,0,2.4-0.5,3.1-1.6c0.8-1.1,1.1-2.6,1.1-4.4c0-1.9-0.4-3.4-1.1-4.4C152.2,79.5,151.1,79,149.7,79
			 M150.1,93c-1,0-1.9-0.2-2.7-0.6c-0.8-0.4-1.5-0.9-2.1-1.7h-0.2c0.1,0.9,0.2,1.7,0.2,2.6v6.3h-2.3V77.3h1.9l0.3,2.1h0.1
			c0.6-0.8,1.3-1.4,2.1-1.8c0.8-0.4,1.7-0.6,2.7-0.6c2,0,3.6,0.7,4.7,2.1c1.1,1.4,1.7,3.3,1.7,5.9c0,2.5-0.6,4.5-1.7,5.9
			C153.6,92.3,152.1,93,150.1,93"/>
		<path class="st0" d="M162.1,85c0,2,0.4,3.5,1.2,4.5c0.8,1,1.9,1.5,3.5,1.5s2.7-0.5,3.5-1.5c0.8-1,1.2-2.5,1.2-4.5
			s-0.4-3.4-1.2-4.4c-0.8-1-2-1.5-3.5-1.5c-1.5,0-2.7,0.5-3.5,1.5C162.4,81.6,162.1,83,162.1,85 M173.8,85c0,2.5-0.6,4.5-1.9,5.9
			c-1.3,1.4-3,2.1-5.2,2.1c-1.4,0-2.6-0.3-3.7-1c-1.1-0.6-1.9-1.6-2.5-2.8c-0.6-1.2-0.9-2.6-0.9-4.2c0-2.5,0.6-4.5,1.9-5.8
			c1.3-1.4,3-2.1,5.2-2.1s3.9,0.7,5.1,2.1C173.1,80.6,173.8,82.6,173.8,85"/>
		<path class="st0" d="M186.8,90.7V79.2h-3.5c-0.1,2.1-0.5,4.2-1.2,6.3c-0.7,2.1-1.5,3.9-2.5,5.2H186.8z M191.2,98h-2.3v-5.3h-10.7
			V98H176v-7.3h1.2c1.3-1.7,2.2-3.7,2.9-6c0.7-2.3,1.1-4.8,1.1-7.4h7.8v13.4h2.2C191.2,90.7,191.2,98,191.2,98z"/>
		<path class="st0" d="M198.5,91.1c1.4,0,2.6-0.4,3.4-1.2c0.8-0.8,1.2-1.9,1.2-3.3v-1.4l-2.3,0.1c-1.8,0.1-3.2,0.4-4,0.9
			c-0.8,0.5-1.2,1.3-1.2,2.4c0,0.8,0.3,1.5,0.8,1.9S197.5,91.1,198.5,91.1 M203.7,92.7l-0.5-2.2h-0.1c-0.8,1-1.5,1.6-2.3,2
			c-0.8,0.3-1.7,0.5-2.8,0.5c-1.5,0-2.7-0.4-3.6-1.2c-0.9-0.8-1.3-1.9-1.3-3.4c0-3.1,2.5-4.7,7.4-4.9l2.6-0.1v-1
			c0-1.2-0.3-2.1-0.8-2.7c-0.5-0.6-1.3-0.9-2.5-0.9c-1.3,0-2.7,0.4-4.3,1.2l-0.7-1.8c0.8-0.4,1.6-0.7,2.5-1c0.9-0.2,1.8-0.4,2.7-0.4
			c1.8,0,3.2,0.4,4.1,1.2c0.9,0.8,1.3,2.1,1.3,3.9v10.5L203.7,92.7L203.7,92.7z"/>
		<path class="st0" d="M227.1,92.7l-7-18.2H220c0.1,1.4,0.2,3.1,0.2,5.1v13H218V72.2h3.6l6.5,16.9h0.1l6.5-16.9h3.6v20.5h-2.4V79.5
			c0-1.5,0.1-3.2,0.2-4.9H236l-7,18.1H227.1L227.1,92.7z"/>
		<path class="st0" d="M245.2,85c0,2,0.4,3.5,1.2,4.5c0.8,1,1.9,1.5,3.5,1.5c1.5,0,2.7-0.5,3.5-1.5c0.8-1,1.2-2.5,1.2-4.5
			s-0.4-3.4-1.2-4.4c-0.8-1-2-1.5-3.5-1.5s-2.7,0.5-3.5,1.5C245.5,81.6,245.2,83,245.2,85 M256.9,85c0,2.5-0.6,4.5-1.9,5.9
			c-1.3,1.4-3,2.1-5.2,2.1c-1.4,0-2.6-0.3-3.7-1c-1.1-0.6-1.9-1.6-2.5-2.8c-0.6-1.2-0.9-2.6-0.9-4.2c0-2.5,0.6-4.5,1.9-5.8
			c1.3-1.4,3-2.1,5.2-2.1c2.2,0,3.9,0.7,5.1,2.1C256.2,80.6,256.9,82.6,256.9,85"/>
		<path class="st0" d="M267.1,93c-2.2,0-3.9-0.7-5.2-2.1c-1.2-1.4-1.8-3.3-1.8-5.8c0-2.5,0.6-4.6,1.9-6c1.2-1.4,3-2.1,5.3-2.1
			c0.7,0,1.5,0.1,2.2,0.2c0.7,0.2,1.3,0.3,1.7,0.6l-0.7,2c-0.5-0.2-1.1-0.4-1.7-0.5c-0.6-0.1-1.1-0.2-1.6-0.2c-3.1,0-4.7,2-4.7,6
			c0,1.9,0.4,3.3,1.1,4.3c0.8,1,1.9,1.5,3.4,1.5c1.3,0,2.6-0.3,3.9-0.8v2.1C269.9,92.7,268.6,93,267.1,93"/>
		<polygon class="st0" points="283.6,77.3 286.1,77.3 279.5,84.8 286.7,92.7 283.9,92.7 276.9,84.9 276.9,92.7 274.6,92.7 
			274.6,77.3 276.9,77.3 276.9,84.8 		"/>
		<path class="st0" d="M300.1,88.1c0-0.8-0.3-1.4-0.9-1.8c-0.6-0.4-1.7-0.6-3.1-0.6h-4.2v5.1h4.3C298.8,90.8,300.1,89.9,300.1,88.1
			 M299.7,81.4c0-0.8-0.3-1.3-0.9-1.6c-0.6-0.3-1.4-0.5-2.6-0.5h-4.4v4.3h3.9c1.4,0,2.4-0.2,3-0.5C299.4,82.8,299.7,82.2,299.7,81.4
			 M302,81.2c0,1-0.3,1.8-0.9,2.3c-0.6,0.5-1.4,0.9-2.4,1v0.1c1.3,0.2,2.3,0.6,2.9,1.2c0.6,0.6,0.9,1.4,0.9,2.4
			c0,1.4-0.5,2.5-1.6,3.3c-1,0.8-2.6,1.2-4.6,1.2h-6.8V77.4h6.7C300.1,77.4,302,78.6,302,81.2"/>
		<path class="st0" d="M323,92.7h-2.3V77.3h2.3V92.7z M308.2,85.7v5.1h3.9c2.5,0,3.7-0.9,3.7-2.6c0-0.9-0.3-1.5-0.9-1.9
			c-0.6-0.4-1.5-0.6-2.9-0.6C312,85.7,308.2,85.7,308.2,85.7z M308.2,83.7h4.2c1.9,0,3.4,0.4,4.3,1.1c0.9,0.7,1.4,1.8,1.4,3.2
			c0,1.5-0.5,2.7-1.5,3.5c-1,0.8-2.5,1.2-4.4,1.2h-6.4V77.4h2.3L308.2,83.7L308.2,83.7z"/>
	</g>
	<g>
		<g>
			<path class="st1" d="M0.5,2.3h88.6v83.4c0,9-5.8,15.3-16.9,15.3H61.8c-8,0-13.1,2.8-16.9,6.5c-3.8-3.7-9-6.5-16.9-6.5H17.5
				c-11.2,0-17-6.3-17-15.3L0.5,2.3L0.5,2.3z"/>
			<path class="st0" d="M89.2,2.3v83.4c0,9-5.8,15.3-16.9,15.3H61.8c-8,0-13.1,2.8-16.9,6.5c-3.8-3.7-9-6.5-16.9-6.5H17.5
				c-11.2,0-17-6.3-17-15.3V2.3H89.2 M89.7,1.7H0v84c0,9.8,6.7,15.9,17.5,15.9H28c6.8,0,12.2,2.1,16.6,6.4l0.4,0.4l0.4-0.4
				c4.4-4.3,9.7-6.4,16.6-6.4h10.4c10.8,0,17.5-6.1,17.5-15.9L89.7,1.7L89.7,1.7L89.7,1.7z"/>
		</g>
		<path class="st2" d="M19.9,77.5c0.7-2.5,2.2-3.8,4.8-4.3c2.5-0.4,5.2-1.8,8.2-3.2c1.3-0.9,1.4-0.5,0.5,1.3L31.9,73
			c-0.8,0.8-0.9,1.7,0.1,2.6c1.4,0.7,2,1.4,1.8,2c-1.5-0.4-3-0.2-4.2,0.9c-0.9-0.3-1.9-0.1-3.4,0.6c-0.8-0.4-1.6-0.5-2.6-0.2
			c-0.3-0.6-1-0.8-2.2-0.6C21.1,77.9,20.6,77.7,19.9,77.5L19.9,77.5L19.9,77.5z M37.1,77.5c-1.5-1.5-1.7-2.9,0-4.1
			c1-0.7,2.4-2.2,4.2-4.6c1.2-0.1,2.2-0.3,3.4-0.5c4.7-0.6,9.2-1.6,12.7-3.6c0.7-0.2,1.2-0.1,1.5,0.4l2.8,3.7l-0.8,0.3l2.1,1.6
			c-0.4,0.3-0.1,0.5,0.3,0.7c-0.3,0.4-0.1,0.8,0.3,0.7c0.2,0.5,0.5,1.3-0.5,0.2c-0.7-0.3-0.8,0-0.2,1L64,75c0.1,0.8,0.4,1.4,1,1.9
			l0.9,1.9c0,0.3,0.2,0.6,0.3,0.8c0.1,0.7,0.3,1.1,0.9,1.2c-0.6,1.1-1.3,2.2-2.6,2.9c-2.5,1.3-4.5,0.8-4.3-2.5
			c0.1-1.8,0.5-3.2,0.5-5c0.7-2.8,0-4.3-2.4-4.4c-1.3,0-2.2,0-2.9,0.5c-0.7,0.5-1.6,0.3-2.9-0.5C49.9,70,48,69,46.7,69
			c1.2,1.4,1.5,2.8,0.6,4.2c1,0.5,1,0.9,0,1.4c-2.4,0.1-5.2-0.4-8-1.2c-0.9-0.2-1.1,0-0.5,0.5c2.1,0.8,3.2,2.1,3.2,3.9
			c-1.3,0-2.5,0.1-3.1,0.3C38.3,78.3,37.7,78.2,37.1,77.5L37.1,77.5L37.1,77.5z M60.9,91.1c-0.7,0.4-0.9,0.8-0.2,1.2
			c0.5,0.3,0.7,0.3,0.8,0.1C62.3,92.3,61.2,91.8,60.9,91.1L60.9,91.1z M38.9,89.3c-0.5,0.3-0.7,0.7-0.4,1.2l0.9,0.8
			c0.4-0.3,0.3-0.8-0.1-1.2C39.1,89.9,39,89.6,38.9,89.3C38.9,89.3,38.9,89.3,38.9,89.3z M28.2,84.8c0.7,0.3,0.7,0.9-0.2,1.3
			C27.4,85.9,27.4,85.3,28.2,84.8L28.2,84.8z M15.9,59.9c3,3.5,3.6,7.4,1.1,12c-0.9,2.2-0.8,3.7,0.4,4.3c0.3-0.8,0.6-1.9,0.8-3.2
			c0.3-1.9,1.5-1.7,3.1-3.3c1.7-1.8,1.2-3.6,1-6.6c-0.3-6.3,1-10,2.9-12C20.5,49.9,17.6,53.4,15.9,59.9L15.9,59.9L15.9,59.9z
			 M18.9,7.7c-0.5,0.1-0.8,0.5-0.7,1.1l3.7,5.3c0.1,0.3,0.4,0.5,0.3,0.7c-0.3,0.7-0.4,1.2,0.2,1.8l1.3,1.2c0.1,0.9,0.3,1.6,0.6,1.8
			c-0.3,0.6,0.1,1.1,0.6,1.7c0.1,0.2,0.2,0.4,0.4,0.5l0.2,1.8c-1.8,1.5-2.6,2.6-2.8,3.2c-0.1,0.4-0.2,0.7,0.1,0.9l2.5-0.3
			c0.2,0.1,0.5,0.2,0.5,0.3c0.4,0.9-0.1,2.3-1.5,2.4c-3.1,0.8-5.3,1.8-4.4,3.9c1.1,1.5,0.5,2.8-1.4,4c-0.5,0.4-0.7,1-0.6,1.7
			c-0.5,0.5-1,1.2-1.3,2c-0.3,0.8-0.3,1.2,0.3,1.1c4.3-1.4,8.5-2,11.5,0.5c1.5,1.2,1.2,1.8,3.5,2c-0.3,1,0,1.5,0.8,1.7l0.1,1.1
			c-0.9,0.2-2,0.2-2.9,0.5c-1,0.3-2.1,0.7-3,0.7c-0.8-0.6-1.7-1-2.5-1.5c-3.9-2.4-7.1-2.5-9.9,0.8c-1.5,1.7-2.8,4.1-3.9,7.7
			C10.5,57,10,57.2,9,56.6c-2-1.6-2.4-3.1-1.4-4.1c1.4-1.3,2-0.5,1.2,0.2l0,0.2c1.1,0,1.5,0.8,1.9,1.5c0.9-2.4,0.4-4-0.9-5.3l-0.3,0
			l0.1,2.1c-2.2-0.5-3.4,1.3-3.6,2.9c-0.1,1.5,0.6,2.9,2.6,4.1c1.1,0.4,1.5,1.7,0.6,3c-2.2,3.2-1.8,6.6,0.1,11l0.3-0.1
			c0.4-4.8,1.4-7.2,3-7.7c0.5-0.2,1-0.5,1.4-1c0.5-0.7,0.7-0.6,1,0.1c0.9,2,0.8,4-0.4,5.9c-2.8,4.5-2.9,7.9,1,10.7l0.1,0.3l-1,1.3
			c-0.3,0.5-0.1,1.2,0.8,2c0.7,0.8,1,2.1,1.2,3.7c-0.3,0.5-0.4,1.1-0.2,1.8c0.6,0.8,2,1.3,4,1.1c0.2,0,0.2-0.2,0.2-0.4
			c0.2-0.9-0.5-1.6-1.1-2.7c-2-1.8-2.4-3.4-1.8-5.1l0.3-0.5c1.5,0.5,3.5,1.2,5.3,1.4c-0.8,1.5-0.7,3.5,0,4.6c1.3,2.2,2.6,3.2,5.2,3
			c3.4-0.3,5.1-3.1,3.8-6.9c1.2-0.7,2-0.6,2.4,0.1c0,1.7,0.7,1.2,0.8,2.9c-2,1.8-2.8,3.3-0.6,4.3c1.1,1.1,0.5,1.5-1,1.6
			c-1.5-0.4-2.7-0.3-2.9,1c-1.4,0.1-1.8,0.9-1.8,2.3c0.4-1,1.2-1.1,1.6-0.8c0.8,0,1.5,0.2,2.2-0.1c0.6-0.3,1.3-0.3,2.1,0
			c0.4,0,0.7,0.2,0.9,0.5c1,1,0.9-0.1,3.1,1.2c0.5,0,1.5,0,1.6,0.9l0.2-0.8c0.2-0.3,0.1-0.6-0.3-0.9c-0.7-0.8,0.4-0.9,2.4-0.5
			c1,0.5,2,0.7,2.8,0.5c0.9-0.9,1.1-0.3,1.3,0.8c0.6-1.7,0.2-2.6-1.5-2.7c0.3-0.9,0.4,0.5,1-0.7c0.5-0.3,1.1,0,1.6,0.5
			c0.1-0.8-0.4-1.3-1.5-1.6c-0.3-0.7-0.8-0.8-1.5,0c-3.2-0.8-3.5-2.8-1.7-3.2c1-0.3,1.3,0.8,2.1,1c0.6,0.2,0.9,0.1,1.7,0.2
			c0.9,0,1.7,0.2,2.2,0.6l0.6,0.2c0.3-0.3,0.7-0.2,1.1,0.2c0.5,0.7,0.9,0.8,1.3,0.2c1.3-1,3.2-1,3-0.4c0,0.9,0.1,1.3,0.5,1.2
			c0.3,0,0.4,0.4,0.4,1.1c-1.2,0-2.1,0.2-2.1,1c-1.1,0.3-1.1,1.1-0.6,2.2c-0.1-2,1.6-0.4,3.3-1.5l1.2-0.1c0.1,0.6,0.7,0.8,1.7,0.8
			c0.4-0.2,1-0.2,1.3-0.3c2.1-0.5,3.7-0.4,4.9,1.3c0.3-0.5,0.2-1-0.1-1.5c1.4-1,3-0.6,2.1,1c0.8-0.4,1.7-2.6,0.6-2.5
			c0.5-1.3,2.4-0.2,1.8,0.7c0.8-0.4,0.9-1,0-1.8c-0.1-0.7-0.7-0.9-1.8-0.6c-0.6-1-1.3-1-2.4-0.2c-1,0.5-1.8,0.5-2.3-0.2
			c-0.5-0.9-0.4-1.3,0.3-1c0.4,0.1,0.5-0.3,1-1.2c0.2-0.4,0.5-0.7,0.8-1.2c1.1-0.2,2-1.1,3.1-3.1c0.8-0.4,1.2-1.9,1.2-4.4
			c0.3,0.2,0.8,0,1.3-0.3c-0.4,0-0.5-0.2-0.5-1.1h1c0.4-0.2,0.6-0.3,0.5-0.5c0-0.2-0.4-0.1-0.7-0.6c-0.1-0.6-0.5-1.2-1.1-1.8l-1-1.6
			c-0.7-2.3-1.5-3.6-2.6-2.7l-0.3-0.2c-0.8-0.9-1.4-2.1-1.8-3.4c0-1.6-1.6-1.7-2.5-0.2l-0.3-1.3l-0.4,0.7l-2.6-3.8
			c0.3,0,0.8-0.3,1.1-0.4c3.2-0.3,6.5-1.2,9.8-3.1l2.4-0.7c1-0.4,1.4-0.1,1.9,0.5l2.4,2.5c0.5,0.5,0.5,1,0.2,1.5
			c-0.3,0.5,0.3,1.2,1.2,1.9c0.8,0.8,0.8,2,0.2,3.4c-0.4,0.9-0.3,1.5,0.3,1.8l1.6,1.2c1.1,0.9,1.6,0.6,1.6-1
			c-0.1-0.8-0.3-1.5-0.8-2.4c-0.5-1-0.9-1.9-1-2.9c0-1.9-0.3-2.9-1.1-3.6c-0.9-0.9-1.7-1.9-2.4-3c-0.2-0.6-0.4-1-0.7-1.2
			c-0.1-2-1.5-3-2.5-2.5c-0.8,0.2-1.5,0.3-2.4,0.1v-0.5c1-0.6,2.9-2.4,4.7-4.5c0.7-0.8,1-0.5,1.7,0.2l2.6,2.7
			c-0.1,1.3,0.1,2.2,1,2.1c0.6,1.1,0.9,2.1,0.3,2.6c-0.6,0.5-1,0.8-1,1.5c0.1,1,1.3,2.1,2.7,2.6c0.1,0,0.3,0,0.4-0.2
			c0.4-0.9,0.4-2,0-3.1l-0.5-1.5c-0.1-0.6,0-1.1,0-1.6c0.1-1.2,0.2-1.9-1.1-2.8c-1.6-1.7-3-3.4-4.2-5.2c0-2.4-2-3-3.3-0.4l-2.5,1.8
			c-0.6,0.4-1-0.3-1-0.9c-0.3-3.2-2.4-5.7-4.8-8.1c-1.3-3.8-3-7-3.6-10c2.4,0.3,4.2,0.7,4.9,1.4c1,1.1,2.4,1.7,2.7,0.9
			c0.1-0.3-0.6-0.7-1-1.1c0.4,0,1,0.4,1.5,1c1,0,1.4-0.8,1.1-1.9c0.1-0.9,0.1-1.5-0.3-1.8l-0.9-0.5c-1.5-1.6-2.7-3.2-3.7-5
			c-0.1-0.2-0.2-0.4-0.2-0.5c0-0.7-0.2-1.3-0.9-2l0.3-0.2l0-0.3l0.8,0.2L67,19.8c-0.4-1.5-1.8-1.8-4-1.2c-0.3,0.1-0.7-0.3-1-0.7
			c-1.3-1.3-2.8-2-2.3-1c0.1,0.2,0.5,0.6,0,0.6l-2.3-0.4c-0.5-0.1-0.6,0.1-0.5,0.3c0.4,0.5,0.8,0.9,1,1.4L55,19
			c-0.6,0-1.1,0.3-1.6,0.3c-1.6-1.3-3.6-0.3-5.6,1.2l-0.3-0.1l0-2.4h0.3l-0.2-1.5h0.2c0.2-2.4-0.3-3.9-1.2-4.9
			c-0.2-0.7,0.5-0.6,0.7-0.8c0.7-0.8,0.6-1.8,0.6-2.3c-0.1-1-0.5-1.3-1-1h-0.6c-0.6-0.1-1.1-0.3-1.4-0.6c-0.7-0.5-1.3-0.5-1.9,0
			c-3,0.8-3.6,3.1-7.3,1.5c-0.4,0-0.5,0.1-0.3,0.5c0.6,0.8,1.5,1.4,2.5,1.8c-0.3,0.3-1,0.3-2.1,0.2c0.6,0.8,1.8,1.3,3.7,1.2
			c0.7,0.4,1.5,0.3,2.5-0.1c0.5-0.3,0.5-0.1,0.2,0.5c-1,0.8-1.6,2.4-1.8,5.2c-0.4,0.6-0.6,1.2-0.7,1.9c-1.4-0.4-2.6-0.6-3.1-0.2
			l-0.5,0c-1.2-0.9-2.4-0.9-3.4-0.3l-2.1,1.6c-0.8,0.5-1.5,0.6-1.6-0.1L28,18.6c0-1.3-0.5-2-1.4-2.1c-0.4-0.4-0.7-0.8-0.8-1.3
			l-0.6-0.8c0.2-0.7-0.1-1-0.6-1c-0.5,0-1-0.1-1.3-0.3L18.9,7.7L18.9,7.7z"/>
		<path class="st3" d="M79.5,70l0.4-0.9c0.2-0.3,0.4-0.3,0.5,0l1,0.9c-0.2,0.2-0.7,0.2-1,0.3l0.3,0.5L80.4,71l-0.1,0.5
			C79.7,70.9,79.3,70.5,79.5,70L79.5,70L79.5,70z M80.4,66.9c0.1,0,0.3,0.4,0.3,0.8c0,0.4-0.1,0.8-0.3,0.8c-0.2,0-0.3-0.4-0.3-0.8
			C80.1,67.3,80.2,66.9,80.4,66.9L80.4,66.9z M79.8,63.5c0.1-0.1,0.3,0.1,0.4,0.3c0.2,0.3,0.2,0.5,0.1,0.5c-0.1,0-0.3-0.1-0.4-0.3
			C79.8,63.8,79.7,63.6,79.8,63.5L79.8,63.5z"/>
		<path class="st3" d="M82.5,59.4c-0.1-0.1-0.3-0.1-0.4,0c-0.5,0.5-0.5,1-0.3,1.3l0.9,0.7c0.3,0.3,0.6,0.1,0.5-0.1l-0.3-0.5
			c0.2,0.1,0.4,0.3,0.6,0.3c0.2,0,0.2-0.3,0-0.4c-0.3-0.3-0.4-0.5-0.2-0.7c0.1-0.1,0.1-0.2,0-0.3L82.5,59.4
			C82.5,59.4,82.5,59.4,82.5,59.4z M82.5,55.5c-0.4-0.5-0.3-0.8,0.2-0.8c-0.5-0.8,0-1,0.5-0.1c0.3,0.4,0.3,1.1,0.2,2
			c0,0.3-0.3,0.3-0.4,0C82.9,56.1,82.7,55.8,82.5,55.5L82.5,55.5L82.5,55.5z M82.8,58.8l0.2-1c0-0.3,0.1-0.2,0.3,0
			c0.3,0.4,0.6,0.8,0.7,1.5c0.1,0.3,0,0.5-0.2,0.5c-0.3,0-0.5-0.1-0.7-0.3C82.9,59.3,82.8,59.1,82.8,58.8L82.8,58.8z"/>
		<path class="st3" d="M68,48.1c0-1.8,0.3-3.2,0.3-4.5c0-0.5,0.4-0.5,0.4,0.1c0.1,1.4-0.1,2.8-0.3,4.3C68.3,48.1,68,48.5,68,48.1
			L68,48.1L68,48.1z M70.4,55.1c0.1,0,0.1,0.1,0.1,0.2c0,0.1,0,0.2-0.1,0.2s-0.1-0.1-0.1-0.2C70.3,55.2,70.3,55.1,70.4,55.1
			L70.4,55.1z M66.2,48.9l0.2-0.1c0,0,0.1,0,0.2,0l0.6,0.8c0,0,0,0.1,0,0.2L67,49.9c0,0-0.1,0-0.2,0L66.2,49
			C66.2,49,66.1,48.9,66.2,48.9C66.2,48.9,66.2,48.9,66.2,48.9z M72.3,53.4l0.3-1.6l-0.3,0.6c-0.3,0-0.3-0.3-0.3-0.8
			c0-0.6,0-0.8,0.3-0.7l0.2,0.5l0.2-0.4c0.3-0.2,0.3,0,0.2,0.5l-0.1,1.8C72.6,53.6,72.4,54.1,72.3,53.4L72.3,53.4L72.3,53.4z
			 M76.7,48.2c-0.3-0.3-0.3-0.8,0-1c0.3-0.3,0.6-0.3,0.9-0.1c0.3,0.1,0.3,0.3,0.3,0.4l-0.5,0.2l0.6,0.2c0.3,0.3,0,0.8-0.3,0.4
			c-0.3-0.3-0.5-0.3-0.8-0.1C77,48.4,77,48.5,76.7,48.2L76.7,48.2L76.7,48.2z M70.6,51.1c0.1,0,0.3,0.1,0.4,0.3
			c0.1,0.2,0.1,0.4,0,0.5c-0.1,0.1-0.3-0.1-0.3-0.3C70.6,51.4,70.6,51.2,70.6,51.1L70.6,51.1L70.6,51.1z M66.8,50.8
			c0.1,0,0.3,0.1,0.4,0.3c0.1,0.3,0.1,0.5,0,0.5c-0.1,0-0.3-0.1-0.4-0.3C66.7,51,66.7,50.8,66.8,50.8L66.8,50.8L66.8,50.8z
			 M67.9,48.7c0.3,0,0.7,0.3,0.8,0.8c0.1,0.5-0.1,0.9-0.4,1c-0.3,0-0.7-0.3-0.8-0.8C67.4,49.2,67.6,48.8,67.9,48.7
			C67.9,48.7,67.9,48.7,67.9,48.7z M68.5,51.5c-0.2-0.8,0.1-0.9,0.4-0.2c0.5,1.1,0.7,2.5,0.7,4.2c0,0.6-0.5,0.7-0.5,0.1
			C68.8,54.1,68.8,52.7,68.5,51.5L68.5,51.5L68.5,51.5z M73.3,52.8c0-0.8,0.2-1.6,0.5-2.4c0.1-0.4,0.3-0.4,0.5-0.2
			c0.8-1.2,0.6-0.5,0.3,0.4l0.2,0.1c0.9-1.7,0.5-0.3,0.5,0.4c-0.7,0.8-1.1,1-1.3,0.4l-0.2,1.1C73.6,53.1,73.4,53.2,73.3,52.8z"/>
		<path class="st3" d="M16.2,82.1c-0.3,1.1-1.5,0.5-0.9-0.5c1.5-2.5,3.1-5,3.4-8.4c0.1-1.2,0.8-1.8,1.8-2.3c2.1-1.1,2.8-3.1,2.7-5.3
			c-0.5-9.5,2.2-13.7,6.3-15.3l-0.1,0.4c-3.7,2.2-5.2,6.5-5.2,12.4c0,1.3-0.2,2.6,0,4.1l0.1-0.3c0.1-3.4,0.1-6.4,0.5-8.4
			c0.5-2.2,1.2-3.6,1.9-4.5c0.3-0.3,0.5-0.8,0.7-1c0.3-0.3,0.7-0.4,1-0.7l0,0.3c-1.4,1.4-2.6,3.2-3.1,5.5c-0.6,2.6-0.6,5.7-0.4,8.9
			c0,0.5-0.1,0.8-0.3,1.2l0.2-0.1c0.3-0.5,0.4-1.1,0.4-1.8c-0.3-3.9,0-7.8,1.4-10.5c1-1.9,1.5-2.6,4.3-4.1l-0.1,0.3
			c-2.3,1.5-4.4,3.4-4.8,9.5l0.1-0.1c0.4-4.7,2.1-8.1,5.2-9.4c1.1-0.5,2.4-0.4,3.8-0.4l-0.3,0.2c-2.2-0.2-4.1,0.5-5.7,2.3l0.3,0.1
			c1.5-1.6,3.4-2.5,5.6-2l-0.2,0.3c-1.6-0.3-2.9,0.3-4.2,1.3v0.2c1.4-1,2.7-1.4,4-1.2c0.4,0,0.5,0.4,0.4,0.9l-0.3,2.3
			c0,2.2-0.2,4.4-0.7,6.4l-0.2,0.2l0.2-3.9l-0.9,4.8c-0.1,0.5-0.5,0.5-0.4,0c0.2-1,0.5-2.4,0.8-3.9c-0.2,0-0.4,0.2-0.4,0.5
			c-0.3,2.1-0.6,3.7-1,4.3c0.3-1.3,0.5-2.6,0.5-3.9l-0.3,0.2l-0.6,3.7c0.5,0.3-0.1,0.6-0.3,0.2l0.2-2l-0.2,0l-0.9,3.2l0.3-2.2
			L30,65.5h-0.3l0.4-1.9L28.8,67c-0.4,0.1-0.4,0-0.1-0.6l0.8-2.4l-0.3,0c-0.5,1.7-0.9,2.9-1.5,3.3l-0.2,0c0.9-1.5,1-2.3,1-3.1
			c-0.5,1.5-0.9,2.5-1.8,3.4c-0.1-0.1,0-0.5,0.5-1.4l0.5-1.2c-0.2-0.3-0.3-0.2-0.5,0.2c-0.3,1-0.6,1.8-1.1,2.4l0.5-2.1l-0.1-0.3
			c-0.4,1.2-0.9,2.3-1.6,2.9l0.3,0.2c1.1-0.8,2.7-0.5,4.3-1.2c0.3-0.2,0.7-0.3,0.9-0.1L30.3,68L30,67.6c-0.2,0.6-0.4,1.2-0.8,1.5
			l-0.1-0.9c-0.7,1.5-1.1,2.3-1.2,1.5l0.1-0.9c-0.5,0.5-0.8,1.1-1,1.8c-0.3,0-0.3-0.5-0.2-1.3l-0.4,1.5c-0.4,0.1-0.5-0.3-0.3-1.3
			c-0.3,0.8-0.6,1.4-0.8,1.5c-0.2-0.3-0.2-0.7-0.1-1.2L25,70.7c0,0.6-0.2,0.8-0.4,0.8c0.1-0.9,0.1-1.2,0-1L24,71.8
			c-0.3,0.2-0.4-0.2-0.3-0.9c-0.5,0.3-0.3,1.2-0.7,1.5c-0.3-0.2-0.3-0.6-0.3-1c-0.2,0.7-0.4,1.1-0.7,1.2l-0.1-1.4
			c-0.1,0.6-0.3,1.1-0.5,1.5l-0.4-1l-0.2,1c-0.3,0.2-0.5-0.1-0.7-0.7c0,1.3-0.2,2.4-1,2.9c0.1,0.3-0.3,1.2-0.8,2.2l1.3-2
			c0.3-0.1,0.4,0.1,0.3,0.7l-1.4,2.3c-0.2,0.3-0.5,0.2-0.7,0c-0.3,1.1-0.8,1.9-1.3,2.7c0.6-0.4,1-1.2,1.4-2.3
			c0.1-0.3,0.5,0.1,0.3,0.8L18,79.6l0,0.5l-0.4,0v0.7L17.2,81C17.6,81.9,17.1,82.5,16.2,82.1L16.2,82.1z"/>
		<polygon class="st3" points="24.1,50.4 25.7,50.1 25.6,50.5 		"/>
		<path class="st3" d="M8.8,63.2C9,62.4,9.5,62,10.1,61c0.3-0.5,0.5-0.2,0.4,0.3C9.8,62.4,9.2,63,8.8,63.2L8.8,63.2z"/>
		<path class="st3" d="M26,49.7c-2.7-2.4-5.3-3.7-7.3-3.2c-3.7,0.8-5.5,4.3-6.6,7.6c0.6-1.1,1.2-1.8,1.8-2c-1.8,2.9-2.9,5.9-3.1,9.4
			c-0.1,0.4-0.3,0.8-0.7,1.1C8.9,63.3,9,64,8.8,64.8c0.3-0.2,0.5-0.7,0.9-1.2c0.5-0.6,1.1-1.3,1.3-2.4c0.4-1.5,0.5-2.9,0.8-4
			c0.4-1.4,0.8-2.4,1.6-3.7c1.3-2.2,3.1-4.3,5-5.1v0.2c-1.9,1-3.3,2.6-4.9,5.1c-0.4,0.6-0.6,1.2-1,2.1c-0.3,0.8-0.7,1.7-0.8,2.8
			c-0.3,2.3-0.8,3.7-1.4,4.6c-0.7,0.9-1.1,1.3-1.2,1.7c-0.1,0.2-0.3,0.6-0.2,1c1.5-2.8,2.1-2.5,2.8-4.5c0.9-3,0.3-6.1,4.3-10.6h0.3
			c-1.9,2.2-3.2,4.3-3.9,8.8c-0.1,0.8-0.3,1.8-0.6,2.4c-0.5,1-1.5,1.7-1.8,2.7l0.2,0c0.5-0.5,1.5-1.7,1.9-2.5c1.2-2.4,0.8-5.5,2.4-8
			c2-3.3,3.6-5,6.1-6l0.3,0c-3.4,1.8-4,3.1-5.5,5.1c-0.5,0.7-0.9,1.3-1.3,2.6c-0.4,1.1-0.6,2.8-0.8,4.1c-0.3,1.7-0.9,2.7-1.5,3.5
			c-0.4,0.5-0.7,0.7-1,1.1c-0.3,0.4-0.5,1.1-0.6,1.6l0.2-0.1c0.9-2.5,1.5-1.9,2.1-2.8c0.4-0.5,1-1.5,1.1-2.7
			c0.3-2.4,0.8-4.3,1.6-5.9c0.9-1.8,2.3-3.7,3.8-5c0.7-0.6,1.3-0.9,2.2-1.2h0.2c-1.1,0.8-1.9,1-2.8,1.8c-1.4,1.3-2.8,3.4-3.5,5.1
			c-0.7,1.6-1.1,3.4-1.3,5.3c0-0.3,0.2,0.1,0.3-0.1c0.8-4.4,2.3-7.4,4.3-9.4c1.1-1.1,2.4-2,3.6-2.3l0.8,0c-1.8,0.5-3.6,1.4-5,3.4
			l0.3,0c1.6-1.8,3.3-2.6,4.9-2.9l0.3,0c-1.1,0.4-2.1,0.8-2.7,1.4l0.1,0.3C21.9,50.3,23.8,49.9,26,49.7L26,49.7z"/>
		<path class="st3" d="M9.2,68c-0.2-0.3-0.3-0.7-0.3-1c0-0.5,0.4-0.5,0.5-0.1C9.4,67.5,9.2,67.5,9.2,68z"/>
		<path class="st3" d="M14,72.5l0.4-0.5c0.2-0.1,0.5-0.2,0.6-0.1C15,72.2,14.6,72.4,14,72.5z"/>
		<path class="st3" d="M13.7,73.8l0.5-0.6c0.3-0.2,0.6-0.3,0.9-0.1C15,73.4,14.4,73.7,13.7,73.8z"/>
		<path class="st3" d="M13.7,74.5l0.6-0.5c0.3-0.2,0.7-0.2,0.9,0C15.2,74.1,14.4,74.4,13.7,74.5z"/>
		<path class="st3" d="M13.9,75.1l0.6-0.5c0.3-0.2,0.6-0.2,0.9,0C15.2,74.8,14.6,75,13.9,75.1z"/>
		<path class="st3" d="M14.2,75.7l0.4-0.4c0.2-0.1,0.5-0.2,0.6-0.1C15.1,75.4,14.7,75.6,14.2,75.7L14.2,75.7z"/>
		<path class="st3" d="M16.3,69l0.3-0.2c0.2-0.1,0.4,0,0.5,0C17.1,69,16.7,69,16.3,69L16.3,69z"/>
		<path class="st3" d="M15.8,69.7l0.7-0.3c0.3,0,0.7,0,0.8,0.2C17.1,69.8,16.5,69.8,15.8,69.7L15.8,69.7z"/>
		<path class="st3" d="M16.2,68l0.5-0.4c0.3-0.1,0.5-0.1,0.8,0C17.4,67.8,16.8,67.9,16.2,68z"/>
		<path class="st3" d="M16.6,67l0.5-0.1c0.3,0,0.5,0.1,0.6,0.3C17.6,67.3,17.1,67.2,16.6,67z"/>
		<path class="st3" d="M15.4,78.3l0.4-0.2c0.2,0,0.4,0,0.5,0C16.2,78.2,15.9,78.3,15.4,78.3L15.4,78.3z"/>
		<path class="st3" d="M16.6,77l-0.9,0.1c-0.4,0.2-0.7,0.5-0.7,0.8C15.3,78,15.9,77.6,16.6,77z"/>
		<path class="st3" d="M16.2,76.6h-0.7c-0.3,0.1-0.6,0.3-0.6,0.5C15,77.2,15.6,76.9,16.2,76.6z"/>
		<path class="st3" d="M19.5,80l0.4-0.9c0.2-0.3,0.6-0.5,0.9-0.5C20.8,79,20.2,79.5,19.5,80z"/>
		<path class="st3" d="M21.4,79.1l0.8-0.3c0.4,0,0.7,0.1,0.9,0.3h0c0,0.3-0.5,0.7-1.2,1l0.4-0.7c0.1-0.1,0.2-0.2,0.3-0.3h-0.3
			c-0.2,0.2-0.5,0.5-0.9,0.7l0.3-0.6c0-0.1,0.1-0.1,0.2-0.2C21.7,79.2,21.5,79.2,21.4,79.1z"/>
		<path class="st3" d="M25,79.2c0.3-0.1,1.1,0.1,1,0.4c0,0.3-0.6,0.7-1.2,1.1l0.3-0.8c0.1-0.1,0.2-0.2,0.3-0.3h-0.3
			c-0.2,0.2-0.5,0.5-0.8,0.7l0.3-0.6c0,0,0.1-0.1,0.2-0.1c-0.1,0-0.2,0-0.2,0c-0.1,0.2-0.4,0.3-0.6,0.5l0.2-0.4
			C24.4,79.4,24.6,79.4,25,79.2L25,79.2z"/>
		<path class="st3" d="M30.4,79.1c0-0.7,0.5-1.1,1.6-1.3c1.2-0.2,2.7,0.1,2.3,0.6h-0.1L34,79l-0.5,0.8l0.3-0.9l0.1-0.5
			c-0.1,0-0.3-0.1-0.5-0.2L33,78.6l-0.6,0.7l0.5-0.8l0.2-0.3c-0.1,0-0.2,0-0.3,0l-0.4,0.4l-0.6,0.7l0.5-0.8l0.2-0.3h-0.3l-0.3,0.4
			l-0.6,0.8l0.4-0.9l0.1-0.2c-0.2,0-0.3,0.1-0.5,0.1L31.1,79l0.1-0.7C30.9,78.5,30.5,78.7,30.4,79.1L30.4,79.1z"/>
		<path class="st3" d="M26.5,79.7L26.5,79.7L26.5,79.7l1.1-0.8c0.7-0.3,1.6-0.5,1.5,0.1c0,0-0.1,0.1-0.3,0.2c0,0.2,0,0.5,0,0.7
			l-0.3-0.6h-0.2c0,0.3,0,0.7,0,1L28,79.4c-0.1,0-0.1,0-0.2,0c0,0.5,0,1,0,1.5l-0.6-1.2v-0.1c-0.1,0.3-0.1,0.5-0.2,0.8l-0.1-0.8l0,0
			c-0.1,0.3-0.3,0.8-0.4,1.2l0-0.9L26.5,79.7L26.5,79.7z"/>
		<path class="st3" d="M14.5,51.3c0.6-0.6,1.2-1.2,1.8-1.8C15.6,49.8,14.9,50.4,14.5,51.3z"/>
		<path class="st3" d="M24.4,84.2c-0.2-0.4-0.4-0.8,0-1.8c0.3-0.9,0.8-1.1,1-1.1c0.3,0.3-0.1,1,0.1,1.8l-0.7-0.6l0.2,1.1l-0.5-0.5
			C24.5,83.1,24.4,84.2,24.4,84.2z"/>
		<path class="st3" d="M30.3,85.3c-0.1-0.2-0.2-0.3-0.3-0.3c-0.1,0,0,0.2,0.1,0.4c0.1,0.2,0.3,0.3,0.3,0.3
			C30.5,85.6,30.5,85.4,30.3,85.3z"/>
		<path class="st3" d="M30.3,86c-0.2-0.3-0.3-0.4-0.4-0.3c-0.1,0,0,0.3,0.2,0.5c0.2,0.3,0.3,0.4,0.4,0.3
			C30.6,86.5,30.5,86.3,30.3,86z"/>
		<path class="st3" d="M30,86.7c-0.1-0.2-0.3-0.3-0.3-0.3c-0.1,0,0,0.3,0,0.5c0.1,0.2,0.3,0.3,0.3,0.3C30.1,87.1,30.1,86.9,30,86.7z
			"/>
		<path class="st3" d="M29.6,87.4c-0.1-0.3-0.3-0.6-0.4-0.5c-0.1,0-0.1,0.3,0,0.7c0.1,0.3,0.3,0.5,0.3,0.5
			C29.7,88.1,29.7,87.8,29.6,87.4L29.6,87.4z"/>
		<path class="st3" d="M24.7,87.1c0.3,0,0.4,0.1,0.4,0.2c0,0-0.3,0.1-0.5,0c-0.2,0-0.4-0.1-0.4-0.2C24.2,87.1,24.5,87.1,24.7,87.1z"
			/>
		<path class="st3" d="M24.5,86.6c0.3,0,0.5,0.2,0.5,0.3s-0.3,0.1-0.5,0.1c-0.3-0.1-0.5-0.2-0.5-0.3S24.2,86.6,24.5,86.6z"/>
		<path class="st3" d="M24.3,85.9c0.3,0.1,0.6,0.2,0.6,0.3c0,0.1-0.3,0.2-0.7,0.1c-0.3,0-0.6-0.2-0.6-0.3
			C23.7,85.9,24,85.9,24.3,85.9z"/>
		<path class="st3" d="M35.3,78.8c-0.3-0.8,0.7-1.1,1.6-0.7c0.8,0.3,1.7,0.4,2.9,0.2c0.6-0.1,1.2-0.1,1.8,0c0.6,0.3,0.6,0.6-0.1,0.8
			c-1.3,1.3-2.4,2.6-2.5,3.8c-0.5-0.6,0.5-2.2,2-4.2c-0.9,0.7-1.8,1.6-2.6,2.7c0.2-0.7,0.7-1.6,1.5-2.6c-1.6,1.2-2.8,3-2.6,6.4
			c-0.6-2-0.2-4,1.1-5.8l-1.8,1.9l1.6-2.5l-1,0.3l0.1-0.4l-0.6,0.3v-0.4l-0.8,0.7l0.2-0.7C35.7,78.2,35.5,78.4,35.3,78.8L35.3,78.8z
			"/>
		<path class="st3" d="M36,83.5c-0.1,0.5,0,1.1,0.4,1.7c0.1,0.1,0.3,0,0.2-0.3C36.3,84.6,36.1,84.1,36,83.5L36,83.5z"/>
		<path class="st3" d="M38.1,83.8c0.1,0,0.2,0.2,0.2,0.5s-0.1,0.5-0.2,0.5s-0.2-0.3-0.2-0.5S38,83.8,38.1,83.8z"/>
		<path class="st3" d="M40.1,81.6c0,0,0,0.3,0,0.5c-0.1,0.3-0.3,0.4-0.3,0.4c-0.1,0,0-0.3,0-0.5C39.8,81.8,40,81.6,40.1,81.6z"/>
		<path class="st3" d="M40.5,80.6c0.1,0.1,0,0.3-0.1,0.4c-0.1,0.2-0.3,0.3-0.3,0.3c0,0,0-0.3,0.1-0.4C40.3,80.7,40.5,80.6,40.5,80.6
			z"/>
		<path class="st3" d="M56.3,82.3c0.7,0.3,0.8,1.3,0.4,2.5C56.7,83.7,56.6,82.9,56.3,82.3z"/>
		<path class="st3" d="M52.6,87.4c0-0.2-0.1-0.4-0.3-0.6c0,0.3,0.1,0.5,0.1,0.8L52.6,87.4z"/>
		<path class="st3" d="M44.4,74.7c0.1,0,0.2,0,0.3,0l0.3,0.5c-0.1,0-0.3,0-0.4-0.1L44.4,74.7L44.4,74.7z"/>
		<path class="st3" d="M43.7,78.4c0.1,0,0.2,0.3,0.3,0.5c0,0.2,0,0.3-0.1,0.3s-0.2-0.2-0.3-0.4C43.6,78.5,43.6,78.4,43.7,78.4z"/>
		<path class="st3" d="M44.3,78.4c0,0,0.2,0.1,0.2,0.3c0.1,0.2,0.1,0.4,0.1,0.4c-0.1,0-0.2-0.1-0.3-0.3
			C44.3,78.5,44.2,78.4,44.3,78.4L44.3,78.4z"/>
		<path class="st3" d="M45.1,78.2c0.1,0,0.3,0.3,0.3,0.5c0,0.3,0.1,0.4-0.1,0.4c-0.2,0-0.1-0.1-0.2-0.4
			C45.1,78.5,45.1,78.2,45.1,78.2z"/>
		<path class="st3" d="M45.8,78c0,0,0.2,0.2,0.3,0.5c0.1,0.3,0.1,0.6,0,0.6c-0.1,0-0.2-0.2-0.3-0.5C45.8,78.3,45.7,78,45.8,78
			L45.8,78z"/>
		<path class="st3" d="M46.6,78c0.1,0,0.3,0.3,0.3,0.6c0.1,0.4,0,0.7,0,0.7c-0.1,0-0.3-0.3-0.3-0.6C46.5,78.3,46.5,78,46.6,78
			L46.6,78z"/>
		<path class="st3" d="M47.4,78.1c0.1,0,0.3,0.4,0.4,0.7c0.1,0.3,0.1,0.5-0.1,0.5c-0.3,0-0.2-0.1-0.3-0.5
			C47.3,78.5,47.3,78.1,47.4,78.1L47.4,78.1z"/>
		<path class="st3" d="M47.9,77.9c0.1,0,0.3,0.3,0.4,0.6c0.1,0.4,0.1,0.7,0,0.7c-0.1,0-0.3-0.3-0.3-0.6
			C47.9,78.3,47.9,77.9,47.9,77.9L47.9,77.9z"/>
		<path class="st3" d="M48.8,77.7c0.1,0,0.2,0.4,0.2,0.8c0,0.5-0.1,0.8-0.2,0.8c-0.1,0-0.2-0.4-0.2-0.8
			C48.6,78.1,48.7,77.7,48.8,77.7z"/>
		<path class="st3" d="M49.6,78c0.1,0,0.2,0.3,0.2,0.7c0,0.4-0.1,0.7-0.2,0.7c-0.1,0-0.2-0.3-0.2-0.7C49.4,78.3,49.4,78,49.6,78z"/>
		<path class="st3" d="M50.3,77.8c0.1,0,0.2,0.4,0.2,0.8s-0.1,0.8-0.2,0.8s-0.2-0.4-0.2-0.8S50.2,77.8,50.3,77.8z"/>
		<path class="st3" d="M51,77.6c0.1,0,0.2,0.4,0.1,1c-0.1,0.5-0.2,0.9-0.3,0.9c-0.1,0-0.1-0.4-0.1-0.9C50.8,78,50.9,77.6,51,77.6z"
			/>
		<path class="st3" d="M52,77.5c0.1,0,0.1,0.4,0,0.9c-0.1,0.5-0.2,0.9-0.3,0.9c-0.1,0-0.1-0.4,0-0.9C51.8,77.9,51.9,77.5,52,77.5z"
			/>
		<path class="st3" d="M52.8,77.1c0.1,0,0.3,0.6,0.3,1.2c-0.1,0.6-0.3,1.1-0.4,1.1c-0.1,0,0-0.5,0-1.1C52.8,77.6,52.7,77,52.8,77.1z
			"/>
		<path class="st3" d="M48.5,81.8c0,0,0.1,0.1,0.2,0.3c0.1,0.2,0.1,0.4,0.1,0.4c0,0-0.2-0.1-0.2-0.3C48.5,82,48.5,81.8,48.5,81.8z"
			/>
		<path class="st3" d="M49.1,81.6c0.1,0,0.2,0.2,0.3,0.5c0.1,0.3,0.1,0.4,0,0.4c-0.2,0.1-0.1-0.1-0.2-0.3
			C49.1,81.9,49.1,81.6,49.1,81.6z"/>
		<path class="st3" d="M54.8,79.8v0.3c0.1-0.1,0.3-0.2,0.4-0.3c0.1-0.8,0.1-1.5,0-2.1C55.1,78.6,55,79.2,54.8,79.8z"/>
		<path class="st3" d="M54.4,80.8c-0.2,1.1-0.3,1.4-0.7,1.8c0.2-0.7,0.1-1.2,0.1-1.3c-0.1,0-0.2,0.1-0.3,0.1v0.1c0,0.4,0,1-0.5,1.6
			c0-0.6,0.2-1.1,0.2-1.7c-0.1,0-0.2,0.1-0.3,0.1v0.6c0,0.3-0.3,0.9-0.3,0.9c0,0,0.2-1.2,0.1-1.5c-0.1,0-0.2,0-0.3,0.1v0.2
			c0,0.1,0,0.3-0.1,0.3c0,0-0.1-0.1-0.1-0.2c0,0,0-0.1-0.1-0.2c0,0-0.1,0-0.2,0v0c0,0.1,0,0.2,0,0.3c0,0-0.1-0.1-0.2-0.3
			c-0.1,0-0.2,0-0.2,0c0,0.2,0,0.3-0.1,0.4c-0.2,0.1-0.2-0.1-0.3-0.3c-0.1,0-0.3,0-0.4,0.1c0,0.2,0,0.3,0,0.3c0,0-0.1-0.1-0.2-0.3
			h-0.3c0,0.2,0,0.3,0,0.3c0,0-0.1-0.1-0.2-0.3l0,0c0,0,0,0,0,0c0,0,0-0.1-0.1-0.2c-0.1-0.3-0.2-0.5-0.1-0.5c0.1,0,0.2,0.1,0.3,0.4
			c0,0.1,0.1,0.2,0.1,0.3c0.1,0,0.2-0.1,0.3-0.1c0-0.1,0-0.1,0-0.2c-0.1-0.3-0.1-0.6,0-0.7c0.1,0,0.2,0.2,0.3,0.5c0,0,0,0.1,0,0.2
			c0.1,0,0.2-0.1,0.3-0.1c0-0.2,0-0.3,0-0.4c0-0.2,0-0.3,0-0.3c0,0,0.3,0.3,0.3,0.6c0.1,0,0.1,0,0.2-0.1c0.1,0,0,0,0-0.1
			c-0.1-0.3-0.1-0.3-0.1-0.5c0-0.1,0-0.2,0-0.2c0,0,0.3,0.3,0.3,0.6c0,0,0,0.1,0,0.1c0.1,0,0.1,0,0.2-0.1v-0.7c0-0.2,0-0.3,0.1-0.3
			s0.1,0.1,0.1,0.2c0,0.2,0.1,0.4,0.1,0.6l0,0c0.1,0,0.2,0,0.3-0.1v-0.3c0-0.1,0-0.2,0.1-0.2c0,0,0.1,0.2,0.2,0.4
			c0.1,0,0.2-0.1,0.3-0.1v-0.5c0-0.1,0-0.3,0.1-0.3c0,0,0.1,0,0.1,0.2c0,0.1,0.1,0.3,0.1,0.4c0.1,0,0.2,0,0.3-0.1l0,0
			c0-0.3,0-0.5,0-0.7c0-0.2,0.1-0.3,0.1-0.3c0,0,0.1,0,0.1,0.2c0,0.2,0,0.4,0,0.6c0.1,0,0.2-0.1,0.3-0.1c0.3-1.2,0.7-2.8,0.7-4.2
			c-0.1-0.2-0.2-0.3-0.3-0.5c-0.1,1.6-0.2,2.9-0.7,3.8c0.3-1.3,0.3-2.7,0-4.3h-0.1c0,1.7,0,3.2-0.4,4.1c0.2-1.4,0.1-2.9-0.4-4.5
			c-0.1,0-0.2-0.1-0.3-0.1c0.4,0.3,0.3,1.7,0.1,1.9c-0.3-0.8,0-1-0.8-1.6h-0.2c0.4,0.4,0.4,1,0.3,1.5c-0.2-0.5-0.5-1-0.9-1.3H51
			c0.5,0.6,0.5,0.8,0.5,1.3c-0.2-0.5-1-0.9-1.4-1.2c-0.2,0-0.2,0-0.4,0c0.4,0.2,1,1,0.8,1.2c-0.3-0.3-0.9-0.7-1.2-1.1
			c-0.2,0-0.1,0.1-0.3,0.1c0.1,0.3,0,0.4,0,0.7c-0.4-0.1-0.6-0.1-1-0.6c-0.1,0-0.3,0-0.3,0c0,0.1,0.2,0.4,0.3,0.5
			c-0.1-0.1-1-0.6-1-0.7c0,0,0.2,0-0.3-0.1c0,0.1,0.3,0.8,0.4,0.9c-0.1-0.1-0.7-0.8-0.8-0.9c-0.2,0-0.4,0-0.6-0.1l-0.4-0.6
			c1.9,0.1,4,0,6.5-0.4l2.4-0.5c0.8-0.3,1.3,0.2,1.5,1.4l0.1,1.3c0.5,0.7,0.7,1.6,0.2,2.8c0.2,0.9,0.7,1.6,1.5,2.3
			c0.7,0.6,0.8,1.5,0,2.8c-0.7,1.8-1.7,3-2.6,4.2c0,0-0.1,0.1-0.1,0.1c0,0-0.1,0.1-0.1,0.2c0-0.1,0.1-0.1,0.1-0.2
			c0-0.2-0.1-0.4-0.1-0.6c0.1,0.2,0.2,0.3,0.2,0.5c0.1-0.2,0.3-0.4,0.4-0.6c0-0.2-0.1-0.4-0.1-0.7c0.1,0.2,0.2,0.3,0.3,0.5
			c0.1-0.2,0.2-0.3,0.3-0.5c-0.1-0.2-0.1-0.5-0.2-0.7c0.1,0.2,0.2,0.3,0.3,0.5c0.1-0.2,0.3-0.4,0.3-0.6c0-0.2-0.1-0.4-0.2-0.6
			c0.1,0.1,0.2,0.3,0.3,0.4c0.1-0.4,0.2-0.7,0.3-0.9L52,88.1c0.4-0.3,0.8-0.6,1.2-1l0,0c0-0.3-0.1-0.5-0.1-0.8
			c0.1,0.2,0.2,0.5,0.3,0.7c0.1-0.1,0.2-0.2,0.3-0.3c0-0.3-0.1-0.7-0.1-1c0.2,0.3,0.3,0.6,0.3,0.8c0.1-0.1,0.3-0.2,0.4-0.3
			c0-0.4-0.1-0.9-0.2-1.3c0.2,0.4,0.3,0.8,0.4,1.1c0.1-0.1,0.2-0.2,0.3-0.3c0-0.6-0.1-1.3-0.2-1.9c0.3,0.6,0.5,1.1,0.5,1.6
			c0.1-0.1,0.2-0.1,0.3-0.2c0-0.6-0.1-1.4-0.3-2.1c0.3,0.6,0.5,1.3,0.6,1.8c0,0,0.1-0.1,0.1-0.1c0-0.7-0.1-1.6-0.3-2.4
			c0.4,0.8,0.6,1.5,0.5,2.1c0.1-0.1,0.2-0.2,0.3-0.3c0-1.2-0.5-2.3-0.8-3.4c-0.2,0.6-0.2,0.8-0.3,0.8c0.1-0.7,0-1-0.1-1
			c-0.1,0.9-0.3,1.5-0.6,1.8l0.2-1.5L54.4,80.8L54.4,80.8z"/>
		<path class="st3" d="M50.6,83.4c0,0.3,0,0.5-0.2,0.5c-0.2,0-0.1-0.3-0.1-0.5H50.6z"/>
		<path class="st3" d="M51.1,82.9c0.1,0,0.1,0.1,0.1,0.4c0,0.3,0,0.5-0.2,0.5c-0.3,0-0.2-0.3-0.1-0.5C50.9,83,51,82.9,51.1,82.9z"/>
		<path class="st3" d="M51.7,83c0,0.5,0,0.8-0.2,0.8s-0.2-0.4-0.1-0.8H51.7z"/>
		<path class="st3" d="M51.6,82.4c0,0,0,0.1,0.1,0.2h-0.2C51.5,82.5,51.5,82.4,51.6,82.4z"/>
		<path class="st3" d="M52.2,82.4c0.1,0,0.1,0.2,0.1,0.5c0,0.4,0,0.7-0.3,0.7c-0.3,0-0.2-0.4-0.1-0.8C52,82.5,52,82.4,52.2,82.4z"/>
		<path class="st3" d="M49.3,70.3c1,0.3,2.1,1.1,3.2,2.1c0.2,0.3,0.1,0.4-0.2,0.3C51.6,72.4,50.5,71.1,49.3,70.3z"/>
		<path class="st3" d="M53.3,73c0.2,0.1,0.3,0.3,0.3,0.3c0,0.1-0.2,0-0.4-0.1c-0.2-0.1-0.3-0.3-0.3-0.3C52.9,72.9,53.1,72.9,53.3,73
			z"/>
		<path class="st3" d="M42.7,74.6c0.4,0,0.8,0.1,1.1,0.1l0.3,0.4l0,0c-0.1,0,0.4,1.3-0.3-0.1c-0.1-0.2-0.3-0.1-0.5-0.2
			S43.1,74.7,42.7,74.6L42.7,74.6z"/>
		<path class="st3" d="M37.4,92.7c0.2,0,0.4,0.1,0.4,0.2c0,0-0.1,0.1-0.3,0.1c-0.3,0-0.4,0-0.4-0.1C37.1,92.8,37.2,92.7,37.4,92.7z"
			/>
		<path class="st3" d="M38,93.8c0.3-0.1,0.7-0.1,0.8,0c0.1,0.1-0.2,0.2-0.5,0.3c-0.3,0.1-0.7,0.1-0.8,0C37.4,94,37.7,93.9,38,93.8
			L38,93.8z"/>
		<path class="st3" d="M38.3,94.1c0.4-0.1,0.8-0.1,0.8,0c0,0.1-0.2,0.3-0.6,0.3c-0.4,0.1-0.8,0.1-0.8,0
			C37.7,94.4,37.9,94.2,38.3,94.1z"/>
		<path class="st3" d="M38.8,94.5c0.3-0.1,0.5-0.1,0.5,0c0,0-0.1,0.2-0.4,0.3c-0.3,0-0.5,0-0.6,0C38.4,94.7,38.6,94.5,38.8,94.5z"/>
		<path class="st3" d="M39.2,94.8c0.3,0,0.4,0.1,0.4,0.2c0,0.1-0.1,0.1-0.3,0.1s-0.4,0-0.4-0.1S39,94.8,39.2,94.8L39.2,94.8z"/>
		<path class="st3" d="M43.7,93.2c0.3-0.1,0.7-0.1,0.7,0c0.1,0.1-0.2,0.4-0.5,0.5c-0.3,0.1-0.7,0.1-0.7,0
			C43.1,93.5,43.3,93.3,43.7,93.2z"/>
		<path class="st3" d="M43.1,92.8c0.3-0.1,0.5-0.1,0.5,0c0,0.1-0.1,0.3-0.4,0.4c-0.3,0.1-0.5,0.1-0.5,0C42.6,93,42.8,92.9,43.1,92.8
			z"/>
		<path class="st3" d="M42.5,92c0.2-0.1,0.4,0,0.4,0c0,0.1-0.1,0.3-0.3,0.3c-0.2,0.1-0.4,0.1-0.4,0S42.3,92.1,42.5,92z"/>
		<path class="st3" d="M36.4,88.5c0-0.2-0.3-0.2-0.3,0c0,0.3,0,0.7,0.3,0.8c0.3,0.2,0.4-0.2,0.3-0.3C36.5,88.9,36.5,88.7,36.4,88.5z
			"/>
		<path class="st3" d="M35.8,88.2c0-0.3-0.2-0.4-0.3-0.2c-0.2,0.3-0.3,0.8,0,1c0.3,0.4,0.5,0,0.5-0.2C35.8,88.6,35.8,88.5,35.8,88.2
			L35.8,88.2z"/>
		<path class="st3" d="M65.2,69.4c-0.3,0.4-0.3,1.8,0.9,3.5c0.5,0.6-0.1,1,0.6,1.1c0.3,0,0.4-0.3,0.5-0.6l-0.4-0.2h0.6l-0.6-0.4
			c0.2,0,0.7,0.1,0.7-0.1c0-0.3-0.6-0.3-0.9-0.4l0.7-0.2c0-0.2-0.4-0.4-1-0.6l0.7-0.2l-0.8-0.5l0.6-0.2l-0.9-0.5l0.5-0.3l-0.5-0.2
			l0.5-0.3C65.8,69.3,65.6,68.9,65.2,69.4L65.2,69.4z"/>
		<path class="st3" d="M64.2,70.5c-0.3-0.5-0.3-1-0.2-1.4c0.3-0.8,0.6-1,0.8-1c0.5,0.5-0.3,0.9-0.5,1.3
			C64.2,69.4,64.2,69.7,64.2,70.5z"/>
		<path class="st3" d="M64,67.9c0.2-0.2,0.5-0.3,0.5-0.3s0,0.3-0.3,0.5c-0.2,0.2-0.5,0.4-0.5,0.3C63.6,68.4,63.8,68.1,64,67.9z"/>
		<path class="st3" d="M63.8,70.5c0.1,0,0.3,0.1,0.3,0.3c0,0.1-0.1,0.3-0.3,0.3c-0.2,0-0.3-0.1-0.3-0.3
			C63.5,70.7,63.6,70.5,63.8,70.5z"/>
		<path class="st3" d="M64.3,71.4c0.2,0,0.2,0.3,0.1,0.5c-0.1,0.2-0.3,0.3-0.4,0.3c-0.2,0-0.2-0.3-0.1-0.5
			C64,71.4,64.2,71.3,64.3,71.4z"/>
		<path class="st3" d="M64.9,72.3c0.2,0.1,0.3,0.3,0.1,0.5c-0.1,0.2-0.4,0.3-0.6,0.3c-0.2-0.1-0.3-0.3-0.1-0.5
			C64.3,72.4,64.6,72.2,64.9,72.3z"/>
		<path class="st3" d="M65.5,73.2c0.1,0.2,0,0.3-0.2,0.4c-0.2,0.1-0.4,0-0.5-0.1c-0.1-0.1,0-0.3,0.2-0.4
			C65.2,73.1,65.4,73.1,65.5,73.2z"/>
		<path class="st3" d="M68.6,73.7c0.1-0.1,0.1-0.3-0.1-0.4c-0.2,0-0.3,0-0.5-0.3c-0.2-0.5,0.1-0.8,0.5-0.9c0.3,0,0.5,0.1,0.4,0.3
			l-0.2,0.2c0.4,0.1,0.6,0.3,0.8,0.5c-0.2,0-0.3,0-0.4,0.2c0.7-0.1,0.7,1,0,0.8c-0.4-0.1-0.6,0-0.4,0.8c0.2,0.8,0.8,1,0.7,0.2
			c-0.1-0.4,1.3-0.5,1.5,0.4l-0.5-0.2c0.1,0.7,0.7,0.4,0.8,1l-0.5,0c0.5,0.4,1,0.8,1.2,1.4c-0.6-0.1-0.6-0.7-1.2-0.7
			c0.7,1,1.5,0.8,2,1.7c-0.6,0-1.3-0.5-2.1-1.3c0.7,1,1.2,1.8,1,2.3c-1-0.5-1.3-2-1.7-2.5c0,0.8,0.6,1.3,0.4,2.1
			c-0.4-0.5-0.6-1.3-0.6-2.6c0.4,0.1,0.6-0.2,0.6-0.9c-0.1-0.8-0.5-0.7-0.4,0c0,0.5-0.4,0.7-1.5,0c-0.2,0.2,0.1,0.4,0.7,0.8l0,0.6
			l0.3-0.5l0.1,1.8c0,0.5-0.2,0.4-0.3-0.1L69,77.6c0,0.6-0.1,0.9-0.3,0.9l-0.2-1.6L68,77.5l-0.1-0.9l-0.4,0.3v-1.1
			c-0.3,0.2-0.6,0-1-0.5c0.5,0.1,0.8,0,1.1-0.2C67.5,74.3,67.8,73.8,68.6,73.7L68.6,73.7z"/>
		<path class="st3" d="M58.5,78.9c0-0.4,0.1-0.5-0.3-1c-0.2-0.2-0.3-0.2-0.3,0C58.1,78.2,58.5,78.5,58.5,78.9z"/>
		<path class="st3" d="M57.9,76.3c0.5,0.3,0.8,0.3,1.1,1.1c0.1,0.3,0,0.5-0.2,0.3C58.5,77.3,58.3,76.7,57.9,76.3z"/>
		<path class="st3" d="M58,74.7c0.7,0.5,1,0.6,1.3,1.8c0.1,0.5,0,0.7-0.3,0.3C58.6,76.2,58.5,75.3,58,74.7L58,74.7z"/>
		<path class="st3" d="M58.3,73.5c0.8,0.3,1.4,1.2,1.4,2.1c0,0.5-0.2,0.8-0.3,0.3C59.2,75.3,58.9,74.1,58.3,73.5L58.3,73.5z"/>
		<path class="st3" d="M58.6,72.9c0.7,0.3,1.2,0.8,1.4,1.5c0,0.4,0,0.6-0.3,0.3C59.6,74.1,59.2,73.4,58.6,72.9L58.6,72.9z"/>
		<path class="st3" d="M63.6,93.7c0.2-0.4,0.8-0.8,1.5-0.5c0.3,0.1,0.3,0.5,0.3,0.8c-0.2-0.2-0.4-0.5-0.6-0.2
			C64.2,93.3,64,93.5,63.6,93.7L63.6,93.7z"/>
		<path class="st3" d="M61.3,93.8c0.2,0,0.3,0.1,0.3,0.3c0,0.1-0.1,0.2-0.3,0.2c-0.1,0-0.3-0.1-0.3-0.2
			C61.1,93.9,61.2,93.8,61.3,93.8z"/>
		<path class="st3" d="M59.8,93.8c0.1,0,0.2,0.1,0.3,0.3c0,0.2,0,0.4,0,0.4c-0.1,0-0.2-0.1-0.3-0.3C59.8,94.1,59.8,93.8,59.8,93.8
			L59.8,93.8z"/>
		<path class="st3" d="M60.3,93.7c0,0,0.1,0.1,0.2,0.3c0,0.1,0,0.3,0,0.3c0,0-0.1-0.1-0.2-0.3C60.3,93.9,60.3,93.8,60.3,93.7z"/>
		<path class="st3" d="M60.5,88.3c0,0-0.1,0.1-0.1,0.1c-0.2,0.2-0.3,0.3-0.4,0.2c-0.1,0,0-0.3,0.1-0.4c0.1-0.1,0.1-0.1,0.2-0.2
			c0,0,0-0.1-0.1-0.1c0,0,0,0.1-0.1,0.1c-0.2,0.2-0.4,0.3-0.5,0.3c-0.1,0,0-0.3,0.1-0.5c0-0.1,0.1-0.1,0.2-0.2c0,0,0-0.1-0.1-0.1
			c-0.2,0.2-0.4,0.3-0.5,0.3c-0.1-0.1,0-0.3,0.1-0.5c0,0,0-0.1,0.1-0.1c-0.1-0.1-0.1-0.1-0.1-0.2c-0.1,0.1-0.2,0.1-0.3,0.1
			c0,0,0-0.2,0.1-0.4c-0.1-0.2-0.1-0.3,0-0.4c0.3-0.2,0.4,0.1,0.6,0.6c0.1,0.2,0,0.3,0.1,0.5c0.1,0.2,0.3,0.3,0.4,0.4
			c0.3,0.5,0.3,0.8,0.2,0.9C60.6,88.7,60.6,88.6,60.5,88.3L60.5,88.3z"/>
		<path class="st3" d="M60.5,88.7c0.1,0.1,0,0.3-0.2,0.6c-0.2,0.3-0.4,0.4-0.5,0.3c-0.1-0.1,0-0.3,0.1-0.6
			C60.1,88.8,60.4,88.7,60.5,88.7z"/>
		<path class="st3" d="M65.6,86.3c0,0,0,0.3-0.1,0.5c-0.1,0.3-0.3,0.4-0.3,0.4c0,0,0-0.3,0.1-0.5C65.4,86.4,65.6,86.2,65.6,86.3z"/>
		<path class="st3" d="M65,86c0.1,0,0,0.4-0.1,0.8c-0.2,0.3-0.4,0.6-0.5,0.6c-0.1,0-0.1-0.4,0.1-0.8C64.6,86.2,64.9,86,65,86z"/>
		<path class="st3" d="M63.5,85.4c0.1,0,0,0.3-0.1,0.6c-0.1,0.3-0.3,0.5-0.4,0.5c-0.1,0,0-0.3,0.1-0.6
			C63.3,85.6,63.5,85.4,63.5,85.4z"/>
		<path class="st3" d="M22.8,14.4c0.1-0.6,0.5-0.9,0.9-0.9l0.9,0.2c0.3,0.3,0.3,0.3-0.1,0.4c-0.8-0.1-1.2,0-1.4,0.5
			C22.9,15,22.7,15,22.8,14.4z"/>
		<path class="st3" d="M25.7,16.2c0.1,0,0.2,0.1,0.2,0.3c0,0.1-0.1,0.3-0.2,0.3c-0.1,0-0.2-0.1-0.2-0.3
			C25.5,16.2,25.6,16.2,25.7,16.2z"/>
		<path class="st3" d="M22.7,15.3c-0.3,0.4-0.2,0.8,0.3,1.3l0.7,0.8c0.6,0.4,0.9,0.3,0.8-0.3c-0.1-0.4,0-0.6,0.4-0.6
			c0.3,0,0.4-0.2,0.5-0.4c0.1-0.3,0-0.5-0.3-0.6c-0.5,0.4-1,0.5-1.4,0.6c0.5-0.3,0.9-0.6,1-0.8c0.1-0.1,0.3-0.2,0.5-0.1
			c0-0.2-0.1-0.4-0.4-0.5c-0.6,0-1.2,0.4-1.7,1c0.3-0.7,0.8-1.1,1.6-1.1c0-0.2,0-0.4-0.2-0.5c-0.5,0-0.9,0.1-1.3,0.4L22.7,15.3
			L22.7,15.3z"/>
		<path class="st3" d="M26.1,20.5c1.4,1.3,2.6,2.9,3.5,4.8v1.5L29,25.1c0,1.2,0,2-0.1,1.8l-0.4-2.5l-0.3,1.1L28,23.9
			c-0.2-0.2-0.3,0.8-0.2,2.1c-0.4-0.4-0.3-1.5-0.3-2.7L27,24.5c-0.3-0.6-0.1-1.5,0-2.3c-0.3-0.2-0.4,0.2-0.5,1.5
			c-0.3-0.8-0.2-1.5-0.1-2.3L26.2,22L26.1,20.5L26.1,20.5z"/>
		<path class="st3" d="M36.3,8.7c0.5,0.3,1.1,0.4,1.7,0.4l0,0.3c1,0,2.1-0.5,3.1-1.2c0,0-0.3-0.1-0.5,0c-0.8,0.4-0.7,0.1,0.8-0.6
			c0.2-0.1,0.4,0,0.7-0.1l0.9-0.2c-0.8,0.7-1.5,1.3-2.4,2c-1.2,0.7-2.2,0.8-3.2,0.5c-0.5-0.3-1.1-0.6-1.6-1
			C35.9,8.7,35.8,8.6,36.3,8.7L36.3,8.7z"/>
		<path class="st3" d="M42.1,8.9c0.1,0,0.2,0.1,0.2,0.2c0,0.1-0.1,0.2-0.2,0.2c-0.1,0-0.2-0.1-0.2-0.2C42,9,42.1,8.9,42.1,8.9z"/>
		<path class="st3" d="M43.4,11.4c0.1-0.1,0.2-0.2,0.3-0.1c0.1,0,0.1,0.2,0,0.3c-0.1,0.1-0.2,0.2-0.3,0.1
			C43.3,11.7,43.3,11.5,43.4,11.4z"/>
		<path class="st3" d="M46.4,10.3c0.1,0,0.3,0,0.3,0c0,0.1,0,0.3-0.2,0.3c-0.1,0.1-0.3,0.1-0.3,0C46.1,10.5,46.2,10.4,46.4,10.3z"/>
		<path class="st3" d="M45.7,9.8c0.1-0.1,0.3-0.1,0.3,0c0.1,0,0,0.2,0,0.3c-0.1,0.1-0.3,0.1-0.3,0C45.6,10.1,45.6,9.9,45.7,9.8z"/>
		<path class="st3" d="M41.1,10.7c0.1,0,0.3,0,0.3,0.1c0,0.1-0.1,0.2-0.2,0.2c-0.1,0-0.3,0-0.3-0.1C40.9,10.8,41,10.7,41.1,10.7z"/>
		<path class="st3" d="M42.8,13.8c0.2-0.1,0.4-0.1,0.4,0c0,0.1,0,0.2-0.3,0.3c-0.2,0-0.4,0-0.4,0C42.5,14,42.6,13.9,42.8,13.8z"/>
		<path class="st3" d="M37.4,10.9c0.5,0,1.1-0.2,1.9-0.6l1-0.5c0.5-0.2,0.5-0.2,0.2,0.2c-0.4,0.4-1,0.6-1.3,0.9
			c-0.4,0.3-0.9,0.6-1.8,0.3C36.8,11.2,37,11,37.4,10.9L37.4,10.9z"/>
		<path class="st3" d="M40.3,10.5c0.5-0.5,0.9-0.6,1.6-1c0.7-0.3,1.4-0.4,2.1-0.4c0.5-0.5,1,0.2,0.4,0.7c-0.2,0.2-0.4,0.3-0.6,0.4
			c-0.5,0.4-1.1,0.6-1.7,0.8c-0.8,0.2-0.8,0.1-0.2-0.3c0.2-0.2,0.4-0.3,0.6-0.4c0.5-0.3,1-0.4,1.4-0.4c-0.7-0.5-2.1,0.3-3.5,0.9
			C40.1,11,40,10.8,40.3,10.5L40.3,10.5z"/>
		<path class="st3" d="M44.1,8.3c0.3-0.1,0.5,0,0.9,0c0.5,0.2,0.8,0.5,0.8,0.8c-0.1,0.4-0.3,0.6-0.5,0.7c-0.1-0.7-0.4-1-0.8-1.2
			c-0.2,0-0.3,0-0.4,0L44.1,8.3L44.1,8.3z"/>
		<path class="st3" d="M43.5,8.5c0.2-0.1,0.2-0.1,0.4-0.2v0.3c-0.1,0-0.2,0.1-0.3,0.1C43.4,8.7,43.2,8.6,43.5,8.5L43.5,8.5z"/>
		<path class="st3" d="M42.7,8.1c0.4-0.3,0.8-0.6,1.3-0.7c0.5,0,1,0,1.6,0c1,0.4,0.6,0.7,0,0.5c-0.4-0.3-0.9-0.2-1.5,0
			c0,0.4-0.8,0.1-1.2,0.4C42.6,8.4,42.6,8.3,42.7,8.1L42.7,8.1z"/>
		<path class="st3" d="M45.8,8.2c0.3,0,0.6,0,0.6,0.3c0,0.4,0,0.7-0.3,0.8C46.3,8.6,45.9,8.7,45.8,8.2L45.8,8.2z"/>
		<path class="st3" d="M46.7,8c0.1,0.1,0.1,0.5,0,1l-0.3,0.6c-0.1,0.3,0,0.4,0.2,0.3c0.3-0.2,0.5-0.5,0.5-0.9c0-0.6,0-0.9,0.3-1.1
			C47,7.3,46.6,7.3,46.7,8L46.7,8z"/>
		<path class="st3" d="M44,11.7c0,0.4,1,0.5,1.1,0c0.2-0.5-0.2-0.9,0-1.4C44.5,10.5,44,11,44,11.7z"/>
		<path class="st3" d="M43.8,12.8c0.2-0.4,0.5-0.5,1-0.5c0.4,0,0.6,0.1,0.6,0.5c0,0.4,0,0.8,0,1.1c-0.1,0.3-0.2,0.3-0.6,0.3
			c-0.5,0-0.6-0.2-1.1,0.1C44,13.6,43.6,13.3,43.8,12.8L43.8,12.8z"/>
		<path class="st3" d="M45.6,11.2c-0.2-0.3,0-0.5,0.3-0.2c0.3,0.2,0.4,0.5,0.4,0.8c0,0.3-0.3,0.5-0.5,0.3S45.8,11.6,45.6,11.2
			L45.6,11.2z"/>
		<path class="st3" d="M45.8,12.8c-0.1-0.4,0-0.5,0.5-0.3c0.3,0.3,0.4,0.5,0.2,0.7c0.3,0.3,0.3,0.8,0,1.3c-0.2-0.2-0.5-0.1-0.6-0.3
			c0-0.2-0.2-0.1-0.1-0.7C45.9,13.2,45.9,13,45.8,12.8L45.8,12.8z"/>
		<path class="st3" d="M46.4,16.2c0.2,0,0.3,0.1,0.3,0.3s-0.2,0.2-0.3,0.2c-0.2,0-0.3-0.1-0.3-0.3C46.1,16.3,46.2,16.2,46.4,16.2z"
			/>
		<path class="st3" d="M43.8,15.8c0.2,0,0.4,0.1,0.3,0.3c0,0.1-0.2,0.3-0.4,0.2c-0.2,0-0.4-0.1-0.3-0.3
			C43.4,15.9,43.6,15.8,43.8,15.8z"/>
		<path class="st3" d="M47,15.4c-0.3-0.4-0.9-0.7-1.8-0.8c-0.6-0.1-1.4,0.1-2.2,0.3c-0.5,0.5-0.6,1.3-0.5,2.3l0.4,0.1l-0.3,0.3h0.5
			l-0.3,0.4l0.3,0.1l-0.2,0.5l0.3,0.2L42.8,19l0.3,0L43,19.4l0.3,0l-0.1,0.3l0.3,0.1c0.2,0.3,0.5,0.5,0.8,0.7
			c0.3,0.1,0.5,0.1,0.8,0.1c0.5-0.4,0.6-0.7,1-1.2c0.1,0,0.2-0.3,0.2-0.7c0.3-0.1,0.3-0.3,0.3-0.6l0.2-0.3v-1
			c-0.3,0.1-0.4,0.1-0.6,0.1l-0.6-0.3l-0.2,1.3c0,0.3-0.1,0.6-0.4,0.5l-0.7-0.3c-0.2-0.1-0.1-0.3,0.1-0.4l0.3,0v-1.1
			c-0.4,0.1-0.9,0.2-1.3-0.1c-0.2-0.1-0.3-0.1-0.5-0.1c0.1-0.3,0.3-0.5,0.5-0.6L43,15.3c0.1,0,0.3,0,0.4,0c0.6,0,0.9-0.1,1,0
			s0.3,0.3,0.5,0.4l0-0.3c0.1-0.3,0.4-0.4,0.8-0.3L45.7,16l1.3-0.4L47,15.4L47,15.4L47,15.4z M43.9,18.8c0.4-0.1,0.8-0.1,1.2,0
			c0.7,0.2,0.7,0.4,0.1,0.8c-0.4,0-0.8,0-1.2-0.1C44,19.3,44.2,19.2,43.9,18.8L43.9,18.8L43.9,18.8z M44.4,19.1
			c0.2-0.1,0.4-0.1,0.7,0c0.1,0.1,0.1,0.2,0,0.3c-0.2,0-0.3,0-0.5,0C44.4,19.3,44.5,19.2,44.4,19.1L44.4,19.1z"/>
		<path class="st3" d="M44.5,17.8c0.1,0,0.1,0,0.1,0.1c0,0,0,0.1-0.1,0.1c0,0-0.1,0-0.1-0.1C44.4,17.8,44.5,17.8,44.5,17.8z"/>
		<path class="st3" d="M45.2,15.9c0-0.1,0-0.2,0-0.3c0.2-0.2,0.3-0.3,0.3-0.1c0,0.2,0,0.3,0,0.4H45.2z"/>
		<path class="st3" d="M44.9,17.9c0-0.5,0.1-1,0.2-1.7h0.3c0,0.5-0.1,1-0.3,1.8C45.1,18.2,45,18.1,44.9,17.9z"/>
		<path class="st3" d="M41.7,15c0-0.3,0.3-0.3,0.3,0c0.1,0.6,0,1-0.3,1.3c-0.2,0.1-0.5,0-0.3-0.3C41.7,15.7,41.8,15.4,41.7,15z"/>
		<path class="st3" d="M41.4,17.4c-0.1-0.4,0.2-0.5,0.3-0.1c0.3,1.1,0.8,2.2,1.9,3.3c0.5,0.4,0,0.7-0.5,0.3
			C42,20,41.7,18.7,41.4,17.4L41.4,17.4z"/>
		<path class="st3" d="M45.6,20.9c0-0.3,0.1-0.7,0.5-1c0.3-0.2,0.3,0.1,0.2,0.3C46.1,20.5,45.9,20.5,45.6,20.9z"/>
		<path class="st3" d="M34.7,25.5c0-0.3,0.1-0.5,0.3-0.7c-0.1,0-0.2-0.1-0.3-0.2c-0.2,0.5-0.5,0.8-0.9,1.4c0.3-0.9,0.6-1.5,1.2-2.2
			c-0.1,0.3-0.2,0.5-0.3,0.8c0.1,0.1,0.2,0.2,0.3,0.3c0.1-0.1,0.2-0.2,0.2-0.3c0,0.1,0,0.3,0,0.4h0l0,0.1l0,0
			C35,25.2,34.9,25.3,34.7,25.5L34.7,25.5z"/>
		<path class="st3" d="M34.2,26.3c0-0.3,0.1-0.4,0.3-0.6C34.4,26,34.4,26.1,34.2,26.3z"/>
		<path class="st3" d="M36.4,26.6c0-0.2,0.1-0.3,0.1-0.5l0,0l0.1-0.1c0,0,0-0.1,0.1-0.2c0.1-0.1,0.2-0.2,0.3-0.3
			C36.9,26.1,36.8,26.3,36.4,26.6L36.4,26.6z"/>
		<path class="st3" d="M36.3,27.8c-0.1-0.4,0-0.7,0.5-1C36.8,27.5,36.8,27.7,36.3,27.8z"/>
		<path class="st3" d="M37.3,27.5c0.4-1,0.5-1.5,0.3-2.7C38.1,25.9,38,26.3,37.3,27.5z"/>
		<path class="st3" d="M44.2,31.3c0.2-0.9,0.3-1.7,0.3-2.6c-0.1,0-0.1,0-0.2,0.1c0,0.5-0.2,1-0.4,1.7c0.1-0.5,0.2-1.1,0.2-1.6
			c-0.1,0-0.2,0.1-0.3,0.1c0,0.4-0.2,0.8-0.3,1.3c0.1-0.5,0.1-0.9,0.1-1.3c-0.1,0-0.3,0-0.4,0c0,0.5-0.1,1.1-0.3,1.9
			c0-0.6,0-1.3,0-1.8h-0.4c0,0.6-0.1,1.3-0.2,2.1c0-0.8,0-1.5-0.1-2.2c-0.1,0-0.3,0-0.4-0.1c0,0.7-0.1,1.3-0.2,2.3
			c0-0.8-0.1-1.5-0.1-2.3c-0.1,0-0.3-0.1-0.4-0.1c0,0.6-0.2,1.3-0.3,2.1c0-0.8,0-1.4,0-2.2c-0.1,0-0.3-0.1-0.4-0.1
			c0,0.8-0.1,1.6-0.2,2.5c-0.1-1.1-0.2-1.8-0.1-2.6c-0.1,0-0.3-0.1-0.3-0.2c-0.2,1-0.3,1.9-0.2,2.9c-0.3-1.3-0.3-2.1,0-3
			c-0.1-0.1-0.2-0.1-0.3-0.2c-0.1,0.3-0.3,0.7-0.6,1.1c0.2-0.4,0.3-0.8,0.4-1.2c-0.1-0.1-0.3-0.2-0.4-0.3c-0.1,0.5-0.3,1.1-0.8,1.8
			c0.5-1.3,0.6-2.6,0.6-4.2c0.1,0.6,0.2,1.1,0.2,1.6c0.2,0.1,0.3,0.1,0.5,0.2c0.1-0.7,0.1-1.4,0.1-2.2c0.2,0.9,0.3,1.6,0.2,2.2
			c0.1,0,0.3,0.1,0.4,0.1c0-0.1,0.1-0.2,0.2-0.3c0,0.1-0.1,0.3-0.1,0.4c0.1,0,0.2,0,0.3,0c0.1-0.3,0.1-0.5,0.3-0.9c0,0.3,0,0.6,0,1
			c0.1,0,0.2,0,0.3,0c0-0.2,0-0.5,0-0.7c0.1,0.3,0.1,0.5,0.1,0.8c0.1,0,0.3,0,0.4,0v-1c0.1,0.4,0.2,0.7,0.2,1c0.2,0,0.3,0,0.5,0
			c0-0.3,0-0.6,0-1c0.1,0.4,0.1,0.7,0.2,1h0.4v-1.5c0.2,0.6,0.3,1,0.3,1.5c0.1,0,0.3,0,0.4,0c0-0.3-0.1-0.7-0.1-1.1
			c0.2,0.4,0.3,0.7,0.3,1c0.1,0,0.2,0,0.3,0c0-0.4-0.1-0.8-0.2-1.2c0.2,0.4,0.3,0.8,0.4,1.1c0.1,0,0.2,0,0.3,0
			c-0.1-0.6-0.1-1.2-0.3-1.9C45.1,27.7,45.1,28.8,44.2,31.3L44.2,31.3z"/>
		<path class="st3" d="M45.4,28.5l0.2,0.4l0.6-0.5c0.2-0.2,0.3-0.2,0.5,0.1l0-0.7c0.2-0.1,0.4,0,0.5,0.2c0.1-0.2,0.1-0.4,0-0.6
			l0.1-0.8c-0.3-0.5-0.6-0.9-1-1c0.2,0.5,0.2,0.8,0.1,1.2c0-0.5-0.3-0.9-0.7-1.1c0.2,0.3,0.3,0.7,0.2,1c-0.1-0.1-0.2-0.3-0.4-0.4
			l0.1,0.5l-0.3,0.2C45.3,26.8,45.4,28.5,45.4,28.5z"/>
		<path class="st3" d="M49.2,25.5c0,0.1,0,0.2-0.1,0.2s-0.2-0.1-0.3-0.2H49.2z"/>
		<path class="st3" d="M49,24.8c0.1,0.2,0.2,0.4,0.2,0.5h-0.5c-0.1-0.1-0.2-0.3-0.3-0.4c0,0,0,0,0-0.1C48.4,24.8,49,24.8,49,24.8z"
			/>
		<path class="st3" d="M48.2,24c0.1,0,0.4,0.3,0.6,0.6h-0.5C48.1,24.3,48.1,24,48.2,24z"/>
		<path class="st3" d="M47.9,25.5c0,0,0.2,0.1,0.4,0.4c0.1,0.3,0.2,0.5,0.1,0.5c0,0-0.2-0.1-0.3-0.4C47.9,25.7,47.9,25.5,47.9,25.5
			L47.9,25.5z"/>
		<path class="st3" d="M47.2,25.3c0,0,0.3,0.2,0.5,0.5c0.2,0.3,0.3,0.6,0.2,0.6c0,0-0.3-0.2-0.5-0.5C47.2,25.6,47.1,25.4,47.2,25.3z
			"/>
		<path class="st3" d="M33.6,23.7c0.1,0.1,0.2,0.2,0.3,0.2c0,0,0.1-0.1,0.2-0.2c0,0.3-0.1,0.4-0.3,0.6c0-0.1,0.1-0.3,0.1-0.3
			C33.8,23.9,33.7,23.8,33.6,23.7L33.6,23.7z"/>
		<polygon class="st3" points="29.8,65.8 29.7,66.4 29.5,66.3 29.6,65.8 		"/>
		<path class="st3" d="M16.8,84.4c0.5-0.2,0.7,0,0.8,0.7c0.5,0.4,0.8,0.8,0.8,1.1c1,0.8,0.8,1.1-0.5,1c-0.4-0.1-0.7-0.4-0.7-1
			C17.2,86.1,16.8,84.4,16.8,84.4z"/>
		<path class="st3" d="M17,87.6c-0.3,0.5-0.3,1.1,0.2,1.6c0.3,0.3,0.5,0.4,0.8,0.4l-0.2-0.5l0.5,0.3c0-0.3-0.2-0.5-0.7-0.9l0.6,0.2
			c0-0.3-0.3-0.6-0.8-0.9h0.4C17.7,87.3,17.4,87.2,17,87.6L17,87.6z"/>
		<path class="st3" d="M18.7,87.9c0.2,0,0.3,0.2,0.3,0.4c0,0.3,0,0.5-0.2,0.5c-0.1,0-0.3-0.2-0.3-0.4C18.4,88.2,18.5,87.9,18.7,87.9
			L18.7,87.9z"/>
		<path class="st3" d="M27.2,59.1c0-1.3,0.6-2.6,1.3-4C28,56.5,27.5,57.8,27.2,59.1z"/>
		<path class="st3" d="M30.2,51.3c-0.5,0.2-0.5-0.2-0.2-0.5c0.8-0.7,1.7-0.9,2.7-0.9h1.8c0.7,0,0.6,0.7,0,0.6h-1.3
			C32.1,50.5,31.1,50.8,30.2,51.3L30.2,51.3z"/>
		<path class="st3" d="M34,50.7c0.5,0,0.8,0.1,0.8,0.2c0,0.1-0.4,0.2-0.8,0.2s-0.8,0-0.8-0.2C33.2,50.8,33.6,50.7,34,50.7z"/>
		<path class="st3" d="M37.5,41.8c-0.1-0.1-0.3,0.2-0.6,0.6c-0.3,0.3-0.4,0.7-0.4,0.7c0,0,0.3-0.2,0.5-0.6
			C37.4,42.1,37.5,41.8,37.5,41.8z"/>
		<path class="st3" d="M34.5,44.7c-0.2,0.4-0.1,0.6,0.3,0.8c1.7,0.5,3.3,0,5-1l2.1-1c0.4-0.5,0.3-0.6-0.2-0.4l-1,0.5l0.3-0.8
			c-0.5,0.4-0.9,0.8-1.1,1.3l-0.2-0.4c-0.3,0.2-0.5,0.5-0.5,0.9L38.8,44c-0.2,0.1-0.4,0.3-0.5,0.5l0.1-0.6c-0.2-0.1-0.4,0.2-0.8,0.8
			l0.2-0.6c-0.1-0.1-0.3,0.1-0.6,0.8l0.7-2c-0.3,0-0.8,0.8-1.3,2.1c-0.2,0-0.3,0-0.3-0.2l0.8-1.5c-0.4,0-0.8,0.5-1.3,1.5l0.6-1.7
			l-1.1,1.4V44C35,44.1,34.8,44.3,34.5,44.7L34.5,44.7z"/>
		<path class="st3" d="M34.8,72c-0.2-0.2,0.1-0.3,0.2-0.3l0.5,0.5c0.1,0.1-0.2,0.3-0.3,0.3L34.8,72L34.8,72z"/>
		<path class="st3" d="M35.1,71.7c-0.1-0.1,0.1-0.3,0.2-0.2l0.4,0.4c0.1,0.1-0.1,0.3-0.2,0.2L35.1,71.7z"/>
		<path class="st3" d="M35.4,71.3c-0.2-0.2,0.1-0.4,0.3-0.3l0.5,0.5c0.1,0.1-0.2,0.3-0.3,0.2L35.4,71.3L35.4,71.3z"/>
		<path class="st3" d="M35.6,70.7c-0.2-0.2,0.2-0.5,0.4-0.4l0.8,0.8c0.2,0.2-0.3,0.5-0.4,0.4L35.6,70.7z"/>
		<path class="st3" d="M36.4,70c-0.3-0.3,0.1-0.6,0.3-0.4l0.9,0.8c0.3,0.2-0.1,0.6-0.3,0.4L36.4,70L36.4,70z"/>
		<path class="st3" d="M36.9,69.6c-0.2-0.2,0-0.5,0.3-0.3l0.8,0.7c0.2,0.2-0.1,0.5-0.3,0.4L36.9,69.6L36.9,69.6z"/>
		<path class="st3" d="M37.7,69.3c-0.2-0.2,0-0.4,0.2-0.3l0.7,0.6c0.2,0.2-0.1,0.5-0.3,0.3C38.3,70,37.7,69.3,37.7,69.3z"/>
		<path class="st3" d="M34.3,64.6c0-0.2-0.3-0.1-0.4,0l-0.1,0.8c0,0.2,0.4,0.1,0.4,0L34.3,64.6z"/>
		<path class="st3" d="M33.2,65.6c0-0.3-0.4-0.2-0.4,0l0.1,0.6c0,0.3,0.4,0.1,0.4,0L33.2,65.6z"/>
		<path class="st3" d="M31.9,66.4c0-0.3-0.3-0.2-0.3,0l0,0.5c0,0.3,0.3,0.2,0.3,0V66.4z"/>
		<path class="st3" d="M33.5,65.4c0.1,0,0.2,0.1,0.2,0.2s-0.1,0.2-0.2,0.2c0,0-0.1-0.1-0.1-0.2S33.5,65.4,33.5,65.4z"/>
		<path class="st3" d="M32.4,66.1c0.1,0,0.2,0.1,0.2,0.3c0,0.2-0.1,0.3-0.2,0.3c-0.1,0-0.2-0.1-0.2-0.3
			C32.2,66.3,32.2,66.1,32.4,66.1z"/>
		<path class="st3" d="M31.3,66.9c0-0.3-0.3-0.3-0.3,0v0.5c0,0.3,0.4,0.2,0.4,0L31.3,66.9L31.3,66.9z"/>
		<path class="st3" d="M40.4,35.1c0.1,0,0.2,0.1,0.2,0.3s-0.1,0.3-0.2,0.3c-0.1,0-0.2-0.2-0.2-0.3S40.3,35.1,40.4,35.1z"/>
		<path class="st3" d="M40.9,35.9c-0.1,0-0.1-0.2-0.1-0.5c0-0.3,0-0.5,0.1-0.5c0.1,0,0.2,0.2,0.2,0.5C41.1,35.7,41,35.9,40.9,35.9z"
			/>
		<path class="st3" d="M41.7,35.7c0.2,0,0.4,0.1,0.4,0.2c0,0-0.2,0.1-0.4,0.1c-0.2,0-0.3-0.1-0.3-0.1C41.4,35.8,41.6,35.7,41.7,35.7
			z"/>
		<path class="st3" d="M42.1,36.4c0.1,0,0.2,0.1,0.2,0.2c0,0.1-0.1,0.2-0.2,0.2c0,0-0.1-0.1-0.1-0.2C42,36.5,42.1,36.4,42.1,36.4z"
			/>
		<path class="st3" d="M42.8,36.4h1.5c0.5,0,0.6,0.3,0.3,0.7c0.2,0.8-0.9,1.4-0.8,0c-0.1-0.3-0.4-0.4-1-0.4
			C42.6,36.7,42.6,36.4,42.8,36.4L42.8,36.4z"/>
		<path class="st3" d="M40.4,46.2c0.1,0,0.2,0.1,0.2,0.2c0,0.1-0.1,0.3-0.2,0.3c-0.1,0-0.2-0.1-0.2-0.3
			C40.2,46.3,40.3,46.2,40.4,46.2z"/>
		<path class="st3" d="M39.7,46.5c0.1,0,0.3,0.1,0.3,0.3c0,0.1-0.1,0.3-0.3,0.3c-0.2,0-0.3-0.1-0.3-0.3
			C39.5,46.6,39.5,46.5,39.7,46.5z"/>
		<path class="st3" d="M40.6,46.9c0.5-0.4,1.1-0.6,1.2-0.5c0.1,0.1-0.3,0.5-0.9,1c-0.6,0.4-1.1,0.6-1.2,0.5
			C39.6,47.7,40,47.3,40.6,46.9L40.6,46.9z"/>
		<path class="st3" d="M42.6,45.6c0.3-0.3,0.7-0.5,0.7-0.4c0.1,0.1-0.2,0.4-0.5,0.7c-0.3,0.3-0.7,0.5-0.7,0.4
			C42,46.2,42.2,45.9,42.6,45.6z"/>
		<path class="st3" d="M41.3,48.8c0.1-0.3,0.3-0.6,0.4-0.8l-0.1,0c0.1-0.5,0.5-0.9,1-1.1l0.1,0c0.2-0.2,0.4-0.3,0.6-0.4
			c-0.1,0.2-0.2,0.4-0.3,0.6l0.1,0.1c0.3-0.3,0.7-0.5,1.1-0.7c-0.3,0.3-0.5,0.6-0.8,0.8l0.3,0.2c0.4-0.3,0.8-0.6,1.2-0.8
			c-0.3,0.3-0.6,0.6-0.9,0.9l0.3,0.2c0.4-0.3,0.8-0.5,1.3-0.6c-0.2,0.2-0.4,0.3-0.6,0.5c0.3-0.1,0.6-0.1,1-0.1
			c-0.5,0.3-0.9,0.3-1.3,0.5l0.3,0.2c0.4-0.3,0.9-0.4,1.3-0.4c-0.3,0.2-0.6,0.4-1,0.5l0.3,0.2c0.4-0.2,0.8-0.3,1.2-0.3
			c-0.3,0.1-0.6,0.3-0.9,0.4l0.2,0.1c0.4-0.2,0.8-0.3,1.1-0.3c-0.3,0.1-0.6,0.3-0.9,0.4l0.3,0.1c0.3-0.1,0.7-0.1,1-0.1
			c-0.3,0.1-0.5,0.1-0.8,0.3l0.9,0.5L47.5,50l-1.3-0.5c-0.1,0-0.1,0-0.2,0.1c0,0,0-0.1,0.1-0.1l-0.3-0.1c-0.2,0.1-0.4,0.2-0.6,0.3
			c0.1-0.2,0.2-0.3,0.3-0.4l-0.3-0.1c-0.2,0.1-0.4,0.2-0.6,0.3c0.1-0.1,0.2-0.3,0.3-0.4l-0.3-0.1c-0.3,0.2-0.5,0.3-0.7,0.5
			c0.1-0.2,0.3-0.4,0.4-0.5l-0.5-0.2c-0.2,0.2-0.4,0.4-0.6,0.5c0-0.2,0.2-0.5,0.3-0.6L43,48.4c-0.2,0.2-0.5,0.4-0.7,0.6
			c0.1-0.3,0.3-0.5,0.4-0.7l-0.7-0.3C41.9,48.3,41.6,48.6,41.3,48.8L41.3,48.8z"/>
		<path class="st3" d="M36.6,50.1c-0.5,1.1-1.1,2.8-1.5,6.2c-0.2,1.5-0.3,3,0,4.6c0.2,0.8,0.5,1.1,0.9,1.1l6.3-1
			c0.5-0.1,0.9-0.5,0.7-0.9l-0.3-0.5l-0.2,0.7l-0.3-0.6l-0.3,0.7l-0.4-0.8l-0.3,1l-0.4-0.8l-0.2,0.8l-0.2-0.7l-0.3,0.9L39.9,60
			l-0.3,1L39.3,60l-0.3,0.7l-0.3-0.5l-0.2,0.5l-0.3-0.4c-0.3-0.1-0.6-0.1-0.9,0l-0.1,0.2l-0.2-0.2c-0.5-0.1-1-0.2-1.4-0.3l0.6-0.3
			c0-0.2-0.2-0.3-0.6-0.3l0.6-0.5l-0.7-0.1l0.6-0.4c0-0.2-0.2-0.3-0.7-0.5l0.7-0.2v-0.2l-0.7-0.1l0.7-0.3c0.1-0.2-0.1-0.3-0.6-0.5
			l0.6-0.2c0-0.2-0.1-0.4-0.5-0.5l0.5-0.2l-0.5-0.4l0.6-0.3c0-0.2-0.1-0.3-0.5-0.5l0.7-0.3c0-0.1-0.2-0.3-0.6-0.5l0.6-0.2l-0.5-0.3
			l0.6-0.3l-0.5-0.2l0.5-0.3c0.1-0.1-0.1-0.3-0.5-0.3l0.6-0.3l0-0.3l-0.6,0.1l0.3-0.3l-0.4-0.3l0.9-0.2l0.1-0.2l-0.6-0.2l0.5-0.3
			C37,50.2,36.8,50.1,36.6,50.1L36.6,50.1L36.6,50.1z M37.5,51l0.1,0c-0.5,3-0.8,5.8-0.4,8.4c-0.2-4,0.3-8.2,1-9l0.1,0.3
			c-0.9,3.2-1,6.1-0.4,8.6c-0.4-4.4,0-6.9,0.7-8.2v0.4c-0.6,3.1-0.6,5.5-0.1,7.6l0.2-0.1c-0.4-3.2-0.2-5.7,0.3-8.2l0.3,0
			c-0.6,3.2-0.6,5.8-0.2,8.1l0.2-0.2c-0.3-3.3-0.3-5.6,0.2-7.7l0.3,0c-0.5,3.2-0.5,5.7-0.1,7.8l0.2,0c-0.3-3.5-0.2-6,0.3-7.8
			l0.2,0.2c-0.3,2.8-0.3,5.2,0,7.5l0.2-0.1c-0.1-3-0.3-5.4,0.1-7.2l0.2-0.3c-0.3,2.2-0.3,4.7,0.1,7.5h0.2c-0.3-3.3-0.2-5.8,0.1-7.8
			l0.2,0.1c-0.2,2.6-0.2,5,0,7.7l0.2,0c-0.2-3.6,0-6.1,0.3-7.6c0.3-0.1,0.3,0.3,0,0.8c-0.2,2.2-0.3,4.4,0,6.8l0.3,0
			c-0.3-3.5,0-5.5,0.3-7.5c0.2-0.2,0.4,0,0.2,0.5c-0.3,2.4-0.5,4.2-0.2,6.9H43c0.3,0.1,0.4,0.3,0,0.4c-2.1,0.4-4,0.8-5.9,0.9
			c-0.4,0-0.5-0.2-0.5-0.7C36.5,56.2,36.9,53.5,37.5,51L37.5,51L37.5,51z M44.5,52.7l0.3-1.3c0.3-0.2,0.4-0.1,0.4,0.3L44.5,52.7
			L44.5,52.7L44.5,52.7L44.5,52.7z M44,51.4c-0.3,2.1-0.3,3.4-0.5,5.5l0.2,0.4c0-2.4,0.4-4,0.7-5.8C44.5,51.1,44.2,51,44,51.4
			L44,51.4L44,51.4z M43.4,51.3c0.1-0.2,0.3-0.1,0.3,0.1c-0.3,1.8-0.5,4-0.6,6.4H43C42.8,55.4,42.9,53.3,43.4,51.3
			C43.4,51.3,43.4,51.3,43.4,51.3z M34.6,65c0-0.7,0-1.4,0.3-2.1c0.1-0.3,0.4-0.5,0.9-0.5l5.6-0.8c0.3,0,0.3,0.1,0.3,0.5
			c-0.1,0.5-0.2,1-0.4,1.5c-0.2,0.2-0.3-0.5-0.2-1.6c-0.4,1-0.3,2.1-0.9,2.2c-0.3-0.5,0.2-1.3,0.3-2c-0.6,0.6-0.4,1.3-1,2.1
			c-0.2,0-0.2-0.7,0-1.8c-0.3,0.8-0.5,1.5-0.8,1.8c-0.2-0.3-0.2-0.9-0.1-1.5c-0.3,1.1-0.5,1.8-0.8,2c-0.1-0.6,0-1.2,0-1.8l-0.1-0.1
			c-0.2,1-0.3,1.7-0.6,2c-0.2-0.6-0.3-1.3,0.1-1.9h-0.3c-0.2,0.5-0.3,1-0.5,1.2c-0.3,0-0.5-0.4-0.5-1C35.5,64,35.1,64.7,34.6,65
			L34.6,65z"/>
		<path class="st3" d="M45.3,53.1c-0.3,0.3-0.5,0.5,0.2,0.5c-0.5,0.4-0.5,0.7-0.1,0.8c-0.8,1-0.8,1.3,0,0.9
			c-0.9,1.2-0.8,1.3-0.2,1.1c-0.8,1-0.7,1.1-0.4,1.1c-0.5,0.8-0.5,1.1,0,1.1c-0.4,0.2-0.7,0.5-0.8,1.2c-0.2,0.7-2,1.4-0.5,2.1
			c0.5,0.3,0.8,0.9,1.1,2c0.1,0.6,0.4,0.6,0.9,0.4c0.4-0.1,0.8-0.2,1.3-0.2c0.8,0.1,0.8-0.8,0-0.9c0.1-0.3-0.2-0.5-0.7-0.3
			c0.4-0.6-0.1-0.5-0.3-0.5c0.3-0.1,0.2-0.4-0.5,0l-0.1-0.2c0.4-0.1,0.5-0.3,0.5-0.6l-1.1,0.4c0.3-0.3,0.5-0.5,0.5-0.7l-0.8,0.2
			c0.8-0.6,1.2-1,1.1-1.2l-0.9,0.3c0.6-0.5,1-0.9,1-1.2l-0.8,0.3c0-0.3,0.3-0.5,1-0.7c0.5-0.3,0.8-0.6,0.7-1l-1.1,0.5
			c0.9-0.8,1.7-1.6,1.9-2.1c-0.1-0.3-1,0.3-2.2,1.3v-0.2c1.2-0.8,2.1-1.7,2.7-2.8l-2.2,1.7l2-2.4c-0.1-0.3-0.7,0-1.8,1.2l0.1-0.3
			l1-1.1c0.8-0.5,1.3-1,1.6-1.8c0.2-0.5-0.5,0.2-1.6,1.1c-0.3,0.3-0.5,0.4-0.8,0.7l2.6-2.7l0-0.3C48.3,50.6,46.7,52.5,45.3,53.1
			L45.3,53.1L45.3,53.1z M42.2,63.5c-0.5-0.3,0-1,0.4-0.7l1.3,0.9c0.4,0.3,0,0.8-0.3,0.6L42.2,63.5L42.2,63.5z M42.7,62.7
			c-0.5-0.3,0.1-0.9,0.4-0.6l0.7,0.7c0.4,0.3,0.1,0.6-0.2,0.5L42.7,62.7L42.7,62.7L42.7,62.7z M45.4,65.2c-0.3-0.2-0.5,0.1-0.3,0.3
			c0.5,0.5,1.1,0.8,1.8,1.1c0.6,0.3,1.3,0.4,1.9,0.4c0.5,0,0.7-0.3,0.1-0.4C47.8,66.3,46.7,66,45.4,65.2L45.4,65.2z M45.8,65.2
			c-0.2-0.3-0.2-0.5,0.1-0.6l1.5-0.1c0.3,0,0.5,0.2,0.8,0.5l0.7,0.8c0.3,0.4,0,0.7-0.3,0.6C47.7,66,46.7,65.7,45.8,65.2z"/>
		<path class="st3" d="M47.3,61.2c0.3-0.5,0.6-0.8,1.2-1c1.4-0.2,2.9-0.5,4.2-1c0.4-0.3,0.6-0.2,0.5,0.3c-0.1,1.3-0.3,2.4-0.7,2.7
			v-2.3l-0.2,0c-0.1,1.1-0.3,2-0.6,2.3l0.1-2.1h-0.2l-0.5,2.1l0.1-1.8c0-0.3-0.1-0.3-0.2-0.2c-0.3,2.1-0.7,3-1.1,3.3
			c0.4-1.3,0.4-2.3,0.3-3.1l-0.1-0.1c-0.1,1.1-0.3,2.1-0.7,2.9c-0.4-0.6,0.4-1.7,0.2-2.8h-0.1l-0.8,2.6c-0.3,0-0.2-0.3,0.1-1
			l0.1-1.5L49,60.8c-0.2,0.8-0.4,1.4-0.7,1.9l0.1-1.9l-0.5,1.4l0-1.1L47.3,61.2L47.3,61.2L47.3,61.2z M53.5,59.6
			c0-0.5,0.5-0.3,0.3,0.1l-0.3,0.6h-0.1L53.5,59.6L53.5,59.6L53.5,59.6z M53.4,61.3c0,0,0.1,0.1,0.1,0.3s0,0.3-0.1,0.3
			s-0.1-0.1-0.1-0.3S53.3,61.3,53.4,61.3L53.4,61.3z M53.6,60.7c0.1,0,0.1,0,0.1,0.2c0,0.1,0,0.2-0.1,0.2s-0.2-0.1-0.2-0.2
			C53.4,60.8,53.5,60.7,53.6,60.7L53.6,60.7z M53.5,58.2c0.1,0,0.2,0.2,0.3,0.4s0,0.4-0.1,0.4c0,0-0.2-0.1-0.2-0.3
			C53.5,58.4,53.5,58.2,53.5,58.2L53.5,58.2L53.5,58.2z M52.9,56.9c0.4,0.4,0.4,0.7,0.4,1c0,0.4-0.4,0.7-0.4,0.4
			c0-0.4,0-0.8-0.3-1.3C52.4,56.9,52.7,56.8,52.9,56.9L52.9,56.9L52.9,56.9z M49.8,56.2c0-0.4,0.4-0.1,0.4,0.2L50.1,57
			c-0.1,0.1-0.2,0-0.3-0.2L49.8,56.2L49.8,56.2L49.8,56.2z M48.4,58.4c-0.3,0.2-0.3,0.4,0,0.5l0.2,0v0c0,0.2,0.1,0.3,0.2,0.3
			s0.2-0.1,0.2-0.3v-0.1l0.4-0.1v0.8c-0.1,0-0.3,0-0.4,0.1c0-0.1-0.1-0.1-0.1-0.1c-0.1,0-0.2,0.1-0.2,0.2c0,0,0,0,0,0.1
			c-0.1,0,0,0,0.2,0.2l2.8-0.6c0.8,0,1-0.6,0.8-1.6c0.1-0.3,0-0.5-0.3-0.4l-0.6-0.1l0.4-0.3c0.5-0.3,0.5-0.4,0.1-0.4l-0.9-0.1
			l0.7-0.1c0.2,0,0.3-0.3,0-0.4l-0.8-0.1l0.6-0.1c0.4-0.3,0.2-0.5-0.5-0.6c0.3-0.3,0.2-0.5-0.1-0.5c-0.1-0.3-0.5-0.5-0.4,0l0.2,2.8
			c0.1,0.3,0,0.5-0.4,0.6L48.4,58.4L48.4,58.4L48.4,58.4z M50,57.3c0.1,0,0.2,0.1,0.2,0.2s-0.1,0.2-0.2,0.2c-0.1,0-0.2-0.1-0.2-0.2
			S49.9,57.3,50,57.3L50,57.3z M51.7,58.2C51.7,58.2,51.7,58.2,51.7,58.2c0.1,0.2,0,0.2,0,0.2S51.6,58.3,51.7,58.2
			C51.6,58.2,51.6,58.2,51.7,58.2L51.7,58.2z M51.5,57.6c0.2,0,0.3,0,0.3,0.1c0,0.1-0.1,0.2-0.3,0.3c-0.2,0-0.3,0-0.3-0.1
			C51.2,57.8,51.3,57.6,51.5,57.6L51.5,57.6z M49.5,59.4L49.5,59.4l0.1-0.8l-0.2,0.1L49.5,59.4L49.5,59.4L49.5,59.4z M50,59.3
			c0.1,0,0.1,0,0.2,0v-0.8l-0.4,0.1L50,59.3L50,59.3L50,59.3z M50.5,59.1c0,0,0.1,0,0.1-0.1v-0.7l-0.2,0L50.5,59.1L50.5,59.1
			L50.5,59.1z M50.9,59c0,0,0.1,0,0.1,0c0.3-0.3,0.3-0.5,0-0.6h-0.1V59L50.9,59z"/>
		<path class="st3" d="M57.4,19.2c-3.5-0.3-5.2,0.8-6.1,2c-0.8,1-1.2,2.1-1.3,3.4c0.1,0.2,0.5-0.3,1-1l-0.3-0.1
			c0.1-0.3,0.2-0.5,0.4-0.7c0.1-0.1,0.1-0.3,0.3-0.5c0.3-0.1,0.4-0.4,0.4-0.5h-0.3c1-1.2,2.3-1.5,3.8-1.4c0.4,0,0.8,0.1,1.2,0.1
			c0.2,0,0.4,0,0.5-0.1c0.1-0.1,0.2-0.2,0-0.2c-1.3-0.2-2.7-0.1-4,0.2c1-0.6,2.4-0.7,4.3-0.6C58.1,19.9,58.2,19.3,57.4,19.2
			L57.4,19.2L57.4,19.2z M51.3,41.7c0.1,0.1,0.2,0.3,0.1,0.6c-0.1,0.3-0.3,0.5-0.4,0.4c-0.2,0-0.2-0.3-0.1-0.6
			C51,41.8,51.1,41.6,51.3,41.7L51.3,41.7L51.3,41.7z M48.3,42.9c0,0,0.1,0.2,0.1,0.4c0,0.3-0.1,0.4-0.1,0.4c-0.1,0-0.1-0.2-0.1-0.4
			C48.2,43.1,48.2,42.9,48.3,42.9L48.3,42.9z M48.5,44.4c0.1-0.8,0.5-1.5,1.2-2c0.6-0.4,0.7-0.3,0.3,0.3c-0.4,0.5-0.7,1.2-1,1.8
			C48.8,44.8,48.4,45.1,48.5,44.4L48.5,44.4L48.5,44.4z M50.3,41.2c-0.6,0.2-1,0.6-1.3,1.1c-0.2,0.5-0.1,0.5,0.3,0.2
			c0.4-0.4,0.8-0.7,1.3-1C50.6,41.3,50.8,41.1,50.3,41.2L50.3,41.2z M46.7,44c-0.3,0.4-0.3,0.5,0.3,0.3c0.8-1.2,1.3-2,1.8-2.3
			l1.4-1.3c1.1-0.3,1.7-1.4,1.9-3.4L52,37.1c-0.5,1.4-1.2,2.4-2,2.9c-0.8,0.5-1.4,1.2-2,2c-0.3,0.3-0.3,0.5-0.5,0.9
			C47.3,43.3,46.9,43.6,46.7,44L46.7,44L46.7,44z M46.3,43.1c-0.3,0.5,0,0.6,0.2,0.3c1-1.3,1.6-2.3,2.6-3.1c0.9-0.7,2.3-2,2.8-3.7
			c0.3-1,0-1.3-0.3-0.7c-0.5,1.5-1.2,2.9-2.2,3.7C48.4,40.4,47.2,41.5,46.3,43.1L46.3,43.1L46.3,43.1z M46.2,41.7
			c-0.2,0.4-0.3,0.7-0.1,0.9c0.8-0.3,0.5-1.5,2.5-2.6c0.3-0.3,0.2-0.5-0.3-0.3L46.6,41c0.6-1,1.3-1.8,2.2-2c0.6-0.1,1.1-0.3,1.6-0.9
			c0.2-0.5,0.1-0.6-0.2-0.4c-1.1,0.8-2.1,1-3,1.7c-0.8,0.7-1.3,1.5-1.5,2.5L46.2,41.7L46.2,41.7L46.2,41.7z M46.1,39.3
			c0.3-0.7,1.3-1.2,2.6-1.6c0.9-0.3,1.6-0.9,2.2-1.7c0.7-0.4,0.5,0,0.3,0.4c-0.3,0.4-0.4,0.5-0.8,0.8c-0.5,0.4-1.3,0.8-1.8,1
			c-0.7,0.3-1.4,0.7-2,1.4C46.1,40,46,39.9,46.1,39.3L46.1,39.3L46.1,39.3z M48.1,36.9c0.6-0.4,1.2-0.8,1.6-1.4
			c0.6-0.8,0.8-0.9,0.7,0c-0.2,0.7-0.7,1.5-1.7,1.8C47.7,37.7,47.5,37.3,48.1,36.9L48.1,36.9L48.1,36.9z M50.7,35l0.3-1.5
			c0-0.6,0.3-1.1,0.6-1.6l0.5-1.3c0.1-0.5,0.3-0.5,0.3,0.2l-0.3,0.8c0.3,0.1,0.1,0.4,0,0.6c0,0.3,0,0.6-0.3,0.7
			c-0.1,1.1-0.2,2.1-0.5,2.4C50.7,35.9,50.5,35.8,50.7,35C50.7,35,50.7,35,50.7,35z M48.7,34.8l0.7-1.6c0.2-0.6,0.5-0.9,0.8-1
			l0.9-0.9c0.2-0.3,0.3,0.1,0.2,0.3l-0.7,1.1c-0.1,0.9-0.5,1.7-1.3,2.6c-0.2,0.2-0.5,0.2-0.3-0.1l0.8-1.6l-1,1.4
			C48.6,35.4,48.5,35.1,48.7,34.8L48.7,34.8L48.7,34.8z M47.5,35.4c0.4-1,0.5-1.5,0.9-1.9c0.5-0.5,0.6-0.4,0.3,0.1
			c-0.2,0.4-0.5,1-0.5,2.1C48.2,36.6,47.1,36.4,47.5,35.4C47.5,35.4,47.5,35.4,47.5,35.4z M47.4,34.1c0,0.3,0.1,0.3,0.3,0l0.4-1
			c0.4-0.4,1-0.8,1.5-1.5c0.3,0.4,0.7,0,1.4-0.9c0.9-0.4,1.3-1.1,1.5-1.9c0.2-0.7,0.1-0.8-0.4-0.4c-0.7,0.9-1.2,1.2-1.4,1.8
			c-0.8,0.3-1.4,1.1-2.4,1.5c-0.3,0.2-0.3,0.4-0.3,0.8C47.7,32.7,47.5,33.1,47.4,34.1L47.4,34.1L47.4,34.1z M47.5,32
			c0.1-0.1,0.3-0.2,0.3-0.1c0.1,0.1,0.1,0.3,0,0.4c-0.1,0.2-0.3,0.2-0.4,0.1C47.4,32.3,47.4,32.1,47.5,32L47.5,32z M52.2,24.8
			c0.6-0.7,1.3-1.2,2-1.5c0.8-0.3,0.8,0.3,0.2,0.3c-0.4,0-1,0.4-2,1.6C52.1,25.5,51.8,25.2,52.2,24.8C52.2,24.8,52.2,24.8,52.2,24.8
			z M46.6,33.4c-0.1-1.5,0.2-2.4,0.9-2.9c1.9-1.2,2.6-2.9,3.2-2.9c0.6-1.1,1.6-2.2,2.7-3.3c0.8-0.6,1-0.5,0.5,0.5
			c-1.2,1.7-2.4,3.8-3.5,4.4c-0.5,0-0.9,0.3-1.2,0.8l0.8-0.4c0.4,0,0.4,0.1,0.2,0.3c-0.6,0.3-1.7,2-1.9,0.9
			c-0.4,0.8-1.1,0.7-1.2,1.5l-0.1,1C46.9,33.7,46.8,33.7,46.6,33.4L46.6,33.4L46.6,33.4z M54.1,22.4c0.4,0,0.5,0.2,0.3,0.5
			c-0.9,0.4-1.8,1.1-2.6,2.1c0.1,0.4-0.1,0.7-0.5,1c0,0.6-0.4,0.9-1,1l-0.9,1.2c0.2,0.3-0.1,0.8-0.8,1.4c-0.4,0.5-0.6,0.3-0.5-0.4
			c0.5-1.4,1.5-3.4,1.9-3.4c0.3,0,0.3-0.1,0.3-0.5c0-0.3,0.4-0.3,0.3,0c0,0.3,0,0.4,0.3,0.1C51.9,23.6,53,22.7,54.1,22.4L54.1,22.4
			L54.1,22.4z M51.3,22.8c0.8-0.9,2.1-1.5,4.5-1.4c0.5,0,0.4,0.5,0,0.5c-0.4,0-0.8,0.1-1.2,0.2c-0.5,0.1-1,0.2-1.4,0.4
			c-0.8,0.5-1.6,1.2-2.3,2.3c-0.3,0.1-0.3,0-0.2-0.3c0.8-1.5,1.8-2.3,2.9-2.4l0-0.1c-0.6-0.1-1.3,0.1-2.4,1.1
			C51.2,23.3,51.2,23.2,51.3,22.8L51.3,22.8z M52.2,21.5c0.9-0.6,2-0.9,3.2-0.8c0.8,0.1,0.8,0.5,0.3,0.5c-1.2-0.2-2.3-0.1-3.4,0.4
			C51.9,21.9,52,21.7,52.2,21.5L52.2,21.5z"/>
		<path class="st3" d="M58.1,18c-0.3-0.4-0.1-0.6,0.4-0.5c1.3,0.3,2.4,0.4,3.2,1c0.4,0.3,0.1,0.6-0.2,0.4l-0.9-0.5
			c0,0.4-0.3,0.2-0.8-0.2c-0.3,0.3-0.8,0.2-1.2-0.3l0.3,0.8c0,0.2-0.1,0.2-0.2,0L58.1,18L58.1,18L58.1,18z M59.9,18.7
			c-0.2,0.1,0,0.4,0.2,0.5c0.2,0.2,0.4,0.1,0.3-0.2C60.3,18.8,60.1,18.6,59.9,18.7z"/>
		<path class="st3" d="M62.6,19.8c-0.1-0.1-0.4-0.2,0-0.3c-0.4-0.3-0.3-0.6,0-0.6c1.1,0,2-0.7,3.3,0l0.6,0.7c0.4,0.9,0,1.3-0.5,0.7
			c-0.3-0.4,0-0.7-0.7-1c0.3,0.6,0.6,1.3,0.6,2c1,0.9,0.1,1.1-0.2,0.5L65.4,20c0.1,0.8,0.1,1.5,0,1.5c-0.3,0-0.1-0.6-0.3-1.3
			c-0.1-0.3-0.2-0.8-0.3-0.9c-0.7-0.3-1.4,0-1.9,0c0.9,0,1.5,0,1.8,0.3c0.3,0.4,0.3,0.9,0.2,1.3c-0.2,0.3-0.3,0.3-0.3-0.2l-0.1-0.5
			c0-0.3-0.4-0.3-0.8-0.3C63.2,19.9,62.9,20,62.6,19.8L62.6,19.8z"/>
		<path class="st3" d="M50.9,51.2c1.3,2.2,2.9,4.4,4.7,6.4c0.2,0.3,0-0.5,0.2-0.2c0.4,0.8,1,1.5,1.2,1.8c0.3-0.2-0.5-0.9-0.7-1.8
			l2.4,2.8c0.2-0.4-1.2-2-2.3-3.4l0.2-0.2l2.7,3.6l0.1,0c-0.4-1.2-1.7-2.6-2.5-3.9l0.1-0.3c0.5,0.6,1.2,1.6,1.7,2.4
			c0.8,1.1,1.5,2.1,1.7,2.2c1,0.3-2.4-3.3-4-6.3l0-0.2c1.8,2.8,3.5,5.4,5.3,6.6c0.2,0.1,0.4-0.1,0.2-0.4c-1.6-1.9-3.6-4-4.8-5.9
			l0.1-0.2c1.8,2.1,2.7,4.5,6.1,6.5c0.2,0.1,0.3,0.3,0.5,0.2c0.8-0.6-2.9-1.5-5.7-6.2l0-0.3c1,1.4,1.2,1.8,2.2,2.9
			c1.3,1.5,3.4,3.2,3.8,2.9c0.3-0.3-3-2.6-4.8-5.4l0.1-0.1c1.4,2,3.4,4.4,6.4,5.9c0.4,0.2,0.3,0.2,0.8,0.2c1.3,0.1-2.9-2.1-5.1-4.5
			l0-0.2c0.6,0.5,1.4,1.3,2.3,2c1,0.8,2.1,1.4,3,1.9c0.8,0.4,1.4,0.7,1.7,0.5c0.8-0.4-2.9-1.7-3.8-2.6c0.5,0.3,1.1,0.5,1.5,0.7
			c1.6,0.8,2.7,1.3,3,1c0.2-0.2-0.7-0.7-2.1-1.2c-0.2-0.2,0-0.2,0.4-0.1c1.7,0.7,2.6,1.1,2.9,1c0.5-0.2-0.3-0.5-1.3-1.2
			c1.3,0.5,2.4,1,2.9,0.9c0.2,0-0.7-0.5-1.5-1.3c1.1,0.7,3.8,1.7,1.3-0.1l0.2-0.1c1,0.7,2.2,1,0.7-0.2h0.2c0.8,0.7,1.3,1.2,0.7-0.2
			c0.8,1.2,1.7,1.7,0.5-0.1l1.3,1c-0.5,0.2-0.4,0.3,0,0.6c1.1,0.7,1.2,0.6,1,0c0.1-1.1-0.3-1.9-1-2.4c-0.8-0.5-0.8,0.1,0.2,1.6
			c-0.4-0.3-0.7-0.6-0.9-1c-0.2-0.3-0.5-0.5-1-0.5c-2,0-3.9,0.4-5.8,0.7c-1.4,0.2-2.5,0-3-0.3c-0.5-0.4-0.7-0.6-0.4-1
			c0.2-0.4,0-0.7-0.3-0.8l-1.3-2.7c0.2,0.3,0.4,0.4,0.5,0.7c0.5,0.9,0.9,1.6,1,1.5c-0.2-0.6-0.9-1.9-1.5-3.4c1,1.8,2,3.4,2.2,3.2
			c-0.1-0.7-1-2.1-1.8-3.5c0.3,0.3,0.3,0.3,0.5,0.5c0.3,0.4,0.6,0.8,0.8,0.7c-0.7-1.4-1.4-2.3-2.1-2.5c-1.2-0.4-1.9-0.6-1.7,0.2
			l-0.6-0.7l-0.6-0.1c-0.2,0.1,0.1,0.4,0.5,1.1L60,50l-0.7-1.1c-0.2-0.1-0.5-0.3-0.5,0l0.4,0.8l-0.8-0.9c-0.4-0.2-0.8-0.3-0.8-0.1
			l1.2,1.9c-0.2-0.3-0.5-0.6-0.8-1c-0.5-0.6-0.8-1.1-1.4-1.2c-0.5,0,0.5,0.8,1.3,2.6l-1.8-2.6c-0.2-0.1-0.9-0.3-0.9,0l2.1,3
			c-1-1.1-1.9-2-2.5-3.1c-0.1-0.1-0.3-0.1-0.4-0.1c-0.1,0-0.2,0-0.3,0.1l2.6,3.3c-0.5-0.5-1-1-1.4-1.4c-0.5-0.8-1-1.3-1.5-1.9
			c-0.2-0.2-0.5-0.1-0.5,0c-0.2,0.3,1.9,2.5,2.9,3.8c-1.3-1.2-2.3-2.4-3.2-3.8c-0.4-0.2-0.7-0.2-0.8,0c-0.1,0.3,2.6,2.9,3.7,4.5
			c-1.4-1.5-2.8-2.9-4-4.5c-0.2-0.2-0.7-0.2-0.7,0c0,0.4,2.4,2.6,4.3,5.2c-1.4-1.5-3.1-3.5-3.8-4c-0.3,0,0.8,1.4,3.5,4.5
			c-1.3-1.2-2.6-2.5-3.7-3.9c-0.3,0.3,1.1,2.1,3.3,4.5L51.2,51C50.7,50.7,50.6,50.8,50.9,51.2L50.9,51.2L50.9,51.2z M65.2,50.4
			c-0.3-0.4,0.1-0.6,0.5-0.1c0.7,1.1,1.3,2.1,1.8,3.2c0.2,0.5-0.1,0.6-0.3,0.2C66.6,52.4,65.9,51.4,65.2,50.4
			C65.2,50.4,65.2,50.4,65.2,50.4z M63.9,50c-0.2-0.3,0.3-0.5,0.8,0c1,1.3,1.8,2.7,2.5,4.1c0.4,0.8,0,1-0.4,0.3
			C66,52.7,64.9,51.3,63.9,50L63.9,50z"/>
		<path class="st3" d="M57.9,21.5c0,0.8,0.4,1.7,1.2,2.4c0-0.1-0.4-0.7-0.6-1.2C58.2,22.1,58,21.6,57.9,21.5
			C57.9,21.5,57.9,21.5,57.9,21.5z M60.5,47.8c-0.1-1.2-0.8-2.1-2.1-3.1c0,0.3,0.9,1,1.4,1.9C60.3,47.4,60.3,47.6,60.5,47.8
			L60.5,47.8L60.5,47.8z M60.4,46.5c-0.2-0.1-0.3-0.6-0.7-1.3c-0.4-0.7-1.1-1.4-1.2-1.6C59.6,44.4,60.4,45.5,60.4,46.5
			C60.4,46.5,60.4,46.5,60.4,46.5z M60.3,44.9c-0.1-0.1-0.3-0.5-0.5-1c-0.3-0.5-0.9-1.1-0.9-1.3C59.7,43.3,60.2,44.1,60.3,44.9
			L60.3,44.9L60.3,44.9z M60.1,43.3c0-0.5-0.4-1.1-1-1.5c0,0.1,0.4,0.5,0.6,0.8C59.9,43,60,43.2,60.1,43.3L60.1,43.3L60.1,43.3z
			 M59.5,20.2c-0.2,0.7,0,1.7,0.7,2.6c0-0.2-0.2-0.8-0.4-1.4C59.6,20.9,59.6,20.3,59.5,20.2C59.5,20.2,59.5,20.2,59.5,20.2z
			 M52,47.3c-0.6,0-0.8-0.1-0.8-0.7C51.5,46.9,51.8,47,52,47.3L52,47.3z M51.2,46.2c0.4,0.4,0.8,0.7,1.3,1.1
			c0.2,0.1,0.4,0.1,0.6-0.1c-0.7-0.7-1.3-1.1-2-1.8C51.1,45.7,51.1,46,51.2,46.2L51.2,46.2L51.2,46.2z M51,45
			c0.9,0.9,1.5,1.4,2.4,2.3c0.3,0.1,0.4,0.1,0.5,0c-1-1.2-1.8-2.1-2.8-3.4C51,44.3,51,44.7,51,45L51,45L51,45z M51.2,43.7
			c1.1,1.3,2.1,2.4,3.3,3.7c0.3,0.2,0.6,0.2,0.7,0c-1.1-1.4-2.5-3-3.7-4.5c-0.1,0.2-0.1,0.4-0.2,0.5C51.2,43.6,51.2,43.6,51.2,43.7
			L51.2,43.7L51.2,43.7z M51.5,42.6c1.4,1.6,2.7,3.1,4.3,4.9c0.2,0.1,0.4,0.1,0.6,0c-0.2-0.2-1.2-1.4-1.3-1.6
			c-1.2-1.5-1.9-2.3-3.3-4C51.6,42.2,51.6,42.5,51.5,42.6L51.5,42.6L51.5,42.6z M51.7,41.8c1.5,1.7,2.1,2.4,3.7,4.4
			c0.2,0.3,1,1.1,1.2,1.3c0.2,0.4,0.9,0.4,0.6,0.1c-0.3-0.3,0-0.1-0.4-0.6c-1.3-1.6-3.6-4.3-4.9-6C51.9,41.3,51.8,41.5,51.7,41.8
			L51.7,41.8L51.7,41.8z M51.9,40.8c0-0.3,0.1-0.5,0.1-0.7c1.3,1.6,3.7,4.6,5.2,6.3c0.8,0.9,0.7,0.9,1.1,1.3c0,0.2-0.2,0.1-0.5,0
			c-0.4-0.4-0.3-0.4-0.7-0.9C55.4,44.9,53.5,42.5,51.9,40.8L51.9,40.8L51.9,40.8z M52.1,39.9c0.1-0.3,0.1-0.6,0.1-0.9
			c1.3,2.1,3.3,4.3,5.4,6.3c-0.2-0.8-2.9-3.2-4.5-5.3c-0.3-0.6-0.6-1.1-0.8-1.6c0-0.3,0-0.5,0.1-0.8c1.1,2.3,2.9,4.5,5.5,6.6
			c-0.3-0.8-2.9-2.9-4.3-5.1c-0.5-0.9-0.9-1.6-1.1-2.2v-0.4c1.1,2.3,3.1,4.6,5.5,6.6c-0.3-0.8-2.9-2.9-4.3-5.1
			c-0.5-0.9-0.9-1.6-1.1-2.2v-0.4c1.1,2.2,3.5,5.1,5.8,7.1c-0.3-0.7-3.3-3.4-4.5-5.4c-0.5-1-0.9-1.7-1.1-2.3v-0.6
			c0.9,2.2,3.3,5.1,5.6,7c-0.3-0.7-3.2-3.1-4.3-5.1c-0.6-1-1-1.8-1.2-2.4c0-0.2,0-0.5,0-0.6c0.8,2.2,3,4.9,5.4,6.7
			c-0.3-0.6-2.9-2.8-4-4.7c-0.7-1.2-1-2-1.3-2.6c0-0.3,0-0.5,0-0.7c0.7,2.2,2.8,4.8,5.1,6.7c-0.2-0.6-2.7-2.6-3.8-4.4
			c-0.8-1.3-1-2.2-1.3-2.8v-0.1c0-0.3,0-0.5,0.1-0.8c0.5,2.2,2.5,5,4.9,6.9c-0.2-0.5-2.5-2.5-3.4-4.2c-0.9-1.5-1.1-2.5-1.4-3
			c0.7-6.1,3.3-9.6,7-10.3l0.1,0c-0.1,0.7,0,1.6,0.4,2.4c0.1-0.2-0.1-1-0.2-1.7V20l0.3,0.1c0,0.8,0.3,1.6,0.7,1.7
			c-0.3-0.5-0.3-1-0.3-1.5l0.5,0.1c0,0.9,0.3,1.8,0.7,1.9c-0.4-0.5-0.4-1.2-0.3-1.7l0.1,0c0.1,0.3,0.2,0.7,0.4,0.8
			c0.2-0.2,0.1-0.6,0-1.1c0.5-0.3,1-0.2,1.6,0.2c0.2,0.3,0.1,0.4-0.2,0.4h-0.3l0.7,0.3c0,0.1,0.2,0.2-0.2,0.2l-0.3,0.2l0.9,0.1
			c0.3,0.1,0.3,0.2,0.2,0.3l-0.2,0.3c0.8,0,1.5,0.2,2.5,0.7c0,0.3-0.4,0.3-1.1-0.1c0.2,0.4,0.8,0.5,0.8,0.7c-0.1,0.5-1.1,0-1.5,0.6
			l1.1,0c0.3,0.2,0.2,0.3-0.2,0.3c0.6,0.7,1,0.9,1.2,0.4c0.2-0.4,0.3-0.4,0.5,0c0.7,0.4,0.8,0.5,0.4,0.5l-0.7,0.1l0.8,0.1
			c0.2,0.1,0.2,0.3,0.1,0.4c-0.5,0.1-0.6,0.2,0.4,0.2c0.4,0.2,0.6,0.4,0.4,0.6c-0.9,0-0.8,0.2,0.2,0.3c0.3,0.1,0.3,0.3,0.3,0.4
			c-0.5,0.1-0.5,0.3,0.2,0.3c0.1,0.1,0.2,0.2,0,0.3c-0.6,0.2-0.5,0.3,0.3,0.3c0,0.3,0.5,0.3,0.7,0.6c0.7-0.1,1,0.3,0.4,0.3l0,0.1
			c1,0,1.4,0.3,1.3,0.9c-0.1,0.3-1.4-0.5-0.8,1.5l0.2,0.2c0.4,0.1,0-0.9,0.6-0.8c0.1,0,0.2,0.3,0,0.8c-0.1,0.5-0.4,0.7-0.9,0.4
			c-0.4-0.3-0.7-0.6-0.6-0.9l0-0.6c-0.5,0-0.5-0.3-0.6-0.7c0-0.1-0.2,0-0.1-0.2c-0.8-0.1-1.1,0.1-1.3,0.7c0,0.2-0.2,0-0.3-0.2
			c0-0.1-0.3,0-0.4,0c-0.1,0-0.1-0.3-0.2-0.3c-0.1,0-0.1,0.1-0.3,0.1c-0.1,0-0.1-0.3-0.3-0.1c-0.2,0.2-0.2,0.2-0.3-0.1
			c0-0.2,0.2-0.6-0.3,0c-0.2,0.1-0.2,0.1-0.3-0.1c-0.3-0.7-0.4-0.8-0.5-0.1c-0.1,0.3-0.3,0.3-0.3-0.1c-0.3-1.1-0.3-1.1-0.2,0
			c0,0.5-0.2,0.4-0.4-0.1c-0.3-0.9-0.4,0.1-0.6-0.3c-0.3-0.5-0.1-1.2-0.6-1.4l0.3,1.5c0,0.2-0.3,0.3-0.4-0.1c-0.2-1-0.8-2.6-0.7-2.1
			l0.4,2c0,0.2-0.4,0.1-0.5-0.2l-0.5-2.5c-0.1-0.7-0.1,1.3,0.2,2.2c0,0.1-0.3,0.1-0.3,0c0-0.2-0.4-2.6-0.5-2.5
			c-0.3,0.3,0.5,2.7-0.1,2.3c-0.1,0-0.3-2.4-0.4-2.5c0,0,0,2.3-0.1,2.3c-0.7-0.8,0-3.1-0.4-3.2c-0.1,0-0.3,2.8-0.4,2.7
			c0.3,2.1,2,2.2,1.9,2.9l-1.2-0.6c0.3,0.6,0.8,1.3,1.2,2c-0.4,0.1,0,0.6,0.3,0.9c-0.4,0-0.3,0.2,0.4,0.9c0.2,0.1,0.2,0.3,0.2,0.4
			c-0.9-0.2-1-0.2,0.5,0.9C63,35,63,35.1,64,35.8c0.2,0.1,0.4,0.4,0.4,0.6c0,0.2-0.1,0.1-0.2,0.1c-0.2-0.1-0.4-0.3-0.5-0.3
			c-0.3,0-0.1,0.3,1.1,1.2c0.3,0.3,0.4,0.5,0.2,0.5c-1.4-0.9-1.3-0.7,0.2,0.7c0.4,0.6,0.4,0.8,0.3,0.9c-1.3-1-2.1-1.7,0.1,0.5
			c0.4,0.4,0.5,0.6,0.2,0.7c-2.2-1.6-1-0.5,0.5,1c0.1,0.1,0,0.2-0.1,0.2c-2.1-1.5-2.2-1.2,0,1.1c0.1,0.2,0.2,0.4,0.1,0.5
			c0,0.1-0.2,0-0.3,0c-1.5-1.4-1.4-1.1,0.3,1.2c0.3,0.4,0.4,0.7,0,0.5c-1.9-2.1-2.5-2.6,0,0.7c0.3,0.4,0.3,0.6,0,0.5
			c-1.7-2.4-1.8-2.1-0.1,0.5c0.1,0.3,0.1,0.3,0,0.3c-1.5-1.9-2-2.4-0.1,0.4c0.3,0.5,0.2,0.6,0,0.3c-1.9-2.4-1.9-2.1-0.1,0.4
			c0.2,0.3,0.3,0.5,0,0.3c-2.2-2.5-2.2-2.4-0.1,0.3c0,0.7,0,0.6-0.4,0.3c-0.2-0.3-0.2-0.5-0.4-0.7c-1.3-1.6-1.5-1.5,0.1,0.6
			c-0.2,0.2-0.4,0.2-0.6,0c-1.4-1.8-1.5-1.8-0.4-0.1l-0.8-0.1c-0.1-0.3-0.3-0.4-0.4-0.5c-1.3-1.3-1.8-1.4-0.5,0.3c0,0-0.1,0.1,0,0.1
			l-1.5-0.3c-0.2,0-0.4-0.1-0.5-0.3c-0.6-1.1-1-1.5-2.1-2.5c0.1,0.4,0.9,1,1.5,2.1c0.2,0.7-0.6,0.4-0.8,0.3
			c-0.5-0.6-0.6-0.7-1.3-1.5C55.8,44.2,53.7,41.7,52.1,39.9L52.1,39.9L52.1,39.9z M57.1,22.2c0.1,0.1,0.3,0.6,0.6,1.3
			c0.3,0.7,0.8,1.3,0.9,1.5C57.6,24.2,57.1,23.1,57.1,22.2L57.1,22.2L57.1,22.2z M56.5,22.9c0.2,0.2,0.3,0.7,0.7,1.5
			c0.4,0.8,1.1,1.5,1.1,1.8C57.2,25.2,56.5,23.9,56.5,22.9C56.5,22.9,56.5,22.9,56.5,22.9z M55.9,23.7c0.2,0.2,0.3,0.8,0.8,1.6
			c0.5,0.8,1.3,1.7,1.3,2C56.7,26.3,55.9,24.8,55.9,23.7L55.9,23.7z M55.4,24.4c0,1.3,1,2.9,2.4,4c0-0.3-1-1.3-1.5-2.2
			C55.8,25.3,55.6,24.6,55.4,24.4L55.4,24.4z M55,25.2c0.1,1.4,1.1,3.2,2.7,4.5c-0.1-0.3-1.2-1.4-1.8-2.5
			C55.3,26.1,55.2,25.4,55,25.2L55,25.2z M54.5,26c0.1,1.5,1.3,3.4,3,4.8c-0.1-0.4-1.3-1.5-2-2.7C54.9,27,54.8,26.3,54.5,26L54.5,26
			L54.5,26z M54.1,26.8c0.2,1.7,1.5,3.7,3.4,5.3c-0.1-0.4-1.5-1.7-2.2-2.9C54.6,27.9,54.4,27.1,54.1,26.8L54.1,26.8L54.1,26.8z
			 M53.8,27.6c0.2,1.8,1.6,4,3.7,5.7c-0.1-0.5-1.6-1.8-2.4-3.2C54.2,28.8,54.1,27.9,53.8,27.6L53.8,27.6z M53.5,28.4
			c0.2,2,1.7,4.3,4,6.1c-0.2-0.5-1.8-2-2.7-3.4C53.9,29.7,53.8,28.8,53.5,28.4L53.5,28.4L53.5,28.4z M53.1,29.2
			c0.3,2.1,2.1,4.8,4.4,6.7c-0.2-0.5-2.1-2.3-3-3.8C53.6,30.5,53.5,29.6,53.1,29.2L53.1,29.2L53.1,29.2z M58.7,21
			c0.1,0,0.3,0.5,0.5,1c0.2,0.4,0.4,0.9,0.4,1C58.9,22.4,58.6,21.6,58.7,21L58.7,21L58.7,21z M69.7,32.1c-0.5-0.5-0.8,0.1-0.1,0.7
			c0.5,0.5,1.1,0.3,1,0.2L69.7,32.1L69.7,32.1z M66.2,26.8c-0.1,0,0,0.5,0.1,0.8c0,0.3,0.1,0.4,0.3,0.6c0.2,0.2,0.3,0.3,0.2,0.2
			c-0.2-0.5-0.3-0.9-0.4-1.3C66.4,27,66.3,26.9,66.2,26.8L66.2,26.8L66.2,26.8z M65.7,26.2c-0.1,0,0,0.6,0,0.9
			c0,0.3,0.1,0.5,0.3,0.8c0.2,0.2,0.3,0.3,0.2,0.2c-0.2-0.6-0.3-1-0.3-1.5C65.8,26.3,65.7,26.2,65.7,26.2L65.7,26.2L65.7,26.2z
			 M65,25.6c-0.1,0,0,0.6,0,1s0,0.6,0.3,0.9c0.2,0.3,0.3,0.3,0.2,0.2c-0.1-0.6-0.3-1.2-0.3-1.7C65.2,25.7,65.1,25.6,65,25.6L65,25.6
			L65,25.6z M64.4,25c-0.1-0.1,0,0.7,0,1.1c0,0.4,0,0.7,0.2,1c0.2,0.3,0.3,0.4,0.3,0.3c-0.1-0.8-0.3-1.4-0.3-2
			C64.6,25.1,64.5,25,64.4,25L64.4,25L64.4,25z M63.8,24.3c-0.1,0,0,0.8,0,1.3s0,0.8,0.2,1.1c0.2,0.4,0.3,0.5,0.3,0.3
			c-0.1-0.8-0.3-1.5-0.3-2.2C64,24.5,63.9,24.4,63.8,24.3L63.8,24.3L63.8,24.3z M63.2,23.7c-0.1-0.1,0,0.9,0,1.4
			c0,0.4,0,0.8,0.2,1.3c0.2,0.4,0.3,0.5,0.3,0.4c-0.1-0.9-0.3-1.7-0.3-2.5C63.4,23.9,63.3,23.7,63.2,23.7L63.2,23.7L63.2,23.7z
			 M62.7,23.7c0-0.1,0,0.7-0.1,1.1c0,0.4,0,0.7,0.2,1c0.1,0.3,0.2,0.4,0.2,0.3c-0.1-0.8-0.2-1.4-0.2-2
			C62.8,23.9,62.8,23.8,62.7,23.7C62.7,23.7,62.7,23.7,62.7,23.7z M62.2,23.7c-0.1,0-0.1,0.6-0.1,0.9c0,0.3,0,0.5,0.1,0.8
			c0.1,0.3,0.2,0.3,0.2,0.3c0-0.6-0.1-1.1,0-1.5C62.3,23.9,62.2,23.8,62.2,23.7z"/>
		<path class="st4" d="M18.9,8.6c1.3,1.5,2.4,3,3.8,4.8c0,0.3-0.1,0.5-0.5,0.5c-1.4-2-2.4-3.6-3.5-5.1C18.5,8.4,18.8,8.4,18.9,8.6
			L18.9,8.6z M25.3,19.4c0.1,0.3-0.1,0.5-0.4,0.2c-0.5-0.6-0.4-1.4,0.2-2.1c0.6-0.8,1.4-0.8,2.1-0.2c0.4,0.3,0.3,0.4-0.2,0.4
			C25.6,17.6,25,18.3,25.3,19.4L25.3,19.4L25.3,19.4z M26.7,18.7c-0.6-0.2-0.8,0-0.6,0.7c8.4,11.9,21.1,29.2,36.1,49.6l-0.1,0.3
			l1.3,0.7L63,68.3l-0.3,0.2C51.2,52.3,37.8,33.3,26.7,18.7L26.7,18.7z"/>
		<path class="st5" d="M47.1,21.8c0-0.3,1.1-1,2.5-2c0.6-0.5,1.2-0.7,1.8-0.7c0.2,0,0.4,0.1,0.8,0c0.3,0.2,0.2,0.4-0.2,0.5
			c-0.2-0.1-0.3-0.2-0.5-0.1c-0.4,0.1-0.4,0.3-0.7,0.4l-0.2-0.3c-0.5,0.3-0.8,1.3-1.2,1.7L49.3,21c-0.3,0-0.4,0.6-0.8,0.9
			c0-0.3,0-0.5-0.2-0.5C47.7,21.8,47.3,22,47.1,21.8L47.1,21.8L47.1,21.8z M30.4,43.8c0.4,0,0.7,0.1,0.7,0.3c0,0.2-0.3,0.3-0.7,0.3
			c-0.4,0-0.8-0.1-0.8-0.3C29.7,43.9,30,43.8,30.4,43.8L30.4,43.8z M33.3,43.2c0.3-0.4,0.5-0.5,0.6-0.5c0.1,0.1,0,0.5-0.3,0.8
			c-0.3,0.4-0.5,0.6-0.6,0.5C33,44,33.1,43.6,33.3,43.2L33.3,43.2z M32.4,43.7c0.2-0.3,0.4-0.5,0.5-0.4c0.1,0.1,0,0.4-0.2,0.7
			c-0.2,0.3-0.4,0.5-0.5,0.4C32.1,44.3,32.2,44,32.4,43.7L32.4,43.7z M31.5,43.9c0.2-0.3,0.3-0.4,0.4-0.3c0.1,0.1,0,0.3-0.1,0.6
			c-0.2,0.2-0.3,0.3-0.4,0.3C31.3,44.4,31.4,44.1,31.5,43.9C31.5,43.9,31.5,43.9,31.5,43.9z M17.5,40.9l-0.2,0.5
			c0.2,0,0.4-0.3,0.6-0.4l-0.2,0.8c0.3,0,0.8-0.6,1.3-0.9l-0.3,0.8c0.4,0,0.6-0.5,0.9-0.8l-0.2,0.8c0.5,0,0.8-0.6,1.1-1l-0.1,0.8
			c0.3,0,0.6-0.5,0.9-0.8l0.2,0.5c0.3,0,0.5-0.4,0.7-0.5l0.1,0.5l0.6-0.6l0.1,0.5l0.7-0.3l0.2,0.3l0.6-0.3l0,0.6l0.8-0.3l0.1,0.4
			l0.6-0.3v0.5l0.7-0.2l0,0.5l1-0.4l-0.3,0.8l0.9-0.5l-0.1,0.6l1-0.4l-0.5,0.9c0.6,0,0.8-0.4,1.3-0.6L29.7,43
			c0.6-0.1,1.2-0.6,1.7-1.3c0.1,0.2,0,0.5-0.4,1.3c0.7-0.3,1-0.8,1.3-1.3l-0.2,0.9c0.4,0,0.8-0.4,1.2-1l0,0.8c0.3-0.3,0.6-0.6,0.8-1
			c0.4,0.2,0.9-0.1,1-0.8c0.3-0.6,0.1-0.8-0.5-0.6c-1.8,1.3-4.2,1.6-7.7,0.5c-2.3-0.6-4.6-0.7-7-0.8C18.8,39.8,17.9,39.9,17.5,40.9
			L17.5,40.9L17.5,40.9z M22.9,31.9c0.2-0.3,0.5-0.5,0.9-0.8l0.1,0.4l1-0.3l0.1,0.3l1.1-0.6c-0.6,0.8-0.8,1.1-0.5,1.1
			c0.2,0,1-0.9,1.2-0.7c-0.5,0.8,0,0.6,0.9-0.2c0.3,0.1-0.3,0.7-0.3,0.8c0.1,0.1,0.4-0.2,1.1-0.6c0.2-0.1,0.5-0.5,0.6-0.3
			c0,0.3-0.2,0.4-0.3,0.5c-0.7,0.8-0.5,0.7,0.7-0.1c0.2-0.1,0.4-0.3,0.6-0.2c-0.8,1-0.5,0.8,0.7,0.1c0.2-0.1,0.4-0.4,0.6-0.2
			c-1.5,1.3-1.2,1.5,0.7,0.5c-0.9,1-0.7,1,0.7,0.2c0.1,0,0.3,0,0.5-0.1c-0.6,0.6-0.7,1.1-0.4,0.9c0.5-0.2,1-0.5,1.3-0.4
			c-0.6,0.6-0.5,0.8,0.2,0.7c0.3,0.1,0,0.4-0.8,0.9c-0.1,0.2-0.3,0-0.4-0.5c-0.1,0.3-0.2,0.3-0.3,0.1l-0.2,1.1l-0.3,0V34
			c-0.1-0.2-0.3-0.2-0.4,0l-0.2,0.8l-0.4-0.2c-0.1,0.3-0.3,0.6-0.6,0.8c-0.3-0.3-0.4-0.3-0.5,0c-0.2,0-0.3-0.1-0.4,0
			c-0.1,0.4-0.3,0.5-0.5,0.2c-0.3,0.2-0.6,0.4-1,0.8L28.3,36c-0.3,0.4-0.5,0.7-0.7,0.6l-0.3-0.3L26.8,37l-0.8,0.2
			c0,0.2,0.3,0.2,0.8,0.1c0.7-0.1,2-0.4,2.8-0.6c0.8-0.3,1.8-0.4,2.8-0.8c0.8-0.4,1.7-1,2.6-1.5c0.2,0.2,0,0.6-1.7,2l-0.8-0.3
			l0.5,0.6C32.8,37,32.6,37,32.4,37l-0.8-0.4l0.3,0.8c-0.5,0-0.8-0.7-1.3-0.4l0.2,0.6l-1.1-0.3l0.2,0.8l-1-0.4l-0.2,0.4
			c-0.3,0-0.5,0.1-0.5,0.2c2.2,0.4,4.7-0.4,7.2-1.6c0.1,0,0.2,0,0.2,0.3c-0.2,1-0.9,1.9-2.1,2.7l0.3-1.3c-0.8,0.3-1.6,2-2.2,2.2
			l0.7-1.8l-2,1.6c-0.2-0.2,0.1-0.7,0.5-1.3c-0.6,0-1.6,1.4-1.8,1.3c-0.4-0.2,0.3-0.6,0.5-0.9c-0.5,0-0.9,0.5-1.4,0.7
			c0-0.3,0.3-0.5,0.8-1l-1.6,0.8c0-0.3,0.6-0.5,0.8-1c-0.8,0.5-1.4,0.8-1.6,0.8l0.5-0.8l-1.4,0.8l0.9-0.9l-1.5,0.7l0.4-0.8l-1.1,0.7
			l0.5-0.9c-0.5,0.5-1,0.8-1.3,0.8c0.3-0.4,0.5-0.7,0.5-0.9c-0.5,0.4-1,0.7-1.2,0.7l0.2-0.7c-0.4,0.4-0.9,0.7-1.4,0.9l0.5-0.8
			c0.1-0.1,0-0.3-0.1-0.2l-1.1,0.9c0.3-0.5,0.4-0.8,0.2-0.9l-0.8,0.4l0.1-0.5l-0.9,1c-0.1,0,0-0.3,0.2-0.8l-1,0.6
			c0.5-1,1.3-1.7,2.5-2c1.3-0.4,2.4-0.5,3.2-0.6c1.5-0.2,2.4-0.3,3.6-0.9c0.5-0.2,1.2-0.5,1.8-1c0.3-0.3,0.2-0.3-0.2-0.3l-1.5,0.1
			v-0.7l-0.6,0.8l-0.1-0.8l-0.5,1.4l-0.2-1.6l-0.4,1.7l-0.2-1.7l-0.6,1.9l-0.2-2l-0.4,2.1l-0.4-2.1l-0.3,2.1l-0.4-2l-0.2,1.9
			l-0.5-1.9l0,2l-0.6-1.9l-0.1,1.7l-0.4-1.7l-0.2,1.5l-0.3-1.4L21,35.3c-0.6-1.2-0.9-2.1-0.5-2.7C21.1,31.9,22,31.7,22.9,31.9
			L22.9,31.9L22.9,31.9z M27.7,27.3c0.1,0,0.3,0.2,0.3,0.5c0.1,0.3,0.1,0.5,0,0.5c-0.1,0-0.3-0.2-0.3-0.5
			C27.6,27.6,27.6,27.3,27.7,27.3L27.7,27.3z M23.4,26.8c0.6-1,1.1-1.3,1.5-0.5c0.4-1.3,0.9-1.5,1.5-0.3c0.8,0,1,1.2,0.8,3l-0.8-2
			v1.3C25.9,26.1,22.7,27.4,23.4,26.8C23.4,26.8,23.4,26.8,23.4,26.8z M37.3,19.5c0.9,0.1,1.8,0.4,2.7,0.9c0,0.1,0.1,0.2-0.1,0.1
			c-0.3-0.3-0.6-0.4-0.9-0.4c0.1,0.4,0,0.5-0.1,0.5c-0.3-0.6-0.6-0.7-0.9-0.5c-0.1,0-0.1,0.1-0.2,0c-0.3-0.5-0.4-0.5-0.5-0.3
			C37.1,19.6,37.1,19.5,37.3,19.5L37.3,19.5L37.3,19.5z M32.6,19.7c-0.2,0.1-0.2,0.2,0,0.3c0.3-0.3,0.6-0.3,1,0.1
			c0-0.5,0.2-0.5,0.7,0.2c-0.2-0.7,0-0.8,0.7,0.2c0-0.5,0-0.6,0.5,0.3c0.1,0.2,0.3,0.2,0.3,0.1c-0.3-1-0.1-0.9,0.4,0.1
			c0.2,0.2,0.3,0.2,0.3,0.1c0-0.7,0.3-0.5,0.9,0.4c0.2,0.2,0.3,0.3,0.3,0.1c-0.1-0.5,0.1-0.5,0.7,0.2c0.4,0,1,0.3,1.8,1
			c0.1,0.1,0.2,0.2,0.3,0.1c-0.4-0.8,0.1-0.5,0.8,0c0.4-0.2,0.5-0.3,0.2-0.4c-1.4-0.5-2.6-1-3.4-1.7c-1-0.8-1.4-0.5-2.5-1.3
			C34.3,18.9,33.4,19.1,32.6,19.7L32.6,19.7L32.6,19.7z M30.5,21.1c-0.5,0.2-0.5,0.4,0,0.5c0.2,0,0.4,0,0.5,0c0.3,0,0.4,0,0.5,0.3
			c0.2,0.4,0.5,0.6,0.7,0.5c0.1-0.1-0.8-0.8-0.3-0.8h0.3c0.7,0.7,1.4,1,1.3,0.9l-0.3-0.8c-0.1-0.3,0.3-0.1,0.5,0l1,0.8
			c0.1,0.2,0-0.1-0.2-0.7c-0.1-0.2,0.2-0.2,0.3,0c0.6,0.6,1.3,1.6,1.3,1.2v-0.4c0-0.2,0.2-0.2,0.3,0c0.3,0.4,0.8,0.8,0.8,0.6
			L37.1,23c0-0.2,0.1-0.2,0.4,0l1,0.8c0.2,0.2,0.4,0.1,0.3,0l-0.2-0.3c-0.1-0.2,0-0.3,0.2-0.1l0.9,0.6c0.2,0.1,0.2,0-0.1-0.4h0.5
			c0.1,0.3,0.3,0.4,0.8,0.6c0.1,0.1,0.2-0.1,0.4-0.2l1.2-0.4c0.4-0.1,0.3-0.4,0-0.3c-1.8,0.5-3.6-0.4-5.6-1.5
			C34.4,20.5,32.3,20.5,30.5,21.1L30.5,21.1L30.5,21.1z M47.8,22c0.1,0.1,0,0.2-0.1,0.4c-0.1,0.1-0.3,0.2-0.4,0.1
			c0-0.1,0-0.3,0.1-0.4C47.6,22,47.8,22,47.8,22L47.8,22z M49.2,22.4c-0.3-0.2-0.4,0.3,0.1,0.1l0.7-0.6c0.3-0.6,0.1,0.2,0.3,0.1
			c0.3-0.1,0.6-0.8,0.5-1.1l0.6-0.3c0.3-0.3,0.3-0.4-0.2-0.4c-0.5,0.4-1.1,0.9-1.5,1.5L49.2,22.4L49.2,22.4z"/>
	</g>
</g>
</svg>
