<?xml version="1.0" encoding="utf-8"?>
<!-- Generator: Adobe Illustrator 27.0.0, SVG Export Plug-In . SVG Version: 6.00 Build 0)  -->
<svg version="1.1" id="Слой_1" xmlns="http://www.w3.org/2000/svg" xmlns:xlink="http://www.w3.org/1999/xlink" x="0px" y="0px"
	 viewBox="0 0 381 101" style="enable-background:new 0 0 381 101;" xml:space="preserve">
<style type="text/css">
	.st0{fill:#1E272F;}
	.st1{fill:#E30613;}
</style>
<g>
	<path class="st0" d="M123.8,21.9v1.2c2.9,0.2,5.7,1.9,5.7,6.1c0,4.1-2.8,5.8-5.8,6.1v1.2h-2.9v-1.2c-2.9-0.2-5.7-1.9-5.7-6
		c0-4.2,3.2-5.9,5.8-6.2v-1.2H123.8z M120.9,25.1c-1.2,0.2-2.7,1.2-2.7,4c0,2.6,1.5,3.8,2.7,3.9V25.1z M123.8,33.1
		c1.2-0.1,2.7-1.1,2.7-4c0-2.8-1.4-3.8-2.7-4V33.1z"/>
	<polygon class="st0" points="139.5,30.2 134.6,30.2 134.6,33.4 140.1,33.4 140.1,35.9 131.5,35.9 131.5,22.4 139.8,22.4 
		139.8,24.9 134.6,24.9 134.6,27.7 139.5,27.7 	"/>
	<path class="st0" d="M153.1,22.4v11l1.3,0.1l-0.1,5.7h-2.3l-0.2-3.4h-7.9l-0.2,3.4h-2.3l-0.1-5.7l1.1-0.1c0.5-1,1-1.9,1.3-3
		c0.4-1.4,0.5-2.8,0.5-4.5v-3.6H153.1z M147.1,26.7c0,1.6-0.2,3.1-0.6,4.4c-0.2,0.8-0.6,1.6-0.9,2.3h4.5v-8.5h-2.9V26.7z"/>
	<polygon class="st0" points="164.1,30.2 159.2,30.2 159.2,33.4 164.7,33.4 164.7,35.9 156.1,35.9 156.1,22.4 164.4,22.4 
		164.4,24.9 159.2,24.9 159.2,27.7 164.1,27.7 	"/>
	<path class="st0" d="M166.8,22.6c0.9-0.2,2.3-0.3,4.1-0.3c1.9,0,3.2,0.4,4.1,1.1c0.9,0.7,1.4,1.8,1.4,3.1c0,1.3-0.4,2.4-1.2,3.2
		c-1,1-2.6,1.4-4.4,1.4c-0.4,0-0.8,0-1-0.1v4.8h-3V22.6z M169.8,28.7c0.3,0.1,0.6,0.1,1,0.1c1.6,0,2.6-0.8,2.6-2.2
		c0-1.2-0.9-2-2.4-2c-0.6,0-1,0.1-1.3,0.1V28.7z"/>
	<path class="st0" d="M180.3,32.4l-1,3.5h-3.2l4.1-13.4h4l4.2,13.4h-3.3l-1-3.5H180.3z M183.7,30.2l-0.8-2.9
		c-0.2-0.8-0.5-1.8-0.7-2.6h0c-0.2,0.8-0.4,1.8-0.6,2.6l-0.8,2.9H183.7z"/>
	<polygon class="st0" points="193.3,22.4 193.3,33.4 198,33.4 198,22.4 201,22.4 201,33.5 202.4,33.6 202.2,39.3 199.9,39.3 
		199.7,35.9 190.2,35.9 190.2,22.4 	"/>
	<path class="st0" d="M206.8,22.4v4c0,2.2,0,4.3-0.2,6.1h0.1c0.7-1.6,1.6-3.3,2.4-4.8l2.9-5.3h3.1v13.4h-2.8v-4c0-2.1,0-3.9,0.2-5.7
		h-0.1c-0.6,1.6-1.5,3.4-2.3,4.8l-2.7,4.8H204V22.4H206.8z"/>
	<path class="st0" d="M216.7,35.9c0.3-0.4,0.5-1,0.7-1.5c0.5-1.5,0.9-3.1,1.9-4.1c0.3-0.3,0.7-0.5,1.1-0.7v-0.1
		c-1.5-0.3-2.8-1.3-2.8-3.3c0-1.3,0.6-2.2,1.4-2.9c1-0.8,2.7-1.1,4.4-1.1c1.5,0,2.9,0.1,3.9,0.3v13.3h-3v-5.3h-0.7
		c-0.6,0-1.1,0.2-1.4,0.5c-0.9,0.8-1.2,2.5-1.6,3.6c-0.1,0.4-0.2,0.7-0.5,1.1H216.7z M224.1,24.7c-0.2,0-0.6-0.1-1.2-0.1
		c-1.3,0-2.4,0.6-2.4,1.9c0,1.2,1.1,1.9,2.5,1.9c0.4,0,0.8,0,1.1-0.1V24.7z"/>
	<polygon class="st0" points="126.1,46.8 126.1,60.2 123,60.2 123,49.3 118.2,49.3 118.2,60.2 115.2,60.2 115.2,46.8 	"/>
	<path class="st0" d="M130.8,46.8l2,4.7c0.4,1,0.6,1.8,0.9,2.6h0.1c0.2-0.6,0.4-1.5,0.7-2.6l1.5-4.7h3.2l-2.5,6.5
		c-0.8,2.1-1.7,4.1-2.7,5.4c-0.9,1.1-2,1.8-3.6,1.8c-0.7,0-1.1-0.1-1.5-0.2l0.2-2.4c0.2,0.1,0.6,0.1,1,0.1c0.9,0,1.6-0.6,1.8-1.3
		c0.1-0.2,0.1-0.4,0-0.6l-4.5-9.2H130.8z"/>
	<path class="st0" d="M150.1,46.8v13.4h-3V49.3h-3.1v3.2c0,3.4-0.4,6.1-2.5,7.3c-0.7,0.4-1.6,0.7-2.7,0.7l-0.4-2.5
		c0.7-0.1,1.2-0.4,1.5-0.7c0.8-0.8,1-2.6,1-4.6v-5.9H150.1z"/>
	<polygon class="st0" points="160.8,54.5 155.8,54.5 155.8,57.7 161.4,57.7 161.4,60.2 152.8,60.2 152.8,46.8 161.1,46.8 
		161.1,49.3 155.8,49.3 155.8,52.1 160.8,52.1 	"/>
	<path class="st0" d="M163.4,47c0.8-0.2,2.4-0.3,3.9-0.3c1.9,0,3,0.2,4,0.8c0.9,0.5,1.6,1.4,1.6,2.6c0,1.2-0.7,2.3-2.2,2.9v0
		c1.5,0.4,2.7,1.6,2.7,3.3c0,1.2-0.6,2.2-1.4,2.9c-1,0.8-2.6,1.2-5.3,1.2c-1.5,0-2.6-0.1-3.3-0.2V47z M166.5,52.1h1
		c1.6,0,2.5-0.7,2.5-1.7c0-1-0.8-1.6-2.2-1.6c-0.7,0-1,0-1.3,0.1V52.1z M166.5,58.1c0.3,0,0.7,0,1.2,0c1.4,0,2.6-0.5,2.6-1.9
		c0-1.4-1.2-1.9-2.7-1.9h-1V58.1z"/>
	<path class="st0" d="M187.7,53.4c0,4.4-2.7,7.1-6.6,7.1c-4,0-6.3-3-6.3-6.8c0-4,2.6-7,6.5-7C185.5,46.6,187.7,49.7,187.7,53.4
		 M178,53.5c0,2.6,1.2,4.5,3.3,4.5c2.1,0,3.2-2,3.2-4.6c0-2.4-1.2-4.5-3.2-4.5C179.2,49,178,50.9,178,53.5"/>
	<path class="st0" d="M192.5,46.8v4c0,2.2,0,4.3-0.2,6.1h0.1c0.7-1.6,1.6-3.3,2.4-4.8l2.9-5.3h3.1v13.4H198v-4c0-2.1,0-3.9,0.2-5.7
		h-0.1c-0.6,1.6-1.5,3.4-2.3,4.8l-2.7,4.8h-3.5V46.8H192.5z M194.4,43.7c0,0.8,0.2,1.2,0.9,1.2c0.6,0,0.9-0.4,0.9-1.2h2
		c-0.1,1.7-1.2,2.5-3,2.5c-1.8,0-2.8-0.8-2.9-2.5H194.4z"/>
	<path class="st0" d="M211.2,46.8v4c0,2.2,0,4.3-0.2,6.1h0.1c0.7-1.6,1.6-3.3,2.4-4.8l2.9-5.3h3.1v13.4h-2.8v-4c0-2.1,0-3.9,0.2-5.7
		h-0.1c-0.6,1.6-1.5,3.4-2.3,4.8l-2.7,4.8h-3.5V46.8H211.2z"/>
	<path class="st0" d="M236,59.8c-0.6,0.3-1.8,0.6-3.4,0.6c-4.6,0-7-2.9-7-6.7c0-4.6,3.3-7.1,7.3-7.1c1.6,0,2.8,0.3,3.3,0.6l-0.6,2.4
		c-0.6-0.3-1.5-0.5-2.6-0.5c-2.4,0-4.3,1.5-4.3,4.4c0,2.7,1.6,4.4,4.3,4.4c0.9,0,1.9-0.2,2.5-0.4L236,59.8z"/>
	<polygon class="st0" points="241,49.3 237.4,49.3 237.4,46.8 247.7,46.8 247.7,49.3 244.1,49.3 244.1,60.2 241,60.2 	"/>
	<polygon class="st0" points="257.3,54.5 252.4,54.5 252.4,57.7 257.9,57.7 257.9,60.2 249.3,60.2 249.3,46.8 257.6,46.8 
		257.6,49.3 252.4,49.3 252.4,52.1 257.3,52.1 	"/>
	<polygon class="st0" points="263,46.8 263,51.9 268.1,51.9 268.1,46.8 271.1,46.8 271.1,60.2 268.1,60.2 268.1,54.6 263,54.6 
		263,60.2 260,60.2 260,46.8 	"/>
	<path class="st0" d="M284.4,46.8v11l1.3,0.1l-0.1,5.7h-2.3l-0.2-3.4h-7.9l-0.2,3.4h-2.3l-0.1-5.7l1.1-0.1c0.5-1,1-1.9,1.3-3
		c0.4-1.4,0.5-2.8,0.5-4.5v-3.6H284.4z M278.4,51c0,1.6-0.2,3.1-0.6,4.4c-0.2,0.8-0.6,1.6-0.9,2.3h4.5v-8.5h-2.9V51z"/>
	<path class="st0" d="M299.6,53.4c0,4.4-2.7,7.1-6.6,7.1c-4,0-6.3-3-6.3-6.8c0-4,2.6-7,6.5-7C297.4,46.6,299.6,49.7,299.6,53.4
		 M289.9,53.5c0,2.6,1.2,4.5,3.3,4.5c2.1,0,3.2-2,3.2-4.6c0-2.4-1.2-4.5-3.2-4.5C291.1,49,289.9,50.9,289.9,53.5"/>
	<path class="st0" d="M301.6,47c0.8-0.2,2.4-0.3,3.9-0.3c1.9,0,3,0.2,4,0.8c0.9,0.5,1.6,1.4,1.6,2.6c0,1.2-0.7,2.3-2.2,2.9v0
		c1.5,0.4,2.7,1.6,2.7,3.3c0,1.2-0.6,2.2-1.4,2.9c-1,0.8-2.6,1.2-5.3,1.2c-1.5,0-2.6-0.1-3.3-0.2V47z M304.6,52.1h1
		c1.6,0,2.5-0.7,2.5-1.7c0-1-0.8-1.6-2.2-1.6c-0.7,0-1,0-1.3,0.1V52.1z M304.6,58.1c0.3,0,0.7,0,1.2,0c1.4,0,2.6-0.5,2.6-1.9
		c0-1.4-1.2-1.9-2.7-1.9h-1V58.1z"/>
	<path class="st0" d="M325.9,53.4c0,4.4-2.7,7.1-6.6,7.1c-4,0-6.3-3-6.3-6.8c0-4,2.6-7,6.5-7C323.6,46.6,325.9,49.7,325.9,53.4
		 M316.2,53.5c0,2.6,1.2,4.5,3.3,4.5c2.1,0,3.2-2,3.2-4.6c0-2.4-1.2-4.5-3.2-4.5C317.4,49,316.2,50.9,316.2,53.5"/>
	<path class="st0" d="M330.7,46.8v4c0,2.2,0,4.3-0.2,6.1h0.1c0.7-1.6,1.6-3.3,2.4-4.8l2.9-5.3h3.1v13.4h-2.8v-4c0-2.1,0-3.9,0.2-5.7
		h-0.1c-0.6,1.6-1.5,3.4-2.3,4.8l-2.7,4.8h-3.5V46.8H330.7z M332.5,43.7c0,0.8,0.2,1.2,0.9,1.2c0.6,0,0.9-0.4,0.9-1.2h2
		c-0.1,1.7-1.2,2.5-3,2.5c-1.8,0-2.8-0.8-2.9-2.5H332.5z"/>
	<path class="st0" d="M125.7,84.4c-0.6,0.3-1.8,0.6-3.4,0.6c-4.6,0-7-2.9-7-6.7c0-4.6,3.3-7.1,7.3-7.1c1.6,0,2.8,0.3,3.3,0.6
		l-0.6,2.4c-0.6-0.3-1.5-0.5-2.6-0.5c-2.4,0-4.3,1.5-4.3,4.4c0,2.7,1.6,4.4,4.3,4.4c0.9,0,1.9-0.2,2.5-0.4L125.7,84.4z"/>
	<polygon class="st0" points="130.6,73.9 127,73.9 127,71.3 137.4,71.3 137.4,73.9 133.7,73.9 133.7,84.8 130.6,84.8 	"/>
	<path class="st0" d="M139,71.5c0.9-0.2,2.3-0.3,4.1-0.3c1.9,0,3.2,0.4,4.1,1.1c0.9,0.7,1.4,1.8,1.4,3.1c0,1.3-0.4,2.4-1.2,3.2
		c-1,1-2.6,1.4-4.4,1.4c-0.4,0-0.8,0-1-0.1v4.8h-3V71.5z M142,77.6c0.3,0.1,0.6,0.1,1,0.1c1.6,0,2.6-0.8,2.6-2.2c0-1.2-0.9-2-2.4-2
		c-0.6,0-1,0.1-1.3,0.1V77.6z"/>
	<polygon class="st0" points="158.6,79.1 153.6,79.1 153.6,82.3 159.1,82.3 159.1,84.8 150.6,84.8 150.6,71.3 158.9,71.3 
		158.9,73.8 153.6,73.8 153.6,76.6 158.6,76.6 	"/>
	<path class="st0" d="M171.7,71.3v13.4h-3V73.8h-3.1V77c0,3.4-0.4,6.1-2.5,7.3c-0.7,0.4-1.6,0.7-2.7,0.7l-0.4-2.5
		c0.7-0.1,1.2-0.4,1.5-0.7c0.8-0.8,1-2.6,1-4.6v-5.9H171.7z"/>
	<path class="st0" d="M177.4,71.3V76c0.4,0,1.1-0.1,1.6-0.1c2.9,0,5.3,1.4,5.3,4.4c0,1.3-0.4,2.2-1.1,2.9c-1.3,1.3-3.5,1.7-5.6,1.7
		c-1.5,0-2.6-0.1-3.3-0.2V71.3H177.4z M177.3,82.6c0.3,0.1,0.7,0.1,1.1,0.1c1.5,0,2.7-0.7,2.7-2.2c0-1.5-1.2-2.2-2.6-2.2
		c-0.4,0-0.8,0-1.2,0.1V82.6z"/>
	<path class="st0" d="M195.3,71.3v2.5h-5.9v2.3c0.5-0.1,1.1-0.1,1.6-0.1c1.4,0,2.8,0.3,3.8,1.1c0.9,0.7,1.6,1.7,1.6,3.2
		c0,1.3-0.5,2.3-1.3,3c-1.3,1.2-3.4,1.6-5.5,1.6c-1.5,0-2.6-0.1-3.3-0.2V71.3H195.3z M189.4,82.6c0.3,0.1,0.8,0.1,1.2,0.1
		c0.7,0,1.5-0.2,2-0.7c0.4-0.4,0.7-0.9,0.7-1.6c0-0.7-0.3-1.2-0.7-1.5c-0.5-0.4-1.3-0.6-2-0.6c-0.3,0-0.7,0-1.1,0.1V82.6z"/>
	<path class="st0" d="M201.4,71.3V76c0.4-0.1,1-0.1,1.5-0.1c2.8,0,5.3,1.4,5.3,4.4c0,1.3-0.4,2.2-1.1,2.9c-1.3,1.3-3.5,1.7-5.5,1.7
		c-1.5,0-2.6-0.1-3.2-0.2V71.3H201.4z M201.4,82.6c0.3,0.1,0.6,0.1,1,0.1c1.3,0,2.6-0.8,2.6-2.3c0-1.5-1.4-2.2-2.6-2.2
		c-0.4,0-0.8,0-1.1,0.1V82.6z M212.5,84.8h-3V71.3h3V84.8z"/>
	<polygon class="st0" points="228.3,71.3 228.3,73.8 223.2,73.8 223.2,84.8 220.1,84.8 220.1,71.3 	"/>
	<path class="st0" d="M241.5,77.9c0,4.4-2.7,7.1-6.6,7.1c-4,0-6.3-3-6.3-6.8c0-4,2.6-7,6.5-7C239.3,71.1,241.5,74.2,241.5,77.9
		 M231.8,78.1c0,2.6,1.2,4.5,3.3,4.5c2.1,0,3.2-2,3.2-4.6c0-2.4-1.2-4.5-3.2-4.5C233,73.5,231.8,75.5,231.8,78.1"/>
	<path class="st0" d="M243.5,71.5c0.9-0.2,2.3-0.3,4.1-0.3c1.9,0,3.2,0.4,4.1,1.1c0.9,0.7,1.4,1.8,1.4,3.1c0,1.3-0.4,2.4-1.2,3.2
		c-1,1-2.6,1.4-4.4,1.4c-0.4,0-0.8,0-1-0.1v4.8h-3V71.5z M246.5,77.6c0.3,0.1,0.6,0.1,1,0.1c1.6,0,2.6-0.8,2.6-2.2
		c0-1.2-0.9-2-2.4-2c-0.6,0-1,0.1-1.3,0.1V77.6z"/>
	<path class="st0" d="M267.4,77.9c0,4.4-2.7,7.1-6.6,7.1c-4,0-6.3-3-6.3-6.8c0-4,2.6-7,6.5-7C265.1,71.1,267.4,74.2,267.4,77.9
		 M257.6,78.1c0,2.6,1.2,4.5,3.3,4.5c2.1,0,3.2-2,3.2-4.6c0-2.4-1.2-4.5-3.2-4.5C258.8,73.5,257.6,75.5,257.6,78.1"/>
	<path class="st0" d="M279.5,71.3v11l1.3,0.1l-0.1,5.7h-2.3l-0.2-3.4h-7.9l-0.2,3.4h-2.3l-0.1-5.7l1.1-0.1c0.5-1,1-1.9,1.3-3
		c0.4-1.4,0.5-2.8,0.5-4.5v-3.6H279.5z M273.5,75.6c0,1.6-0.2,3.1-0.6,4.4c-0.2,0.8-0.6,1.6-0.9,2.3h4.5v-8.5h-2.9V75.6z"/>
	<path class="st0" d="M285.9,81.3l-1,3.5h-3.2l4.1-13.4h4l4.2,13.4h-3.3l-1-3.5H285.9z M289.3,79.1l-0.8-2.9
		c-0.2-0.8-0.5-1.8-0.7-2.6h0c-0.2,0.8-0.4,1.8-0.6,2.6l-0.8,2.9H289.3z"/>
	<path class="st0" d="M311.2,79.6c-0.1-1.6-0.1-3.6-0.1-5.5H311c-0.4,1.7-1,3.6-1.5,5.2l-1.6,5.2h-2.4l-1.4-5.2
		c-0.4-1.6-0.9-3.5-1.2-5.2h0c-0.1,1.8-0.1,3.9-0.2,5.6l-0.2,5.1h-2.8l0.9-13.4h4l1.3,4.5c0.4,1.6,0.8,3.2,1.1,4.8h0.1
		c0.4-1.6,0.8-3.3,1.3-4.8l1.4-4.5h4l0.7,13.4h-3L311.2,79.6z"/>
	<path class="st0" d="M328.9,77.9c0,4.4-2.7,7.1-6.6,7.1c-4,0-6.3-3-6.3-6.8c0-4,2.6-7,6.5-7C326.7,71.1,328.9,74.2,328.9,77.9
		 M319.2,78.1c0,2.6,1.2,4.5,3.3,4.5c2.1,0,3.2-2,3.2-4.6c0-2.4-1.2-4.5-3.2-4.5C320.4,73.5,319.2,75.5,319.2,78.1"/>
	<path class="st0" d="M340.8,84.4c-0.6,0.3-1.8,0.6-3.4,0.6c-4.6,0-7-2.9-7-6.7c0-4.6,3.3-7.1,7.3-7.1c1.6,0,2.8,0.3,3.3,0.6
		l-0.6,2.4c-0.6-0.3-1.5-0.5-2.6-0.5c-2.4,0-4.3,1.5-4.3,4.4c0,2.7,1.6,4.4,4.3,4.4c0.9,0,1.9-0.2,2.5-0.4L340.8,84.4z"/>
	<path class="st0" d="M345.8,71.3v5.6h0.3l3.7-5.6h3.7l-4.7,6c1.7,0.4,2.5,1.6,3.1,3.3c0.5,1.4,0.9,2.9,1.6,4.2h-3.3
		c-0.5-0.9-0.7-2-1-3c-0.5-1.5-1.1-2.7-2.7-2.7h-0.6v5.6h-3V71.3H345.8z"/>
	<path class="st0" d="M354.8,71.5c0.8-0.2,2.4-0.3,3.9-0.3c1.9,0,3,0.2,4,0.8c0.9,0.5,1.6,1.4,1.6,2.6c0,1.2-0.7,2.3-2.2,2.9v0
		c1.5,0.4,2.7,1.6,2.7,3.3c0,1.2-0.6,2.2-1.4,2.9c-1,0.8-2.6,1.2-5.3,1.2c-1.5,0-2.6-0.1-3.3-0.2V71.5z M357.8,76.7h1
		c1.6,0,2.5-0.7,2.5-1.7c0-1-0.8-1.6-2.2-1.6c-0.7,0-1,0-1.3,0.1V76.7z M357.8,82.6c0.3,0,0.7,0,1.2,0c1.4,0,2.6-0.5,2.6-1.9
		c0-1.4-1.2-1.9-2.7-1.9h-1V82.6z"/>
	<path class="st0" d="M369.9,71.3V76c0.4-0.1,1-0.1,1.5-0.1c2.8,0,5.3,1.4,5.3,4.4c0,1.3-0.4,2.2-1.1,2.9c-1.3,1.3-3.5,1.7-5.5,1.7
		c-1.5,0-2.6-0.1-3.3-0.2V71.3H369.9z M369.9,82.6c0.3,0.1,0.6,0.1,1,0.1c1.3,0,2.6-0.8,2.6-2.3c0-1.5-1.4-2.2-2.6-2.2
		c-0.4,0-0.8,0-1.1,0.1V82.6z M381,84.8h-3V71.3h3V84.8z"/>
	<path class="st1" d="M49.3,16.6c-18.7,0-33.9,15.2-33.9,33.9s15.2,33.9,33.9,33.9s33.9-15.2,33.9-33.9S68,16.6,49.3,16.6
		 M49.3,78.7c-15.6,0-28.2-12.6-28.2-28.2c0-15.6,12.6-28.2,28.2-28.2c15.6,0,28.2,12.6,28.2,28.2C77.5,66.1,64.9,78.7,49.3,78.7"/>
	<path class="st1" d="M49.3,31.6c-10.4,0-18.9,8.4-18.9,18.9c0,10.4,8.4,18.9,18.9,18.9c10.4,0,18.9-8.4,18.9-18.9
		C68.2,40.1,59.7,31.6,49.3,31.6 M49.3,63.7c-7.3,0-13.2-5.9-13.2-13.2c0-7.3,5.9-13.2,13.2-13.2c7.3,0,13.2,5.9,13.2,13.2
		C62.5,57.8,56.6,63.7,49.3,63.7"/>
	<path class="st1" d="M50.8,47.3c-1.8-0.8-3.8,0-4.6,1.7c-0.8,1.8,0,3.8,1.7,4.6c1.8,0.8,3.8,0,4.6-1.7
		C53.3,50.2,52.5,48.1,50.8,47.3"/>
	<path class="st1" d="M45.7,7.3V1.2C21.3,3,1.8,22.5,0,46.9h6.1C7.9,25.8,24.6,9,45.7,7.3"/>
	<path class="st1" d="M92.5,46.9h6.1C96.8,22.5,77.4,3,53,1.2v6.1C74,9,90.8,25.8,92.5,46.9"/>
	<path class="st1" d="M6.1,54.1H0C1.8,78.5,21.3,98,45.7,99.8v-6.1C24.6,92,7.9,75.2,6.1,54.1"/>
	<path class="st1" d="M53,93.7v6.1C77.4,98,96.8,78.5,98.6,54.1h-6.1C90.8,75.2,74,92,53,93.7"/>
</g>
</svg>
